<?xml version="1.0" encoding="UTF-8" standalone="no"?>
<!-- Created with Inkscape (http://www.inkscape.org/) -->

<svg
   width="307.29001pt"
   height="241.685pt"
   viewBox="0 0 108.40508 85.261096"
   version="1.1"
   id="svg1"
   inkscape:version="1.4.2 (ebf0e940d0, 2025-05-08)"
   sodipodi:docname="rnglr3.svg"
   xmlns:inkscape="http://www.inkscape.org/namespaces/inkscape"
   xmlns:sodipodi="http://sodipodi.sourceforge.net/DTD/sodipodi-0.dtd"
   xmlns="http://www.w3.org/2000/svg"
   xmlns:svg="http://www.w3.org/2000/svg">
  <sodipodi:namedview
     id="namedview1"
     pagecolor="#ffffff"
     bordercolor="#666666"
     borderopacity="1.0"
     inkscape:showpageshadow="2"
     inkscape:pageopacity="0.0"
     inkscape:pagecheckerboard="0"
     inkscape:deskcolor="#d1d1d1"
     inkscape:document-units="mm"
     inkscape:zoom="4"
     inkscape:cx="266.25"
     inkscape:cy="128.375"
     inkscape:window-width="1265"
     inkscape:window-height="1396"
     inkscape:window-x="1285"
     inkscape:window-y="34"
     inkscape:window-maximized="1"
     inkscape:current-layer="layer1" />
  <defs
     id="defs1">
    <rect
       x="62.963443"
       y="27.127867"
       width="1.3396477"
       height="16.410685"
       id="rect98" />
    <rect
       x="28.467514"
       y="26.458043"
       width="336.25158"
       height="74.350449"
       id="rect97" />
    <marker
       style="overflow:visible"
       id="ArrowWideRounded"
       refX="0"
       refY="0"
       orient="auto-start-reverse"
       inkscape:stockid="Wide, rounded arrow"
       markerWidth="1"
       markerHeight="1"
       viewBox="0 0 1 1"
       inkscape:isstock="true"
       inkscape:collect="always"
       preserveAspectRatio="xMidYMid">
      <path
         style="fill:none;stroke:context-stroke;stroke-width:1;stroke-linecap:round"
         d="M 3,-3 0,0 3,3"
         transform="rotate(180,0.125,0)"
         sodipodi:nodetypes="ccc"
         id="path81-3" />
    </marker>
    <marker
       style="overflow:visible"
       id="marker104"
       refX="0"
       refY="0"
       orient="auto-start-reverse"
       inkscape:stockid="Wide, rounded arrow"
       markerWidth="1"
       markerHeight="1"
       viewBox="0 0 1 1"
       inkscape:isstock="true"
       inkscape:collect="always"
       preserveAspectRatio="xMidYMid">
      <path
         style="fill:none;stroke:context-stroke;stroke-width:1;stroke-linecap:round"
         d="M 3,-3 0,0 3,3"
         transform="rotate(180,0.125,0)"
         sodipodi:nodetypes="ccc"
         id="path104-0" />
    </marker>
    <marker
       style="overflow:visible"
       id="marker106"
       refX="0"
       refY="0"
       orient="auto-start-reverse"
       inkscape:stockid="Wide, rounded arrow"
       markerWidth="1"
       markerHeight="1"
       viewBox="0 0 1 1"
       inkscape:isstock="true"
       inkscape:collect="always"
       preserveAspectRatio="xMidYMid">
      <path
         style="fill:none;stroke:context-stroke;stroke-width:1;stroke-linecap:round"
         d="M 3,-3 0,0 3,3"
         transform="rotate(180,0.125,0)"
         sodipodi:nodetypes="ccc"
         id="path106-6" />
    </marker>
    <marker
       style="overflow:visible"
       id="marker112"
       refX="0"
       refY="0"
       orient="auto-start-reverse"
       inkscape:stockid="Wide, rounded arrow"
       markerWidth="1"
       markerHeight="1"
       viewBox="0 0 1 1"
       inkscape:isstock="true"
       inkscape:collect="always"
       preserveAspectRatio="xMidYMid">
      <path
         style="fill:none;stroke:context-stroke;stroke-width:1;stroke-linecap:round"
         d="M 3,-3 0,0 3,3"
         transform="rotate(180,0.125,0)"
         sodipodi:nodetypes="ccc"
         id="path112-1" />
    </marker>
  </defs>
  <g
     inkscape:label="Layer 1"
     inkscape:groupmode="layer"
     id="layer1">
    <text
       xml:space="preserve"
       style="font-size:3.52777px;line-height:1.25;font-family:'Open Sans';-inkscape-font-specification:'Open Sans';letter-spacing:0px;word-spacing:0px;stroke-width:0.264583"
       x="8.7725992"
       y="11.962636"
       id="text94"><tspan
         id="tspan94"
         style="stroke-width:0.264583"
         sodipodi:role="line" /></text>
    <text
       xml:space="preserve"
       transform="scale(0.26458333)"
       id="text97"
       style="font-size:13.3333px;line-height:1.25;font-family:'Open Sans';-inkscape-font-specification:'Open Sans';letter-spacing:0px;word-spacing:0px;white-space:pre;shape-inside:url(#rect97);display:inline" />
    <text
       xml:space="preserve"
       transform="scale(0.26458333)"
       id="text98"
       style="font-size:13.3333px;line-height:1.25;font-family:'Open Sans';-inkscape-font-specification:'Open Sans';letter-spacing:0px;word-spacing:0px;white-space:pre;shape-inside:url(#rect98);display:inline" />
    <path
       style="fill:#000000;stroke-width:0.264999"
       id="path472"
       d="m 16.829335,22.563828 c -0.284503,0.08631 -0.511709,0.225049 -0.719517,0.435957 -0.176196,0.238561 -0.261747,0.548418 -0.255737,0.845463 0.0013,0.0658 0.01314,0.130976 0.01971,0.196463 0.08338,0.468876 0.3589,0.764424 0.719353,1.049684 0.352213,0.238448 0.7302,0.330933 1.153259,0.282472 0.08229,-0.0094 0.163056,-0.02924 0.244584,-0.04386 0.334251,-0.08123 0.669291,-0.219165 0.90449,-0.480804 0.04325,-0.04812 0.07831,-0.103013 0.11747,-0.154522 0.190971,-0.300614 0.28405,-0.646477 0.258733,-1.002839 -0.0054,-0.07613 -0.02033,-0.151289 -0.0305,-0.226933 -0.05375,-0.279683 -0.155537,-0.549847 -0.365768,-0.750417 -0.09901,-0.09446 -0.241173,-0.183618 -0.354015,-0.259752 -0.325289,-0.180374 -0.687459,-0.298849 -1.063546,-0.245203 -0.07148,0.01019 -0.140715,0.03243 -0.211072,0.04865 -0.219095,0.07679 -0.412931,0.203488 -0.607421,0.326845 -0.11938,0.07582 -0.01216,0.244647 0.107223,0.168828 v 0 c 0.175636,-0.111705 0.350582,-0.226896 0.546484,-0.301104 0.05884,-0.01453 0.116614,-0.03437 0.176518,-0.04356 0.33228,-0.05096 0.651502,0.05419 0.940152,0.211473 0.08855,0.05943 0.235479,0.152847 0.315979,0.226452 0.185148,0.169288 0.269757,0.40486 0.317344,0.645136 0.05965,0.41974 0.03507,0.712872 -0.190212,1.082556 -0.03168,0.04311 -0.05979,0.0891 -0.09506,0.129331 -0.206235,0.235257 -0.506722,0.355674 -0.802727,0.429114 -0.488994,0.09106 -0.808959,0.07869 -1.238172,-0.198985 -0.317498,-0.248748 -0.566881,-0.502872 -0.644267,-0.914111 -0.0063,-0.05367 -0.0176,-0.10699 -0.01903,-0.161015 -0.0066,-0.249129 0.05846,-0.514882 0.19962,-0.71995 0.171734,-0.179562 0.381722,-0.305573 0.619504,-0.380132 0.138054,-0.03068 0.09467,-0.225917 -0.04339,-0.195239 z" />
    <path
       style="fill:#000000;stroke-width:0.264999"
       id="path473"
       d="m 17.441071,23.78157 c -0.0196,0.285467 0.038,0.497822 0.249503,0.69541 0.0288,0.01683 0.05409,0.04223 0.08641,0.0505 0.228325,0.05842 0.349773,-0.154091 0.423176,-0.328157 0.05431,-0.207833 0.0098,-0.462124 -0.157409,-0.612643 -0.03278,-0.02951 -0.07424,-0.04766 -0.111358,-0.07149 -0.206171,-0.04919 -0.357726,0.04336 -0.510259,0.169098 -0.107999,0.0913 0.02112,0.244039 0.129121,0.152736 v 0 c 0.08202,-0.07181 0.168487,-0.137908 0.281153,-0.148619 0.01912,0.0086 0.04091,0.01288 0.05736,0.0259 0.117239,0.09283 0.155809,0.270489 0.126409,0.40899 -0.04586,0.115589 -0.05288,0.123878 -0.132048,0.209701 -0.0049,0.0053 -0.0024,0.02003 -0.0095,0.01937 -0.01855,-0.0016 -0.03338,-0.01654 -0.05007,-0.02479 -0.159368,-0.130445 -0.199425,-0.327988 -0.183453,-0.526103 0.01407,-0.140718 -0.184935,-0.16062 -0.199007,-0.0199 z" />
    <path
       style="fill:#000000;stroke-width:0.264999"
       id="path474"
       d="m 19.274678,24.193836 c 0.378183,-0.0024 0.7565,0.0067 1.134468,-0.0076 0.400336,-0.01696 0.798859,-0.06142 1.19609,-0.112422 0.476972,-0.05364 0.954563,-0.102359 1.432272,-0.149114 0.383045,-0.03368 0.767556,-0.03862 1.151231,-0.0629 0.216792,-0.01373 0.433413,-0.03002 0.650295,-0.04232 0.03963,-0.0021 0.02267,-0.0011 0.05091,-0.003 0.141033,-0.01045 0.126237,-0.209912 -0.0148,-0.199451 v 0 c -0.02429,0.0019 -0.0085,7.94e-4 -0.04743,0.0028 -0.21732,0.01233 -0.434381,0.02862 -0.651612,0.04239 -0.385956,0.02445 -0.772774,0.02923 -1.158079,0.06345 -0.479711,0.04697 -0.95931,0.09585 -1.438273,0.149794 -0.391304,0.05032 -0.783891,0.09414 -1.178255,0.110937 -0.375402,0.01453 -0.751195,0.0047 -1.126817,0.0075 -0.141421,0 -0.141421,0.199999 0,0.199999 z" />
    <path
       style="fill:#000000;stroke-width:0.264999"
       id="path476"
       d="m 19.339722,24.144269 c 0.136826,-0.122782 0.268962,-0.250579 0.408763,-0.370081 0.01349,-0.01122 0.02668,-0.02283 0.04048,-0.03367 0.06714,-0.05279 0.0012,0.04025 -0.101278,-0.04924 -0.02135,-0.01863 -0.0062,-0.05635 -0.0094,-0.08452 -0.06861,0.123664 0.106283,0.220689 0.17489,0.09702 v 0 c 0.0023,-0.03794 0.03048,-0.084 0.0069,-0.113813 -0.0895,-0.113157 -0.176437,-0.02172 -0.241615,0.03222 -0.141046,0.120653 -0.274582,0.249415 -0.412577,0.373425 -0.105117,0.09461 0.02868,0.243266 0.133793,0.148659 z" />
    <path
       style="fill:#000000;stroke-width:0.264999"
       id="path477"
       d="m 19.211665,24.116229 c 0.101587,0.129831 0.214203,0.249462 0.329541,0.366942 0.05395,0.05001 0.0993,0.109794 0.157851,0.154599 0.0152,0.0052 0.0304,0.01048 0.0456,0.01572 0.140257,0.01812 0.165874,-0.180239 0.02562,-0.198353 v 0 c 0.01244,0.0049 0.02489,0.0098 0.03733,0.01466 0.0033,0.0031 0.01239,0.01304 0.0099,0.0093 -0.0076,-0.01148 -0.01929,-0.01963 -0.02894,-0.02946 -0.03488,-0.03551 -0.06976,-0.07103 -0.104636,-0.10655 -0.1106,-0.112654 -0.218798,-0.227142 -0.316084,-0.351769 -0.08835,-0.110432 -0.244519,0.0145 -0.156174,0.124939 z" />
    <path
       style="fill:#000000;stroke-width:0.264999"
       id="path478"
       d="m 24.915633,23.830772 c 0.03515,0.178872 0.114863,0.343025 0.210643,0.49652 0.01984,0.02545 0.03722,0.05304 0.05952,0.07639 0.154076,0.161364 0.33922,0.217162 0.547996,0.2717 0.286171,0.06165 0.578689,0.07193 0.869929,0.05562 0.222358,-0.01926 0.433121,-0.09486 0.610264,-0.23215 0.03018,-0.02339 0.0574,-0.05036 0.08609,-0.07554 0.13694,-0.137645 0.213722,-0.311277 0.240079,-0.502553 0.0055,-0.03977 0.0068,-0.08 0.01023,-0.120001 0.0059,-0.174633 -0.0137,-0.349608 -0.08573,-0.510331 -0.04641,-0.103558 -0.07397,-0.134218 -0.138264,-0.227164 -0.133223,-0.153926 -0.299889,-0.268793 -0.490116,-0.34109 -0.117954,-0.04483 -0.188144,-0.05746 -0.309848,-0.08642 -0.271677,-0.05548 -0.555861,-0.06166 -0.822867,0.02363 -0.05632,0.01799 -0.10971,0.0441 -0.164565,0.06615 -0.201103,0.102754 -0.379701,0.249433 -0.497016,0.444966 -0.06994,0.116578 -0.07026,0.148957 -0.107808,0.278352 -0.03682,0.157612 -0.03662,0.317402 -0.01925,0.477065 0.01591,0.140523 0.214639,0.118025 0.19873,-0.02249 v 0 c -0.0159,-0.133916 -0.01591,-0.268216 0.01317,-0.400812 0.02652,-0.100219 0.02634,-0.126195 0.07896,-0.217336 0.09478,-0.164153 0.243247,-0.287206 0.409038,-0.374661 0.04515,-0.01892 0.08894,-0.04148 0.135441,-0.05675 0.236732,-0.07774 0.488799,-0.07248 0.730202,-0.02344 0.106227,0.02487 0.172481,0.03692 0.275017,0.07472 0.156479,0.0577 0.294769,0.149288 0.407019,0.272753 0.06215,0.08772 0.123478,0.176112 0.154434,0.2808 0.03103,0.10495 0.03515,0.217524 0.03411,0.325964 -0.0151,0.199737 -0.0435,0.338106 -0.183768,0.489135 -0.02255,0.02035 -0.04387,0.04211 -0.06765,0.061 -0.14663,0.116483 -0.321562,0.180049 -0.507255,0.196551 -0.270592,0.01564 -0.54236,0.0063 -0.80851,-0.04957 -0.141349,-0.03612 -0.264258,-0.06956 -0.384101,-0.156089 -0.01975,-0.01426 -0.03975,-0.02855 -0.05692,-0.04583 -0.01776,-0.01786 -0.03149,-0.03932 -0.04724,-0.05898 -0.08273,-0.130456 -0.150996,-0.270709 -0.182688,-0.422961 -0.02325,-0.139496 -0.220528,-0.106616 -0.197279,0.03288 z" />
    <path
       style="fill:#000000;stroke-width:0.264999"
       id="path479"
       d="m 25.8797,23.920813 c 0.09482,-0.105397 0.19217,-0.207778 0.297255,-0.30297 0.05717,-0.0475 0.108795,-0.102904 0.172802,-0.141562 0.03839,-0.02024 0.112235,-0.04129 -0.115391,-0.03052 -0.01124,5.29e-4 0.0075,0.02125 0.01089,0.03196 0.0141,0.04456 0.0272,0.08943 0.0409,0.134109 0.04745,0.165778 0.07997,0.335386 0.113456,0.504415 0.008,0.04117 0.01607,0.08232 0.02333,0.123616 0.02453,0.139277 0.221496,0.104593 0.196969,-0.03469 v 0 c -0.0075,-0.0427 -0.01585,-0.08525 -0.02412,-0.127801 -0.03481,-0.175681 -0.06874,-0.351938 -0.118422,-0.524148 -0.0079,-0.02569 -0.01574,-0.0514 -0.02363,-0.0771 -0.0068,-0.02209 -0.01299,-0.04435 -0.02035,-0.06624 -0.0059,-0.01757 -0.0044,-0.04118 -0.01942,-0.0521 -0.108322,-0.07894 -0.105999,-0.08754 -0.169125,-0.05179 -0.07396,0.04608 -0.136957,0.106434 -0.202243,0.163682 -0.107399,0.09747 -0.207716,0.201541 -0.304333,0.309711 -0.1,0.1 0.04142,0.241421 0.141421,0.14142 z" />
    <path
       style="fill:#000000;stroke-width:0.264999"
       id="path480"
       d="m 21.451952,22.921444 c -0.01879,0.01135 -0.03941,0.02014 -0.05636,0.03408 -0.07866,0.06479 -0.13092,0.151029 -0.117902,0.257442 0.01161,0.09489 0.0539,0.12536 0.111163,0.193781 0.03702,0.02074 0.07121,0.04762 0.111045,0.06222 0.155693,0.05706 0.343413,0.01574 0.471113,-0.08577 0.02812,-0.02236 0.04997,-0.05164 0.07496,-0.07746 0.01597,-0.03026 0.03676,-0.05842 0.04789,-0.09077 0.0338,-0.09821 0.0174,-0.204967 -0.0499,-0.285149 -0.05921,-0.07055 -0.09556,-0.07165 -0.178284,-0.102331 -0.138855,-0.004 -0.207481,0.03535 -0.31784,0.106794 -0.117539,0.07864 -0.0063,0.244869 0.111216,0.166227 v 0 c 0.04639,-0.03264 0.09357,-0.06195 0.146989,-0.08212 0.01323,0.0021 0.02695,0.0024 0.03969,0.0066 0.04632,0.01527 0.07676,0.0536 0.06749,0.104114 -0.0027,0.01468 -0.01016,0.02805 -0.01524,0.04208 -0.0118,0.01466 -0.02145,0.03133 -0.03541,0.04394 -0.08899,0.08038 -0.216834,0.100579 -0.326448,0.05629 -0.0075,-0.0066 -0.07275,-0.06443 -0.07134,-0.08013 0.003,-0.03335 0.03615,-0.06625 0.06144,-0.08417 0.131306,-0.05252 0.05703,-0.238217 -0.07428,-0.185695 z" />
    <path
       style="fill:#000000;stroke-width:0.264999"
       id="path481"
       d="m 21.938396,23.142035 c 0.116511,0.08498 0.276805,0.185865 0.425218,0.18958 0.03657,7.93e-4 0.07268,-0.0085 0.10902,-0.0127 0.08824,-0.02236 0.161815,-0.06712 0.227966,-0.127844 0.102769,-0.09715 -0.03463,-0.242491 -0.137394,-0.145339 v 0 c -0.03497,0.03512 -0.07586,0.06002 -0.123193,0.07586 -0.01476,0.0042 -0.02894,0.01214 -0.04428,0.01262 -0.11222,0.0036 -0.236834,-0.08215 -0.32563,-0.142692 -0.106431,-0.09313 -0.238132,0.05739 -0.131702,0.150516 z" />
    <path
       style="fill:#000000;stroke-width:0.264999"
       id="path482"
       d="m 27.685846,24.031816 c 0.227388,-0.04775 0.455495,-0.08858 0.68626,-0.115951 0.183857,-0.01881 0.368732,-0.0077 0.553082,-0.0091 0.09355,-7.94e-4 0.176294,-0.0038 0.269456,-0.0066 0.222658,-0.0064 0.444445,-0.03079 0.665721,-0.05522 0.155432,-0.01752 0.311012,-0.03374 0.466791,-0.04786 0.0689,-0.0042 0.137708,-0.0095 0.206582,-0.01461 0.09829,-0.0051 0.196334,-0.01045 0.294184,-0.0214 0.03027,0.003 0.07494,-0.01884 0.104373,-0.0093 0.0778,0.008 0.15475,0.02159 0.232569,0.02962 0.06146,0.0057 0.123089,0.0095 0.184767,0.0118 0.0097,2.65e-4 0.01947,5.29e-4 0.0292,2.65e-4 0.141264,-0.0066 0.131853,-0.206434 -0.0094,-0.199779 v 0 c 0.0011,-2.4e-5 0.0042,-5.3e-5 0.0031,-5.3e-5 -0.0052,0 -0.01029,-2.44e-4 -0.01545,-2.65e-4 -0.05739,-0.0021 -0.114739,-0.0057 -0.171934,-0.0109 -0.07857,-0.0079 -0.1562,-0.02228 -0.234802,-0.02984 -0.04881,-0.0028 -0.09639,0.0024 -0.144759,0.0098 -0.09531,0.01071 -0.19082,0.01553 -0.286565,0.02072 -0.07001,0.0052 -0.139914,0.01066 -0.209952,0.01487 -0.15708,0.01424 -0.31396,0.03058 -0.470691,0.04825 -0.216024,0.02389 -0.432554,0.04781 -0.649927,0.0541 -0.08848,0.0027 -0.173924,0.0059 -0.262539,0.0065 -0.192481,0.0013 -0.385527,-0.01 -0.577451,0.01048 -0.232275,0.0277 -0.462155,0.06775 -0.690925,0.116559 -0.14,0.02 -0.111716,0.21799 0.02828,0.19799 z" />
    <path
       style="fill:#000000;stroke-width:0.264999"
       id="path483"
       d="m 27.792051,23.458768 c -0.09841,0.09075 -0.181133,0.196302 -0.261219,0.303064 -0.0374,0.05487 -0.08396,0.112546 -0.06233,0.185407 0.01751,0.05898 0.04998,0.07222 0.09411,0.103309 0.122853,0.06273 0.241292,0.133065 0.359801,0.203483 0.08052,0.04539 0.158827,0.09485 0.233898,0.148799 0.01736,0.01535 0.03812,0.02249 0.0594,0.03058 0.135401,0.04083 0.193138,-0.150659 0.05774,-0.191485 v 0 c 0.0046,0.0026 0.02764,0.0177 -5.03e-4,-0.0016 -0.07981,-0.05723 -0.162826,-0.110011 -0.248366,-0.158266 -0.117139,-0.06959 -0.233911,-0.139771 -0.355753,-0.201012 -0.0037,-0.0011 -0.01034,-0.0067 -0.01102,-0.0029 -0.0017,0.0094 0.0043,0.01873 0.0065,0.02809 -0.0029,0.01193 -0.0059,0.02387 -0.0088,0.0358 -5.55e-4,0.0019 -4.49e-4,-0.0043 4.77e-4,-0.0061 0.0042,-0.0083 0.0095,-0.01588 0.01449,-0.02365 0.0066,-0.01029 0.01362,-0.02035 0.02043,-0.03052 0.0717,-0.09568 0.145343,-0.190595 0.232903,-0.272526 0.106431,-0.09313 -0.02527,-0.243641 -0.1317,-0.150516 z" />
    <path
       style="fill:#000000;stroke-width:0.264999"
       id="path484"
       d="m 31.39095,23.672872 c 0.04276,0.147404 0.13225,0.27745 0.229712,0.394041 0.121862,0.142417 0.283966,0.232547 0.447569,0.318 0.173725,0.08048 0.359238,0.144052 0.55314,0.14042 0.03651,-7.94e-4 0.07279,-0.006 0.109181,-0.0089 0.123698,-0.01902 0.242136,-0.06272 0.347763,-0.130125 0.06019,-0.03841 0.087,-0.06363 0.141689,-0.109143 0.0828,-0.07737 0.164524,-0.157834 0.229246,-0.251481 0.03345,-0.04839 0.06073,-0.09901 0.08972,-0.150045 0.08862,-0.164754 0.147642,-0.343009 0.153252,-0.531305 0.0013,-0.04388 -0.003,-0.08775 -0.0044,-0.131627 -0.0061,-0.04093 -0.0078,-0.08275 -0.01828,-0.122786 -0.03463,-0.13236 -0.106199,-0.260392 -0.204285,-0.356115 -0.09218,-0.08995 -0.13802,-0.106043 -0.249039,-0.168244 -0.230277,-0.108283 -0.464648,-0.127878 -0.714505,-0.09422 -0.04834,0.0065 -0.0961,0.01675 -0.144155,0.02511 -0.180136,0.04355 -0.375801,0.08586 -0.535308,0.185352 -0.110434,0.06888 -0.151095,0.118279 -0.243165,0.208227 -0.124667,0.142785 -0.240967,0.298413 -0.299228,0.481409 -0.03143,0.09872 -0.03087,0.137814 -0.04122,0.236681 -0.0078,0.07532 0.0024,0.146343 0.02133,0.218585 0.03951,0.135792 0.231542,0.07993 0.192037,-0.05587 v 0 c -0.01662,-0.04639 -0.01696,-0.09413 -0.01431,-0.143253 0.0064,-0.07214 0.0064,-0.110784 0.02802,-0.182272 0.04758,-0.157358 0.148651,-0.289803 0.253823,-0.412898 0.06362,-0.06348 0.115951,-0.122975 0.192211,-0.171754 0.143106,-0.09153 0.318503,-0.12678 0.480523,-0.167246 0.263203,-0.04698 0.476645,-0.06583 0.727726,0.04747 0.08359,0.04466 0.123648,0.05905 0.193517,0.123192 0.07217,0.06625 0.131834,0.161595 0.158363,0.256302 0.0091,0.0326 0.01074,0.06685 0.01611,0.10028 0.0016,0.03538 0.0057,0.07071 0.0051,0.106122 -0.003,0.159872 -0.05305,0.310377 -0.128029,0.450244 -0.01836,0.03246 -0.05288,0.09535 -0.07468,0.127283 -0.05585,0.08183 -0.127085,0.15168 -0.198649,0.21948 -0.118851,0.100171 -0.221935,0.166724 -0.378775,0.193415 -0.07437,0.0073 -0.09586,0.01294 -0.171199,0.0059 -0.133498,-0.01246 -0.259865,-0.0607 -0.380968,-0.115531 -0.140602,-0.07316 -0.281548,-0.148002 -0.387141,-0.269592 -0.07696,-0.09026 -0.147259,-0.191648 -0.186483,-0.304329 -0.02774,-0.138673 -0.223851,-0.09945 -0.196118,0.03923 z" />
    <path
       style="fill:#000000;stroke-width:0.264999"
       id="path485"
       d="m 29.357268,22.71391 c -0.101137,0.08021 -0.169778,0.203706 -0.136546,0.336413 0.0073,0.02928 0.02363,0.05557 0.03542,0.08335 0.01881,0.02207 0.03496,0.04668 0.05641,0.06619 0.09473,0.08616 0.224665,0.108487 0.323291,0.01103 0.02461,-0.02429 0.03572,-0.0592 0.05358,-0.0888 0.0074,-0.02949 0.02093,-0.0581 0.02212,-0.08848 0.0049,-0.126378 -0.06933,-0.261779 -0.179256,-0.32453 -0.02424,-0.01384 -0.05218,-0.01979 -0.07827,-0.02971 -0.02395,-0.0013 -0.04789,-0.0027 -0.07184,-0.004 -0.141401,0.0024 -0.13811,0.202297 0.0033,0.199972 v 0 c 0.0027,-0.0019 0.0053,-0.0035 0.008,-0.0053 0.06157,0.007 0.07922,0.04536 0.108016,0.09585 0.0049,0.0087 0.01299,0.01643 0.01437,0.02635 0.0019,0.01328 -0.0034,0.0266 -0.0051,0.0399 -0.01656,0.0982 -0.0033,-0.02278 0.0071,0.03909 0.005,0.02994 -0.08516,-0.01802 -0.08276,-0.02669 -0.05041,-0.06298 -0.0191,-0.115347 0.03304,-0.164176 0.117668,-0.07845 0.0067,-0.244856 -0.11094,-0.16641 z" />
    <path
       style="fill:#000000;stroke-width:0.264999"
       id="path486"
       d="m 29.634355,23.016364 c 0.126752,0.0746 0.246227,0.160557 0.375338,0.231124 0.0872,0.03894 0.180531,0.04787 0.266004,-0.0013 0.0163,-0.0094 0.03,-0.0227 0.045,-0.03407 0.108474,-0.09074 -0.01984,-0.244144 -0.128325,-0.153402 v 0 c -0.02233,0.03229 -0.05249,0.02747 -0.08715,0.01315 -0.126942,-0.06857 -0.243107,-0.154699 -0.367959,-0.226906 -0.121269,-0.07276 -0.224168,0.09874 -0.102899,0.171497 z" />
    <path
       style="fill:#000000;stroke-width:0.264999"
       id="path487"
       d="m 32.225475,23.675888 c 0.117322,-0.07706 0.233958,-0.15517 0.346578,-0.238985 0.03802,-0.02945 0.07677,-0.05817 0.112697,-0.0902 0.0016,-0.0016 0.0068,-0.0037 0.0048,-0.0045 -0.05558,-0.02101 -0.111125,-0.04287 -0.168722,-0.05744 -0.0048,-0.0013 -1.04e-4,0.0098 -1.49e-4,0.01471 -9.7e-5,0.01077 -1.93e-4,0.02156 -2.64e-4,0.03233 -5.29e-4,0.07137 -7.94e-4,0.03369 0.0019,0.117875 0.0063,0.141055 0.01535,0.281945 0.0096,0.423132 -0.0013,0.04229 -0.0067,0.08422 -0.01138,0.126217 -0.0072,0.07276 -0.01117,0.02611 0.141007,-0.06257 -0.12142,-0.0725 -0.223957,0.09921 -0.102534,0.171717 v 0 c 0.164129,-0.07614 0.153085,-0.01656 0.160324,-0.08725 0.0051,-0.04664 0.01093,-0.09324 0.01243,-0.140203 0.0057,-0.146201 -0.0027,-0.292089 -0.0096,-0.438145 -0.0019,-0.04776 -0.0019,-0.09503 -0.0016,-0.14279 2.9e-5,-0.0083 0.007,-0.02053 -8.8e-5,-0.02479 -0.05321,-0.03189 -0.220855,-0.04153 -0.169357,-0.07719 -0.03113,0.02828 -0.06577,0.05251 -0.09861,0.07868 -0.108215,0.08063 -0.220454,0.155551 -0.333126,0.229793 -0.119925,0.07495 -0.01392,0.244555 0.106,0.169601 z" />
    <path
       style="fill:#000000;stroke-width:0.264999"
       id="path488"
       d="m 32.496184,24.593082 c 0.0011,0.204422 0.01421,0.408657 0.02913,0.612476 0.01979,0.289459 0.02722,0.579339 0.05659,0.868077 0.03348,0.240403 0.04866,0.482412 0.06615,0.724278 0.01101,0.153839 0.02687,0.307271 0.04083,0.460859 0.0079,0.06293 0.0075,0.126235 0.0078,0.189524 1.43e-4,0.0809 1.46e-4,0.161803 -1.16e-4,0.242705 0.0019,-0.01101 0.0037,-0.02201 0.0055,-0.03303 -0.05603,0.12985 0.127609,0.209085 0.183637,0.07924 v 0 c 0.0036,-0.01519 0.0073,-0.03037 0.01088,-0.04556 2.64e-4,-0.08139 2.62e-4,-0.162788 1.16e-4,-0.244179 -2.65e-4,-0.06905 -2.2e-4,-0.138131 -0.0086,-0.206801 -0.01384,-0.152368 -0.02959,-0.304583 -0.04053,-0.457197 -0.01767,-0.243824 -0.03297,-0.487802 -0.06667,-0.730157 -0.02941,-0.286814 -0.03604,-0.574855 -0.05609,-0.862378 -0.0146,-0.198954 -0.02746,-0.398317 -0.02859,-0.597855 0,-0.141423 -0.200001,-0.141423 -0.200001,0 z" />
    <path
       style="fill:#000000;stroke-width:0.264999"
       id="path489"
       d="m 32.322279,25.107247 c 0.07186,-0.149122 0.138125,-0.300784 0.205636,-0.451896 0.02892,-0.06004 0.05054,-0.123441 0.07842,-0.183922 0.0078,-0.01683 0.02455,-0.04924 0.02135,-0.03298 -0.02572,0.02924 0.02453,-0.02551 -0.08608,0.02098 -0.0055,0.0024 0.0068,0.0098 0.01074,0.01431 0.01119,0.01275 0.02365,0.02437 0.03461,0.03732 0.03816,0.04517 0.05922,0.07708 0.09439,0.126336 0.09402,0.139735 0.185676,0.281064 0.272013,0.425688 0.01701,0.02852 0.03225,0.05787 0.05124,0.0851 0.08632,0.112022 0.244742,-0.01005 0.158419,-0.122076 v 0 c 0.0145,0.02681 -0.04052,-0.07526 -0.03794,-0.06556 -0.08921,-0.149368 -0.183817,-0.295404 -0.28113,-0.439608 -0.04775,-0.06649 -0.09434,-0.135091 -0.153737,-0.192098 -0.0159,-0.01527 -0.02881,-0.03697 -0.0499,-0.04338 -0.106778,-0.03245 -0.09943,-0.02875 -0.152492,0.01003 -0.07291,0.08035 -0.09665,0.181647 -0.1425,0.278265 -0.06733,0.150717 -0.133432,0.301979 -0.205102,0.450712 -0.05852,0.128746 0.123553,0.211508 0.182073,0.08276 z" />
    <path
       style="fill:#000000;stroke-width:0.264999"
       id="path490"
       d="m 33.549929,25.557472 c -0.07793,0.08223 -0.151452,0.176371 -0.168949,0.291857 -0.004,0.02659 -0.0021,0.05375 -0.0033,0.08062 0.0056,0.02735 0.0064,0.05615 0.01688,0.08205 0.05661,0.140345 0.194146,0.224739 0.317461,0.298862 0.03776,0.02686 0.09834,0.04396 0.121896,0.08868 0.0057,0.01085 -0.006,0.03743 -0.01199,0.04639 -0.03627,0.04215 -0.09418,0.04811 -0.14591,0.0564 -0.07459,0.0094 -0.150503,5.8e-5 -0.223001,-0.01847 -0.0061,-0.0027 -0.01225,-0.0054 -0.01836,-0.0081 -0.131755,-0.05139 -0.204431,0.134938 -0.07268,0.186328 v 0 c 0.01453,0.0053 0.02904,0.01069 0.04356,0.01606 0.09938,0.02355 0.20197,0.0364 0.3038,0.02141 0.141497,-0.02477 0.248748,-0.06599 0.307398,-0.208304 0.01082,-0.06695 0.02291,-0.08902 2.65e-4,-0.15548 -0.03306,-0.09732 -0.116835,-0.15032 -0.202356,-0.196514 -0.07332,-0.04365 -0.141406,-0.08791 -0.201517,-0.148973 -0.0083,-0.0084 -0.0182,-0.01574 -0.02439,-0.02588 -0.0059,-0.0097 -0.0074,-0.02151 -0.01114,-0.03229 -7.93e-4,-0.01233 -0.0028,-0.02466 -0.0021,-0.03699 0.0049,-0.07894 0.06616,-0.140607 0.115686,-0.196236 0.1,-0.100002 -0.04142,-0.241422 -0.141422,-0.141422 z" />
    <path
       style="fill:#000000;stroke-width:0.264999"
       id="path491"
       d="m 32.865211,27.685135 c -0.146446,-0.0062 -0.292354,-0.0013 -0.437221,0.02098 -0.179689,0.03661 -0.321241,0.157353 -0.451522,0.279212 -0.06741,0.06527 -0.123798,0.140785 -0.152572,0.231117 -0.0173,0.05435 -0.02056,0.09022 -0.02898,0.145891 -0.01151,0.118843 -0.01587,0.239876 0.0031,0.358328 0.01524,0.0949 0.02768,0.122293 0.05663,0.21291 0.07564,0.191053 0.218829,0.334521 0.374674,0.46219 0.121354,0.09808 0.264483,0.153363 0.413708,0.192278 0.08448,0.01622 0.171357,0.03512 0.258079,0.02996 0.07587,-0.0045 0.104275,-0.01434 0.178912,-0.03135 0.202297,-0.05174 0.374041,-0.166029 0.530291,-0.300371 0.132072,-0.12442 0.206301,-0.28498 0.253386,-0.457115 0.03065,-0.125286 0.03539,-0.255733 0.01532,-0.383233 -0.0051,-0.03205 -0.0131,-0.06356 -0.01963,-0.09535 -0.0094,-0.03076 -0.01601,-0.06257 -0.02837,-0.09229 -0.07096,-0.170711 -0.198099,-0.310094 -0.332851,-0.432562 -0.126966,-0.110172 -0.28344,-0.157318 -0.44513,-0.187565 -0.06592,-0.01349 -0.132276,-0.01111 -0.198863,-0.0075 -0.141153,0.0087 -0.128842,0.208328 0.0123,0.199621 v 0 c 0.05033,-0.0036 0.100319,-0.0058 0.150238,0.0045 0.125344,0.02278 0.248203,0.05504 0.347594,0.139496 0.09171,0.08169 0.173029,0.170043 0.237477,0.275236 0.01365,0.02228 0.02791,0.04441 0.03832,0.06837 0.01035,0.02376 0.01574,0.04936 0.0236,0.07404 0.02789,0.127484 0.04015,0.25731 0.0069,0.385296 -0.03508,0.133729 -0.09044,0.259546 -0.191013,0.35768 -0.131035,0.113946 -0.27477,0.212045 -0.444966,0.256924 -0.04495,0.0108 -0.08484,0.02259 -0.130855,0.02614 -0.07069,0.0055 -0.141753,-0.01132 -0.210719,-0.02363 -0.121412,-0.03092 -0.238239,-0.07415 -0.337204,-0.153559 -0.12627,-0.102634 -0.245914,-0.216294 -0.31088,-0.368903 -0.02238,-0.06792 -0.03611,-0.100721 -0.04791,-0.171415 -0.01707,-0.102159 -0.01357,-0.20655 -0.0043,-0.309174 0.01627,-0.115655 0.03256,-0.176739 0.120478,-0.260122 0.100227,-0.09428 0.208219,-0.194459 0.345477,-0.227476 0.128662,-0.02037 0.258204,-0.02363 0.388342,-0.01942 0.140841,0.01281 0.158949,-0.186376 0.0181,-0.199181 z" />
    <path
       style="fill:#000000;stroke-width:0.264999"
       id="path492"
       d="m 32.521499,28.484978 c 0.08678,-0.0086 0.173821,-0.01542 0.260628,-0.0045 0.01164,-0.0071 0.08938,0.05482 0.05761,0.03683 -0.0021,5.3e-5 -0.0052,-0.0016 -0.0064,1.54e-4 -0.01278,0.02013 -0.01527,0.04519 -0.02302,0.06774 -0.01677,0.04873 -0.03649,0.09566 -0.05786,0.142515 -0.02855,0.06316 -0.06761,0.120078 -0.107038,0.176707 -0.0024,-0.0051 0.01323,-0.0093 0.0186,-0.01111 0.01638,0.06561 0.02315,0.134398 0.04916,0.196819 0.0042,0.01008 0.02183,-5.29e-4 0.03275,-2.3e-4 0.06785,0.0019 0.13581,0.0087 0.203578,0.01249 0.05927,0.0032 0.118549,0.0065 0.177882,0.0084 0.08859,0.0024 0.02432,0.0042 0.02267,-0.201028 -0.139751,-0.02167 -0.170416,0.175953 -0.03067,0.197636 v 0 c 0.03524,-0.207457 0.09779,-0.194202 0.01437,-0.196509 -0.05767,-0.0019 -0.115269,-0.0051 -0.172874,-0.0082 -0.07205,-0.0041 -0.144208,-0.01085 -0.216347,-0.01281 -0.0109,-2.65e-4 -0.03099,-0.01053 -0.03272,2.27e-4 -0.01045,0.06488 5.29e-4,0.131434 0.0011,0.197152 0.03949,-0.01206 0.07162,-0.03561 0.09683,-0.06861 0.04634,-0.0666 0.09151,-0.134106 0.125023,-0.208346 0.03361,-0.07448 0.09071,-0.201594 0.09842,-0.281614 0.0024,-0.02349 -0.0016,-0.04716 -0.0024,-0.07074 -0.0076,-0.01831 -0.01267,-0.03782 -0.02273,-0.05489 -0.04154,-0.07061 -0.128836,-0.101809 -0.202869,-0.121277 -0.101217,-0.01106 -0.202417,-0.0072 -0.303546,0.0042 -0.140719,0.01408 -0.120817,0.21308 0.0199,0.199009 z" />
    <path
       style="fill:#000000;stroke-width:0.264999"
       id="path493"
       d="m 32.940933,29.696518 c -0.0016,-0.04165 0.0043,-0.09943 0.0118,-0.132781 -0.06365,0.0031 -0.128252,-0.0021 -0.190966,0.0093 -0.0082,0.0016 7.94e-4,0.01667 0.0011,0.02503 5.29e-4,0.01664 7.93e-4,0.03328 0.0011,0.04993 0.0011,0.08596 5.29e-4,0.171937 5.29e-4,0.2579 0.0013,0.214598 -0.0043,0.429241 -0.01683,0.643469 -0.01823,0.183994 -0.01524,0.368686 -0.01257,0.553249 0.0046,0.152154 0.0011,0.304527 0.0083,0.456583 0.0091,0.105141 0.01111,0.210826 0.02069,0.315884 0.0093,0.07406 0.01648,0.148185 0.01934,0.222768 -7.93e-4,0.07894 0.0049,0.157205 0.0131,0.23563 0.0063,0.091 0.01527,0.181769 0.02469,0.272503 0.0019,0.02146 0.0046,0.04283 0.0076,0.06414 0.02032,0.139956 0.218239,0.111231 0.197927,-0.02872 v 0 c -0.0028,-0.01863 -0.0049,-0.03731 -0.0066,-0.05605 -0.0094,-0.09081 -0.01836,-0.181639 -0.02471,-0.272706 -0.0078,-0.0741 -0.01307,-0.147939 -0.01214,-0.222554 -0.0031,-0.07821 -0.01016,-0.156001 -0.02006,-0.233656 -0.0099,-0.101955 -0.01066,-0.204738 -0.02005,-0.306785 -0.0074,-0.149815 -0.0031,-0.300021 -0.008,-0.44994 -0.0026,-0.179712 -0.0057,-0.359534 0.01225,-0.538686 0.01267,-0.218051 0.01863,-0.436512 0.01717,-0.654939 8.5e-5,-0.08738 5.29e-4,-0.174792 -5.29e-4,-0.262168 -2.51e-4,-0.01937 -5.29e-4,-0.03874 -0.0013,-0.05809 -5.29e-4,-0.01437 0.01032,-0.03773 -0.003,-0.04307 -0.0624,-0.0249 -0.132058,-0.02477 -0.198085,-0.03717 -0.01669,0.06191 -0.02035,0.12709 -0.02045,0.190931 0,0.14142 0.199998,0.14142 0.199998,0 z" />
    <path
       style="fill:#000000;stroke-width:0.264999"
       id="path494"
       d="m 32.70929,29.688756 c -0.11089,0.100174 -0.181772,0.230084 -0.251153,0.360076 -0.02059,0.03867 -0.04082,0.07753 -0.06104,0.116391 -0.0024,0.0047 -0.0122,0.01212 -0.0073,0.01394 0.200425,0.07497 0.171151,0.114975 0.206939,0.01606 0.03307,-0.104759 0.08397,-0.201938 0.135612,-0.298426 0.0093,-0.01701 0.01871,-0.03394 0.02782,-0.05104 0.0055,-0.0104 0.05231,-0.112509 0.06401,-0.116099 0.0026,-7.94e-4 -0.0027,0.0048 -0.004,0.0071 -0.0083,0.03224 -0.04237,0.0084 -0.05771,0.02212 -0.004,0.0036 0.0083,0.0067 0.01233,0.01035 0.0089,0.008 0.01773,0.01601 0.02638,0.02424 0.05088,0.04839 0.03698,0.03529 0.08771,0.09214 0.0892,0.100708 0.169924,0.208402 0.252865,0.314174 0.01714,0.02135 0.03458,0.04245 0.05275,0.06293 0.005,0.0056 0.01556,0.0241 0.01532,0.01659 -0.0013,-0.04219 -0.0066,-0.08415 -0.01,-0.12623 -0.08907,0.109847 0.06628,0.23581 0.155347,0.125963 v 0 c -7.94e-4,-0.170133 0.02014,-0.109038 -0.05615,-0.202753 -0.08581,-0.109159 -0.16904,-0.220541 -0.261435,-0.324374 -0.06691,-0.074 -0.16819,-0.201909 -0.281297,-0.194191 -0.02212,0.0016 -0.0414,0.0158 -0.0621,0.02371 -0.01,0.0094 -0.0208,0.01789 -0.0299,0.02809 -0.0493,0.05516 -0.06644,0.132951 -0.108283,0.192926 -0.05618,0.105053 -0.111019,0.211151 -0.147431,0.325007 -0.03365,0.09396 -0.0273,0.04266 0.158578,0.144174 0.0047,0.0026 0.0049,-0.0095 0.0074,-0.01421 0.01553,-0.02985 0.01685,-0.0326 0.0341,-0.06536 0.0086,-0.01635 0.01728,-0.0327 0.0259,-0.04905 0.058,-0.108686 0.114501,-0.218927 0.206412,-0.303729 0.106432,-0.09313 -0.02527,-0.243644 -0.131701,-0.150516 z" />
    <path
       style="fill:#000000;stroke-width:0.264999"
       id="path495"
       d="m 32.893368,32.563284 c -0.118147,0.0052 -0.230571,0.04073 -0.338494,0.08675 -0.123344,0.05396 -0.201092,0.156676 -0.272399,0.265933 -0.07537,0.123574 -0.119806,0.261072 -0.15139,0.401368 -0.01683,0.0989 -0.03409,0.200501 -0.02299,0.301223 0.0081,0.07346 0.01815,0.09381 0.04003,0.163867 0.04552,0.13199 0.111101,0.243771 0.191643,0.356502 0.0892,0.108132 0.217307,0.163547 0.345667,0.210619 0.09572,0.03321 0.195112,0.05598 0.297035,0.05441 0.06969,-0.0011 0.101841,-0.0089 0.169928,-0.02021 0.160891,-0.03221 0.307634,-0.103326 0.442849,-0.194289 0.11665,-0.08345 0.188849,-0.20165 0.250085,-0.32807 0.04974,-0.115324 0.07868,-0.237054 0.09178,-0.361551 -0.0011,-0.127849 -0.01871,-0.260077 -0.06533,-0.380106 -0.0099,-0.02553 -0.02283,-0.04981 -0.03427,-0.07471 -0.07668,-0.145637 -0.192104,-0.238127 -0.326758,-0.326551 -0.120211,-0.07643 -0.253421,-0.125894 -0.389705,-0.164603 -0.07316,-0.02148 -0.146857,-0.02106 -0.222057,-0.01855 -0.141274,0.0064 -0.132167,0.206232 0.0091,0.199792 v 0 c 0.05373,-0.0034 0.106116,-0.0038 0.158618,0.01122 0.116885,0.03276 0.231274,0.07455 0.334589,0.139522 0.100155,0.06515 0.197064,0.13684 0.255246,0.244327 0.05302,0.108593 0.07826,0.228732 0.08158,0.349459 -0.0098,0.101478 -0.03396,0.200343 -0.07292,0.294799 -0.04557,0.0948 -0.09546,0.185565 -0.182245,0.249497 -0.110813,0.07596 -0.231886,0.134636 -0.364061,0.162626 -0.0458,0.008 -0.08174,0.01611 -0.12817,0.01754 -0.08152,0.0026 -0.160461,-0.01601 -0.236963,-0.04254 -0.09014,-0.03243 -0.183928,-0.06808 -0.251296,-0.138953 -0.06759,-0.09453 -0.125815,-0.190625 -0.163976,-0.301483 -0.01355,-0.04036 -0.02527,-0.06822 -0.03056,-0.110416 -0.0105,-0.08349 0.0052,-0.167888 0.01839,-0.249951 0.02569,-0.117126 0.06219,-0.232043 0.123817,-0.335759 0.04932,-0.07612 0.09816,-0.152324 0.183851,-0.191297 0.08889,-0.03877 0.181608,-0.06786 0.279289,-0.07143 0.140722,-0.01407 0.12082,-0.213079 -0.0199,-0.199009 z" />
    <path
       style="fill:#000000;stroke-width:0.264999"
       id="path496"
       d="m 32.847902,33.410835 c 0.04325,-0.05554 0.102209,-0.09394 0.163116,-0.127419 0.02673,-2.64e-4 -0.03169,0.0072 -0.04738,0.0048 -0.01225,-0.0019 -0.02114,-0.01318 -0.03265,-0.01773 -0.01056,-0.0042 -0.004,0.05461 -0.0039,0.05763 -0.0026,0.07612 -0.01667,0.128217 0.06486,0.184227 0.02082,0.01431 0.04994,0.0076 0.07491,0.01146 0.04779,-0.0048 0.0961,-0.0088 0.143915,-0.0016 0.02074,0.0031 0.01905,-0.0019 0.02,0.0085 -0.004,-7.94e-4 -0.0081,-0.0031 -0.01201,-0.0021 -0.0094,0.0026 2.65e-4,0.0195 0.0019,0.02909 0.0059,0.03596 0.0046,0.06968 0.0033,0.106045 9e-5,0.08143 -0.01974,0.102113 -0.08227,0.147682 -0.04928,0.02902 -0.106246,0.03461 -0.162102,0.03911 -0.0061,0.004 -0.09445,-0.0019 -0.03746,0.0034 -0.134718,-0.04302 -0.195559,0.1475 -0.06084,0.190521 v 0 c 0.03881,0.0077 0.07543,0.01029 0.115051,0.0054 0.09431,-0.0082 0.187592,-0.02463 0.267171,-0.07979 0.105846,-0.08367 0.159869,-0.160853 0.160356,-0.30035 0.0024,-0.08927 0.0038,-0.197588 -0.05442,-0.272632 -0.01389,-0.01788 -0.03348,-0.03053 -0.05022,-0.0458 -0.01648,-0.0069 -0.03241,-0.01532 -0.04947,-0.02064 -0.06467,-0.02014 -0.137099,-0.01175 -0.203105,-0.0068 0.0061,0.0038 0.01426,0.0056 0.01841,0.01154 0.01564,0.02236 0.02717,0.04733 0.0397,0.07156 5.3e-4,0.0011 -0.0011,0.004 -0.0011,0.003 5.29e-4,-0.02833 0.005,-0.05665 0.0035,-0.08506 -0.0011,-0.04947 0.0016,-0.114628 -0.02529,-0.158448 -0.04645,-0.07549 -0.108892,-0.09278 -0.187592,-0.05785 -0.08537,0.04754 -0.166193,0.103905 -0.22623,0.182383 -0.08485,0.113138 0.07515,0.233138 0.159999,0.120002 z" />
    <path
       style="fill:#000000;stroke-width:0.264999"
       id="path501"
       d="m 27.009496,24.764288 c 0.05123,0.04382 0.104746,0.08484 0.157331,0.127014 0.05246,0.04461 0.107326,0.08633 0.16239,0.127643 0.04533,0.03475 0.08931,0.07088 0.137244,0.102065 0.05631,0.03843 0.116103,0.0713 0.176236,0.103309 0.0795,0.04277 0.155786,0.09138 0.230205,0.142407 0.133085,0.08645 0.258773,0.183624 0.386398,0.277805 0.13562,0.09976 0.267928,0.203803 0.399189,0.309192 0.08036,0.06808 0.165788,0.130027 0.245368,0.199006 0.08372,0.07375 0.167089,0.147066 0.255039,0.21586 0.153766,0.114536 0.305166,0.232225 0.459952,0.345411 0.179687,0.123386 0.351795,0.257043 0.525386,0.388697 0.16003,0.122571 0.326215,0.236577 0.49303,0.349602 0.171119,0.116369 0.343678,0.230582 0.516091,0.345017 0.107751,0.07536 0.213227,0.153937 0.319667,0.231158 0.04198,0.03411 0.09074,0.05979 0.129201,0.09817 0.03952,0.03825 0.08345,0.07026 0.132845,0.09435 0.02611,0.01413 0.05381,0.02516 0.0817,0.03527 0.0075,0.0026 0.004,0.0013 0.01056,0.0036 0.134363,0.04412 0.196757,-0.145897 0.06239,-0.190019 v 0 c -0.0084,-0.0028 0.01013,0.0035 -0.0051,-0.0016 -0.02175,-0.0078 -0.04332,-0.0164 -0.06354,-0.02768 -0.03127,-0.01416 -0.05707,-0.03625 -0.082,-0.05962 -0.04631,-0.04239 -0.09802,-0.07733 -0.148656,-0.114255 -0.108688,-0.07885 -0.216358,-0.159144 -0.326514,-0.235913 -0.171887,-0.11408 -0.343914,-0.227944 -0.514506,-0.343956 -0.16387,-0.111027 -0.327166,-0.222956 -0.484357,-0.343379 -0.174533,-0.132365 -0.347581,-0.266737 -0.52822,-0.390808 -0.15309,-0.111852 -0.302704,-0.228332 -0.454795,-0.341511 -0.08546,-0.06677 -0.166275,-0.138078 -0.247582,-0.209737 -0.08168,-0.07017 -0.16829,-0.134327 -0.250799,-0.203526 -0.13339,-0.107074 -0.267835,-0.212794 -0.405643,-0.314161 -0.129558,-0.0956 -0.257195,-0.194177 -0.392268,-0.281974 -0.08069,-0.05503 -0.163148,-0.107799 -0.249288,-0.153948 -0.05537,-0.02932 -0.110351,-0.05951 -0.162038,-0.095 -0.0444,-0.02783 -0.0832,-0.06304 -0.125449,-0.09389 -0.05341,-0.0398 -0.106302,-0.08045 -0.157098,-0.123547 -0.0509,-0.04077 -0.102692,-0.08043 -0.152256,-0.122806 -0.107375,-0.09204 -0.237533,0.05982 -0.130158,0.151852 z" />
    <path
       style="fill:#000000;stroke-width:0.264999"
       id="path502"
       d="m 26.885428,24.759272 c -0.02813,0.145597 -0.03261,0.294537 -0.03721,0.442373 -8.4e-5,0.07639 0.0026,0.152759 0.0068,0.22902 8.73e-4,0.01593 0.0018,0.03184 0.0031,0.04773 7.4e-4,0.0089 -0.0057,0.02614 0.0031,0.0265 0.06775,0.0027 0.13506,-0.01212 0.202589,-0.01818 0.02322,-0.157255 0.03188,-0.315825 0.03307,-0.47461 -0.0037,-0.100629 -0.0108,-0.201734 -0.03324,-0.300087 -0.0022,-0.0084 -0.0047,-0.01678 -0.0068,-0.02522 -0.0011,-0.0046 0.005,0.0091 0.0039,0.01379 -0.0045,0.02035 -0.01465,0.03907 -0.02022,0.05915 -0.0013,0.0048 -0.0053,0.01434 -3.7e-4,0.015 0.0206,0.0028 0.04134,-0.0045 0.06201,-0.0067 0.02863,-0.003 0.05728,-0.0058 0.08591,-0.0088 0.218109,-0.01947 0.435888,-0.04235 0.65401,-0.06173 0.04217,-0.0046 0.08472,-0.0081 0.127141,-0.0051 0.0068,5.29e-4 0.01774,0.0021 0.01767,0.0028 -1.46e-4,0.0013 -0.0028,-5.29e-4 -0.0042,-5.29e-4 0.134872,0.04254 0.195032,-0.148196 0.06016,-0.190735 v 0 c -0.07108,-0.01969 -0.146006,-0.01236 -0.218461,-0.0056 -0.219008,0.01947 -0.437673,0.04242 -0.656666,0.06199 -0.120094,0.0123 -0.354859,0.0051 -0.299003,0.196853 0.01961,0.08291 0.02374,0.168703 0.02809,0.253526 -9.79e-4,0.145547 -0.009,0.290698 -0.02882,0.435025 0.06387,0.01143 0.127069,0.02756 0.191604,0.03426 0.0049,5.29e-4 -0.0016,-0.0097 -0.002,-0.01458 -0.0012,-0.01476 -0.0021,-0.02956 -0.0029,-0.04436 -0.0039,-0.07099 -0.0065,-0.142078 -0.0067,-0.213182 0.004,-0.130654 0.0087,-0.26174 0.02887,-0.3911 0.04064,-0.135456 -0.150929,-0.192926 -0.191566,-0.05747 z" />
    <path
       style="fill:#000000;stroke-width:0.264999"
       id="path503"
       d="m 29.576359,27.26771 c -0.114906,0.01371 -0.232746,0.03516 -0.332793,0.09704 -0.02315,0.01431 -0.04383,0.03229 -0.06574,0.04843 -0.01798,0.01834 -0.03906,0.03409 -0.05395,0.05501 -0.0558,0.07838 -0.07573,0.172003 -0.0508,0.265655 0.01925,0.07232 0.04247,0.09125 0.0863,0.148664 0.07436,0.07695 0.179401,0.101624 0.268674,0.154207 0.03231,0.01902 0.05172,0.03516 0.08125,0.05767 0.04007,0.03327 0.08293,0.10002 0.0632,0.154498 -0.0232,0.02734 -0.0693,0.03449 -0.102643,0.04242 -0.08395,0.01585 -0.1714,7.2e-5 -0.252993,-0.02201 -0.02241,-0.0084 -0.04679,-0.01333 -0.0683,-0.02421 -0.001,-5.29e-4 0.0025,-5.29e-4 0.0035,1.24e-4 0.0068,0.0046 0.01286,0.01021 0.01929,0.01532 -0.0864,-0.111962 -0.244735,0.01021 -0.158338,0.122184 v 0 c 0.01048,0.01035 0.01984,0.02199 0.03143,0.03106 0.03451,0.02703 0.08189,0.03369 0.121578,0.04892 0.115192,0.02964 0.236215,0.04839 0.353986,0.0222 0.121947,-0.03313 0.216813,-0.07796 0.250844,-0.210355 0.0016,-0.02087 0.0056,-0.04167 0.005,-0.06259 -0.0029,-0.109503 -0.06353,-0.209483 -0.146132,-0.277251 -0.04339,-0.03247 -0.0608,-0.04736 -0.10895,-0.0752 -0.06691,-0.03869 -0.141359,-0.06171 -0.20651,-0.103515 -0.03238,-0.03423 -0.06085,-0.06847 -0.05421,-0.119129 0.0013,-0.01066 0.0033,-0.0218 0.0089,-0.03102 0.0078,-0.01291 0.02013,-0.02246 0.03021,-0.03369 0.01257,-0.01019 0.02429,-0.02154 0.03773,-0.03054 0.07573,-0.05077 0.16944,-0.0629 0.257567,-0.07474 0.14084,-0.01281 0.122735,-0.211981 -0.0181,-0.199178 z" />
    <path
       style="fill:#000000;stroke-width:0.264999"
       id="path504"
       d="m 33.47224,30.682142 c -0.02885,0.189272 -0.02373,0.382106 -0.02315,0.573079 0.0062,0.03473 -0.0031,0.0706 0.0013,0.105503 7.93e-4,0.007 -0.0053,-0.01958 0.0016,-0.02117 0.06179,-0.01415 0.131064,0.0036 0.188854,-0.02249 0.01802,-0.0081 -0.0064,-0.03902 -0.0091,-0.0586 -0.0037,-0.02672 -0.0067,-0.05354 -0.01,-0.0803 -0.0045,-0.12955 -0.02932,-0.286297 0.02846,-0.408434 0.0051,-0.01074 0.01447,-0.01884 0.02172,-0.02828 0.0037,7.94e-4 0.0109,-0.0016 0.01103,0.0021 5.29e-4,0.01614 -0.02162,0.01492 -0.0095,0.03306 0.01101,0.01651 0.02679,0.02928 0.03939,0.0446 0.01942,0.02363 0.03905,0.04716 0.05665,0.07218 0.02143,0.03047 0.04021,0.06273 0.06032,0.0941 0.103531,0.174567 0.184885,0.361154 0.258974,0.54977 0.02289,0.06636 0.0033,0.03973 0.06954,-0.07318 -0.133911,0.04547 -0.0696,0.234852 0.06431,0.189376 v 0 c 0.07884,-0.114274 0.09121,-0.08562 0.05229,-0.189357 -0.07903,-0.200978 -0.166061,-0.399685 -0.277199,-0.585264 -0.08652,-0.132643 -0.230973,-0.387189 -0.42853,-0.299762 -0.02646,0.01172 -0.04433,0.03719 -0.06649,0.05578 -0.01442,0.025 -0.03192,0.04847 -0.0433,0.075 -0.06594,0.153746 -0.04456,0.331549 -0.03607,0.493051 0.0036,0.02878 0.0069,0.0576 0.01082,0.08632 0.003,0.02172 -0.0095,0.05529 0.01019,0.06497 0.244867,0.120441 0.203264,0.03829 0.204772,-0.09965 -5.29e-4,-0.176282 -0.005,-0.354029 0.01839,-0.52908 0.03068,-0.138054 -0.16456,-0.18144 -0.195238,-0.04339 z" />
    <path
       style="fill:#000000;stroke-width:0.264999"
       id="path505"
       d="m 33.56378,31.234928 c 0.119081,-0.03808 0.243766,-0.04601 0.367723,-0.05197 0.05256,-0.0021 0.105151,-0.003 0.157745,-0.0035 0.0095,-8.2e-5 0.01916,0.0013 0.02856,-1.35e-4 0.01667,-0.0026 0.0328,-0.008 0.0492,-0.01199 0.131916,-0.05097 0.05983,-0.23753 -0.07208,-0.186558 v 0 c 0.0073,-5.29e-4 0.02914,-2.65e-4 0.02191,-0.0013 -0.0098,-0.0016 -0.01995,5.8e-5 -0.0299,1.48e-4 -0.05506,5.29e-4 -0.110109,0.0016 -0.165129,0.0037 -0.14014,0.0069 -0.280901,0.01728 -0.415492,0.06017 -0.135458,0.04063 -0.07799,0.232201 0.05747,0.191564 z" />
    <path
       style="fill:#000000;stroke-width:0.264999"
       id="path506"
       d="m 32.749673,35.983677 c -0.151125,-0.03607 -0.278495,-0.01886 -0.427463,0.01805 -0.162296,0.0573 -0.276426,0.153074 -0.340249,0.315291 -0.01114,0.0283 -0.01818,0.05804 -0.02727,0.08706 -0.0038,0.03763 -0.01048,0.07508 -0.01125,0.112892 -0.0031,0.14899 0.03182,0.305419 0.08661,0.443312 0.01413,0.03558 0.03183,0.06964 0.04775,0.104452 0.102307,0.20447 0.276749,0.349864 0.474578,0.458034 0.04186,0.02289 0.08555,0.04226 0.128328,0.06339 0.200195,0.08209 0.4093,0.157252 0.625184,0.185626 0.04459,0.0059 0.08964,0.0074 0.134461,0.01109 0.04652,-0.0016 0.0934,0.0011 0.139571,-0.0049 0.213606,-0.02759 0.415906,-0.130765 0.570447,-0.279977 0.03602,-0.03478 0.0659,-0.0754 0.09884,-0.113104 0.02469,-0.03913 0.05245,-0.07649 0.07407,-0.117393 0.07661,-0.144928 0.113663,-0.31505 0.08728,-0.478226 -0.0073,-0.04508 -0.02244,-0.08852 -0.03365,-0.132787 -0.09084,-0.2478 -0.238371,-0.46727 -0.410017,-0.665633 -0.108444,-0.105294 -0.238326,-0.192913 -0.389263,-0.222533 -0.09732,-0.0191 -0.157818,-0.01373 -0.256251,-0.0131 -0.152908,0.01349 -0.305885,0.03667 -0.452223,0.08474 -0.05773,0.01897 -0.11334,0.04384 -0.170011,0.06577 -0.131728,0.05146 -0.05896,0.237747 0.07277,0.18629 v 0 c 0.04974,-0.01963 0.0985,-0.04196 0.149217,-0.05893 0.130154,-0.04355 0.266362,-0.06442 0.402437,-0.07789 0.06573,-0.0011 0.133308,-0.0055 0.198766,0.0053 0.113503,0.01879 0.211275,0.08446 0.293536,0.161446 0.152461,0.174964 0.283356,0.368795 0.367842,0.586232 0.0091,0.03169 0.02127,0.06265 0.02734,0.09506 0.0303,0.161837 -0.02471,0.318063 -0.113697,0.451474 -0.02487,0.02976 -0.04711,0.06193 -0.07462,0.08928 -0.12047,0.119769 -0.28159,0.209785 -0.450871,0.234122 -0.03829,0.0055 -0.07728,0.0036 -0.115922,0.0054 -0.03782,-0.0028 -0.07585,-0.0035 -0.113472,-0.0083 -0.197974,-0.02532 -0.389733,-0.09433 -0.573616,-0.168521 -0.211119,-0.102992 -0.397759,-0.209616 -0.509564,-0.425911 -0.01333,-0.02836 -0.0282,-0.05604 -0.03998,-0.08507 -0.05544,-0.136631 -0.08297,-0.286403 -0.07322,-0.433575 0.04159,-0.144039 0.08013,-0.208264 0.225171,-0.266459 0.111403,-0.02891 0.221462,-0.04595 0.335021,-0.0167 0.138054,0.03068 0.181441,-0.16456 0.04339,-0.195238 z" />
    <path
       style="fill:#000000;stroke-width:0.264999"
       id="path507"
       d="m 32.84596,36.403309 c -0.03663,0.147167 -0.06212,0.313489 0.0096,0.455179 0.01437,0.02837 0.03617,0.05232 0.05425,0.07848 0.07186,0.06442 0.137782,0.116252 0.242467,0.08254 0.08601,-0.0277 0.128103,-0.119464 0.164571,-0.192159 0.02479,-0.05794 0.04478,-0.117924 0.05947,-0.179212 0.0019,-0.0074 0.01243,-0.02267 0.0049,-0.02217 -0.06294,0.0042 -0.124081,0.02281 -0.186121,0.03421 0.02739,0.147021 0.06652,0.291278 0.106238,0.43533 0.01,0.03849 0.02223,0.07706 0.03379,0.114816 0.03063,0.138065 0.225885,0.09474 0.195252,-0.04332 v 0 c -0.01043,-0.04202 -0.0265,-0.08239 -0.03624,-0.124656 -0.03973,-0.144095 -0.07831,-0.288449 -0.106254,-0.43539 -0.06736,-0.0079 -0.134308,-0.02106 -0.202078,-0.0236 -0.0054,-2.04e-4 -0.0021,0.01061 -0.0034,0.0159 -0.01135,0.04815 -0.02684,0.09528 -0.04559,0.141042 -0.0065,0.01434 -0.01252,0.02893 -0.01955,0.04302 -0.0052,0.01037 -0.01336,0.01934 -0.01704,0.03034 -0.0013,0.0039 2.64e-4,0.0088 0.0029,0.01199 0.0058,0.0069 0.02574,0.0092 0.02109,0.01696 -0.01037,0.01722 -0.04975,-0.03992 -0.05455,-0.0258 -0.0092,-0.01011 -0.02029,-0.01876 -0.02754,-0.03034 -0.05995,-0.09582 -0.02672,-0.222459 -0.005,-0.324326 0.04159,-0.135165 -0.149564,-0.193985 -0.191154,-0.05882 z" />
    <path
       style="fill:#000000;stroke-width:0.264999"
       id="path508"
       d="m 17.709302,25.409734 c 0.03136,0.162954 0.05092,0.327694 0.08392,0.490318 0.02432,0.150603 0.07421,0.293383 0.136044,0.43207 0.05017,0.106669 0.106875,0.210248 0.156783,0.316984 0.04781,0.115874 0.09956,0.229595 0.158143,0.340423 0.07617,0.126082 0.128795,0.263203 0.190044,0.396547 0.07948,0.17902 0.171118,0.352171 0.255625,0.528834 0.06173,0.151183 0.130284,0.299312 0.195767,0.448863 0.08979,0.207219 0.168235,0.418848 0.247836,0.630102 0.08464,0.212492 0.183856,0.418597 0.279251,0.626332 0.06986,0.159015 0.157437,0.309322 0.239641,0.462093 0.126235,0.223673 0.253103,0.447039 0.388244,0.665469 0.134226,0.226973 0.294491,0.436007 0.464832,0.636661 0.211731,0.223494 0.430416,0.440399 0.645884,0.660355 0.286255,0.295032 0.59935,0.561915 0.91915,0.819531 0.233063,0.191543 0.466465,0.382776 0.694003,0.580883 0.151293,0.130267 0.293878,0.269623 0.434589,0.411006 0.102379,0.106881 0.215162,0.202546 0.331083,0.294246 0.235851,0.155884 0.469814,0.314947 0.708377,0.466701 0.333661,0.211635 0.689874,0.382783 1.051211,0.54097 0.358771,0.146653 0.725052,0.27419 1.094473,0.391088 0.360298,0.105421 0.718949,0.216294 1.078462,0.324345 0.304861,0.09327 0.61294,0.175128 0.91859,0.26561 0.324591,0.08738 0.649265,0.174866 0.97536,0.256482 0.236535,0.05901 0.474401,0.11227 0.712819,0.163049 0.160587,0.04174 0.323581,0.07212 0.487829,0.09493 0.165777,0.02101 0.332814,0.0275 0.499721,0.03113 0.149452,0.0021 0.298934,0.0019 0.4484,0.0016 0.082,-1.03e-4 0.16401,-2.24e-4 0.246015,-2.64e-4 0.0076,-1.3e-5 0.01521,-2.9e-5 0.02281,-4.8e-5 0.14142,-5.29e-4 0.140663,-0.200535 -7.94e-4,-0.199998 v 0 c -0.0075,1.6e-5 -0.01495,3.1e-5 -0.02241,4.5e-5 -0.08196,1.48e-4 -0.163918,2.64e-4 -0.245875,2.64e-4 -0.147944,1.64e-4 -0.295905,7.94e-4 -0.443838,-0.0016 -0.159221,-0.0034 -0.318572,-0.0094 -0.47674,-0.02931 -0.159499,-0.02183 -0.317569,-0.05206 -0.473488,-0.09241 -0.236114,-0.05029 -0.471688,-0.103005 -0.705934,-0.161457 -0.323355,-0.08088 -0.645255,-0.167751 -0.967146,-0.254241 -0.30539,-0.09037 -0.613182,-0.172217 -0.917785,-0.265366 -0.358593,-0.10777 -0.716315,-0.21839 -1.075702,-0.323496 -0.362697,-0.114715 -0.722282,-0.239934 -1.07462,-0.38363 -0.351989,-0.153961 -0.699033,-0.320476 -1.024078,-0.526518 -0.232877,-0.148 -0.460734,-0.303858 -0.691675,-0.454834 -0.109789,-0.08669 -0.216539,-0.177197 -0.313351,-0.278435 -0.144097,-0.144732 -0.290129,-0.287377 -0.44502,-0.420764 -0.2295,-0.199736 -0.464793,-0.392686 -0.699872,-0.585793 -0.313757,-0.252608 -0.620916,-0.514352 -0.901724,-0.803722 -0.212164,-0.216582 -0.427238,-0.430392 -0.636327,-0.64988 -0.164001,-0.192934 -0.318195,-0.394007 -0.447205,-0.612447 -0.133117,-0.214931 -0.257773,-0.434914 -0.382181,-0.654976 -0.08022,-0.149058 -0.165803,-0.295661 -0.234011,-0.450789 -0.09346,-0.203478 -0.190645,-0.40536 -0.273845,-0.613381 -0.08083,-0.214529 -0.160587,-0.429408 -0.251794,-0.639829 -0.06641,-0.151569 -0.135684,-0.301804 -0.198544,-0.454924 -0.08409,-0.175773 -0.175234,-0.348067 -0.254371,-0.526161 -0.06301,-0.136544 -0.116943,-0.277178 -0.19493,-0.406434 -0.0572,-0.108035 -0.107075,-0.219139 -0.153946,-0.332018 -0.04978,-0.105352 -0.1049,-0.208196 -0.155131,-0.313378 -0.05599,-0.125325 -0.101334,-0.254114 -0.122704,-0.390475 -0.03319,-0.162332 -0.05195,-0.327004 -0.08378,-0.489624 -0.02773,-0.138676 -0.223851,-0.09945 -0.196116,0.03922 z" />
    <path
       style="fill:#000000;stroke-width:0.264999"
       id="path509"
       d="m 17.663083,25.387898 c -0.129804,0.200745 -0.208678,0.4294 -0.308336,0.6458 -0.01177,0.02421 -0.02307,0.04866 -0.03531,0.07263 -0.0081,0.01585 -0.01599,0.03187 -0.02568,0.04679 -0.0011,0.0016 -0.0078,0.0016 -0.0058,0.0016 0.05231,0.0046 0.10509,0.0043 0.157103,0.01151 0.006,7.94e-4 0.0097,0.01677 0.0136,0.01209 0.01022,-0.01243 0.0096,-0.03072 0.01434,-0.04608 0.06651,-0.195498 0.151123,-0.384223 0.225212,-0.576898 0.02437,-0.04272 0.05428,-0.198419 0.100187,-0.22321 0.0055,-0.003 0.01017,0.0074 0.01497,0.0114 0.262963,0.109617 0.511307,0.245618 0.753274,0.395404 0.187198,0.121505 0.371534,0.247732 0.549261,0.382786 0.04353,0.02754 0.01921,0.01548 0.07392,0.03423 0.138968,0.02622 0.17606,-0.170302 0.03709,-0.19653 v 0 c 0.02927,0.01357 0.03201,0.01569 0.01,0.003 -0.182855,-0.138862 -0.372382,-0.268809 -0.565049,-0.393629 -0.1658,-0.102433 -0.330838,-0.199821 -0.506775,-0.283988 -0.03861,-0.01847 -0.213427,-0.100073 -0.260298,-0.115181 -0.03712,-0.01196 -0.07623,-0.01654 -0.114347,-0.02482 -0.02774,0.0058 -0.0571,0.0065 -0.08323,0.01744 -0.124799,0.05244 -0.149664,0.211368 -0.195659,0.32131 -0.07618,0.198419 -0.163973,0.392523 -0.23101,0.594342 -0.0069,0.02609 -0.04767,0.149026 -0.01652,0.173212 0.178109,0.138268 0.215441,-0.02074 0.272441,-0.133948 0.09317,-0.202695 0.168465,-0.415653 0.284514,-0.606608 0.08682,-0.111633 -0.07105,-0.23442 -0.15787,-0.122787 z" />
    <path
       style="fill:#000000;stroke-width:0.264999"
       id="path510"
       d="m 25.150738,32.98802 c -0.115083,-0.02397 -0.240214,-0.03764 -0.348037,0.02088 -0.0226,0.01228 -0.04199,0.0297 -0.06298,0.04456 -0.0189,0.02743 -0.04298,0.05195 -0.05669,0.08231 -0.104359,0.23105 0.08644,0.391848 0.241709,0.524587 0.204215,0.150632 0.425806,0.275558 0.624676,0.433472 0.01365,0.01394 0.029,0.0264 0.04095,0.04184 0.0051,0.0066 0.0099,0.0149 0.0095,0.02326 -1.62e-4,0.0036 -0.0092,1.51e-4 -0.01038,-0.0033 -0.0053,-0.01508 0.0075,-0.04559 -0.01958,-0.04524 -0.02121,2.64e-4 -0.0421,0.0052 -0.06315,0.0078 -0.188427,0.02254 -0.376341,0.0094 -0.560858,-0.03209 -0.03282,-0.01839 -0.107176,-0.01103 -0.132276,-0.04494 -0.117839,-0.07819 -0.22842,0.08846 -0.110582,0.166648 v 0 c 0.06895,0.04001 0.120248,0.05771 0.199606,0.07356 0.209404,0.04578 0.422438,0.0615 0.635964,0.03427 0.06427,-0.01185 0.149577,-0.01656 0.199443,-0.06966 0.104953,-0.111744 0.02564,-0.228798 -0.06449,-0.308964 -0.197708,-0.156086 -0.415356,-0.282914 -0.619886,-0.429559 -0.05291,-0.04386 -0.15839,-0.121881 -0.190218,-0.188992 -0.01562,-0.03294 -0.0099,-0.07204 -0.0026,-0.105868 0.07443,-0.06763 0.154684,-0.04661 0.246492,-0.02933 0.138053,0.03068 0.18144,-0.164558 0.04339,-0.195236 z" />
    <path
       style="fill:#000000;stroke-width:0.264999"
       id="path511"
       d="m 34.419377,36.563467 c 0.193225,0.02661 0.385408,0.05559 0.58035,0.06534 0.287459,0.0058 0.572069,-0.03919 0.856258,-0.07582 0.295743,-0.04061 0.589777,-0.09015 0.886296,-0.124979 0.281799,-0.03257 0.563776,-0.06107 0.847058,-0.07654 0.235246,-0.02101 0.470434,-0.02861 0.70644,-0.02387 0.08965,0.0031 0.179422,0.004 0.269026,0.0085 0.06585,0.0034 -0.0069,-0.131697 -0.009,-0.197594 -0.141192,0.008 -0.129828,0.207711 0.01135,0.199676 v 0 c 0.0084,-0.06654 0.0231,-0.132583 0.02511,-0.199615 5e-5,-0.0016 -0.02352,-0.0027 -0.05945,-0.004 -0.07766,-0.0028 -0.155337,-0.0049 -0.233013,-0.007 -0.240972,-0.0048 -0.481169,0.0027 -0.721363,0.02413 -0.287427,0.01577 -0.57355,0.04451 -0.859472,0.0776 -0.297262,0.03494 -0.592061,0.08437 -0.888522,0.125254 -0.272528,0.03513 -0.545385,0.07879 -0.821023,0.07441 -0.192661,-0.009 -0.382331,-0.03997 -0.573413,-0.06489 -0.140933,-0.01175 -0.157541,0.187563 -0.01662,0.199308 z" />
    <path
       style="fill:#000000;stroke-width:0.264999"
       id="path512"
       d="m 34.712519,35.986715 c -0.201612,0.01953 -0.379447,0.113654 -0.540959,0.2302 -0.08528,0.07255 -0.179316,0.179134 -0.131241,0.301988 0.02759,0.07051 0.06719,0.09119 0.121814,0.134469 0.139197,0.08635 0.25672,0.201922 0.373091,0.316021 0.03892,0.03958 0.0747,0.08046 0.119182,0.113461 0.12414,0.06775 0.219951,-0.10781 0.09581,-0.175556 v 0 c 0.0066,0.0058 0.01265,0.01212 0.01966,0.01733 0.0073,0.0054 -0.01212,-0.01344 -0.01831,-0.02003 -0.02495,-0.02651 -0.05056,-0.05237 -0.07636,-0.07804 -0.122743,-0.120269 -0.247044,-0.241829 -0.393396,-0.33342 -0.0113,-0.0075 -0.02148,-0.01701 -0.03393,-0.02236 -0.007,-0.003 -0.01725,0.0083 -0.02283,0.003 -0.0281,-0.02654 0.0642,-0.0892 0.06423,-0.0952 0.131723,-0.09699 0.277516,-0.176318 0.443124,-0.192868 0.140719,-0.01408 0.12082,-0.213079 -0.0199,-0.199006 z" />
    <path
       style="fill:#000000;stroke-width:0.264999"
       id="path514"
       d="m 36.787382,33.805701 c -0.16649,-0.01566 -0.299993,0.02344 -0.321234,0.221832 -0.01125,0.104905 0.04966,0.223983 0.08591,0.315516 0.07407,0.158012 0.177684,0.299244 0.259776,0.452744 0.04019,0.07515 0.07713,0.132893 0.07403,0.21871 -7.93e-4,0.01857 -0.01199,0.03521 -0.01797,0.05282 -0.01069,0.0056 -0.0204,0.01365 -0.03204,0.01677 -0.01669,0.0045 -0.03435,0.0041 -0.05158,0.0055 -0.107002,0.0088 -0.211756,0.0069 -0.31769,-0.01087 -0.0065,-0.0021 -0.01304,-0.0044 -0.01955,-0.0066 -0.135689,-0.03985 -0.192048,0.152043 -0.05636,0.191895 v 0 c 0.01471,0.004 0.02943,0.0081 0.04414,0.01214 0.164145,0.02561 0.413965,0.05058 0.551696,-0.06057 0.03458,-0.02791 0.0516,-0.07237 0.07741,-0.108556 0.0062,-0.04271 0.02048,-0.08501 0.01876,-0.128145 -0.0044,-0.111369 -0.04672,-0.187958 -0.09808,-0.283906 -0.07776,-0.145291 -0.174996,-0.279384 -0.247423,-0.427691 -0.01704,-0.04003 -0.03408,-0.08006 -0.05112,-0.120089 -0.0079,-0.02714 -0.01304,-0.05521 -0.02363,-0.08141 -0.0046,-0.01138 -0.02024,-0.01775 -0.0213,-0.02998 -0.0041,-0.04633 0.08554,-0.0339 0.107027,-0.03406 0.138673,0.02773 0.177898,-0.168383 0.03922,-0.196117 z" />
    <path
       style="fill:#000000;stroke-width:0.264999"
       id="path515"
       d="m 36.925674,33.610325 c -0.03783,0.371962 -0.08283,0.742738 -0.108244,1.115912 -0.01119,0.211323 -0.02159,0.422921 -0.02053,0.634606 -0.0011,0.02119 0.0019,0.04094 0.0054,0.0617 0.03934,0.135843 0.231444,0.08021 0.192109,-0.05563 v 0 c 0.0082,0.05294 2.64e-4,-2.64e-4 0.0024,-0.0071 -0.0011,-0.206814 0.0093,-0.413546 0.02008,-0.620006 0.02561,-0.377709 0.073,-0.752774 0.108704,-1.129472 0,-0.14142 -0.199999,-0.14142 -0.199999,0 z" />
    <path
       style="fill:#000000;stroke-width:0.264999"
       id="path518"
       d="m 17.636328,19.871767 c -0.172207,0.0051 -0.339743,0.07969 -0.464804,0.198215 -0.02779,0.02633 -0.05106,0.05707 -0.0766,0.08561 -0.08788,0.145486 -0.192333,0.359159 -0.121099,0.532736 0.01417,0.03453 0.04021,0.06289 0.06032,0.09434 0.02923,0.02185 0.05507,0.0492 0.08769,0.06556 0.118119,0.05921 0.265235,0.04861 0.391914,0.0324 0.02247,-0.0044 0.126192,0.02749 -0.07465,-0.161584 -0.0157,-0.01479 -0.03432,0.02625 -0.05012,0.04093 -0.05852,0.05439 -0.06624,0.06937 -0.116327,0.132882 -0.06849,0.113228 -0.136017,0.249398 -0.09363,0.385778 0.03022,0.09724 0.06383,0.109728 0.136143,0.174797 0.03651,0.01548 0.07078,0.038 0.109532,0.04641 0.173079,0.03755 0.381141,-0.03141 0.546133,-0.08353 0.07705,-0.02442 0.135525,-0.05846 0.189777,-0.117153 0.08583,-0.112395 -0.07312,-0.23378 -0.158951,-0.121385 v 0 c 0.04238,-0.01995 -0.08632,0.05824 -0.09122,0.04788 -0.116264,0.03694 -0.29558,0.09594 -0.415878,0.08679 -0.01837,-0.0013 -0.03558,-0.0096 -0.05338,-0.01431 -0.023,-0.01431 -0.05086,-0.02676 -0.06485,-0.05222 -0.04069,-0.07406 0.02184,-0.166666 0.05411,-0.230148 0.03621,-0.04723 0.04403,-0.06134 0.08597,-0.101631 0.01134,-0.0109 0.03469,-0.01469 0.03612,-0.03036 0.01847,-0.20257 0.04015,-0.210045 -0.06478,-0.201443 -0.0936,0.01265 -0.205685,0.02304 -0.292537,-0.0182 -0.0092,-0.0083 -0.02084,-0.01458 -0.02755,-0.02503 -0.05704,-0.08883 0.03452,-0.272309 0.07797,-0.35201 0.01738,-0.02066 0.03298,-0.04294 0.05213,-0.06197 0.08953,-0.08893 0.212131,-0.149098 0.338554,-0.153331 0.141421,0 0.141421,-0.199999 0,-0.199999 z" />
    <path
       style="fill:#000000;stroke-width:0.264999"
       id="path519"
       d="m 25.943662,20.46206 c -0.137345,0.141761 -0.221851,0.334505 -0.21447,0.53457 0.0016,0.04404 0.01302,0.08717 0.01952,0.130749 0.04168,0.08671 0.06836,0.174381 0.155873,0.229827 0.141283,0.08951 0.334386,0.07441 0.47724,-0.003 0.04793,-0.02598 0.08605,-0.06696 0.12907,-0.100431 0.02843,-0.04196 0.06587,-0.07906 0.08529,-0.125881 0.06668,-0.160726 0.02339,-0.322998 -0.08134,-0.454289 -0.07363,-0.09231 -0.134571,-0.121275 -0.229982,-0.182655 -0.144995,-0.05974 -0.06959,-0.04261 -0.226224,-0.05136 -0.141419,7.94e-4 -0.140326,0.200771 0.0011,0.199996 v 0 c 0.0695,-0.01207 0.02927,-0.01249 0.118881,0.02082 0.106935,0.06475 0.233899,0.142642 0.252258,0.279712 0.0036,0.0267 0.0042,0.05496 -0.0036,0.08075 -0.0089,0.02923 -0.03002,0.0532 -0.04502,0.07981 -0.02275,0.0218 -0.04143,0.04886 -0.06825,0.0654 -0.05065,0.03126 -0.205171,0.07948 -0.266986,0.0507 -0.04969,-0.02312 -0.07526,-0.08014 -0.101102,-0.122904 -0.0057,-0.02823 -0.01516,-0.05595 -0.01709,-0.08468 -0.0099,-0.14696 0.04868,-0.291446 0.147736,-0.397645 0.1057,-0.09395 -0.02717,-0.243435 -0.132872,-0.149481 z" />
    <path
       style="fill:#000000;stroke-width:0.264999"
       id="path520"
       d="m 26.502803,20.827265 c 0.139198,0.140237 0.264029,0.321974 0.454212,0.398576 0.04514,0.01818 0.09435,0.02392 0.141523,0.0359 0.04879,-0.0024 0.09851,0.0024 0.146362,-0.0074 0.231541,-0.04754 0.385369,-0.24774 0.505099,-0.434613 0.04357,-0.07932 0.02384,-0.0464 0.0572,-0.0999 0.07436,-0.120298 -0.09577,-0.225452 -0.170125,-0.105153 v 0 c -0.03632,0.05916 -0.01743,0.02673 -0.05585,0.09773 -0.08223,0.130508 -0.195938,0.296878 -0.352543,0.342585 -0.02799,0.0082 -0.0578,0.0077 -0.0867,0.01154 -0.02893,-0.005 -0.05917,-0.005 -0.08679,-0.01492 -0.162307,-0.05848 -0.283723,-0.239974 -0.402913,-0.357206 -0.09396,-0.105701 -0.243437,0.02717 -0.149481,0.132872 z" />
    <path
       style="fill:#000000;stroke-width:0.264999"
       id="path521"
       d="m 32.584158,20.610304 c -0.173779,0.06311 -0.321734,0.191121 -0.397169,0.362391 -0.01654,0.03756 -0.02511,0.07815 -0.03766,0.117232 -0.0026,0.04035 -0.0113,0.08076 -0.0079,0.121044 0.01196,0.13969 0.09818,0.246515 0.220639,0.30969 0.107981,0.0557 0.150598,0.04773 0.268515,0.05788 0.169153,-0.02529 0.304204,-0.09523 0.415001,-0.227266 0.03311,-0.03946 0.06399,-0.08207 0.08475,-0.129201 0.05146,-0.116833 0.0392,-0.17013 0.03822,-0.290277 -0.0094,-0.03965 -0.01336,-0.08106 -0.02836,-0.11896 -0.06718,-0.169587 -0.192514,-0.208145 -0.356304,-0.230764 -0.140454,-0.01651 -0.163798,0.182126 -0.02334,0.198633 v 0 c 0.131421,0.0108 0.174109,0.01802 0.208094,0.156983 0.0035,0.05563 0.01378,0.122616 -0.0072,0.177279 -0.01328,0.03458 -0.03513,0.06557 -0.05749,0.09511 -0.0673,0.08892 -0.15341,0.141716 -0.260688,0.16887 -0.02973,-7.94e-4 -0.05976,0.0019 -0.08918,-0.0026 -0.08565,-0.01273 -0.196651,-0.062 -0.212788,-0.157784 -0.0039,-0.02336 -2.65e-4,-0.04736 -5.29e-4,-0.07104 0.007,-0.02601 0.01111,-0.053 0.02111,-0.07801 0.04938,-0.123415 0.15271,-0.218224 0.27482,-0.266312 0.136441,-0.03721 0.08381,-0.230163 -0.05262,-0.192952 z" />
    <path
       style="fill:#000000;stroke-width:0.264999"
       id="path522"
       d="m 33.070772,20.984922 c 0.151341,0.201919 0.335594,0.381831 0.561125,0.499195 0.04664,0.02426 0.0962,0.04242 0.144309,0.06363 0.124812,0.04112 0.260684,0.06829 0.389025,0.0204 0.119496,-0.04459 0.198403,-0.133789 0.27658,-0.228489 0.03224,-0.05651 0.0844,-0.110561 0.101549,-0.175495 0.0053,-0.02016 0.0053,-0.04135 0.008,-0.06202 -0.0021,-0.141407 -0.202075,-0.138438 -0.199977,0.003 v 0 c 0.0029,-0.0069 0.01138,-0.02755 0.0086,-0.02064 -0.01871,0.0463 -0.04472,0.08864 -0.07359,0.129378 -0.04488,0.05701 -0.09591,0.127111 -0.164113,0.158978 -0.08602,0.0402 -0.180846,0.01799 -0.266203,-0.0085 -0.0408,-0.01749 -0.0828,-0.03239 -0.122396,-0.05245 -0.200036,-0.101327 -0.361728,-0.261202 -0.496443,-0.437938 -0.07845,-0.117671 -0.244856,-0.0067 -0.16641,0.11094 z" />
    <path
       style="fill:#000000;stroke-width:0.264999"
       id="path523"
       d="m 38.037702,20.441484 c -0.142679,0.0848 -0.252698,0.195225 -0.257718,0.373665 -0.0036,0.12709 0.03498,0.176472 0.08617,0.288542 0.159446,0.249999 0.396108,0.433572 0.589971,0.654457 0.03552,0.05496 0.09006,0.109167 0.103862,0.176228 0.0011,0.0049 -5.29e-4,0.01527 -0.0054,0.0141 -0.0061,-0.0013 -0.0044,-0.01185 -0.0077,-0.01722 -0.0021,-0.0033 -0.0054,-0.0056 -0.0081,-0.0084 -0.0109,-0.0013 -0.02172,-0.0039 -0.03273,-0.0043 -0.02474,-7.93e-4 -0.04952,0.0016 -0.07424,5.29e-4 -0.08597,-0.0035 -0.171288,-0.01908 -0.255397,-0.0362 -0.0078,-0.0029 -0.01553,-0.0058 -0.02328,-0.0087 -0.134043,-0.04508 -0.1978,0.144481 -0.06376,0.189566 v 0 c 0.01577,0.005 0.03155,0.01005 0.04732,0.01511 0.168296,0.03396 0.342466,0.06331 0.510447,0.01212 0.02455,-0.02035 0.05519,-0.03503 0.07364,-0.06102 0.09841,-0.138625 -0.0362,-0.29673 -0.114575,-0.403997 -0.182751,-0.207 -0.400656,-0.382389 -0.560076,-0.609463 -0.03146,-0.05971 -0.06196,-0.101121 -0.06882,-0.168925 -0.01193,-0.117777 0.06671,-0.175438 0.156139,-0.230537 0.124153,-0.06772 0.02838,-0.243298 -0.09577,-0.17558 z" />
    <path
       style="fill:#000000;stroke-width:0.264999"
       id="path524"
       d="m 38.204508,20.174421 c 0.09222,0.396587 0.06436,0.811469 0.04862,1.214956 -0.01799,0.394486 -0.03845,0.788858 -0.0606,1.183132 8.2e-5,0.08013 -0.0019,0.04509 0.0035,0.105254 0.0146,0.140666 0.213534,0.12001 0.198932,-0.02066 v 0 c -0.0048,-0.0362 -0.0024,-0.01185 -0.0027,-0.07339 0.0222,-0.395422 0.04272,-0.790943 0.06076,-1.186577 0.01656,-0.427363 0.04505,-0.867007 -0.05874,-1.285972 -0.04472,-0.134165 -0.234458,-0.07092 -0.189735,0.06325 z" />
    <path
       style="fill:#000000;stroke-width:0.264999"
       id="path525"
       d="m 38.460428,36.179978 c -0.0055,0.07185 0.0034,0.143115 0.01577,0.213726 0.0093,0.0567 0.01886,0.113577 0.03185,0.169573 0.0086,0.03694 0.0176,0.07362 0.03007,0.109458 0.01482,0.04215 0.0315,0.08355 0.05016,0.12414 0.01786,0.04046 0.03291,0.08226 0.04735,0.124068 0.01418,0.0385 0.02846,0.07686 0.04609,0.113938 0.03305,0.06182 0.08328,0.110093 0.139295,0.150876 0.06853,0.04529 0.148257,0.06653 0.227317,0.08496 0.08739,0.01897 0.175982,0.03188 0.26398,0.04778 0.0553,0.01069 0.111173,0.01762 0.167338,0.02138 0.04606,0.01037 0.09387,0.0062 0.140648,0.0047 0.04951,-0.0019 0.09904,-0.0028 0.148568,-0.0033 0.06691,0.0024 0.132993,-0.0031 0.199097,-0.01307 0.06518,-0.0078 0.128111,-0.02612 0.189886,-0.04765 0.07263,-0.0265 0.140174,-0.06553 0.203853,-0.109 0.04843,-0.03594 0.09362,-0.07611 0.138981,-0.115821 0.05338,-0.04869 0.09071,-0.109427 0.1281,-0.170313 0.0608,-0.08777 0.103281,-0.185322 0.141058,-0.284649 0.04008,-0.09491 0.04591,-0.194783 0.04195,-0.296139 -0.0063,-0.07843 -0.02368,-0.155325 -0.03737,-0.232664 -0.01823,-0.06779 -0.03744,-0.136877 -0.07213,-0.198492 -0.02405,-0.04272 -0.03853,-0.05814 -0.06863,-0.09647 -0.07685,-0.08712 -0.170973,-0.156915 -0.267768,-0.22023 -0.102095,-0.06689 -0.220009,-0.09865 -0.3374,-0.126512 -0.10546,-0.02234 -0.212066,-0.03767 -0.319492,-0.04612 -0.110458,-0.0072 -0.218292,0.01855 -0.324787,0.0443 -0.09558,0.0287 -0.197456,0.04137 -0.28939,0.08192 -0.0176,0.0078 -0.03428,0.01743 -0.05143,0.02615 -0.07736,0.05123 -0.155593,0.101447 -0.229259,0.157933 -0.07241,0.06103 -0.136787,0.130363 -0.195683,0.204323 -0.04421,0.04931 -0.06771,0.110553 -0.09338,0.170432 -0.05571,0.129986 0.128117,0.208773 0.183827,0.07879 v 0 c 0.01884,-0.04395 0.03322,-0.08912 0.0663,-0.125001 0.04841,-0.06147 0.10183,-0.118571 0.160872,-0.170013 0.06453,-0.04983 0.133821,-0.0929 0.200636,-0.139565 0.09021,-0.05082 0.196723,-0.06106 0.294635,-0.0906 0.08595,-0.02091 0.172911,-0.04367 0.262136,-0.03927 0.09721,0.0075 0.193606,0.02153 0.289086,0.04138 0.09494,0.02224 0.19121,0.04596 0.274141,0.09942 0.07911,0.05131 0.156175,0.107869 0.220487,0.177238 0.01659,0.02044 0.03246,0.03831 0.04599,0.06088 0.02658,0.04435 0.03905,0.09553 0.05432,0.144413 0.01217,0.06849 0.02723,0.136592 0.03446,0.205856 0.0032,0.07597 0.0019,0.145732 -0.02914,0.217175 -0.03309,0.08774 -0.07033,0.173718 -0.124473,0.250873 -0.02691,0.04383 -0.05198,0.08837 -0.08942,0.124486 -0.03948,0.03458 -0.07884,0.06947 -0.120465,0.101436 -0.04882,0.03381 -0.100907,0.06415 -0.156589,0.08505 -0.05007,0.01754 -0.100967,0.03279 -0.153934,0.03872 -0.05688,0.0087 -0.113528,0.0132 -0.171154,0.01082 -0.05098,5.29e-4 -0.101952,0.0016 -0.1529,0.0034 -0.0408,0.0013 -0.08096,0.0051 -0.121034,-0.0044 -0.04867,-0.0032 -0.09706,-0.0093 -0.14497,-0.01863 -0.08489,-0.01535 -0.170341,-0.02783 -0.254691,-0.04587 -0.05381,-0.01217 -0.109016,-0.02519 -0.156921,-0.05351 -0.02975,-0.01961 -0.05501,-0.04466 -0.07456,-0.07463 -0.01503,-0.02985 -0.02498,-0.06177 -0.0373,-0.09277 -0.01688,-0.04782 -0.03368,-0.09584 -0.05464,-0.14206 -0.01648,-0.03521 -0.03054,-0.0714 -0.04354,-0.108026 -0.01119,-0.02836 -0.0155,-0.05876 -0.02365,-0.08802 -0.01304,-0.05172 -0.01992,-0.10513 -0.02937,-0.157567 -0.0092,-0.05269 -0.01701,-0.105649 -0.01376,-0.159357 0.01408,-0.140719 -0.184936,-0.16062 -0.199007,-0.0199 z" />
    <path
       style="fill:#000000;stroke-width:0.264999"
       id="path526"
       d="m 38.760228,36.250823 c -0.01754,0.06285 -0.02376,0.127959 -0.02826,0.192823 -0.0026,0.05127 0.0078,0.100668 0.02805,0.147484 -7.94e-4,-0.0019 0.0031,0.0086 0.0021,0.0065 -0.0092,-0.02027 0.005,0.03226 0.006,0.03604 0.0072,0.03874 0.02974,0.07108 0.04944,0.104243 0.02484,0.04285 0.06208,0.07585 0.100269,0.106476 0.03343,0.03307 0.07033,0.06148 0.108419,0.08891 0.04095,0.03087 0.08621,0.05129 0.134572,0.06728 0.04785,0.01677 0.0964,0.0286 0.14668,0.03504 0.05021,0.0066 0.09981,0.01638 0.149664,0.02511 0.04996,0.0085 0.100629,0.01109 0.151212,0.01236 0.05449,-2.4e-4 0.107513,-0.0105 0.159729,-0.02513 0.06549,-0.02558 0.130265,-0.05349 0.192873,-0.0855 0.06277,-0.03437 0.125323,-0.06917 0.186206,-0.106794 0.05222,-0.03052 0.102994,-0.06187 0.148331,-0.102095 0.04959,-0.04534 0.07592,-0.106066 0.10143,-0.166716 0.02625,-0.06171 0.03796,-0.126289 0.03646,-0.193021 -0.0024,-0.06303 -0.0122,-0.125351 -0.01802,-0.188088 -0.0035,-0.07215 -0.02267,-0.141414 -0.05388,-0.206185 -0.03219,-0.06782 -0.07916,-0.113369 -0.141547,-0.153426 -0.06064,-0.03699 -0.129381,-0.05472 -0.197747,-0.07104 -0.06075,-0.01395 -0.123253,-0.01662 -0.185332,-0.01825 -0.0667,-7.41e-4 -0.13343,-0.0021 -0.200057,0.0014 -0.08645,0.0032 -0.170048,0.02498 -0.25278,0.04839 -0.06891,0.02355 -0.137036,0.05061 -0.203571,0.08034 -0.05501,0.02087 -0.106466,0.04835 -0.155808,0.08021 -0.05837,0.03534 -0.107069,0.08258 -0.149643,0.135371 -0.02556,0.03249 -0.05128,0.06339 -0.07059,0.100175 -0.0016,0.0025 -0.003,0.005 -0.0045,0.0074 -0.07077,0.122441 0.102389,0.222525 0.173157,0.100084 v 0 c 0.0034,-0.0061 0.0069,-0.01219 0.01035,-0.01828 0.0095,-0.0255 0.03568,-0.04107 0.04821,-0.06504 0.02833,-0.03664 0.0622,-0.06818 0.102076,-0.0921 0.04066,-0.02671 0.08347,-0.04837 0.129051,-0.06558 0.05726,-0.02623 0.116642,-0.04863 0.175749,-0.07019 0.06859,-0.01942 0.137674,-0.03871 0.209442,-0.04114 0.06118,-0.0037 0.122563,-0.0013 0.183822,-0.0011 0.04828,0.0012 0.09701,0.0026 0.144357,0.01294 0.04756,0.01115 0.09605,0.02195 0.138773,0.04661 0.03091,0.01729 0.05257,0.03956 0.06752,0.07229 0.02217,0.04174 0.03123,0.08876 0.03383,0.1357 0.0055,0.05867 0.01453,0.11694 0.01725,0.175827 0.0019,0.03793 -0.0063,0.07428 -0.02103,0.109459 -0.01389,0.03337 -0.02545,0.06852 -0.05066,0.09523 -0.03585,0.03297 -0.07879,0.0551 -0.11993,0.0808 -0.05641,0.03503 -0.114604,0.06704 -0.172712,0.09915 -0.05044,0.02646 -0.103579,0.04734 -0.155472,0.07072 -0.03297,0.0094 -0.06603,0.01664 -0.100523,0.01765 -0.0407,-0.0011 -0.08151,-0.0028 -0.12174,-0.0094 -0.05314,-0.0092 -0.106016,-0.01968 -0.159544,-0.02657 -0.03732,-0.0043 -0.07277,-0.01413 -0.108278,-0.02643 -0.02909,-0.0096 -0.05608,-0.01987 -0.08049,-0.0397 -0.03589,-0.02585 -0.06974,-0.0529 -0.101581,-0.08376 -0.01945,-0.01474 -0.03915,-0.03063 -0.05207,-0.05154 -0.01013,-0.01704 -0.02389,-0.03242 -0.0277,-0.05202 -0.0067,-0.02445 -0.0071,-0.05078 -0.0191,-0.07388 -0.0082,-0.01666 -0.01164,-0.03376 -0.01125,-0.05249 0.0033,-0.04808 0.0075,-0.09623 0.01847,-0.143279 0.04472,-0.134164 -0.145015,-0.197409 -0.189738,-0.06325 z" />
    <path
       style="fill:#000000;stroke-width:0.264999"
       id="path527"
       d="m 39.448835,36.15178 c -0.04369,0.05506 -0.08371,0.115504 -0.09955,0.185181 -0.005,0.02184 -0.0105,0.04443 -0.0081,0.0667 0.0033,0.03029 0.01646,0.05865 0.02468,0.08798 0.03721,0.06166 0.09034,0.09783 0.152969,0.129099 0.02519,0.01257 0.05345,0.02085 0.07585,0.03829 -0.0294,-0.01093 0.01662,0.0085 -0.03226,-0.04118 -0.0024,-0.0024 -0.0045,0.0052 -0.0067,0.0079 -0.01204,0.01487 -0.02138,0.02437 -0.0384,0.03331 -0.03607,0.0058 -0.07708,0.0097 -0.112008,-0.0036 0.0053,0.0013 0.01056,0.0027 0.01582,0.004 -0.115719,-0.08129 -0.230688,0.08236 -0.114967,0.163653 v 0 c 0.01524,0.0083 0.03048,0.0167 0.04573,0.02506 0.0954,0.02387 0.193961,0.02178 0.282043,-0.02664 0.01521,-0.01183 0.03169,-0.0222 0.04565,-0.0355 0.03443,-0.03281 0.0823,-0.104137 0.08229,-0.153477 -1.1e-5,-0.03334 -0.0054,-0.06751 -0.01794,-0.0984 -0.0072,-0.01773 -0.02606,-0.02803 -0.03908,-0.04205 -0.0491,-0.03072 -0.102505,-0.05352 -0.154712,-0.07821 -0.0032,0.0022 -0.0076,0.0099 -0.0097,0.0066 -0.01701,-0.02767 0.04062,-0.115288 0.05888,-0.137026 0.09313,-0.106431 -0.05739,-0.238132 -0.150513,-0.131701 z" />
    <path
       style="fill:#000000;stroke-width:0.264999"
       id="path528"
       d="m 39.528657,36.328665 c 0.08108,-0.01724 0.163436,-0.02671 0.244938,-0.04153 0.02901,-0.0057 0.05813,-0.01113 0.08677,-0.01853 0.0016,-4.23e-4 0.003,-8.46e-4 0.0044,-0.0012 0.135835,-0.03936 0.08018,-0.231455 -0.05566,-0.1921 v 0 c 2.14e-4,-4.9e-5 5.29e-4,-9.9e-5 5.29e-4,-1.49e-4 -0.02371,0.0064 -0.04805,0.01018 -0.07204,0.01527 -0.08146,0.01488 -0.16384,0.02413 -0.244869,0.04152 -0.139142,0.0253 -0.103365,0.222073 0.03578,0.196775 z" />
    <text
       xml:space="preserve"
       style="font-size:3.175px;line-height:1.25;font-family:'Open Sans';-inkscape-font-specification:'Open Sans';letter-spacing:0px;word-spacing:0px;stroke-width:0.264583"
       x="33.780212"
       y="10.62607"
       id="text139"><tspan
         sodipodi:role="line"
         style="stroke-width:0.264583"
         x="33.780212"
         y="10.62607"
         id="tspan2">_. S ::= a S A |         _. A ::= </tspan></text>
    <circle
       style="fill:none;stroke:#000000;stroke-width:0.264999"
       id="path43-2"
       cx="81.181747"
       cy="21.884279"
       r="1.5418432" />
    <path
       style="fill:none;stroke:#000000;stroke-width:0.265;stroke-linecap:butt;stroke-linejoin:miter;stroke-dasharray:none;stroke-opacity:1;marker-end:url(#ArrowWideRounded)"
       d="m 82.505694,21.004942 c 0,0 0.08251,-1.503499 1.037864,-1.493582 0.880306,0.0091 1.280931,1.03099 0.807508,1.560045 -0.459851,0.513889 -1.295185,0.472974 -1.295185,0.472974"
       id="path64-3"
       sodipodi:nodetypes="cssc" />
    <text
       xml:space="preserve"
       style="font-size:2.11667px;line-height:1.25;font-family:'Open Sans';-inkscape-font-specification:'Open Sans';letter-spacing:0px;word-spacing:0px;stroke-width:0.264583"
       x="84.929657"
       y="20.753267"
       id="text81"><tspan
         sodipodi:role="line"
         id="tspan81"
         style="font-style:normal;font-variant:normal;font-weight:600;font-stretch:normal;font-size:2.11667px;font-family:'Open Sans';-inkscape-font-specification:'Open Sans Semi-Bold';stroke-width:0.264583"
         x="84.929657"
         y="20.753267">C<tspan
   style="font-size:65%;baseline-shift:sub"
   id="tspan118">S</tspan></tspan></text>
    <text
       xml:space="preserve"
       style="font-size:1.41111px;line-height:1.25;font-family:'Open Sans';-inkscape-font-specification:'Open Sans';letter-spacing:0px;word-spacing:0px;stroke-width:0.264583"
       x="80.741203"
       y="22.403471"
       id="text83"><tspan
         sodipodi:role="line"
         id="tspan83"
         style="font-style:normal;font-variant:normal;font-weight:600;font-stretch:normal;font-size:1.41111px;font-family:'Open Sans';-inkscape-font-specification:'Open Sans Semi-Bold';stroke-width:0.264583"
         x="80.741203"
         y="22.403471">0</tspan></text>
    <circle
       style="fill:none;stroke:#000000;stroke-width:0.264999"
       id="circle83"
       cx="81.181747"
       cy="21.884279"
       r="1.5418432" />
    <circle
       style="fill:none;stroke:#000000;stroke-width:0.264999"
       id="circle85"
       cx="75.641129"
       cy="28.638056"
       r="1.5418432" />
    <circle
       style="fill:none;stroke:#000000;stroke-width:0.264999"
       id="circle86"
       cx="87.520287"
       cy="28.919672"
       r="1.5418432" />
    <circle
       style="fill:none;stroke:#000000;stroke-width:0.264999"
       id="circle90"
       cx="75.518425"
       cy="35.497688"
       r="1.5418432" />
    <circle
       style="fill:none;stroke:#000000;stroke-width:0.264999"
       id="circle91"
       cx="87.847816"
       cy="35.593994"
       r="1.5418432" />
    <text
       xml:space="preserve"
       style="font-size:1.41111px;line-height:1.25;font-family:'Open Sans';-inkscape-font-specification:'Open Sans';letter-spacing:0px;word-spacing:0px;stroke-width:0.264583"
       x="62.597179"
       y="28.928236"
       id="text91"><tspan
         sodipodi:role="line"
         id="tspan91"
         style="font-style:normal;font-variant:normal;font-weight:600;font-stretch:normal;font-size:1.41111px;font-family:'Open Sans';-inkscape-font-specification:'Open Sans Semi-Bold';stroke-width:0.264583"
         x="62.597179"
         y="28.928236">$r_.S0r_.S1SA as</tspan></text>
    <text
       xml:space="preserve"
       style="font-size:1.41111px;line-height:1.25;font-family:'Open Sans';-inkscape-font-specification:'Open Sans';letter-spacing:0px;word-spacing:0px;stroke-width:0.264583"
       x="90.013664"
       y="36.203369"
       id="text93"><tspan
         sodipodi:role="line"
         id="tspan93"
         style="font-style:normal;font-variant:normal;font-weight:600;font-stretch:normal;font-size:1.41111px;font-family:'Open Sans';-inkscape-font-specification:'Open Sans Semi-Bold';stroke-width:0.264583"
         x="90.013664"
         y="36.203369">$s</tspan></text>
    <text
       xml:space="preserve"
       style="font-size:1.41111px;line-height:1.25;font-family:'Open Sans';-inkscape-font-specification:'Open Sans';letter-spacing:0px;word-spacing:0px;stroke-width:0.264583"
       x="73.878716"
       y="45.666496"
       id="text96"><tspan
         sodipodi:role="line"
         id="tspan96"
         style="font-style:normal;font-variant:normal;font-weight:600;font-stretch:normal;font-size:1.41111px;font-family:'Open Sans';-inkscape-font-specification:'Open Sans Semi-Bold';stroke-width:0.264583"
         x="73.878716"
         y="45.666496">$r_.S3</tspan></text>
    <text
       xml:space="preserve"
       style="font-size:1.41111px;line-height:1.25;font-family:'Open Sans';-inkscape-font-specification:'Open Sans';letter-spacing:0px;word-spacing:0px;stroke-width:0.264583"
       x="89.604469"
       y="29.252493"
       id="text100"><tspan
         sodipodi:role="line"
         id="tspan99"
         style="font-style:normal;font-variant:normal;font-weight:600;font-stretch:normal;font-size:1.41111px;font-family:'Open Sans';-inkscape-font-specification:'Open Sans Semi-Bold';stroke-width:0.264583"
         x="89.604469"
         y="29.252493">$s</tspan></text>
    <path
       style="fill:none;stroke:#000000;stroke-width:0.264583px;stroke-linecap:butt;stroke-linejoin:miter;stroke-opacity:1;marker-end:url(#marker104)"
       d="m 80.21391,23.216824 -3.390557,3.903498"
       id="path103-5"
       sodipodi:nodetypes="cc" />
    <path
       style="fill:none;stroke:#000000;stroke-width:0.264583px;stroke-linecap:butt;stroke-linejoin:miter;stroke-opacity:1;marker-end:url(#marker106)"
       d="m 82.105391,23.213816 4.21187,4.203024"
       id="path105-9"
       sodipodi:nodetypes="cc" />
    <path
       style="fill:none;stroke:#000000;stroke-width:0.264583px;stroke-linecap:butt;stroke-linejoin:miter;stroke-opacity:1;marker-end:url(#marker112)"
       d="m 75.688317,30.148435 0.110133,3.445547"
       id="path111-8" />
    <path
       style="fill:none;stroke:#000000;stroke-width:0.264583px;stroke-linecap:butt;stroke-linejoin:miter;stroke-opacity:1;marker-end:url(#marker112)"
       d="m 87.659524,30.482184 0.143508,3.18411"
       id="path113"
       sodipodi:nodetypes="cc" />
    <circle
       style="fill:none;stroke:#000000;stroke-width:0.264999"
       id="circle114"
       cx="87.847816"
       cy="35.593994"
       r="1.1327827" />
    <text
       xml:space="preserve"
       style="font-size:2.11667px;line-height:1.25;font-family:'Open Sans';-inkscape-font-specification:'Open Sans';letter-spacing:0px;word-spacing:0px;stroke-width:0.264583"
       x="73.628006"
       y="32.221222"
       id="text114"><tspan
         sodipodi:role="line"
         id="tspan114"
         style="font-style:normal;font-variant:normal;font-weight:600;font-stretch:normal;font-size:2.11667px;font-family:'Open Sans';-inkscape-font-specification:'Open Sans Semi-Bold';stroke-width:0.264583"
         x="73.628006"
         y="32.221222">S</tspan></text>
    <text
       xml:space="preserve"
       style="font-size:2.11667px;line-height:1.25;font-family:'Open Sans';-inkscape-font-specification:'Open Sans';letter-spacing:0px;word-spacing:0px;stroke-width:0.264583"
       x="88.418243"
       y="32.277637"
       id="text115"><tspan
         sodipodi:role="line"
         id="tspan115"
         style="font-style:normal;font-variant:normal;font-weight:600;font-stretch:normal;font-size:2.11667px;font-family:'Open Sans';-inkscape-font-specification:'Open Sans Semi-Bold';stroke-width:0.264583"
         x="88.418243"
         y="32.277637">$</tspan></text>
    <text
       xml:space="preserve"
       style="font-size:2.11667px;line-height:1.25;font-family:'Open Sans';-inkscape-font-specification:'Open Sans';letter-spacing:0px;word-spacing:0px;stroke-width:0.264583"
       x="76.850357"
       y="24.798685"
       id="text117"><tspan
         sodipodi:role="line"
         id="tspan117"
         style="font-style:normal;font-variant:normal;font-weight:600;font-stretch:normal;font-size:2.11667px;font-family:'Open Sans';-inkscape-font-specification:'Open Sans Semi-Bold';stroke-width:0.264583"
         x="76.850357"
         y="24.798685">a</tspan></text>
    <text
       xml:space="preserve"
       style="font-size:2.11667px;line-height:1.25;font-family:'Open Sans';-inkscape-font-specification:'Open Sans';letter-spacing:0px;word-spacing:0px;stroke-width:0.264583"
       x="84.065376"
       y="24.811335"
       id="text120"><tspan
         sodipodi:role="line"
         id="tspan120"
         style="font-style:normal;font-variant:normal;font-weight:600;font-stretch:normal;font-size:2.11667px;font-family:'Open Sans';-inkscape-font-specification:'Open Sans Semi-Bold';stroke-width:0.264583"
         x="84.065376"
         y="24.811335">S</tspan></text>
    <path
       style="fill:none;stroke:#000000;stroke-width:0.265;stroke-linecap:butt;stroke-linejoin:miter;stroke-dasharray:none;stroke-opacity:1;marker-end:url(#ArrowWideRounded)"
       d="m 88.309967,37.136445 c 0,0 0.793649,1.252669 0.164937,1.972059 -0.579295,0.662902 -1.616172,0.30284 -1.710303,-0.400842 -0.09143,-0.68351 0.33333,-1.354489 0.33333,-1.354489"
       id="path121-7"
       sodipodi:nodetypes="cssc" />
    <text
       xml:space="preserve"
       style="font-size:2.11667px;line-height:1.25;font-family:'Open Sans';-inkscape-font-specification:'Open Sans';letter-spacing:0px;word-spacing:0px;stroke-width:0.264583"
       x="86.894722"
       y="41.612373"
       id="text122"><tspan
         sodipodi:role="line"
         id="tspan122"
         style="font-style:normal;font-variant:normal;font-weight:600;font-stretch:normal;font-size:2.11667px;font-family:'Open Sans';-inkscape-font-specification:'Open Sans Semi-Bold';stroke-width:0.264583"
         x="86.894722"
         y="41.612373">$</tspan></text>
    <text
       xml:space="preserve"
       style="font-size:1.41111px;line-height:1.25;font-family:'Open Sans';-inkscape-font-specification:'Open Sans';letter-spacing:0px;word-spacing:0px;stroke-width:0.264583"
       x="87.4702"
       y="36.081726"
       id="text131"><tspan
         sodipodi:role="line"
         id="tspan131"
         style="font-style:normal;font-variant:normal;font-weight:600;font-stretch:normal;font-size:1.41111px;font-family:'Open Sans';-inkscape-font-specification:'Open Sans Semi-Bold';stroke-width:0.264583"
         x="87.4702"
         y="36.081726">5</tspan></text>
    <text
       xml:space="preserve"
       style="font-size:1.41111px;line-height:1.25;font-family:'Open Sans';-inkscape-font-specification:'Open Sans';letter-spacing:0px;word-spacing:0px;stroke-width:0.264583"
       x="75.109344"
       y="36.016884"
       id="text132"><tspan
         sodipodi:role="line"
         id="tspan132"
         style="font-style:normal;font-variant:normal;font-weight:600;font-stretch:normal;font-size:1.41111px;font-family:'Open Sans';-inkscape-font-specification:'Open Sans Semi-Bold';stroke-width:0.264583"
         x="75.109344"
         y="36.016884">2</tspan></text>
    <text
       xml:space="preserve"
       style="font-size:1.41111px;line-height:1.25;font-family:'Open Sans';-inkscape-font-specification:'Open Sans';letter-spacing:0px;word-spacing:0px;stroke-width:0.264583"
       x="75.232048"
       y="29.157251"
       id="text133"><tspan
         sodipodi:role="line"
         id="tspan133"
         style="font-style:normal;font-variant:normal;font-weight:600;font-stretch:normal;font-size:1.41111px;font-family:'Open Sans';-inkscape-font-specification:'Open Sans Semi-Bold';stroke-width:0.264583"
         x="75.232048"
         y="29.157251">1</tspan></text>
    <text
       xml:space="preserve"
       style="font-size:1.41111px;line-height:1.25;font-family:'Open Sans';-inkscape-font-specification:'Open Sans';letter-spacing:0px;word-spacing:0px;white-space:pre;inline-size:0.990183;display:inline;stroke-width:0.264583"
       x="86.616699"
       y="58.901653"
       id="text134"
       transform="translate(0.49451413,-29.462791)"><tspan
         x="86.616699"
         y="58.901653"
         id="tspan6"><tspan
           style="font-weight:600;-inkscape-font-specification:'Open Sans Semi-Bold'"
           id="tspan5">4</tspan></tspan></text>
    <path
       style="fill:none;stroke:#000000;stroke-width:0.265;stroke-linecap:butt;stroke-linejoin:miter;stroke-dasharray:none;stroke-opacity:1;marker-end:url(#ArrowWideRounded)"
       d="m 77.207012,28.440818 c 0,0 1.14458,-1.086536 1.887862,-0.486259 0.684916,0.553092 0.365427,1.60318 -0.334065,1.724589 -0.679439,0.11793 -1.309346,-0.432229 -1.309346,-0.432229"
       id="path5-4"
       sodipodi:nodetypes="cssc" />
    <text
       xml:space="preserve"
       style="font-size:2.11667px;line-height:1.25;font-family:'Open Sans';-inkscape-font-specification:'Open Sans';letter-spacing:0px;word-spacing:0px;white-space:pre;inline-size:4.99139;display:inline;stroke-width:0.264583"
       x="78.670151"
       y="49.442116"
       id="text6"
       transform="translate(1.1834346,-20.422458)"><tspan
         x="78.670151"
         y="49.442116"
         id="tspan11"><tspan
           style="font-weight:600;-inkscape-font-specification:'Open Sans Semi-Bold'"
           id="tspan7">C</tspan><tspan
           style="font-weight:600;font-size:65%;-inkscape-font-specification:'Open Sans Semi-Bold';baseline-shift:sub"
           id="tspan8">S</tspan><tspan
           style="font-weight:600;-inkscape-font-specification:'Open Sans Semi-Bold'"
           id="tspan9"> a</tspan></tspan></text>
    <text
       xml:space="preserve"
       style="font-size:1.41111px;line-height:1.25;font-family:'Open Sans';-inkscape-font-specification:'Open Sans';letter-spacing:0px;word-spacing:0px;stroke-width:0.264583"
       x="72.992149"
       y="22.068605"
       id="text2"><tspan
         sodipodi:role="line"
         id="tspan2-6"
         style="font-style:normal;font-variant:normal;font-weight:600;font-stretch:normal;font-size:1.41111px;font-family:'Open Sans';-inkscape-font-specification:'Open Sans Semi-Bold';stroke-width:0.264583"
         x="72.992149"
         y="22.068605">$r_.S0 as</tspan></text>
    <circle
       style="fill:none;stroke:#000000;stroke-width:0.264999"
       id="circle3"
       cx="75.798462"
       cy="42.415451"
       r="1.5418432" />
    <path
       style="fill:none;stroke:#000000;stroke-width:0.264583px;stroke-linecap:butt;stroke-linejoin:miter;stroke-opacity:1;marker-end:url(#marker112)"
       d="m 75.656851,37.03953 0.110133,3.445547"
       id="path3" />
    <path
       style="fill:none;stroke:#000000;stroke-width:0.265;stroke-linecap:butt;stroke-linejoin:miter;stroke-dasharray:none;stroke-opacity:1;marker-end:url(#ArrowWideRounded)"
       d="m 77.062387,35.358194 c 0,0 1.14458,-1.086536 1.887862,-0.486259 0.684916,0.553092 0.365427,1.60318 -0.334065,1.724589 -0.679439,0.11793 -1.309346,-0.432229 -1.309346,-0.432229"
       id="path4"
       sodipodi:nodetypes="cssc" />
    <text
       xml:space="preserve"
       style="font-size:2.11667px;line-height:1.25;font-family:'Open Sans';-inkscape-font-specification:'Open Sans';letter-spacing:0px;word-spacing:0px;white-space:pre;inline-size:3.96789;display:inline;stroke-width:0.264583"
       x="78.670151"
       y="49.442116"
       id="text10"
       transform="translate(0.91643523,-13.58779)"><tspan
         x="78.670151"
         y="49.442116"
         id="tspan17"><tspan
           style="font-weight:600;-inkscape-font-specification:'Open Sans Semi-Bold'"
           id="tspan14">C</tspan><tspan
           style="font-weight:600;font-size:65%;-inkscape-font-specification:'Open Sans Semi-Bold';baseline-shift:sub"
           id="tspan15">A</tspan></tspan></text>
    <text
       xml:space="preserve"
       style="font-size:1.41111px;line-height:1.25;font-family:'Open Sans';-inkscape-font-specification:'Open Sans';letter-spacing:0px;word-spacing:0px;stroke-width:0.264583"
       x="75.416145"
       y="42.93158"
       id="text12"><tspan
         sodipodi:role="line"
         id="tspan12"
         style="font-style:normal;font-variant:normal;font-weight:600;font-stretch:normal;font-size:1.41111px;font-family:'Open Sans';-inkscape-font-specification:'Open Sans Semi-Bold';stroke-width:0.264583"
         x="75.416145"
         y="42.93158">3</tspan></text>
    <text
       xml:space="preserve"
       style="font-size:1.41111px;line-height:1.25;font-family:'Open Sans';-inkscape-font-specification:'Open Sans';letter-spacing:0px;word-spacing:0px;stroke-width:0.264583"
       x="64.997017"
       y="35.996201"
       id="text13"><tspan
         sodipodi:role="line"
         id="tspan13"
         style="font-style:normal;font-variant:normal;font-weight:600;font-stretch:normal;font-size:1.41111px;font-family:'Open Sans';-inkscape-font-specification:'Open Sans Semi-Bold';stroke-width:0.264583"
         x="64.997017"
         y="35.996201">$r_.A0r_.S2A</tspan></text>
    <text
       xml:space="preserve"
       style="font-size:2.11667px;line-height:1.25;font-family:'Open Sans';-inkscape-font-specification:'Open Sans';letter-spacing:0px;word-spacing:0px;stroke-width:0.264583"
       x="73.628006"
       y="39.100395"
       id="text16"><tspan
         sodipodi:role="line"
         id="tspan16"
         style="font-style:normal;font-variant:normal;font-weight:600;font-stretch:normal;font-size:2.11667px;font-family:'Open Sans';-inkscape-font-specification:'Open Sans Semi-Bold';stroke-width:0.264583"
         x="73.628006"
         y="39.100395">A</tspan></text>
  </g>
</svg>
