<?xml version="1.0" encoding="UTF-8" standalone="no"?>
<!-- Created with Inkscape (http://www.inkscape.org/) -->

<svg
   width="307.29001pt"
   height="241.685pt"
   viewBox="0 0 108.40508 85.261096"
   version="1.1"
   id="svg1"
   inkscape:version="1.4.2 (ebf0e940d0, 2025-05-08)"
   sodipodi:docname="rnglr2.svg"
   xmlns:inkscape="http://www.inkscape.org/namespaces/inkscape"
   xmlns:sodipodi="http://sodipodi.sourceforge.net/DTD/sodipodi-0.dtd"
   xmlns="http://www.w3.org/2000/svg"
   xmlns:svg="http://www.w3.org/2000/svg">
  <sodipodi:namedview
     id="namedview1"
     pagecolor="#ffffff"
     bordercolor="#666666"
     borderopacity="1.0"
     inkscape:showpageshadow="2"
     inkscape:pageopacity="0.0"
     inkscape:pagecheckerboard="0"
     inkscape:deskcolor="#d1d1d1"
     inkscape:document-units="mm"
     inkscape:zoom="8.4084964"
     inkscape:cx="317.77382"
     inkscape:cy="86.400703"
     inkscape:window-width="1265"
     inkscape:window-height="1396"
     inkscape:window-x="1285"
     inkscape:window-y="34"
     inkscape:window-maximized="0"
     inkscape:current-layer="layer1" />
  <defs
     id="defs1">
    <rect
       x="62.963443"
       y="27.127867"
       width="1.3396477"
       height="16.410685"
       id="rect98" />
    <rect
       x="28.467514"
       y="26.458043"
       width="336.25158"
       height="74.350449"
       id="rect97" />
    <marker
       style="overflow:visible"
       id="ArrowWideRounded"
       refX="0"
       refY="0"
       orient="auto-start-reverse"
       inkscape:stockid="Wide, rounded arrow"
       markerWidth="1"
       markerHeight="1"
       viewBox="0 0 1 1"
       inkscape:isstock="true"
       inkscape:collect="always"
       preserveAspectRatio="xMidYMid">
      <path
         style="fill:none;stroke:context-stroke;stroke-width:1;stroke-linecap:round"
         d="M 3,-3 0,0 3,3"
         transform="rotate(180,0.125,0)"
         sodipodi:nodetypes="ccc"
         id="path81-3" />
    </marker>
    <marker
       style="overflow:visible"
       id="marker104"
       refX="0"
       refY="0"
       orient="auto-start-reverse"
       inkscape:stockid="Wide, rounded arrow"
       markerWidth="1"
       markerHeight="1"
       viewBox="0 0 1 1"
       inkscape:isstock="true"
       inkscape:collect="always"
       preserveAspectRatio="xMidYMid">
      <path
         style="fill:none;stroke:context-stroke;stroke-width:1;stroke-linecap:round"
         d="M 3,-3 0,0 3,3"
         transform="rotate(180,0.125,0)"
         sodipodi:nodetypes="ccc"
         id="path104-0" />
    </marker>
    <marker
       style="overflow:visible"
       id="marker106"
       refX="0"
       refY="0"
       orient="auto-start-reverse"
       inkscape:stockid="Wide, rounded arrow"
       markerWidth="1"
       markerHeight="1"
       viewBox="0 0 1 1"
       inkscape:isstock="true"
       inkscape:collect="always"
       preserveAspectRatio="xMidYMid">
      <path
         style="fill:none;stroke:context-stroke;stroke-width:1;stroke-linecap:round"
         d="M 3,-3 0,0 3,3"
         transform="rotate(180,0.125,0)"
         sodipodi:nodetypes="ccc"
         id="path106-6" />
    </marker>
    <marker
       style="overflow:visible"
       id="marker112"
       refX="0"
       refY="0"
       orient="auto-start-reverse"
       inkscape:stockid="Wide, rounded arrow"
       markerWidth="1"
       markerHeight="1"
       viewBox="0 0 1 1"
       inkscape:isstock="true"
       inkscape:collect="always"
       preserveAspectRatio="xMidYMid">
      <path
         style="fill:none;stroke:context-stroke;stroke-width:1;stroke-linecap:round"
         d="M 3,-3 0,0 3,3"
         transform="rotate(180,0.125,0)"
         sodipodi:nodetypes="ccc"
         id="path112-1" />
    </marker>
  </defs>
  <g
     inkscape:label="Layer 1"
     inkscape:groupmode="layer"
     id="layer1">
    <text
       xml:space="preserve"
       style="font-size:3.52777px;line-height:1.25;font-family:'Open Sans';-inkscape-font-specification:'Open Sans';letter-spacing:0px;word-spacing:0px;stroke-width:0.264583"
       x="8.7725992"
       y="11.962636"
       id="text94"><tspan
         id="tspan94"
         style="stroke-width:0.264583"
         sodipodi:role="line" /></text>
    <text
       xml:space="preserve"
       transform="scale(0.26458333)"
       id="text97"
       style="font-size:13.3333px;line-height:1.25;font-family:'Open Sans';-inkscape-font-specification:'Open Sans';letter-spacing:0px;word-spacing:0px;white-space:pre;shape-inside:url(#rect97);display:inline" />
    <text
       xml:space="preserve"
       transform="scale(0.26458333)"
       id="text98"
       style="font-size:13.3333px;line-height:1.25;font-family:'Open Sans';-inkscape-font-specification:'Open Sans';letter-spacing:0px;word-spacing:0px;white-space:pre;shape-inside:url(#rect98);display:inline" />
    <path
       style="fill:#000000;stroke-width:0.264999"
       id="path322"
       d="m 12.073879,21.52856 c -0.188169,0.117604 -0.378092,0.246176 -0.516953,0.422544 -0.03355,0.04261 -0.06132,0.08948 -0.09198,0.134216 -0.138492,0.249113 -0.209496,0.523848 -0.16361,0.808527 0.0089,0.05551 0.02545,0.109534 0.03818,0.164301 0.08396,0.239101 0.220972,0.454988 0.408192,0.627001 0.131042,0.120396 0.209539,0.163775 0.358336,0.262462 0.426753,0.267948 0.915629,0.381931 1.40783,0.454623 0.325836,0.02666 0.651515,-0.01013 0.959326,-0.122259 0.06743,-0.02455 0.134964,-0.05028 0.197898,-0.08476 0.06327,-0.03467 0.119312,-0.08116 0.178968,-0.121742 0.04905,-0.05404 0.10515,-0.102421 0.147139,-0.162105 0.27618,-0.392565 0.146441,-0.883214 0.0383,-1.308698 -0.121296,-0.374888 -0.303291,-0.73074 -0.595836,-1.001067 -0.04693,-0.04337 -0.09922,-0.08056 -0.148823,-0.120846 -0.215195,-0.159181 -0.473511,-0.229751 -0.740924,-0.191413 -0.189641,0.02719 -0.298331,0.08044 -0.476324,0.1485 -0.306475,0.144066 -0.574621,0.350047 -0.837969,0.559602 -0.110634,0.08809 0.01394,0.244552 0.12458,0.156459 v 0 c 0.247351,-0.197078 0.498754,-0.391467 0.785371,-0.529463 0.295353,-0.115046 0.58106,-0.223859 0.888559,-0.07111 0.04639,0.02304 0.08751,0.05546 0.131264,0.0832 0.04348,0.03468 0.08938,0.06654 0.130446,0.104055 0.268455,0.245216 0.433915,0.570019 0.545889,0.91163 0.09117,0.354346 0.226865,0.791117 0.0056,1.126691 -0.03143,0.04767 -0.07419,0.08682 -0.111288,0.130236 -0.04807,0.03415 -0.09274,0.07369 -0.144224,0.102447 -0.309657,0.172955 -0.702,0.211648 -1.048882,0.192778 -0.463262,-0.06779 -0.924301,-0.172686 -1.326696,-0.423633 -0.130644,-0.0859 -0.208927,-0.129786 -0.323964,-0.233751 -0.162212,-0.146598 -0.282438,-0.330817 -0.358228,-0.535146 -0.01124,-0.0459 -0.02551,-0.09116 -0.03372,-0.1377 -0.04191,-0.237789 0.01705,-0.466913 0.130243,-0.676751 0.02487,-0.03736 0.04717,-0.07657 0.07462,-0.11208 0.122221,-0.158094 0.292163,-0.271124 0.458098,-0.377855 0.126491,-0.06325 0.03705,-0.24213 -0.08944,-0.178884 z" />
    <path
       style="fill:#000000;stroke-width:0.264999"
       id="path323"
       d="m 13.175894,22.532389 c -0.122962,0.127513 -0.240191,0.302646 -0.243745,0.487735 -7.41e-4,0.0383 0.0087,0.07612 0.01301,0.114184 0.07991,0.220554 0.244437,0.283943 0.458501,0.322739 0.213016,0.01976 0.329407,-0.04807 0.456132,-0.214117 0.104765,-0.166844 0.133098,-0.280212 0.08784,-0.472562 -0.05835,-0.181356 -0.171384,-0.243001 -0.351443,-0.272748 -0.09064,-0.008 -0.174128,0.01662 -0.259113,0.04341 -0.134473,0.04379 -0.07255,0.233958 0.06192,0.190172 v 0 c 0.05513,-0.01876 0.10973,-0.03727 0.168986,-0.03559 0.02765,0.0028 0.129177,0.02101 0.14802,0.04448 0.0043,0.0053 0.03342,0.06931 0.03739,0.07791 0.0025,0.0096 0.02022,0.07391 0.02057,0.08833 0.0019,0.07922 -0.03602,0.151548 -0.07489,0.217559 -0.07309,0.103381 -0.128817,0.145987 -0.260833,0.13616 -0.115297,-0.01939 -0.236993,-0.04331 -0.295442,-0.156416 -0.0043,-0.01773 -0.01245,-0.03494 -0.01296,-0.05318 -0.0038,-0.137845 0.08903,-0.27219 0.17776,-0.367556 0.10643,-0.09313 -0.02527,-0.243642 -0.131701,-0.150516 z" />
    <path
       style="fill:#000000;stroke-width:0.264999"
       id="path324"
       d="m 15.457469,22.842809 c 0.381288,-0.03893 0.76435,-0.05689 1.147256,-0.07041 0.339225,-0.0063 0.677604,-0.03237 1.016557,-0.04582 0.353128,-0.0127 0.706516,-0.0074 1.059688,-0.0172 0.410718,-0.0087 0.820361,-0.03943 1.230473,-0.06111 0.249979,-0.01402 0.500238,-0.01982 0.750557,-0.02209 0.14958,-0.0069 0.298683,-0.02159 0.447519,-0.03763 0.009,-0.0011 0.01794,-0.0021 0.0269,-0.003 0.140534,-0.01582 0.118171,-0.214558 -0.02236,-0.198747 v 0 c -0.0087,0.0011 -0.0173,0.0019 -0.02596,0.0029 -0.142327,0.01535 -0.2849,0.02941 -0.427908,0.03648 -0.253235,0.0024 -0.506412,0.0082 -0.759303,0.02236 -0.408448,0.02162 -0.816431,0.05224 -1.225484,0.06091 -0.353955,0.0099 -0.708139,0.0044 -1.062051,0.01728 -0.338659,0.01347 -0.676752,0.03948 -1.015683,0.04578 -0.385301,0.01363 -0.770767,0.03164 -1.154441,0.0708 -0.141062,0.01008 -0.126813,0.209569 0.01425,0.199493 z" />
    <path
       style="fill:#000000;stroke-width:0.264999"
       id="path325"
       d="m 15.216687,22.865203 c 0.214736,-0.22919 0.444739,-0.444312 0.683079,-0.648883 0.04534,-0.0377 0.0905,-0.07561 0.136016,-0.113091 0.06522,-0.0537 0.135782,-0.110519 0.202296,-0.163401 0.02177,-0.0173 0.04314,-0.03516 0.06554,-0.05166 0.01279,-0.0094 0.02991,-0.01371 0.03992,-0.02604 0.0075,-0.0092 -0.02119,0.01066 -0.03178,0.01601 -0.03434,-0.02696 -0.06868,-0.05392 -0.103022,-0.08088 -0.0012,0.141417 0.198763,0.143155 0.199993,0.0019 v 0 c -0.03422,-0.04026 -0.06845,-0.08052 -0.102675,-0.120777 -0.02433,0.0057 -0.04994,0.0075 -0.07299,0.0172 -0.02433,0.01019 -0.105904,0.07711 -0.119923,0.08825 -0.115813,0.09209 -0.230505,0.185584 -0.343659,0.280924 -0.245948,0.211294 -0.483465,0.433343 -0.704634,0.67046 -0.09204,0.107373 0.05982,0.237532 0.151851,0.130156 z" />
    <path
       style="fill:#000000;stroke-width:0.264999"
       id="path326"
       d="m 15.13052,23.089503 c 0.248675,0.253559 0.505745,0.498584 0.757006,0.749523 0.05634,0.06183 0.116336,0.118202 0.183944,0.167092 0.115864,0.08109 0.230543,-0.08276 0.114679,-0.163857 v 0 c -0.05996,-0.03949 -0.106553,-0.09449 -0.157295,-0.144748 -0.251239,-0.250902 -0.508259,-0.495911 -0.756913,-0.749432 -0.1,-0.1 -0.241421,0.04142 -0.141421,0.141422 z" />
    <path
       style="fill:#000000;stroke-width:0.264999"
       id="path327"
       d="m 21.096607,22.515003 c -0.04377,0.290764 0.04429,0.529619 0.169223,0.787202 0.15222,0.247118 0.325442,0.49436 0.566626,0.663336 0.0476,0.03335 0.09936,0.06032 0.149037,0.09048 0.372859,0.181478 0.795518,0.193379 1.201412,0.161849 0.243211,-0.02724 0.4815,-0.09708 0.695452,-0.217501 0.118989,-0.06697 0.164373,-0.10854 0.271648,-0.191836 0.224824,-0.228127 0.426768,-0.505608 0.495493,-0.824953 0.01273,-0.05913 0.015,-0.12003 0.02252,-0.180049 -0.03364,-0.411707 -0.207423,-0.657354 -0.494974,-0.934246 -0.308084,-0.271386 -0.705038,-0.354057 -1.096727,-0.427596 -0.335582,-0.04134 -0.680967,-0.05847 -1.014643,0.0096 -0.05448,0.01111 -0.107686,0.02769 -0.161526,0.04154 -0.381185,0.130593 -0.562975,0.438888 -0.745804,0.773872 -0.05137,0.120356 -0.131435,0.23392 -0.151144,0.366268 -0.0042,0.02842 -5.29e-4,0.05747 -0.0011,0.0862 0.0047,0.141344 0.204629,0.134642 0.199887,-0.0067 v 0 c -0.01992,-0.124938 0.09042,-0.239159 0.127868,-0.350072 0.150262,-0.276225 0.306539,-0.564714 0.620567,-0.676019 0.365877,-0.09655 0.714494,-0.09868 1.089009,-0.04805 0.353044,0.06579 0.714643,0.134199 0.995138,0.375417 0.233868,0.222832 0.395705,0.434544 0.434692,0.766628 -0.0052,0.04886 -0.006,0.09839 -0.01566,0.146587 -0.05573,0.27932 -0.235333,0.521692 -0.426722,0.723942 -0.09074,0.07119 -0.137158,0.113075 -0.237331,0.17027 -0.191188,0.109156 -0.404601,0.172643 -0.622639,0.197379 -0.363889,0.02987 -0.745736,0.02228 -1.082614,-0.133985 -0.04229,-0.025 -0.08637,-0.04723 -0.126868,-0.07505 -0.218453,-0.150043 -0.372689,-0.374568 -0.511961,-0.594995 -0.104021,-0.211566 -0.187491,-0.419664 -0.152834,-0.660244 0.02773,-0.138676 -0.16838,-0.177898 -0.196117,-0.03922 z" />
    <path
       style="fill:#000000;stroke-width:0.264999"
       id="path328"
       d="m 22.654448,23.043794 c 0.08425,-0.203319 0.193929,-0.394925 0.296463,-0.589399 0.0208,-0.03943 0.04156,-0.07887 0.06232,-0.118319 0.0047,-0.0089 0.02368,-0.02947 0.01402,-0.02667 -0.04486,0.01299 -0.08805,0.03118 -0.13208,0.04677 0.09517,0.118621 0.106709,0.283999 0.131329,0.429107 0.03578,0.258993 0.07471,0.517525 0.109733,0.776623 0.0053,0.03747 0.0087,0.07504 0.01648,0.112081 0.03186,0.137787 0.226718,0.09273 0.194857,-0.04506 v 0 c -0.0046,-0.03043 -0.0098,-0.06332 -0.01315,-0.09381 -0.03534,-0.26139 -0.07455,-0.522222 -0.110781,-0.78349 -0.03318,-0.193214 -0.05562,-0.407559 -0.203181,-0.551336 -0.05675,0.0054 -0.113869,0.0077 -0.170254,0.01609 -0.0055,7.94e-4 -0.06982,0.141695 -0.07623,0.144759 -0.105785,0.200644 -0.218797,0.398399 -0.305241,0.608396 -0.05252,0.131307 0.133172,0.205586 0.185695,0.07428 z" />
    <path
       style="fill:#000000;stroke-width:0.264999"
       id="path329"
       d="m 24.868357,22.892886 c 0.267356,-0.01553 0.534598,-0.03179 0.801827,-0.04932 0.376111,-0.02909 0.749771,-0.0816 1.121418,-0.145251 0.35066,-0.06394 0.706583,-0.08948 1.061165,-0.1212 0.30073,-0.03426 0.600175,-0.0767 0.901832,-0.10224 0.290735,-0.02008 0.582065,-0.02492 0.873077,-0.03992 0.266899,-0.02199 0.53326,-0.04939 0.800592,-0.06575 0.10396,-0.0058 0.208024,-0.0097 0.312137,-0.01085 0.01021,-1.14e-4 0.02045,-1.06e-4 0.03068,1.14e-4 0.141351,0.0044 0.147576,-0.195503 0.0062,-0.199903 v 0 c -0.01304,-2.65e-4 -0.02606,-2.65e-4 -0.03911,-1.99e-4 -0.107458,0.0013 -0.214863,0.0052 -0.322157,0.01122 -0.266686,0.01635 -0.532431,0.04338 -0.798658,0.06564 -0.293214,0.01511 -0.586758,0.01987 -0.879684,0.04037 -0.301961,0.02564 -0.60176,0.06767 -0.902758,0.10232 -0.359929,0.0322 -0.72118,0.05834 -1.077121,0.123277 -0.364795,0.06254 -0.73156,0.114107 -1.100731,0.142807 -0.262876,0.01725 -0.525772,0.03298 -0.788736,0.04889 -0.141422,0 -0.141422,0.200001 0,0.200001 z" />
    <path
       style="fill:#000000;stroke-width:0.264999"
       id="path330"
       d="m 25.361106,22.022899 c -0.147241,0.19594 -0.306488,0.382559 -0.465132,0.569283 -0.03931,0.04532 -0.07755,0.0916 -0.117642,0.136239 -0.03068,0.02696 -0.06423,0.04907 -0.09341,0.07864 -0.02029,0.02313 -0.03862,0.04766 -0.05896,0.07075 -0.0527,0.05785 -0.02058,0.02183 -0.0034,0.179139 0.22392,0.231005 0.499322,0.405604 0.765551,0.583142 0.218154,0.146989 0.435483,0.295224 0.651089,0.445931 0.01688,0.01188 0.03376,0.02376 0.05056,0.03576 0.1094,0.08962 0.236143,-0.06509 0.126743,-0.154712 v 0 c -0.02021,-0.01593 -0.04197,-0.02978 -0.06272,-0.04497 -0.216813,-0.151546 -0.435354,-0.300614 -0.65473,-0.448419 -0.251376,-0.167526 -0.511419,-0.331906 -0.725136,-0.547468 -0.02985,0.147582 -0.04102,0.128823 0.0021,0.08372 0.01828,-0.0208 0.03549,-0.04234 0.05272,-0.06398 0.02941,-0.03196 0.07071,-0.04967 0.09839,-0.08399 0.04124,-0.04602 0.08076,-0.09355 0.121174,-0.140285 0.16051,-0.188923 0.321569,-0.37778 0.470588,-0.57599 0.08682,-0.11163 -0.07105,-0.234418 -0.157871,-0.122788 z" />
    <path
       style="fill:#000000;stroke-width:0.264999"
       id="path331"
       d="m 30.801466,22.302164 c -0.01003,0.214755 0.03851,0.431075 0.130365,0.625293 0.02455,0.05193 0.05469,0.101047 0.08203,0.151569 0.157948,0.245295 0.358161,0.465754 0.609642,0.617757 0.05532,0.03344 0.114282,0.06045 0.171421,0.09068 0.253696,0.107481 0.522806,0.173402 0.794764,0.214116 0.05759,0.0086 0.115189,0.01876 0.173349,0.02175 0.07335,0.0038 0.146894,-0.0011 0.220343,-0.0016 0.399592,-0.02495 0.801767,-0.08841 1.170241,-0.252371 0.06436,-0.02864 0.125193,-0.06464 0.187788,-0.09696 0.239205,-0.166188 0.453007,-0.410546 0.450313,-0.719873 -5.29e-4,-0.05285 -0.014,-0.104775 -0.02101,-0.157163 -0.09427,-0.341905 -0.338574,-0.605094 -0.58475,-0.848479 -0.22247,-0.187542 -0.471183,-0.360196 -0.754703,-0.440666 -0.06163,-0.01749 -0.125098,-0.02769 -0.187648,-0.04153 -0.345437,-0.06278 -0.697597,-0.03813 -1.034147,0.06005 -0.07151,0.02085 -0.141042,0.048 -0.211564,0.072 -0.25386,0.09416 -0.491154,0.220229 -0.694603,0.40014 -0.0953,0.08427 -0.168627,0.166876 -0.255262,0.259416 -0.134561,0.158896 -0.07212,0.08034 -0.188322,0.23486 -0.08486,0.113134 0.07514,0.233141 0.159996,0.12001 v 0 c 0.106823,-0.142817 0.04905,-0.06976 0.174413,-0.218276 0.116115,-0.124349 0.230791,-0.249838 0.368935,-0.350758 0.15222,-0.111204 0.325612,-0.186571 0.499616,-0.256172 0.06481,-0.02233 0.128704,-0.04756 0.19445,-0.06698 0.307028,-0.09072 0.628364,-0.115541 0.944084,-0.05884 0.05443,0.01154 0.109653,0.01984 0.1633,0.03461 0.255876,0.07046 0.479587,0.227396 0.68099,0.394507 0.215853,0.212479 0.434811,0.44132 0.527556,0.736603 0.0066,0.03551 0.01781,0.07046 0.01969,0.106524 0.01249,0.240448 -0.163349,0.431416 -0.34362,0.562583 -0.05575,0.02924 -0.109818,0.06192 -0.167246,0.08771 -0.3463,0.155488 -0.724852,0.214596 -1.100767,0.239072 -0.06443,0.0011 -0.128932,0.0062 -0.193297,0.0031 -0.05512,-0.0027 -0.109699,-0.0123 -0.164282,-0.0204 -0.251373,-0.03728 -0.500269,-0.09731 -0.735695,-0.194109 -0.05051,-0.02625 -0.102608,-0.04964 -0.151538,-0.07873 -0.225404,-0.134009 -0.404299,-0.330856 -0.546909,-0.548468 -0.112636,-0.204063 -0.202748,-0.422976 -0.188913,-0.661088 0.01408,-0.140719 -0.184936,-0.160621 -0.199006,-0.0199 z" />
    <path
       style="fill:#000000;stroke-width:0.264999"
       id="path332"
       d="m 32.254872,22.885449 c 0.172212,-0.138213 0.33545,-0.287555 0.499489,-0.435359 0.04609,-0.03785 0.0867,-0.0823 0.132574,-0.120388 0.0054,-0.0045 0.02405,-0.01461 0.01749,-0.01199 -0.06652,0.02664 0.01013,0.02519 -0.102991,0.0037 0.05263,0.251513 0.06531,0.508662 0.08038,0.764516 0.01339,0.130284 0.0057,0.262329 0.01744,0.392639 0.01733,0.140357 0.215821,0.115851 0.198493,-0.0245 v 0 c 0.0013,0.02674 -5.29e-4,-0.02318 -0.0024,-0.07519 -0.0037,-0.101611 -0.0084,-0.203184 -0.01392,-0.304716 -0.01691,-0.286594 -0.02297,-0.580943 -0.109239,-0.856808 -0.03782,-0.02723 -0.06921,-0.06708 -0.113461,-0.08169 -0.06378,-0.02106 -0.196151,0.133326 -0.238281,0.16587 -0.159591,0.143798 -0.318402,0.289076 -0.485608,0.423939 -0.113136,0.08485 0.0069,0.244854 0.119999,0.160002 z" />
    <path
       style="fill:#000000;stroke-width:0.264999"
       id="path333"
       d="m 34.779153,22.953441 c 0.22283,-0.08918 0.457235,-0.133064 0.694259,-0.162552 0.311031,-0.03319 0.62415,-0.02683 0.936273,-0.03799 0.327777,-0.01095 0.654844,-0.03664 0.981414,-0.06611 0.324271,-0.03567 0.649322,-0.06279 0.974061,-0.09364 0.253595,-0.03246 0.507068,-0.06564 0.761727,-0.08864 0.121616,-0.01027 0.243049,-0.009 0.36394,-0.02665 0.06098,-0.0092 0.121915,-0.01871 0.182779,-0.02865 0.0099,-0.0016 0.0055,-7.94e-4 0.01336,-0.0021 0.13947,-0.02342 0.106346,-0.22066 -0.03312,-0.197239 v 0 c -0.0072,0.0013 -0.0031,5.29e-4 -0.01246,0.0021 -0.05983,0.0098 -0.119732,0.0191 -0.179676,0.02817 -0.117084,0.01741 -0.235043,0.01405 -0.352825,0.02532 -0.25496,0.02307 -0.508783,0.05597 -0.762651,0.08873 -0.324418,0.03088 -0.649168,0.0579 -0.973124,0.09355 -0.322966,0.0292 -0.646435,0.05456 -0.9706,0.06543 -0.318019,0.01148 -0.637085,0.0048 -0.953942,0.03941 -0.253894,0.03199 -0.505037,0.07963 -0.743688,0.175308 -0.131305,0.05252 -0.05703,0.238218 0.07428,0.185695 z" />
    <path
       style="fill:#000000;stroke-width:0.264999"
       id="path334"
       d="m 35.296104,22.205075 c -0.209169,0.136039 -0.39484,0.302578 -0.584681,0.463278 -0.06963,0.05539 -0.137388,0.115075 -0.190064,0.18729 0.02455,0.05401 0.04147,0.112176 0.07363,0.162029 0.0079,0.01228 0.02751,0.0098 0.04093,0.01558 0.01828,0.0078 0.03632,0.01622 0.05412,0.02508 0.09303,0.04638 0.179216,0.104712 0.267547,0.159277 0.1598,0.08996 0.315463,0.187126 0.468321,0.288382 0.01487,0.0096 0.03759,0.02553 0.05022,0.03466 0.110601,0.08813 0.235241,-0.06828 0.12464,-0.156413 v 0 c -0.02066,-0.01611 -0.04284,-0.03017 -0.06443,-0.04498 -0.154628,-0.102396 -0.312,-0.200827 -0.473652,-0.291796 -0.116316,-0.07185 -0.229423,-0.147365 -0.35564,-0.20112 -0.01405,-0.006 -0.04003,-0.03129 -0.04279,-0.01627 -0.0087,0.04703 0.0131,0.09473 0.01966,0.142097 0.0412,-0.06003 0.102061,-0.104732 0.15675,-0.151169 0.181552,-0.153795 0.358968,-0.313219 0.558334,-0.444408 0.121267,-0.07276 0.01836,-0.244258 -0.102899,-0.171497 z" />
    <path
       style="fill:#000000;stroke-width:0.264999"
       id="path335"
       d="m 39.739937,22.09717 c -0.06275,0.192554 -0.09361,0.352716 -0.06864,0.555162 0.04496,0.209929 0.185219,0.35278 0.348453,0.480097 0.19956,0.145471 0.426646,0.216546 0.666864,0.257832 0.251172,0.02895 0.500878,0.01402 0.74735,-0.03829 0.245184,-0.05239 0.47194,-0.150416 0.689367,-0.272547 0.204499,-0.112361 0.378806,-0.25934 0.535413,-0.430821 0.131371,-0.16078 0.261776,-0.336286 0.325231,-0.537165 0.01204,-0.03811 0.01852,-0.07775 0.02778,-0.116626 0.01532,-0.269729 -0.02961,-0.549955 -0.171159,-0.784744 -0.02836,-0.04705 -0.06468,-0.08882 -0.09702,-0.13322 -0.206287,-0.210865 -0.468558,-0.362069 -0.751967,-0.444296 -0.05624,-0.01632 -0.114167,-0.02609 -0.171249,-0.03914 -0.375999,-0.06073 -0.657725,0.02447 -1.001453,0.166994 -0.233913,0.115829 -0.458824,0.254865 -0.650168,0.433935 -0.106842,0.09999 -0.153623,0.161613 -0.247743,0.272648 -0.23005,0.286777 -0.345726,0.630634 -0.398899,0.989581 -0.01368,0.172427 -0.0094,0.09074 -0.01402,0.244978 -0.004,0.141362 0.195876,0.147077 0.199917,0.0057 v 0 c 0.0038,-0.140009 2.14e-4,-0.06602 0.01204,-0.221909 0.04584,-0.322085 0.148762,-0.631245 0.353703,-0.889227 0.08266,-0.09802 0.131358,-0.161515 0.224711,-0.249534 0.175585,-0.16555 0.382563,-0.293756 0.597344,-0.401545 0.293217,-0.122608 0.559028,-0.208912 0.880795,-0.156485 0.04954,0.01087 0.09984,0.01876 0.148625,0.03264 0.245459,0.06984 0.474474,0.197784 0.657873,0.374962 0.02609,0.03419 0.0556,0.06601 0.07826,0.102563 0.12034,0.194231 0.159245,0.426837 0.155432,0.651648 -0.04576,0.213699 -0.164999,0.398833 -0.305927,0.563618 -0.141658,0.156295 -0.299755,0.289078 -0.485558,0.39112 -0.199739,0.112554 -0.407628,0.203158 -0.633169,0.251288 -0.22157,0.04788 -0.445974,0.06085 -0.672063,0.03667 -0.208111,-0.03471 -0.404397,-0.094 -0.578046,-0.218941 -0.121822,-0.09291 -0.232574,-0.194259 -0.272418,-0.348027 -0.0232,-0.160541 0.0097,-0.312529 0.0601,-0.465688 0.04472,-0.134165 -0.145016,-0.197411 -0.189735,-0.06325 z" />
    <path
       style="fill:#000000;stroke-width:0.264999"
       id="path336"
       d="m 40.715244,22.247837 c 0.185669,-0.169418 0.370811,-0.33946 0.560184,-0.504751 0.05647,-0.04847 0.06021,-0.05396 0.114909,-0.09367 0.01236,-0.009 0.02429,-0.01871 0.03779,-0.02582 0.0016,-7.94e-4 0.0021,0.0056 2.64e-4,0.0057 -0.07996,0.0035 -0.05694,-0.02349 -0.07894,0.0092 0.0414,0.255762 0.02696,0.517134 0.01886,0.775068 -0.0034,0.07499 -0.0051,0.1598 -0.01177,0.231278 -0.02429,0.139316 0.172725,0.173683 0.197024,0.03436 v 0 c 0.01273,-0.08566 0.0079,-0.17326 0.01466,-0.259371 0.0089,-0.283594 0.02711,-0.572937 -0.03177,-0.852303 -0.01566,-0.03034 -0.0205,-0.06943 -0.04696,-0.09102 -0.131783,-0.107595 -0.251798,0.03929 -0.345614,0.115885 -0.192755,0.168278 -0.381355,0.341241 -0.570082,0.513998 -0.1,0.1 0.04142,0.241422 0.141422,0.141423 z" />
    <path
       style="fill:#000000;stroke-width:0.264999"
       id="path337"
       d="m 41.074935,23.298667 c -0.08869,0.271002 -0.12005,0.554739 -0.143732,0.83743 -0.02111,0.31229 -0.02779,0.625076 -0.01169,0.937641 0.0072,0.215606 0.0287,0.429755 0.05011,0.644223 0.01307,0.204423 0.02561,0.408507 0.04668,0.612315 0.01619,0.135038 0.02143,0.270955 0.02389,0.406823 0.0013,0.09578 0.0016,0.191572 0.0013,0.287359 -5e-5,0.01347 -7.9e-5,0.02692 -2.54e-4,0.04038 -0.0024,0.141404 0.197694,0.144629 0.199975,0.0032 v 0 c 1.83e-4,-0.01439 2.38e-4,-0.02878 2.65e-4,-0.04317 2.14e-4,-0.09714 -9.3e-5,-0.194294 -0.0013,-0.29143 -0.0026,-0.141526 -0.0081,-0.283094 -0.02492,-0.42376 -0.02106,-0.203583 -0.03325,-0.40745 -0.04661,-0.611634 -0.02114,-0.211289 -0.04236,-0.422238 -0.04939,-0.634664 -0.01577,-0.303575 -0.009,-0.607351 0.01127,-0.91067 0.0222,-0.266853 0.05086,-0.534863 0.134163,-0.790826 0.04472,-0.134162 -0.145016,-0.197408 -0.189736,-0.06325 z" />
    <path
       style="fill:#000000;stroke-width:0.264999"
       id="path338"
       d="m 40.492637,24.333701 c 0.112562,-0.160149 0.258062,-0.289732 0.397037,-0.425601 0.103917,-0.09457 0.202014,-0.195408 0.296034,-0.299773 0.02951,-0.02148 0.05397,-0.05011 0.07571,-0.07934 0.02923,-0.04096 0.0659,-0.127407 -0.128151,0.02556 -0.0061,0.0048 0.139234,0.12731 0.151519,0.13789 0.141639,0.122838 0.269364,0.260731 0.3977,0.397145 0.03559,0.03691 0.06924,0.07562 0.104436,0.11289 0.0033,0.0034 0.0065,0.0067 0.0098,0.01011 5.3e-4,5.29e-4 0.0011,0.0013 0.0019,0.0019 0.09701,0.102899 0.242535,-0.0343 0.14552,-0.1372 v 0 c -0.0064,-0.0067 -0.0024,-0.0026 -0.01198,-0.01243 -0.03522,-0.03685 -0.06822,-0.07581 -0.10386,-0.112279 -0.13313,-0.141499 -0.265798,-0.284342 -0.41284,-0.411633 -0.0024,-0.0021 -0.131725,-0.119925 -0.133506,-0.12028 -0.05949,-0.01185 -0.121129,-0.0067 -0.181692,-0.01005 5e-5,-5e-6 0.0019,-0.0027 1.48e-4,-1.6e-5 -0.01812,0.0241 -0.03939,0.04528 -0.06317,0.06395 -0.09116,0.101272 -0.186436,0.198961 -0.287277,0.290645 -0.143026,0.140025 -0.29283,0.273735 -0.409027,0.438406 -0.09204,0.107376 0.05981,0.237535 0.151852,0.13016 z" />
    <path
       style="fill:#000000;stroke-width:0.264999"
       id="path339"
       d="m 41.250277,27.220125 c -0.156734,-0.03624 -0.318566,-0.0516 -0.477025,-0.01373 -0.105053,0.02511 -0.147603,0.05169 -0.242512,0.09756 -0.235937,0.156625 -0.319667,0.354071 -0.405826,0.611084 -0.0509,0.187518 -0.0733,0.383183 -0.01968,0.572866 0.01146,0.04048 0.02793,0.07936 0.04189,0.119044 0.116737,0.290795 0.341964,0.508428 0.577556,0.705545 0.264145,0.222306 0.590913,0.298596 0.923341,0.350989 0.215852,0.02753 0.438647,0.04003 0.65106,-0.01902 0.138441,-0.03849 0.195178,-0.07448 0.32226,-0.138107 0.225869,-0.146182 0.458009,-0.324078 0.580374,-0.57145 0.02429,-0.0491 0.03965,-0.102124 0.05947,-0.153186 0.07293,-0.251602 0.07816,-0.516736 -0.0065,-0.766431 -0.01588,-0.04687 -0.03762,-0.09154 -0.05644,-0.137316 -0.106563,-0.224404 -0.274473,-0.409689 -0.457385,-0.574485 -0.187418,-0.182454 -0.429138,-0.265845 -0.675325,-0.335478 -0.260488,-0.07236 -0.535755,-0.06044 -0.792173,0.02619 -0.05747,0.01942 -0.112067,0.04646 -0.168101,0.06968 -0.150754,0.07675 -0.287197,0.176196 -0.423071,0.275883 -0.113969,0.08373 0.0044,0.244907 0.118414,0.161177 v 0 c 0.123121,-0.09059 0.246745,-0.180978 0.382254,-0.252725 0.04713,-0.02019 0.09295,-0.04379 0.141388,-0.0606 0.222422,-0.07716 0.460516,-0.0906 0.687105,-0.02708 0.217003,0.06074 0.431083,0.130244 0.595913,0.291793 0.161348,0.144219 0.310462,0.306681 0.406392,0.502632 0.111599,0.26299 0.137049,0.476713 0.06037,0.756155 -0.01471,0.04046 -0.02593,0.08238 -0.04414,0.121396 -0.100502,0.21526 -0.307811,0.366631 -0.498782,0.495345 -0.10042,0.05129 -0.161896,0.08886 -0.270533,0.120348 -0.189453,0.05492 -0.388816,0.04187 -0.581653,0.0177 -0.296714,-0.0461 -0.58975,-0.108757 -0.826119,-0.306943 -0.208528,-0.173564 -0.41166,-0.363829 -0.517472,-0.619588 -0.07708,-0.209434 -0.07857,-0.343474 -0.02077,-0.560874 0.06377,-0.19109 0.131226,-0.374682 0.304287,-0.494993 0.209508,-0.104831 0.342956,-0.123341 0.573937,-0.07181 0.135456,0.04064 0.192926,-0.150926 0.05747,-0.191564 z" />
    <path
       style="fill:#000000;stroke-width:0.264999"
       id="path340"
       d="m 41.119186,28.143291 c 0.09219,-0.151217 0.253683,-0.239064 0.41896,-0.288917 0.02434,-0.0031 0.04862,-0.0118 0.07302,-0.0093 0.107346,0.01116 0.09989,0.235929 0.09833,0.300968 -0.01355,0.134038 -0.05669,0.260356 -0.123791,0.37646 -0.05648,0.08362 -0.05323,0.106114 0.05595,0.200557 0.0099,0.0085 0.151619,0.03209 0.165843,0.03464 0.20963,0.0299 0.421193,0.04228 0.632627,0.05025 0.06582,0.0021 0.131659,0.0038 0.197517,0.004 0.141419,5.29e-4 0.142107,-0.199514 7.93e-4,-0.199999 v 0 c -0.06358,-2.09e-4 -0.127145,-0.0019 -0.19069,-0.0039 -0.202232,-0.0076 -0.404572,-0.01931 -0.605152,-0.04731 -0.02732,-0.0048 -0.05474,-0.009 -0.08196,-0.01439 -0.01775,-0.0035 -0.04958,-0.02993 -0.0529,-0.01215 -0.0068,0.03648 0.02976,0.06885 0.03549,0.105514 0.0024,0.01564 -0.03805,0.06191 0.01611,-0.01786 0.08332,-0.146497 0.136797,-0.305538 0.150238,-0.474514 -2.62e-4,-0.04484 0.0042,-0.08995 -7.94e-4,-0.134514 -0.02066,-0.184349 -0.122496,-0.356341 -0.326199,-0.365736 -0.03525,-0.0016 -0.06971,0.01098 -0.104563,0.01646 -0.209744,0.0684 -0.410594,0.179586 -0.528363,0.373644 -0.07495,0.119925 0.09465,0.225925 0.169601,0.106 z" />
    <path
       style="fill:#000000;stroke-width:0.264999"
       id="path341"
       d="m 42.091927,24.752468 c -0.161811,0.03594 -0.343016,0.141213 -0.375489,0.31996 -0.0062,0.03412 1.04e-4,0.06936 1.56e-4,0.104043 0.01442,0.03504 0.02437,0.0723 0.0433,0.105134 0.07352,0.127471 0.292282,0.271725 0.409678,0.373841 0.08816,0.09078 0.174503,0.141189 0.148058,0.277175 -0.0041,0.0034 -0.0081,0.01344 -0.01238,0.01024 -0.0058,-0.0044 0.003,-0.01728 -0.0029,-0.0217 -7.94e-4,-7.94e-4 -0.213545,-0.04298 -0.232772,-0.04785 -0.04704,-0.01273 -0.09351,-0.02728 -0.140441,-0.04038 -0.136242,-0.03793 -0.189878,0.154749 -0.05364,0.192675 v 0 c 0.04851,0.01347 0.09646,0.02874 0.145147,0.04163 0.148328,0.03727 0.341797,0.103227 0.462235,-0.03255 0.01876,-0.02114 0.02217,-0.05203 0.03325,-0.07804 0.01939,-0.217035 -0.06386,-0.310205 -0.215466,-0.452173 -0.129315,-0.112154 -0.277796,-0.207589 -0.384625,-0.342125 -0.03871,-0.119978 0.121576,-0.194714 0.215059,-0.213738 0.138676,-0.02773 0.09945,-0.223851 -0.03922,-0.196117 z" />
    <path
       style="fill:#000000;stroke-width:0.264999"
       id="path342"
       d="m 18.210477,21.324899 c -0.17766,0.15398 -0.242255,0.343466 -0.260485,0.571373 0.0114,0.182848 0.08979,0.345094 0.276487,0.401783 0.03155,0.0096 0.06503,0.01093 0.09754,0.0164 0.257424,-0.0043 0.324409,-0.133281 0.347599,-0.369816 -0.0095,-0.214169 -0.04221,-0.339256 -0.211635,-0.475959 -0.07187,-0.04767 -0.150992,-0.08348 -0.234153,-0.106023 -0.009,-0.0016 -0.01802,-0.003 -0.02703,-0.0046 -0.140036,-0.01976 -0.167971,0.178287 -0.02794,0.19804 v 0 c 0.0011,-7.6e-5 0.0024,-1.53e-4 0.0035,-2.3e-4 0.05726,0.01474 0.111414,0.04008 0.162153,0.07012 0.0095,0.0071 0.05541,0.04 0.06503,0.05228 0.05459,0.06973 0.06357,0.165878 0.07068,0.250306 -0.0043,0.08291 0.0013,0.04269 -0.01524,0.116965 -0.01278,0.05702 -0.04893,0.06686 -0.105613,0.07074 -0.14636,-0.01188 -0.179004,-0.06206 -0.201909,-0.205936 0.01016,-0.174149 0.05562,-0.315711 0.191143,-0.433647 0.107376,-0.09203 -0.02278,-0.243887 -0.130159,-0.151852 z" />
    <path
       style="fill:#000000;stroke-width:0.264999"
       id="path343"
       d="m 18.517902,21.881326 c 0.114604,0.06693 0.225829,0.154995 0.356483,0.189616 0.102677,0.02721 0.137936,0.01929 0.241062,0.01677 0.18837,-0.02553 0.339402,-0.138753 0.469032,-0.270624 0.03187,-0.03592 0.03386,-0.03639 0.0013,-0.006 0.133681,-0.04615 0.06842,-0.235199 -0.06526,-0.189053 v 0 c -0.06911,0.0394 -0.04584,0.01723 -0.07903,0.05528 -0.0925,0.09539 -0.199774,0.185031 -0.333393,0.210537 -0.05671,0.0031 -0.105175,0.01008 -0.161365,-0.0034 -0.113702,-0.02723 -0.208716,-0.107571 -0.308776,-0.163142 -0.113139,-0.08485 -0.233138,0.07515 -0.119999,0.160002 z" />
    <path
       style="fill:#000000;stroke-width:0.264999"
       id="path344"
       d="m 27.923429,21.119334 c -0.174784,0.0819 -0.344501,0.212161 -0.38563,0.412409 -0.0087,0.04223 -0.0045,0.0861 -0.0067,0.129153 0.01566,0.04518 0.0241,0.09356 0.047,0.135533 0.118449,0.217122 0.37664,0.213138 0.58837,0.192879 0.254574,-0.06502 0.368689,-0.199427 0.431572,-0.447379 0.03012,-0.199117 -0.0583,-0.303022 -0.209603,-0.414337 -0.194095,-0.109461 -0.336629,-0.0712 -0.52873,0.01601 -0.127928,0.06029 -0.04267,0.241205 0.08525,0.180919 v 0 c 0.103376,-0.05131 0.216019,-0.09598 0.325649,-0.03532 0.07704,0.05552 0.147913,0.100147 0.132983,0.205941 -0.03401,0.153466 -0.09898,0.249774 -0.257027,0.295161 -0.0971,0.01021 -0.245417,0.03178 -0.334701,-0.02238 -0.04271,-0.0259 -0.05731,-0.06237 -0.0808,-0.102912 -0.0019,-0.05199 -0.0096,-0.09372 0.01389,-0.143161 0.04912,-0.103224 0.154811,-0.168701 0.252749,-0.216821 0.131304,-0.05252 0.05703,-0.23822 -0.07428,-0.185695 z" />
    <path
       style="fill:#000000;stroke-width:0.264999"
       id="path345"
       d="m 28.39688,21.525326 c 0.135218,0.09408 0.286432,0.18097 0.454088,0.194906 0.03885,0.0032 0.07797,-2.65e-4 0.116959,-5.29e-4 0.177797,-0.01506 0.337598,-0.08282 0.480497,-0.186399 0.05641,-0.04342 0.110495,-0.08771 0.149873,-0.147082 0.06383,-0.126199 -0.114647,-0.216464 -0.178472,-0.09026 v 0 c 0.04914,-0.05405 -0.08377,0.08301 -0.08958,0.07599 -0.108263,0.08037 -0.230259,0.133207 -0.365644,0.14778 -0.05574,0.0019 -0.103955,0.0077 -0.15875,-0.0062 -0.104804,-0.02654 -0.200615,-0.08877 -0.288973,-0.14818 -0.113138,-0.08485 -0.233137,0.07515 -0.120001,0.160002 z" />
    <path
       style="fill:#000000;stroke-width:0.264999"
       id="path346"
       d="m 36.869759,20.987299 c -0.15293,0.0749 -0.288997,0.191825 -0.351243,0.354475 -0.01241,0.03244 -0.01799,0.06708 -0.02699,0.100627 -0.02159,0.194707 0.03226,0.332592 0.242473,0.376264 0.03603,0.0075 0.07331,0.0065 0.109968,0.0098 0.212133,0.0114 0.388409,-0.08566 0.559573,-0.197456 0.138808,-0.101115 0.20366,-0.253264 0.220686,-0.419555 -0.01257,-0.03688 -0.02027,-0.07579 -0.03771,-0.110627 -0.06325,-0.126357 -0.204353,-0.217006 -0.31682,-0.294455 -0.147791,-0.06178 -0.203729,-0.02241 -0.331118,0.05266 -0.118721,0.07684 -0.01005,0.244742 0.108675,0.167896 v 0 c 0.03587,-0.02784 0.06175,-0.06226 0.109175,-0.05572 0.05811,0.03984 0.11493,0.07959 0.167286,0.126984 0.01582,0.01431 0.03078,0.0296 0.04616,0.0444 0.01199,0.01466 0.02231,0.03086 0.03596,0.04399 0.0051,0.0048 0.01267,0.0059 0.01902,0.0089 -0.0037,0.10388 -0.04848,0.203531 -0.130755,0.268118 -0.134141,0.08775 -0.268922,0.172913 -0.436361,0.165341 -0.114906,-0.0043 -0.0245,0.0026 -0.119663,-0.01233 -0.0085,-0.0013 -0.0182,0.0019 -0.02572,-0.0021 -0.03832,-0.0214 -0.02474,-0.09191 -0.02671,-0.123827 0.0335,-0.155443 0.122809,-0.251328 0.265343,-0.320469 0.12923,-0.05744 0.048,-0.240199 -0.08123,-0.182763 z" />
    <path
       style="fill:#000000;stroke-width:0.264999"
       id="path347"
       d="m 37.355216,21.293472 c 0.103262,0.132802 0.219083,0.251661 0.371372,0.32567 0.201499,0.05357 0.342437,-0.02936 0.482801,-0.166856 0.108863,-0.107786 0.193074,-0.236088 0.286763,-0.356505 0.01572,-0.01998 0.03148,-0.03992 0.04778,-0.05942 0.09066,-0.108537 -0.06284,-0.236752 -0.153498,-0.128214 v 0 c -0.01775,0.0213 -0.03504,0.043 -0.05214,0.06483 -0.08878,0.114139 -0.168384,0.23586 -0.270955,0.338516 -0.06926,0.0731 -0.150161,0.138006 -0.257066,0.126 -0.12483,-0.05188 -0.209711,-0.163772 -0.295055,-0.26402 -0.08485,-0.113139 -0.244854,0.0069 -0.160002,0.119999 z" />
    <path
       style="fill:#000000;stroke-width:0.264999"
       id="path348"
       d="m 33.749104,23.790565 c 0.0097,0.183229 0.05692,0.359163 0.117216,0.531389 0.05671,0.178961 0.152439,0.337883 0.254344,0.493744 0.136128,0.180893 0.295648,0.342498 0.443169,0.51404 0.150585,0.165209 0.305342,0.326713 0.461134,0.486995 0.15957,0.180298 0.332825,0.346813 0.517366,0.501216 0.224804,0.180144 0.459217,0.347731 0.706314,0.495816 0.240818,0.145907 0.500435,0.25291 0.765685,0.344779 0.26783,0.08197 0.520851,0.202345 0.777272,0.313203 0.216551,0.08885 0.432845,0.179755 0.652539,0.26071 0.172252,0.06394 0.347731,0.118385 0.524246,0.169158 0.156749,0.05094 0.317666,0.08786 0.479729,0.117258 0.107863,0.03329 0.223369,0.04074 0.330978,0.07351 0.01752,0.0065 0.03478,0.01405 0.05085,0.02358 -0.0021,-0.0019 -0.0042,-0.0039 -0.0064,-0.0058 0.09689,0.103015 0.242576,-0.03401 0.145685,-0.137025 v 0 c -0.0034,-0.0033 -0.0069,-0.0067 -0.01029,-0.01 -0.03696,-0.02958 -0.08067,-0.04849 -0.125421,-0.06321 -0.115151,-0.03117 -0.234648,-0.0461 -0.349858,-0.07788 -0.15549,-0.02802 -0.309745,-0.06368 -0.460063,-0.112662 -0.171886,-0.04938 -0.342744,-0.102404 -0.510468,-0.164653 -0.216318,-0.07938 -0.429028,-0.16937 -0.642231,-0.25659 -0.26103,-0.112763 -0.518639,-0.235106 -0.791221,-0.318619 -0.252323,-0.0872 -0.499343,-0.188595 -0.728382,-0.327393 -0.238331,-0.142383 -0.463849,-0.304456 -0.680768,-0.477668 -0.179482,-0.149768 -0.347144,-0.312137 -0.502237,-0.487191 -0.153062,-0.157255 -0.304771,-0.316044 -0.452887,-0.477983 -0.141894,-0.16488 -0.294402,-0.320873 -0.427398,-0.493064 -0.09315,-0.142422 -0.181798,-0.286732 -0.233063,-0.450646 -0.05556,-0.157144 -0.09858,-0.317495 -0.106876,-0.484931 -0.01408,-0.140719 -0.21308,-0.120819 -0.199009,0.0199 z" />
    <path
       style="fill:#000000;stroke-width:0.264999"
       id="path349"
       d="m 33.638228,24.00289 c -0.108829,0.234916 -0.204552,0.476562 -0.273344,0.726308 -0.03373,0.138041 -0.05644,0.278802 -0.0673,0.420483 -0.0046,0.08876 -0.01458,0.113536 0.214291,0.02713 0.03202,-0.01209 0.02737,-0.06275 0.04041,-0.0944 0.03522,-0.08553 0.06859,-0.171799 0.102865,-0.257709 0.131845,-0.299009 0.253426,-0.602713 0.393274,-0.898115 0.02582,-0.05308 0.05209,-0.105982 0.0803,-0.157843 0.0058,-0.01058 0.02798,-0.0381 0.01796,-0.03139 -0.02114,0.01416 -0.04014,0.03124 -0.06021,0.04686 5e-6,0.0044 -0.0036,0.01066 1.8e-5,0.01323 0.05167,0.03714 0.112702,0.05912 0.168381,0.08992 0.126757,0.07012 0.253415,0.140388 0.380304,0.210288 0.152713,0.08185 0.306647,0.161494 0.462503,0.237209 0.01548,0.0074 0.0309,0.01492 0.04669,0.02162 0.130556,0.05436 0.207436,-0.130273 0.07688,-0.184634 v 0 c -0.0122,-0.0053 -0.02418,-0.01114 -0.03619,-0.01688 -0.152787,-0.07421 -0.303663,-0.152304 -0.453388,-0.232492 -0.12737,-0.07017 -0.2545,-0.140729 -0.381759,-0.211079 -0.0079,-0.0044 -0.167182,-0.0911 -0.186979,-0.09876 -0.03159,-0.01222 -0.06526,-0.01818 -0.09789,-0.02727 -0.03016,0.01669 -0.06166,0.03119 -0.09047,0.05012 -0.02883,0.01894 -0.08297,0.183351 -0.106934,0.205561 -0.141531,0.299212 -0.264964,0.606644 -0.398261,0.90956 -0.03373,0.08455 -0.06682,0.169347 -0.101187,0.253635 -0.01101,0.02699 -0.05063,0.05672 -0.03391,0.0806 0.03654,0.05222 0.106985,0.06936 0.1617,0.102045 0.0063,0.0038 -0.01844,-0.04963 0.0011,-0.02207 0.0097,-0.128966 0.03057,-0.257064 0.06077,-0.382792 0.06458,-0.237325 0.156861,-0.466351 0.259337,-0.689689 0.06324,-0.126492 -0.115642,-0.215934 -0.178888,-0.08945 z" />
    <path
       style="fill:#000000;stroke-width:0.264999"
       id="path350"
       d="m 39.751357,28.066289 c 0.100705,0.06461 0.206634,0.12065 0.313092,0.175091 0.02103,0.01024 0.04165,0.02154 0.0633,0.03045 0.0401,-0.05045 0.0802,-0.100904 0.120306,-0.151358 -0.05737,-0.129262 -0.240172,-0.04814 -0.182808,0.08113 v 0 c 0.04537,-0.03858 0.09074,-0.07716 0.136115,-0.115732 -0.0019,-7.94e-4 -0.03774,-0.01804 -0.04587,-0.02257 -0.101362,-0.05181 -0.202292,-0.105039 -0.298132,-0.166616 -0.119925,-0.07495 -0.225925,0.09465 -0.106,0.169601 z" />
    <path
       style="fill:#000000;stroke-width:0.264999"
       id="path351"
       d="m 35.324341,26.888137 c -0.177411,0.04531 -0.420299,0.125296 -0.5279,0.28616 -0.0249,0.0372 -0.03702,0.08149 -0.05553,0.122243 -0.0032,0.04375 -0.01662,0.08794 -0.0096,0.131244 0.04158,0.257945 0.341088,0.420505 0.54111,0.545634 0.149445,0.09888 0.329258,0.185375 0.432007,0.338929 -1.72e-4,0.0033 7.93e-4,0.01267 -5.3e-4,0.0097 -0.0051,-0.01045 -0.0092,-0.02162 -0.01074,-0.03311 -0.0013,-0.0089 0.01146,-0.02566 0.0026,-0.0269 -0.01754,-0.0024 -0.03261,0.01376 -0.04897,0.02053 -0.02638,0.0109 -0.05208,0.02363 -0.07924,0.03243 -0.02951,0.0096 -0.06021,0.01497 -0.09031,0.02246 -0.170809,0.0492 -0.317066,0.0016 -0.463616,-0.0852 -0.01445,-0.0097 -0.02887,-0.0195 -0.0433,-0.02925 -0.117467,-0.07875 -0.228836,0.08737 -0.111369,0.166124 v 0 c 0.01786,0.01191 0.03572,0.02381 0.05359,0.0357 0.199581,0.115797 0.384458,0.1667 0.614865,0.106235 0.102521,-0.0274 0.305126,-0.07395 0.356704,-0.182364 0.01349,-0.02835 0.01164,-0.06262 0.0083,-0.09384 -0.0024,-0.02103 -0.01656,-0.03895 -0.02485,-0.05842 -0.125833,-0.171109 -0.30961,-0.284565 -0.489106,-0.392703 -0.114588,-0.07137 -0.401966,-0.234561 -0.447106,-0.370118 -0.0068,-0.02048 -0.0026,-0.04309 -0.0039,-0.06463 0.0047,-0.019 0.0042,-0.04015 0.01418,-0.05702 0.07852,-0.133213 0.281445,-0.188471 0.418629,-0.227082 0.139139,-0.02529 0.103362,-0.222072 -0.03578,-0.196773 z" />
    <path
       style="fill:#000000;stroke-width:0.264999"
       id="path352"
       d="m 22.897896,24.289725 c 0.07875,0.341691 0.204957,0.67165 0.330197,0.998704 0.09533,0.277143 0.204928,0.54787 0.349023,0.803267 0.113125,0.18388 0.225322,0.368207 0.340275,0.550982 0.133525,0.196553 0.268304,0.392882 0.426895,0.570132 0.164346,0.180567 0.368768,0.314999 0.569399,0.450871 0.162346,0.104111 0.318415,0.217381 0.475221,0.329507 0.164293,0.112805 0.328242,0.226491 0.478107,0.358137 0.120579,0.115207 0.251532,0.215744 0.393025,0.303874 0.176472,0.108506 0.359045,0.206616 0.538965,0.309195 0.261591,0.139782 0.535572,0.254463 0.816835,0.347858 0.275552,0.08035 0.549047,0.167484 0.824243,0.249018 0.262358,0.0806 0.52184,0.170452 0.779523,0.264895 0.240078,0.09094 0.483156,0.169011 0.731843,0.232215 0.227811,0.063 0.461462,0.100766 0.693494,0.144332 0.266361,0.05682 0.531709,0.117044 0.800833,0.159563 0.305916,0.04548 0.612031,0.08972 0.917567,0.138067 0.359312,0.05637 0.722516,0.07437 1.085538,0.08485 0.316717,0.0071 0.633526,0.0073 0.950304,0.0072 0.402918,0.0047 0.805457,-0.0155 1.208074,-0.02771 0.415639,-0.01421 0.829003,-0.05715 1.239856,-0.119875 0.373007,-0.06024 0.746826,-0.115303 1.120063,-0.173958 0.284819,-0.03826 0.565825,-0.09846 0.845754,-0.162481 0.220543,-0.05037 0.434409,-0.122947 0.648089,-0.196107 0.239202,-0.07899 0.477065,-0.162094 0.716941,-0.239011 0.164928,-0.04467 0.326404,-0.09927 0.486556,-0.158459 0.06579,-0.01326 0.1222,-0.054 0.185092,-0.07422 0.01394,-0.004 0.0072,-0.0021 0.02005,-0.0053 0.137094,-0.03471 0.088,-0.228594 -0.0491,-0.193881 v 0 c -0.02551,0.0066 -0.01201,0.0028 -0.04048,0.01167 -0.06188,0.02405 -0.120158,0.05738 -0.184904,0.07415 -0.15743,0.05819 -0.316172,0.111713 -0.478311,0.155618 -0.241097,0.07737 -0.480216,0.160792 -0.720638,0.240233 -0.207058,0.0709 -0.414192,0.141529 -0.627906,0.19036 -0.27544,0.06304 -0.55194,0.122312 -0.832216,0.159872 -0.372938,0.05867 -0.746482,0.113596 -1.119192,0.173821 -0.402858,0.06155 -0.808157,0.103703 -1.215716,0.117676 -0.400632,0.01214 -0.801179,0.03225 -1.202108,0.02761 -0.31483,1.41e-4 -0.629689,-6.9e-5 -0.944456,-0.0071 -0.354486,-0.01019 -0.709166,-0.02751 -1.060043,-0.08248 -0.30557,-0.04834 -0.611719,-0.09258 -0.917665,-0.138081 -0.267232,-0.04207 -0.530556,-0.102526 -0.795094,-0.158575 -0.227888,-0.04276 -0.457398,-0.0797 -0.681133,-0.141602 -0.24207,-0.0615 -0.478607,-0.137549 -0.712279,-0.226164 -0.261647,-0.09588 -0.525132,-0.187079 -0.791536,-0.268869 -0.273169,-0.08091 -0.544615,-0.1675 -0.818179,-0.247116 -0.268872,-0.08878 -0.530418,-0.19889 -0.780661,-0.33175 -0.177773,-0.101325 -0.35814,-0.198279 -0.532553,-0.30538 -0.132575,-0.08192 -0.254024,-0.176538 -0.366636,-0.284323 -0.155083,-0.135726 -0.323612,-0.254236 -0.49363,-0.370444 -0.158189,-0.113127 -0.315635,-0.22739 -0.479391,-0.332443 -0.187224,-0.126786 -0.378978,-0.251119 -0.532905,-0.419087 -0.152053,-0.167701 -0.277905,-0.35673 -0.406236,-0.542795 -0.113305,-0.180147 -0.223901,-0.361826 -0.335507,-0.542997 -0.139859,-0.24639 -0.243655,-0.50886 -0.33632,-0.776308 -0.121277,-0.316558 -0.243779,-0.635895 -0.32085,-0.966394 -0.02774,-0.138676 -0.223853,-0.09945 -0.196117,0.03923 z" />
    <path
       style="fill:#000000;stroke-width:0.264999"
       id="path353"
       d="m 22.784371,24.243965 c -0.14623,0.213863 -0.263501,0.44613 -0.364937,0.684049 -0.06076,0.161181 -0.09419,0.330578 -0.111842,0.501443 0.0332,-0.01931 -0.01884,0.04755 -0.0033,0.04653 0.06719,-0.0044 0.138192,-0.0016 0.200039,-0.02818 0.01781,-0.0077 -0.0011,-0.03883 5.29e-4,-0.05815 0.0016,-0.01945 0.02437,-0.17504 0.02521,-0.180948 0.02424,-0.218657 0.08828,-0.429356 0.148148,-0.64012 0.02798,-0.07564 0.06209,-0.237961 0.113601,-0.303112 0.003,0.02643 -0.03307,0.01937 -0.03899,0.03606 -7.94e-4,0.0026 0.323263,0.173455 0.337071,0.180742 0.21272,0.118674 0.430729,0.227325 0.653794,0.325091 0.01323,0.0019 0.05045,0.02019 0.05482,0.03042 0.0923,0.107146 0.24383,-0.02339 0.151527,-0.130537 v 0 c -0.03538,-0.03772 -0.07639,-0.06659 -0.12609,-0.08308 -0.218665,-0.09577 -0.432239,-0.202459 -0.640725,-0.318791 -0.08233,-0.04343 -0.329896,-0.196908 -0.421614,-0.20366 -0.02897,-0.0021 -0.05932,0.0019 -0.08617,0.01291 -0.0213,0.0088 -0.0353,0.02961 -0.05295,0.04441 -0.06417,0.109284 -0.101505,0.233985 -0.136662,0.354902 -0.0623,0.219347 -0.128265,0.438761 -0.153721,0.666268 -0.0076,0.05272 -0.02307,0.153874 -0.02724,0.208021 -0.0016,0.01937 -0.01778,0.04954 -5.29e-4,0.05826 0.06073,0.03052 0.132324,0.03197 0.199576,0.04184 0.01273,0.0019 -0.02347,-0.05645 0.0027,-0.03849 0.01532,-0.150992 0.0444,-0.300773 0.09693,-0.443563 0.09468,-0.223327 0.204994,-0.440968 0.340884,-0.642305 0.08485,-0.113139 -0.07515,-0.233138 -0.159999,-0.120002 z" />
    <path
       style="fill:#000000;stroke-width:0.264999"
       id="path354"
       d="m 29.374616,30.308189 c -0.174385,0.01392 -0.348293,0.01603 -0.513282,0.07889 -0.02588,0.02403 -0.05891,0.04213 -0.0776,0.07208 -0.139382,0.223448 0.104424,0.465926 0.237631,0.619466 0.178302,0.173601 0.352224,0.351351 0.520385,0.534789 0.0073,0.01135 0.01826,0.02101 0.02183,0.03401 0.0019,0.0067 -0.01312,-0.007 -0.01614,-0.01323 -0.0096,-0.02006 0.0073,-0.03577 -0.02138,-0.03604 -0.04985,-5.3e-4 -0.09945,0.0074 -0.149257,0.0097 -0.215725,-0.0048 -0.430609,-0.02604 -0.645316,-0.04613 -0.01267,-0.0028 -0.02532,-0.0056 -0.038,-0.0084 -0.138551,-0.02835 -0.178638,0.167595 -0.04009,0.195939 v 0 c 0.01982,0.0039 0.03963,0.0077 0.05944,0.01156 0.224287,0.02098 0.448796,0.04337 0.674208,0.04674 0.06218,-0.0035 0.160743,-0.0038 0.221295,-0.0271 0.15136,-0.05812 0.177692,-0.180941 0.08081,-0.30217 -0.167013,-0.182153 -0.339201,-0.359259 -0.516967,-0.530963 -0.08769,-0.100317 -0.231076,-0.231818 -0.237005,-0.374359 0.144806,-0.06146 0.305953,-0.04596 0.459314,-0.06574 0.140721,-0.01408 0.120819,-0.21308 -0.0199,-0.199009 z" />
    <path
       style="fill:#000000;stroke-width:0.264999"
       id="path356"
       d="m 41.249671,32.807392 c -0.170074,0.03554 -0.329972,0.09821 -0.483142,0.178978 -0.158541,0.106987 -0.27092,0.263197 -0.378714,0.418063 -0.12323,0.185256 -0.16936,0.300267 -0.164407,0.525258 0.02905,0.260335 0.209756,0.461812 0.369358,0.656654 0.168598,0.215313 0.382053,0.377296 0.62929,0.490299 0.29922,0.107149 0.622618,0.09259 0.934953,0.07476 0.290171,-0.02339 0.575337,-0.07486 0.842023,-0.193236 0.243613,-0.129593 0.366028,-0.336772 0.484185,-0.575871 0.07541,-0.202996 0.146021,-0.422378 0.143029,-0.642138 -5.29e-4,-0.03959 -0.0072,-0.07885 -0.01085,-0.118272 -0.01082,-0.03695 -0.01714,-0.07553 -0.03248,-0.110839 -0.0864,-0.198948 -0.313722,-0.348176 -0.485309,-0.467574 -0.215477,-0.140346 -0.444966,-0.255651 -0.685303,-0.34629 -0.174175,-0.05571 -0.353187,-0.11562 -0.537543,-0.125216 -0.139367,-0.0072 -0.178139,0.0055 -0.317508,0.02561 -0.201703,0.04681 -0.3981,0.112459 -0.594752,0.17652 -0.134464,0.04381 -0.07251,0.233971 0.06195,0.190164 v 0 c 0.186113,-0.06063 0.371988,-0.122489 0.562332,-0.168876 0.110556,-0.01717 0.153323,-0.02972 0.263697,-0.0249 0.168574,0.0074 0.332203,0.0638 0.491471,0.113913 0.225111,0.08427 0.439524,0.192797 0.641581,0.32335 0.117641,0.08151 0.343704,0.232066 0.40845,0.362837 0.01122,0.02265 0.0163,0.04786 0.02447,0.07179 0.02635,0.222131 -0.03439,0.44482 -0.112646,0.651531 -0.09375,0.190908 -0.192956,0.37538 -0.386488,0.481714 -0.243705,0.110157 -0.506473,0.152966 -0.771845,0.176117 -0.28003,0.01635 -0.570997,0.03224 -0.841049,-0.05734 -0.220173,-0.09818 -0.407541,-0.244387 -0.556993,-0.434848 -0.130972,-0.159628 -0.289455,-0.325813 -0.324133,-0.536307 -0.0081,-0.17399 0.03285,-0.26002 0.128751,-0.404683 0.0894,-0.128895 0.181684,-0.259956 0.308097,-0.355455 0.13707,-0.073 0.280384,-0.128611 0.432906,-0.160475 0.138054,-0.03068 0.09467,-0.225914 -0.04339,-0.195236 z" />
    <path
       style="fill:#000000;stroke-width:0.264999"
       id="path357"
       d="m 41.827635,33.634181 c 0.127442,-0.146817 0.256257,-0.161975 0.440743,-0.133056 0.02691,0.01371 0.07906,0.02998 0.08767,0.06851 0.0028,0.01243 -0.0097,0.02357 -0.01349,0.03573 -0.03012,0.09634 -0.0519,0.138324 -0.106248,0.224284 0.01452,0.02625 -0.177755,0.187066 -0.181105,0.203481 -0.009,0.04426 -0.01019,0.08976 -0.01529,0.134641 0.08731,0.08913 0.225406,0.06383 0.317212,0.142428 0.04674,0.0775 0.0766,0.183219 0.05224,0.272828 -0.167399,0.0026 -0.330047,-0.04172 -0.491707,-0.08192 -0.168426,-0.03859 -0.323609,-0.121637 -0.489815,-0.165849 -0.137308,-0.03386 -0.185195,0.160322 -0.04789,0.194183 v 0 c 0.04777,0.0097 0.09456,0.03317 0.140094,0.04982 0.115287,0.04213 0.231598,0.08154 0.349441,0.115964 0.189193,0.04685 0.519496,0.163211 0.687228,0.0072 0.02297,-0.02138 0.03256,-0.05367 0.04884,-0.08051 0.02849,-0.170318 -0.01032,-0.345821 -0.131291,-0.473787 -0.08698,-0.05827 -0.147572,-0.07973 -0.247534,-0.105931 -0.01386,-0.0036 -0.03707,-0.02299 -0.0419,-0.0095 -0.0057,0.01588 0.02066,0.02666 0.031,0.03999 -0.0094,0.03683 -0.02588,0.07256 -0.02835,0.1105 -5.3e-5,7.94e-4 0.02789,-0.02397 0.05777,-0.05466 0.05859,-0.06022 0.113086,-0.124357 0.161044,-0.193445 0.110019,-0.180282 0.238337,-0.439915 -1.45e-4,-0.587775 -0.0336,-0.02082 -0.07337,-0.02946 -0.110059,-0.0442 -0.260014,-0.03324 -0.439806,-0.0021 -0.620303,0.200972 -0.09204,0.107374 0.05982,0.237533 0.151853,0.130157 z" />
    <path
       style="fill:#000000;stroke-width:0.264999"
       id="path358"
       d="m 13.419854,24.375482 c 0.06047,0.24897 0.15153,0.489196 0.231535,0.732268 0.07698,0.238369 0.161613,0.473488 0.256214,0.705443 0.07036,0.188701 0.158039,0.370104 0.234887,0.556083 0.06341,0.153627 0.124496,0.308043 0.191896,0.459994 0.08183,0.192865 0.183146,0.375848 0.282457,0.559951 0.08983,0.159252 0.1825,0.316947 0.26908,0.477985 0.09802,0.19526 0.213681,0.38127 0.337953,0.560774 0.0989,0.124934 0.191524,0.254405 0.286231,0.382503 0.107965,0.164788 0.246718,0.303279 0.381771,0.445153 0.21903,0.234014 0.458234,0.446207 0.699438,0.656728 0.267246,0.231563 0.543309,0.451773 0.806798,0.687734 0.259042,0.233371 0.537879,0.443669 0.821713,0.64571 0.229021,0.17031 0.458748,0.339635 0.687793,0.509908 0.205353,0.149458 0.417639,0.288872 0.627126,0.432377 0.284257,0.193334 0.585374,0.360939 0.889251,0.52112 0.415258,0.21358 0.835329,0.416568 1.261856,0.606635 0.330647,0.145301 0.67342,0.260617 1.013656,0.381021 0.309639,0.116845 0.625644,0.211865 0.944695,0.29872 0.368056,0.111 0.742196,0.193825 1.120952,0.258111 0.448567,0.06825 0.902277,0.0869 1.353928,0.124463 0.538557,0.05685 1.076458,0.119375 1.616009,0.166285 0.461812,0.04783 0.92514,0.07413 1.389084,0.08782 0.513307,0.01119 1.0268,0.0095 1.5402,0.0096 0.607214,-0.0016 1.213226,-0.03899 1.818976,-0.07687 0.594067,-0.03737 1.186066,-0.09901 1.777738,-0.162925 0.605375,-0.04887 1.205569,-0.140288 1.806993,-0.221914 0.556996,-0.07622 1.116698,-0.121267 1.678136,-0.144921 0.423495,-0.01543 0.84731,-0.01807 1.271037,-0.01879 0.17326,-0.0029 0.345662,-0.02035 0.518097,-0.03575 0.107648,-0.01966 0.212815,-0.05022 0.31982,-0.07292 0.07055,-0.01122 0.13685,-0.03869 0.204713,-0.05993 0.03976,-0.0093 0.08099,-0.0078 0.121537,-0.0083 0.06451,-2.64e-4 0.129029,-1.32e-4 0.193542,9.3e-5 0.04456,1.61e-4 -0.0032,5.29e-4 -0.0069,-0.0021 -0.02024,-0.01344 -0.03559,-0.03309 -0.05339,-0.04963 0.04271,0.134819 0.233374,0.07441 0.190662,-0.0604 v 0 c -0.04707,-0.05749 -0.05584,-0.09125 -0.129635,-0.08794 -0.06546,-2.27e-4 -0.130919,-5.29e-4 -0.196377,-8.4e-5 -0.06012,7.93e-4 -0.120901,2.64e-4 -0.179173,0.01738 -0.06191,0.01939 -0.122267,0.04484 -0.186571,0.05517 -0.09913,0.02117 -0.196972,0.04761 -0.295968,0.06933 -0.166632,0.01487 -0.333227,0.03184 -0.500645,0.03495 -0.426429,7.94e-4 -0.852942,0.0034 -1.27913,0.01894 -0.567616,0.02397 -1.133486,0.0695 -1.696609,0.146558 -0.59962,0.08139 -1.19801,0.172577 -1.801575,0.221256 -0.588679,0.06359 -1.177679,0.124978 -1.768739,0.162157 -0.601586,0.03762 -1.203423,0.07473 -1.806459,0.07648 -0.511447,-8.5e-5 -1.022985,0.0016 -1.534342,-0.0095 -0.460129,-0.01355 -0.919644,-0.03968 -1.377659,-0.08716 -0.539803,-0.0469 -1.077934,-0.109638 -1.616758,-0.166349 -0.446011,-0.03706 -0.894035,-0.05552 -1.337064,-0.122335 -0.372361,-0.06307 -0.740055,-0.14469 -1.101852,-0.253902 -0.314269,-0.08555 -0.625541,-0.17906 -0.930505,-0.294286 -0.335304,-0.118618 -0.673124,-0.232138 -0.999014,-0.37514 -0.42254,-0.188245 -0.83865,-0.389347 -1.250024,-0.600887 -0.297114,-0.156477 -0.591497,-0.320315 -0.869455,-0.509177 -0.20736,-0.14205 -0.417486,-0.280054 -0.620835,-0.42789 -0.230155,-0.171095 -0.460981,-0.341262 -0.69115,-0.51235 -0.277807,-0.197646 -0.550735,-0.403397 -0.804253,-0.63175 -0.264129,-0.236525 -0.540714,-0.457428 -0.808708,-0.689423 -0.236566,-0.20647 -0.471382,-0.414332 -0.6861,-0.643956 -0.129396,-0.135882 -0.262779,-0.267975 -0.365817,-0.426164 -0.09352,-0.126421 -0.184761,-0.254384 -0.282649,-0.377502 -0.120183,-0.173242 -0.231647,-0.353052 -0.326231,-0.54165 -0.08676,-0.16101 -0.17907,-0.318971 -0.269165,-0.478144 -0.09688,-0.179584 -0.195946,-0.357929 -0.275668,-0.546116 -0.06675,-0.150387 -0.12707,-0.303292 -0.189898,-0.455332 -0.07687,-0.185619 -0.16412,-0.366842 -0.234515,-0.555178 -0.09291,-0.227656 -0.17591,-0.458446 -0.251428,-0.692439 -0.07798,-0.236767 -0.166614,-0.470794 -0.226265,-0.713107 -0.03068,-0.138054 -0.225916,-0.09467 -0.195237,0.04339 z" />
    <path
       style="fill:#000000;stroke-width:0.264999"
       id="path359"
       d="m 13.432143,24.479764 c -0.149466,0.243616 -0.255985,0.510675 -0.370011,0.772057 -0.01103,0.02548 -0.02209,0.05094 -0.03309,0.07643 -0.01333,0.03088 -0.02564,0.06221 -0.03976,0.09274 -0.0017,0.0038 -0.01038,0.01013 -0.0063,0.01069 0.191224,0.02598 0.176475,0.07358 0.188976,-0.0084 0.03397,-0.156671 0.10242,-0.303779 0.167252,-0.449583 0.08183,-0.168265 0.152929,-0.341585 0.236857,-0.508804 0.01337,-0.04746 0.06541,-0.07618 0.0012,-0.02212 -0.0058,0.0048 -0.02445,0.0037 -0.02029,0.01 0.0073,0.01106 0.0249,0.0092 0.03683,0.015 0.02165,0.0105 0.04251,0.02257 0.06377,0.03384 0.319019,0.171556 0.644472,0.330298 0.961141,0.506373 0.191007,0.09551 0.368586,0.213008 0.549611,0.325255 0.02334,0.01426 0.04679,0.02835 0.07096,0.04117 0.125134,0.06589 0.218314,-0.11108 0.09318,-0.176966 v 0 c -0.02013,-0.01042 -0.03928,-0.02265 -0.05877,-0.0342 -0.183754,-0.11385 -0.364076,-0.232971 -0.557811,-0.33007 -0.318403,-0.176917 -0.645459,-0.336738 -0.966224,-0.509104 -0.141531,-0.07212 -0.270436,-0.133188 -0.352379,0.05118 -0.08521,0.170058 -0.157859,0.34607 -0.240839,0.517229 -0.07359,0.16566 -0.151469,0.333345 -0.183687,0.512913 -0.0073,0.113059 -0.02308,0.08164 0.186076,0.121515 0.01014,0.0019 0.01,-0.0181 0.01437,-0.02744 0.01411,-0.03016 0.02616,-0.06123 0.03936,-0.0918 0.01093,-0.02532 0.02191,-0.05062 0.03287,-0.07592 0.108729,-0.249248 0.210355,-0.50374 0.350542,-0.737333 0.0811,-0.115858 -0.08275,-0.23055 -0.163847,-0.114694 z" />
    <path
       style="fill:#000000;stroke-width:0.264999"
       id="path360"
       d="m 43.953496,33.928863 c 0.270848,0 0.541697,0 0.812548,0 0.286629,-0.0048 0.572524,-2.48e-4 0.8581,0.02508 0.271653,0.02117 0.540826,0.06353 0.811157,0.09619 0.245549,0.02638 0.492085,0.04296 0.738782,0.05374 0.05736,0.0024 0.114742,0.004 0.172149,0.0037 0.157361,-0.03395 0.313367,-0.07626 0.471109,-0.11112 0.114665,-0.02392 0.229661,-0.04638 0.345218,-0.06557 0.01627,-0.0026 0.0092,-0.0016 0.02135,-0.0033 0.139906,-0.02064 0.110725,-0.218496 -0.02918,-0.197861 v 0 c -0.01476,0.0021 -0.0065,7.94e-4 -0.02495,0.0039 -0.119031,0.01979 -0.237501,0.04288 -0.355603,0.06758 -0.143955,0.03182 -0.287922,0.06341 -0.428964,0.106407 -0.05416,2.65e-4 -0.108296,-0.0011 -0.162409,-0.0035 -0.241607,-0.01053 -0.483052,-0.02676 -0.723543,-0.05249 -0.272457,-0.03284 -0.543734,-0.07563 -0.817528,-0.09686 -0.291436,-0.02561 -0.583187,-0.0309 -0.875689,-0.02585 -0.270851,0 -0.5417,0 -0.812548,0 -0.141423,0 -0.141423,0.200001 0,0.200001 z" />
    <path
       style="fill:#000000;stroke-width:0.264999"
       id="path361"
       d="m 44.187469,33.266738 c -0.163605,0.16333 -0.314322,0.338556 -0.480131,0.499721 -0.07152,0.06987 -0.142142,0.140113 -0.217247,0.206185 -0.187362,0.158276 0.06283,0.258022 0.180488,0.314087 0.288563,0.132429 0.5724,0.27428 0.852909,0.422934 0.05403,0.02888 0.107939,0.05798 0.16125,0.08817 0.123079,0.06965 0.221583,-0.104408 0.0985,-0.174062 v 0 c -0.05493,-0.03107 -0.110439,-0.0611 -0.166108,-0.09083 -0.283165,-0.150045 -0.569682,-0.293251 -0.860951,-0.426966 -0.03451,-0.01624 -0.06901,-0.0325 -0.103545,-0.0487 -0.01127,-0.0053 -0.02469,-0.02413 -0.03386,-0.01572 -0.01029,0.0094 0.0094,0.02801 0.0057,0.04149 -0.0067,0.02479 -0.0263,0.0444 -0.03536,0.06842 -0.0052,0.01365 0.04386,-0.05015 0.03305,-0.02866 0.07759,-0.06828 0.150675,-0.140779 0.224567,-0.212958 0.166397,-0.161906 0.318183,-0.33737 0.482116,-0.501679 0.1,-0.1 -0.04142,-0.241421 -0.141422,-0.14142 z" />
    <path
       style="fill:#000000;stroke-width:0.264999"
       id="path362"
       d="m 46.36458,31.598535 c -0.245382,0.0369 -0.491241,0.151913 -0.661636,0.336878 -0.03451,0.03746 -0.06047,0.08197 -0.09071,0.122957 -0.01468,0.04713 -0.04286,0.09204 -0.04406,0.141386 -0.0013,0.05748 0.01177,0.116694 0.03655,0.168582 0.08454,0.177053 0.363728,0.360113 0.521624,0.475924 0.06388,0.04793 0.112302,0.07508 0.158919,0.137359 0.0086,0.01151 0.02812,0.04942 0.01789,0.03929 -0.01447,-0.01434 -0.01336,-0.04274 -0.03122,-0.0525 -0.01315,-0.0072 -0.02891,0.0079 -0.04337,0.01177 -0.03006,0.0081 -0.06014,0.01614 -0.09021,0.02421 -0.190359,0.0363 -0.385114,0.06833 -0.578508,0.04151 -0.01561,-0.0065 -0.03123,-0.01304 -0.04684,-0.01955 -0.132929,-0.04827 -0.201192,0.139724 -0.06826,0.187992 v 0 c 0.02979,0.01 0.05957,0.01992 0.08936,0.0299 0.221538,0.02726 0.443397,-0.0016 0.660908,-0.04804 0.06392,-0.02008 0.198607,-0.04929 0.241628,-0.114361 0.126857,-0.191881 -0.06318,-0.299988 -0.192069,-0.398921 -0.128355,-0.094 -0.256212,-0.187978 -0.372922,-0.296558 -0.01675,-0.01558 -0.103902,-0.09469 -0.110138,-0.135474 -0.0039,-0.02559 0.009,-0.05099 0.0136,-0.07648 0.02024,-0.02986 0.03672,-0.06267 0.06076,-0.08959 0.13861,-0.155221 0.342609,-0.254543 0.545323,-0.287004 0.140933,-0.01175 0.124322,-0.211056 -0.01662,-0.199311 z" />
    <path
       style="fill:#000000;stroke-width:0.264999"
       id="path363"
       d="m 46.150495,31.185081 c -0.07155,0.373862 -0.101539,0.754531 -0.138803,1.133007 -0.0205,0.263192 -0.05811,0.524661 -0.101497,0.784939 -0.008,0.04366 -0.01638,0.08724 -0.01905,0.131607 -0.008,0.141195 0.191672,0.152521 0.199681,0.01132 v 0 c 0.0019,-0.03717 0.01101,-0.07339 0.01667,-0.110059 0.04409,-0.264684 0.0823,-0.530582 0.103256,-0.798219 0.03648,-0.370485 0.06572,-0.74313 0.135004,-1.109215 0.03068,-0.138054 -0.164558,-0.181441 -0.195239,-0.04339 z" />
    <path
       style="fill:#000000;stroke-width:0.264999"
       id="path364"
       d="m 48.417419,33.311149 c -0.09794,0.32975 -0.02455,0.662394 0.07145,0.982572 0.109752,0.327485 0.296412,0.573752 0.600993,0.742072 0.0573,0.03167 0.118319,0.05608 0.177477,0.08412 0.294034,0.113297 0.613317,0.186369 0.928153,0.124216 0.0677,-0.01336 0.133107,-0.03652 0.19966,-0.05477 0.331499,-0.135308 0.642125,-0.33908 0.847646,-0.638292 0.04256,-0.06197 0.07612,-0.129656 0.114173,-0.194484 0.05699,-0.127659 0.130987,-0.272854 0.157757,-0.412375 0.04347,-0.226528 0.0131,-0.461351 -0.07026,-0.674872 -0.02508,-0.06424 -0.06066,-0.123876 -0.09099,-0.185814 -0.0448,-0.06069 -0.08461,-0.125392 -0.134395,-0.18206 -0.205764,-0.234215 -0.486008,-0.423273 -0.784333,-0.51458 -0.07522,-0.02302 -0.153366,-0.03507 -0.23005,-0.05261 -0.405366,-0.04539 -0.822577,0.0056 -1.197462,0.171982 -0.07036,0.03123 -0.136594,0.07105 -0.204891,0.106572 -0.309332,0.207251 -0.586182,0.47416 -0.757052,0.80908 -0.02326,0.04557 -0.04042,0.09399 -0.06063,0.140988 -0.05526,0.130178 0.128836,0.208331 0.184099,0.07815 v 0 c 0.01667,-0.03986 0.03066,-0.08093 0.04998,-0.119568 0.151122,-0.302212 0.401248,-0.542052 0.67647,-0.731525 0.06081,-0.03217 0.119703,-0.06825 0.182425,-0.0965 0.33835,-0.152416 0.71619,-0.200646 1.083292,-0.164028 0.06769,0.01484 0.136562,0.02506 0.203068,0.04453 0.263712,0.07721 0.511005,0.244205 0.695039,0.447455 0.04255,0.04699 0.07691,0.100796 0.115371,0.151193 0.02635,0.05199 0.05702,0.101992 0.07903,0.155959 0.07015,0.172022 0.104153,0.3707 0.07056,0.555477 -0.02254,0.123981 -0.09011,0.258744 -0.139939,0.372041 -0.08037,0.139859 -0.107397,0.205042 -0.217141,0.324482 -0.170926,0.186029 -0.396049,0.317688 -0.625662,0.416198 -0.134126,0.0384 -0.195816,0.06484 -0.334817,0.07139 -0.224171,0.01058 -0.446588,-0.05238 -0.654148,-0.129302 -0.05191,-0.02408 -0.105333,-0.0451 -0.155721,-0.07221 -0.264205,-0.142145 -0.421404,-0.34812 -0.516241,-0.630735 -0.08517,-0.279865 -0.155729,-0.57173 -0.07317,-0.861509 0.04472,-0.134165 -0.145016,-0.197411 -0.189738,-0.06325 z" />
    <path
       style="fill:#000000;stroke-width:0.264999"
       id="path366"
       d="m 48.637774,33.842387 c 0.01513,0.02875 0.03019,0.05754 0.04275,0.08754 0.0098,0.0231 0.02172,0.0452 0.03245,0.06788 0.0048,0.01606 0.01521,0.03027 0.02,0.0462 0.01286,0.03069 0.03023,0.05888 0.04724,0.08732 0.01378,0.03007 0.02877,0.05954 0.04346,0.08917 0.01548,0.03032 0.03351,0.05924 0.05135,0.08819 0.01857,0.03028 0.0388,0.05945 0.05771,0.08953 0.02492,0.03975 0.05219,0.07765 0.08372,0.1124 0.02819,0.03094 0.0601,0.0579 0.09331,0.08322 0.03507,0.02445 0.07069,0.04814 0.106942,0.07079 0.02654,0.01767 0.05224,0.03651 0.07743,0.05604 0.02553,0.01942 0.05374,0.03473 0.08234,0.04903 0.03305,0.01669 0.06619,0.03318 0.10006,0.04815 0.0392,0.01894 0.07964,0.0346 0.121627,0.04602 0.03838,0.01053 0.07732,0.01487 0.117006,0.01498 0.0403,-0.0011 0.0805,0.0013 0.120817,7.93e-4 0.05012,-1e-5 0.09975,-0.0078 0.149405,-0.01363 0.04139,-0.005 0.08096,-0.01834 0.120372,-0.03131 0.02622,-0.0084 0.05352,-0.01283 0.08078,-0.01627 0.05331,-0.0081 0.106172,-0.01966 0.157618,-0.03583 0.03415,-0.01101 0.06671,-0.02643 0.09878,-0.0424 0.0513,-0.02852 0.103481,-0.05542 0.153279,-0.08653 0.04098,-0.02477 0.07909,-0.05322 0.114678,-0.08519 0.02257,-0.01913 0.04469,-0.0387 0.0662,-0.05898 0.02686,-0.02484 0.05198,-0.05133 0.07608,-0.07883 0.02703,-0.03399 0.05086,-0.0705 0.07313,-0.107755 0.02035,-0.03782 0.03869,-0.07675 0.0561,-0.116004 0.01744,-0.04821 0.04347,-0.09251 0.06499,-0.138898 0.02032,-0.04624 0.03962,-0.09266 0.0538,-0.141166 0.02096,-0.06477 0.02082,-0.132281 0.01884,-0.199472 -0.0032,-0.06447 -0.01175,-0.128571 -0.02304,-0.192087 -0.01318,-0.06248 -0.03047,-0.124114 -0.04824,-0.185444 -0.01405,-0.05442 -0.03093,-0.107693 -0.05478,-0.158618 -0.02622,-0.04965 -0.05815,-0.09567 -0.09315,-0.139422 -0.03005,-0.03818 -0.06313,-0.0736 -0.09817,-0.107193 -0.03493,-0.03332 -0.07272,-0.0633 -0.11295,-0.0899 -0.03978,-0.02463 -0.08157,-0.04581 -0.123741,-0.06599 -0.04184,-0.02132 -0.08717,-0.03397 -0.130529,-0.05159 -0.04661,-0.01879 -0.0938,-0.03604 -0.141534,-0.05174 -0.04874,-0.01815 -0.09961,-0.02864 -0.150571,-0.03817 -0.05934,-0.0096 -0.118701,-0.01839 -0.178555,-0.02402 -0.06803,-0.0067 -0.136244,-0.0063 -0.204446,-0.0038 -0.06162,0.0024 -0.122346,0.01037 -0.181877,0.02627 -0.06046,0.0173 -0.114803,0.04877 -0.168301,0.0809 -0.03369,0.02127 -0.06954,0.0386 -0.105231,0.05617 -0.04486,0.02238 -0.08946,0.04527 -0.133566,0.0691 -0.05296,0.02622 -0.101167,0.06007 -0.148778,0.09475 -0.04789,0.03626 -0.09597,0.07231 -0.140399,0.112799 -0.03535,0.0335 -0.06738,0.07029 -0.09904,0.107225 -0.03486,0.03624 -0.0649,0.07617 -0.0912,0.11892 -0.03314,0.05086 -0.05491,0.106958 -0.07401,0.164227 -0.01458,0.0429 -0.0226,0.08754 -0.03263,0.131598 -0.0032,0.01236 -0.0052,0.02503 -0.0083,0.03739 -2.64e-4,0.0016 0.0013,-0.0059 7.94e-4,-0.0045 -0.0013,0.0033 -0.0026,0.0067 -0.0032,0.01032 -0.0019,0.01209 -0.0024,0.02429 -0.0037,0.03644 0.0059,0.141301 0.205724,0.132958 0.199826,-0.0083 v 0 c -0.0013,0.0094 -0.0071,0.03717 -0.0043,0.0281 0.0055,-0.01826 0.01042,-0.03655 0.014,-0.05533 0.0085,-0.03771 0.01529,-0.0759 0.02737,-0.112705 0.0072,-0.0217 0.01373,-0.04432 0.02313,-0.06521 0.0091,-0.02021 0.02146,-0.03884 0.03204,-0.05824 0.02013,-0.0339 0.04509,-0.06408 0.0722,-0.09268 0.02643,-0.03094 0.05317,-0.06173 0.08244,-0.09003 0.03842,-0.03579 0.08142,-0.06617 0.122801,-0.09838 0.04041,-0.02944 0.08101,-0.05856 0.126174,-0.08049 0.04184,-0.02265 0.08421,-0.04434 0.126773,-0.0656 0.04067,-0.02003 0.08141,-0.04005 0.119875,-0.06416 0.0379,-0.02278 0.07578,-0.04636 0.118361,-0.0595 0.04434,-0.01283 0.09018,-0.01683 0.136149,-0.01924 0.05958,-0.0021 0.119142,-0.0028 0.178575,0.0031 0.05376,0.0049 0.107019,0.01307 0.160327,0.02148 0.04229,0.0079 0.08457,0.01614 0.124918,0.03159 0.04359,0.01429 0.08665,0.0301 0.129212,0.04724 0.03961,0.01585 0.08071,0.02788 0.119137,0.04658 0.03423,0.01627 0.06809,0.03347 0.100602,0.053 0.03035,0.01931 0.05788,0.04266 0.0842,0.06713 0.02878,0.02724 0.05554,0.05633 0.08008,0.08747 0.02535,0.03162 0.04861,0.06459 0.0685,0.1 0.01976,0.04104 0.03149,0.08488 0.04345,0.128733 0.01588,0.05469 0.03129,0.109657 0.04351,0.165275 0.0099,0.05371 0.01669,0.108061 0.01998,0.162591 0.0013,0.04664 0.0039,0.09343 -0.01122,0.138441 -0.01069,0.03887 -0.02769,0.0753 -0.04315,0.112448 -0.02169,0.04748 -0.04882,0.09248 -0.06631,0.141846 -0.014,0.03194 -0.02925,0.06335 -0.04499,0.09446 -0.01593,0.02692 -0.0333,0.05301 -0.05173,0.07828 -0.0199,0.02275 -0.0406,0.04467 -0.06288,0.06513 -0.0204,0.01929 -0.04159,0.03768 -0.06292,0.05595 -0.02695,0.02447 -0.05602,0.04572 -0.08729,0.06445 -0.04404,0.02806 -0.09103,0.051 -0.136306,0.07696 -0.02275,0.01154 -0.04598,0.02262 -0.0702,0.03073 -0.03978,0.01318 -0.08126,0.02096 -0.122494,0.02797 -0.03968,0.0053 -0.07936,0.01204 -0.117472,0.02463 -0.02668,0.0088 -0.05332,0.0185 -0.08123,0.02265 -0.04286,0.0051 -0.08569,0.01206 -0.128935,0.01225 -0.03935,5.29e-4 -0.0786,-0.0021 -0.117943,-7.94e-4 -0.0082,4.8e-5 -0.01767,0.0011 -0.02585,-7.7e-5 -0.01347,-0.0019 -0.02653,-0.0061 -0.03995,-0.0083 -0.03211,-0.008 -0.06215,-0.02188 -0.09211,-0.03569 -0.03094,-0.01355 -0.06101,-0.02888 -0.09121,-0.044 -0.01696,-0.0085 -0.03394,-0.01704 -0.04931,-0.02826 -0.03055,-0.02363 -0.06172,-0.04646 -0.09405,-0.06762 -0.03109,-0.01937 -0.06148,-0.03982 -0.09181,-0.06035 -0.02373,-0.01796 -0.04666,-0.03694 -0.06677,-0.059 -0.02379,-0.02561 -0.04313,-0.0545 -0.06198,-0.08388 -0.0186,-0.02954 -0.03843,-0.05823 -0.05672,-0.08793 -0.01463,-0.02373 -0.02952,-0.04739 -0.04245,-0.07213 -0.01709,-0.03448 -0.03382,-0.06913 -0.05127,-0.103428 -0.01177,-0.01947 -0.02413,-0.03856 -0.03332,-0.05949 -0.008,-0.01892 -0.0168,-0.03745 -0.02453,-0.05648 -0.0096,-0.02021 -0.02003,-0.03997 -0.0291,-0.06041 -0.01323,-0.0309 -0.02758,-0.0614 -0.04411,-0.09068 -0.05744,-0.129233 -0.2402,-0.04801 -0.182764,0.08123 z" />
    <path
       style="fill:#000000;stroke-width:0.264999"
       id="path367"
       d="m 49.550513,33.203831 c -0.007,0.0075 -0.01492,0.01421 -0.02103,0.02244 -0.04194,0.05649 -0.06215,0.127402 -0.06893,0.196709 -0.0021,0.02217 -0.0019,0.04449 -0.0028,0.06674 0.0033,0.08666 0.01521,0.176088 0.05855,0.252997 0.01021,0.01812 0.02103,0.03643 0.03558,0.05131 0.01746,0.01786 0.03957,0.0305 0.05936,0.04575 0.02246,0.0074 0.04391,0.01942 0.06739,0.02228 0.09155,0.01119 0.185465,-0.03307 0.260559,-0.08077 0.01402,-0.0089 0.02727,-0.01902 0.0409,-0.02855 0.06671,-0.05229 0.102505,-0.10265 0.115604,-0.187658 0.0016,-0.01005 0.0019,-0.02027 0.0028,-0.03039 -5.29e-4,-0.02732 -0.0031,-0.118039 -0.04473,-0.116798 -0.05839,0.0019 -0.11321,0.03587 -0.160714,0.06987 -0.005,0.0036 -0.0024,0.09739 -0.0024,0.09872 0.0043,0.128426 0.0056,0.256863 0.0043,0.385344 -5.29e-4,0.04226 -0.0013,0.08451 -0.0026,0.126757 -5.3e-5,0.0028 -2.28e-4,0.0056 -1.59e-4,0.0083 6.1e-5,0.0024 1.4e-5,-0.0049 1.85e-4,-0.0073 2.65e-4,-0.0055 0.0024,-0.0105 0.0046,-0.01548 0.0037,-0.0069 0.0016,-0.0033 0.0064,-0.0108 -0.08174,0.115406 0.08147,0.231002 0.16321,0.115596 v 0 c 0.0064,-0.0098 0.0035,-0.0049 0.009,-0.01479 0.01042,-0.02204 0.01704,-0.04566 0.01669,-0.07028 0.0011,-0.04336 0.0021,-0.08671 0.0026,-0.13008 0.0013,-0.130122 6.6e-5,-0.260202 -0.0043,-0.390266 -2.44e-4,-0.01386 -2.65e-4,-0.02775 -7.94e-4,-0.04162 -1.43e-4,-0.0043 0.0031,-0.01381 -0.0011,-0.01289 -0.184441,0.04122 -0.125865,0.100743 -0.191548,-0.01214 -5.29e-4,-0.0011 0.0067,0.0064 0.0019,0.0031 -1.27e-4,0.0048 -2.65e-4,0.01572 -0.0011,0.02061 -5.3e-4,0.0037 -0.0019,0.0073 -0.0021,0.01101 -2.04e-4,0.0019 0.0013,0.0041 5.29e-4,0.0057 -0.0062,0.01053 -0.02376,0.02495 -0.03169,0.03215 -0.02445,0.01762 -0.03366,0.02535 -0.06089,0.04026 -0.128838,0.07059 0.04268,-0.0259 -0.06658,0.03014 -0.0038,0.0019 -0.0065,0.0055 -0.0098,0.0082 -0.0027,0.0011 -0.0054,0.0021 -0.0081,0.0034 -0.01228,0.006 -0.0087,0.007 -0.0217,-0.01334 -0.03076,-0.04787 -0.03595,-0.106915 -0.03987,-0.16202 2.17e-4,-0.01429 -2.65e-4,-0.02864 5.29e-4,-0.0429 0.0024,-0.03361 0.0109,-0.06605 0.02244,-0.09751 0.107373,-0.09204 -0.02278,-0.243888 -0.13016,-0.151852 z" />
    <path
       style="fill:#000000;stroke-width:0.264999"
       id="path1"
       d="m 13.209656,17.949939 c -0.131365,-0.0081 -0.272644,0.01494 -0.385925,0.08632 -0.0362,0.02281 -0.06789,0.0521 -0.101841,0.07815 -0.16589,0.167475 -0.333598,0.380395 -0.328021,0.630334 10e-4,0.04452 0.01469,0.08784 0.02204,0.131767 0.01823,0.0378 0.03055,0.07907 0.0547,0.113391 0.140607,0.199797 0.362266,0.223434 0.585394,0.221379 0.263069,-0.02198 -0.06008,0.0067 0.153851,-0.0168 0.0074,-8.2e-4 0.02815,0.0043 0.0223,-2.64e-4 -0.02879,-0.02253 -0.07394,-0.02568 -0.09427,-0.05606 -0.01533,-0.0229 0.01798,-0.06065 0.0014,-0.08268 -0.01023,-0.01359 -0.02523,0.02283 -0.03784,0.03425 -0.108906,0.123945 -0.248186,0.236067 -0.320136,0.388517 -0.01396,0.02958 -0.02134,0.06183 -0.032,0.09275 -3.17e-4,0.03196 -0.0091,0.06496 -9.79e-4,0.09588 0.04574,0.174556 0.235919,0.203531 0.388274,0.184814 0.0442,-0.0054 0.08717,-0.01824 0.130753,-0.02736 0.178739,-0.04946 0.346766,-0.123763 0.500638,-0.226606 0.05424,-0.04675 0.0293,-0.01902 0.07244,-0.08524 0.06349,-0.12637 -0.115227,-0.216155 -0.178714,-0.08978 v 0 c 0.01778,-0.0112 0.01454,-0.01027 -0.005,0.0088 -0.132979,0.08919 -0.27804,0.153452 -0.432388,0.19748 -0.08087,0.019 -0.150333,0.03216 -0.233232,0.0262 -0.009,-6.35e-4 -0.01788,-0.003 -0.02689,-0.0029 -0.0055,7.8e-5 -0.01214,0.0072 -0.0162,0.0035 -0.0065,-0.006 -0.0051,-0.01701 -0.0077,-0.02551 0.0039,-0.0159 0.0049,-0.03279 0.01162,-0.04772 0.06141,-0.136339 0.189594,-0.233501 0.283948,-0.344788 0.04461,-0.04061 0.11128,-0.08904 0.09035,-0.166893 -0.03303,-0.122877 -0.198019,-0.06231 -0.273043,-0.05961 -0.141008,0.0028 -0.304151,0.004 -0.405291,-0.113957 -0.0152,-0.01772 -0.02393,-0.0401 -0.0359,-0.06014 -0.0064,-0.02443 -0.01719,-0.04811 -0.01906,-0.07329 -0.0145,-0.194735 0.130525,-0.361134 0.253578,-0.493089 0.02175,-0.01833 0.04171,-0.03901 0.06525,-0.05499 0.07653,-0.05196 0.174379,-0.0693 0.265002,-0.06862 0.139497,0.02325 0.172377,-0.174029 0.03288,-0.197279 z" />
    <path
       style="fill:#000000;stroke-width:0.264999"
       id="path2"
       d="m 22.653364,18.22173 c -0.243529,0.113318 -0.358607,0.304002 -0.447444,0.553371 -0.02457,0.06897 -0.03927,0.141059 -0.05891,0.211589 -0.02559,0.194101 -0.04502,0.41553 0.140503,0.545358 0.04836,0.03384 0.10883,0.0626 0.167608,0.05716 0.185718,-0.01719 0.207511,-0.12581 0.2854,-0.258375 0.06382,-0.205597 0.03596,-0.412481 0.0067,-0.620176 -0.01143,-0.08105 -0.02619,-0.09804 -0.0048,-0.06963 -0.04106,0.02936 -0.105424,0.04083 -0.123191,0.08809 -0.01189,0.03164 0.03926,0.05503 0.05908,0.08241 0.109987,0.151941 0.22076,0.305488 0.345346,0.445984 0.0476,0.05368 0.09915,0.103727 0.148727,0.155591 0.165986,0.147688 0.348845,0.293943 0.577773,0.31952 0.08434,0.0094 0.119573,-0.0015 0.198386,-0.01484 0.05937,-0.01271 0.109005,-0.03743 0.15909,-0.07005 0.114796,-0.08259 -0.002,-0.244942 -0.116807,-0.162346 v 0 c -0.01851,0.0223 -0.05395,0.02374 -0.07862,0.03572 -0.04649,0.0097 -0.0748,0.01854 -0.124419,0.01508 -0.187682,-0.01309 -0.33496,-0.14578 -0.471023,-0.261489 -0.04617,-0.04802 -0.09426,-0.09427 -0.138502,-0.144066 -0.07125,-0.0802 -0.179422,-0.221122 -0.244389,-0.307937 -0.03211,-0.04291 -0.06278,-0.08689 -0.09467,-0.129972 -0.02678,-0.03617 -0.03888,-0.09282 -0.08133,-0.107761 -0.06573,-0.02314 -0.139318,0.0037 -0.208977,0.0056 -0.0035,0.02331 -0.01049,0.04635 -0.01043,0.06991 1.5e-4,0.06165 0.01824,0.121953 0.02594,0.183119 0.01662,0.132005 0.02714,0.264429 -0.0018,0.395909 -0.01245,0.03235 -0.02509,0.06463 -0.03734,0.09706 -0.0074,0.01948 -0.0035,0.04819 -0.02149,0.05866 -0.02122,0.01235 -0.05051,0.005 -0.0736,-0.0033 -0.142567,-0.05174 -0.09783,-0.243623 -0.09025,-0.352429 0.04531,-0.169121 0.09163,-0.346654 0.199627,-0.489569 0.04577,-0.06056 0.118301,-0.105384 0.184035,-0.140887 0.132417,-0.04966 0.06219,-0.236922 -0.07023,-0.187266 z" />
    <path
       style="fill:#000000;stroke-width:0.264999"
       id="path3"
       d="m 31.965275,18.47765 c -0.179636,0.102202 -0.324114,0.278033 -0.413806,0.462972 -0.02296,0.04736 -0.03816,0.09811 -0.05723,0.147162 -0.0076,0.05083 -0.02524,0.101169 -0.0227,0.152498 0.0091,0.184457 0.120956,0.343403 0.292261,0.413525 0.156424,0.06403 0.254048,0.04192 0.415581,0.03423 0.06434,-0.01946 0.133493,-0.02716 0.193024,-0.05837 0.06169,-0.03234 0.119282,-0.07592 0.164362,-0.129015 0.117208,-0.13804 0.170347,-0.365618 0.09038,-0.534764 -0.02453,-0.05187 -0.07164,-0.08964 -0.107463,-0.134454 -0.217199,-0.0898 -0.107328,-0.06438 -0.328141,-0.08235 -0.141166,-0.0085 -0.153144,0.191172 -0.01199,0.199641 v 0 c 0.137369,0.0039 0.07328,-0.0032 0.192635,0.0178 0.02048,0.01665 0.04707,0.02782 0.06145,0.04996 0.08522,0.131198 0.0053,0.348282 -0.122024,0.422644 -0.04394,0.02567 -0.09633,0.03286 -0.144496,0.04929 -0.1167,0.0093 -0.186862,0.02605 -0.300744,-0.0063 -0.08481,-0.02408 -0.121635,-0.05748 -0.164074,-0.131566 -0.01497,-0.02612 -0.02918,-0.05435 -0.03247,-0.08427 -0.0039,-0.03585 0.0076,-0.07173 0.0114,-0.107592 0.01439,-0.03919 0.02537,-0.0798 0.04315,-0.117574 0.06941,-0.147518 0.188142,-0.301581 0.330329,-0.38458 0.126492,-0.06325 0.03705,-0.242131 -0.08944,-0.178886 z" />
    <path
       style="fill:#000000;stroke-width:0.264999"
       id="path4"
       d="m 32.460647,19.367953 c 0.0675,0.03461 0.130971,0.07853 0.20248,0.103821 0.323215,0.114302 0.735481,0.04553 1.061011,-0.03044 0.03854,-0.01155 0.07708,-0.0231 0.115615,-0.03465 0.135403,-0.04082 0.07768,-0.232307 -0.05773,-0.191489 v 0 c -0.03453,0.01048 -0.06906,0.02095 -0.10359,0.03143 -0.245081,0.05788 -0.495958,0.103948 -0.749188,0.07696 -0.06429,-0.0069 -0.127019,-0.02418 -0.190397,-0.03692 -0.03594,-0.0072 -0.0717,-0.01533 -0.107548,-0.023 -0.07375,-0.120672 -0.244401,-0.01638 -0.170656,0.10429 z" />
    <path
       style="fill:#000000;stroke-width:0.264999"
       id="path5"
       d="m 41.435112,18.325394 c -0.17902,-0.02718 -0.369173,0.03652 -0.505283,0.155486 -0.03216,0.02811 -0.05831,0.06244 -0.08746,0.09365 -0.02209,0.03903 -0.04815,0.07606 -0.06625,0.117092 -0.04684,0.106224 -0.08295,0.261223 -0.03373,0.373973 0.05213,0.119419 0.107461,0.136982 0.207987,0.205754 0.05997,0.01255 0.118832,0.03288 0.179916,0.03766 0.288896,0.02261 0.552958,-0.128517 0.775468,-0.294011 0.02527,-0.03859 0.05842,-0.07303 0.07577,-0.115762 0.06718,-0.165492 -0.01326,-0.343373 -0.122878,-0.467349 -0.02522,-0.02853 -0.05518,-0.0525 -0.08277,-0.07875 -0.136035,-0.07757 -0.06571,-0.04773 -0.210201,-0.0913 -0.136247,-0.03791 -0.189859,0.154769 -0.05361,0.19268 v 0 c 0.08793,0.02115 0.04536,0.0062 0.127635,0.0451 0.07725,0.06955 0.191093,0.182242 0.168323,0.300158 -0.0038,0.01948 -0.01484,0.03681 -0.02225,0.05522 -0.224708,0.170141 -0.436671,0.284192 -0.727781,0.247777 -0.01249,-0.007 -0.105058,-0.05437 -0.119719,-0.07755 -0.05616,-0.08879 0.01154,-0.236342 0.05252,-0.316626 0.01894,-0.02202 0.03563,-0.04617 0.0568,-0.06605 0.08801,-0.08267 0.218347,-0.135199 0.339026,-0.123119 0.137197,0.0343 0.185706,-0.159729 0.04851,-0.194029 z" />
    <path
       style="fill:#000000;stroke-width:0.264999"
       id="path6"
       d="m 41.5482,18.889756 c 0.06873,0.176363 0.177549,0.389196 0.320569,0.516927 0.0541,0.04832 0.116872,0.08723 0.181748,0.11968 0.134681,0.06736 0.210701,0.06688 0.353679,0.08677 0.16442,0.0041 0.332126,-0.01567 0.479637,-0.09212 0.02326,-0.01193 0.04063,-0.02914 0.05776,-0.0483 0.08649,-0.111893 -0.07175,-0.234205 -0.15824,-0.122312 v 0 c 0.003,-0.003 0.0061,-0.006 0.0092,-0.009 7.94e-4,-3.97e-4 0.0019,-7.94e-4 0.0026,-0.0012 -0.0019,0.0014 -0.0035,0.0028 -0.0053,0.0042 -0.108241,0.06072 -0.239292,0.06752 -0.360127,0.0703 -0.144857,-0.01672 -0.291449,-0.03608 -0.407734,-0.136604 -0.124899,-0.107905 -0.218662,-0.289386 -0.280564,-0.43988 -0.03644,-0.136646 -0.229687,-0.08511 -0.193246,0.05153 z" />
    <path
       style="fill:#000000;stroke-width:0.264999"
       id="path7"
       d="m 50.17753,18.497737 c -0.04204,-0.03169 -0.07694,-0.06246 -0.128738,-0.07983 -0.130173,-0.04364 -0.270822,-0.04254 -0.398772,0.0086 -0.04843,0.01937 -0.09134,0.05039 -0.13701,0.07559 -0.0389,0.03777 -0.08254,0.07121 -0.116713,0.113317 -0.0959,0.118152 -0.143838,0.268349 -0.121091,0.420248 0.01704,0.113774 0.06067,0.18923 0.107987,0.291461 0.148669,0.23871 0.334708,0.452381 0.529486,0.654423 0.01648,0.01611 0.03278,0.03242 0.04944,0.04834 0.01209,0.01157 0.02545,0.02186 0.03686,0.03413 0.0019,0.0019 0.0024,0.01016 0.0019,0.0076 -0.0052,-0.0271 -0.01349,-0.05373 -0.01598,-0.08121 -0.0011,-0.01169 0.01677,-0.03136 0.0055,-0.03476 -0.02754,-0.0083 -0.05711,0.007 -0.08567,0.01051 -0.258561,0.03051 -0.517618,0.05629 -0.776878,0.08007 -0.02556,0.0038 -0.08185,0.0068 -0.110217,0.0085 -0.141113,-0.0093 -0.154292,0.190247 -0.01318,0.199565 v 0 c 0.0476,0.0013 0.09419,-0.0044 0.141658,-0.0089 0.262286,-0.02405 0.524369,-0.05014 0.785939,-0.08111 0.07026,-0.01047 0.186349,-0.01269 0.232442,-0.08595 0.06553,-0.104143 -0.05127,-0.17799 -0.107948,-0.235691 -0.179961,-0.186138 -0.350877,-0.383453 -0.492408,-0.60066 -0.03047,-0.0635 -0.07351,-0.142275 -0.08907,-0.213088 -0.03101,-0.141179 0.03832,-0.259488 0.137811,-0.353524 0.03078,-0.01888 0.05973,-0.04112 0.09233,-0.05663 0.07644,-0.03638 0.170722,-0.04486 0.252965,-0.02256 0.02845,0.0077 0.05383,0.02678 0.07791,0.04294 0.1,0.1 0.241421,-0.04142 0.141422,-0.141421 z" />
    <path
       style="fill:#000000;stroke-width:0.264999"
       id="path8"
       d="m 49.969562,18.071624 c -0.228703,0.396446 -0.375938,0.833594 -0.525862,1.264093 -0.106061,0.313675 -0.214704,0.626498 -0.327858,0.93769 -0.04886,0.134107 -0.05719,0.06857 0.163253,0.134526 0.05108,-0.131874 -0.135416,-0.204113 -0.186497,-0.07224 v 0 c 0.205224,0.115147 0.157911,0.14847 0.211204,0.0061 0.113458,-0.312051 0.22243,-0.625726 0.328776,-0.940268 0.142656,-0.409789 0.284279,-0.822974 0.49316,-1.204919 0.08834,-0.110431 -0.06783,-0.23537 -0.156176,-0.124939 z" />
    <text
       xml:space="preserve"
       style="font-size:3.175px;line-height:1.25;font-family:'Open Sans';-inkscape-font-specification:'Open Sans';letter-spacing:0px;word-spacing:0px;stroke-width:0.264583"
       x="46.308285"
       y="9.4428329"
       id="text139"><tspan
         sodipodi:role="line"
         style="stroke-width:0.264583"
         x="46.308285"
         y="9.4428329"
         id="tspan1">_. S ::= a S | </tspan></text>
    <circle
       style="fill:none;stroke:#000000;stroke-width:0.264999"
       id="path43-2"
       cx="83.894974"
       cy="20.709785"
       r="1.5418432" />
    <path
       style="fill:none;stroke:#000000;stroke-width:0.265;stroke-linecap:butt;stroke-linejoin:miter;stroke-dasharray:none;stroke-opacity:1;marker-end:url(#ArrowWideRounded)"
       d="m 85.218923,19.830448 c 0,0 0.08251,-1.503499 1.037864,-1.493582 0.880306,0.0091 1.280931,1.03099 0.807508,1.560045 -0.459851,0.513889 -1.295185,0.472974 -1.295185,0.472974"
       id="path64-3"
       sodipodi:nodetypes="cssc" />
    <text
       xml:space="preserve"
       style="font-size:2.11667px;line-height:1.25;font-family:'Open Sans';-inkscape-font-specification:'Open Sans';letter-spacing:0px;word-spacing:0px;stroke-width:0.264583"
       x="87.642883"
       y="19.578773"
       id="text81"><tspan
         sodipodi:role="line"
         id="tspan81"
         style="font-style:normal;font-variant:normal;font-weight:600;font-stretch:normal;font-size:2.11667px;font-family:'Open Sans';-inkscape-font-specification:'Open Sans Semi-Bold';stroke-width:0.264583"
         x="87.642883"
         y="19.578773">C<tspan
   style="font-size:65%;baseline-shift:sub"
   id="tspan118">S</tspan></tspan></text>
    <text
       xml:space="preserve"
       style="font-size:1.41111px;line-height:1.25;font-family:'Open Sans';-inkscape-font-specification:'Open Sans';letter-spacing:0px;word-spacing:0px;stroke-width:0.264583"
       x="83.45443"
       y="21.228977"
       id="text83"><tspan
         sodipodi:role="line"
         id="tspan83"
         style="font-style:normal;font-variant:normal;font-weight:600;font-stretch:normal;font-size:1.41111px;font-family:'Open Sans';-inkscape-font-specification:'Open Sans Semi-Bold';stroke-width:0.264583"
         x="83.45443"
         y="21.228977">0</tspan></text>
    <circle
       style="fill:none;stroke:#000000;stroke-width:0.264999"
       id="circle83"
       cx="83.894974"
       cy="20.709785"
       r="1.5418432" />
    <circle
       style="fill:none;stroke:#000000;stroke-width:0.264999"
       id="circle85"
       cx="78.354355"
       cy="27.463562"
       r="1.5418432" />
    <circle
       style="fill:none;stroke:#000000;stroke-width:0.264999"
       id="circle86"
       cx="90.233513"
       cy="27.745178"
       r="1.5418432" />
    <circle
       style="fill:none;stroke:#000000;stroke-width:0.264999"
       id="circle90"
       cx="78.231651"
       cy="34.323193"
       r="1.5418432" />
    <circle
       style="fill:none;stroke:#000000;stroke-width:0.264999"
       id="circle91"
       cx="90.561043"
       cy="34.419502"
       r="1.5418432" />
    <text
       xml:space="preserve"
       style="font-size:1.41111px;line-height:1.25;font-family:'Open Sans';-inkscape-font-specification:'Open Sans';letter-spacing:0px;word-spacing:0px;stroke-width:0.264583"
       x="66.368744"
       y="27.753742"
       id="text91"><tspan
         sodipodi:role="line"
         id="tspan91"
         style="font-style:normal;font-variant:normal;font-weight:600;font-stretch:normal;font-size:1.41111px;font-family:'Open Sans';-inkscape-font-specification:'Open Sans Semi-Bold';stroke-width:0.264583"
         x="66.368744"
         y="27.753742">$r_.S0r_.S1S as</tspan></text>
    <text
       xml:space="preserve"
       style="font-size:1.41111px;line-height:1.25;font-family:'Open Sans';-inkscape-font-specification:'Open Sans';letter-spacing:0px;word-spacing:0px;stroke-width:0.264583"
       x="92.726891"
       y="35.028877"
       id="text93"><tspan
         sodipodi:role="line"
         id="tspan93"
         style="font-style:normal;font-variant:normal;font-weight:600;font-stretch:normal;font-size:1.41111px;font-family:'Open Sans';-inkscape-font-specification:'Open Sans Semi-Bold';stroke-width:0.264583"
         x="92.726891"
         y="35.028877">$s</tspan></text>
    <text
       xml:space="preserve"
       style="font-size:1.41111px;line-height:1.25;font-family:'Open Sans';-inkscape-font-specification:'Open Sans';letter-spacing:0px;word-spacing:0px;stroke-width:0.264583"
       x="76.440018"
       y="37.87365"
       id="text96"><tspan
         sodipodi:role="line"
         id="tspan96"
         style="font-style:normal;font-variant:normal;font-weight:600;font-stretch:normal;font-size:1.41111px;font-family:'Open Sans';-inkscape-font-specification:'Open Sans Semi-Bold';stroke-width:0.264583"
         x="76.440018"
         y="37.87365">$r_.S2</tspan></text>
    <text
       xml:space="preserve"
       style="font-size:1.41111px;line-height:1.25;font-family:'Open Sans';-inkscape-font-specification:'Open Sans';letter-spacing:0px;word-spacing:0px;stroke-width:0.264583"
       x="92.317696"
       y="28.077999"
       id="text100"><tspan
         sodipodi:role="line"
         id="tspan99"
         style="font-style:normal;font-variant:normal;font-weight:600;font-stretch:normal;font-size:1.41111px;font-family:'Open Sans';-inkscape-font-specification:'Open Sans Semi-Bold';stroke-width:0.264583"
         x="92.317696"
         y="28.077999">$s</tspan></text>
    <path
       style="fill:none;stroke:#000000;stroke-width:0.264583px;stroke-linecap:butt;stroke-linejoin:miter;stroke-opacity:1;marker-end:url(#marker104)"
       d="m 82.927139,22.04233 -3.390557,3.903498"
       id="path103-5"
       sodipodi:nodetypes="cc" />
    <path
       style="fill:none;stroke:#000000;stroke-width:0.264583px;stroke-linecap:butt;stroke-linejoin:miter;stroke-opacity:1;marker-end:url(#marker106)"
       d="m 84.81862,22.039322 4.21187,4.203024"
       id="path105-9"
       sodipodi:nodetypes="cc" />
    <path
       style="fill:none;stroke:#000000;stroke-width:0.264583px;stroke-linecap:butt;stroke-linejoin:miter;stroke-opacity:1;marker-end:url(#marker112)"
       d="m 78.401546,28.973941 0.110133,3.445547"
       id="path111-8" />
    <path
       style="fill:none;stroke:#000000;stroke-width:0.264583px;stroke-linecap:butt;stroke-linejoin:miter;stroke-opacity:1;marker-end:url(#marker112)"
       d="m 90.372753,29.30769 0.143508,3.18411"
       id="path113"
       sodipodi:nodetypes="cc" />
    <circle
       style="fill:none;stroke:#000000;stroke-width:0.264999"
       id="circle114"
       cx="90.561043"
       cy="34.419502"
       r="1.1327827" />
    <text
       xml:space="preserve"
       style="font-size:2.11667px;line-height:1.25;font-family:'Open Sans';-inkscape-font-specification:'Open Sans';letter-spacing:0px;word-spacing:0px;stroke-width:0.264583"
       x="76.341232"
       y="31.04673"
       id="text114"><tspan
         sodipodi:role="line"
         id="tspan114"
         style="font-style:normal;font-variant:normal;font-weight:600;font-stretch:normal;font-size:2.11667px;font-family:'Open Sans';-inkscape-font-specification:'Open Sans Semi-Bold';stroke-width:0.264583"
         x="76.341232"
         y="31.04673">S</tspan></text>
    <text
       xml:space="preserve"
       style="font-size:2.11667px;line-height:1.25;font-family:'Open Sans';-inkscape-font-specification:'Open Sans';letter-spacing:0px;word-spacing:0px;stroke-width:0.264583"
       x="91.13147"
       y="31.103146"
       id="text115"><tspan
         sodipodi:role="line"
         id="tspan115"
         style="font-style:normal;font-variant:normal;font-weight:600;font-stretch:normal;font-size:2.11667px;font-family:'Open Sans';-inkscape-font-specification:'Open Sans Semi-Bold';stroke-width:0.264583"
         x="91.13147"
         y="31.103146">$</tspan></text>
    <text
       xml:space="preserve"
       style="font-size:2.11667px;line-height:1.25;font-family:'Open Sans';-inkscape-font-specification:'Open Sans';letter-spacing:0px;word-spacing:0px;stroke-width:0.264583"
       x="79.563583"
       y="23.624191"
       id="text117"><tspan
         sodipodi:role="line"
         id="tspan117"
         style="font-style:normal;font-variant:normal;font-weight:600;font-stretch:normal;font-size:2.11667px;font-family:'Open Sans';-inkscape-font-specification:'Open Sans Semi-Bold';stroke-width:0.264583"
         x="79.563583"
         y="23.624191">a</tspan></text>
    <text
       xml:space="preserve"
       style="font-size:2.11667px;line-height:1.25;font-family:'Open Sans';-inkscape-font-specification:'Open Sans';letter-spacing:0px;word-spacing:0px;stroke-width:0.264583"
       x="86.778603"
       y="23.636841"
       id="text120"><tspan
         sodipodi:role="line"
         id="tspan120"
         style="font-style:normal;font-variant:normal;font-weight:600;font-stretch:normal;font-size:2.11667px;font-family:'Open Sans';-inkscape-font-specification:'Open Sans Semi-Bold';stroke-width:0.264583"
         x="86.778603"
         y="23.636841">S</tspan></text>
    <path
       style="fill:none;stroke:#000000;stroke-width:0.265;stroke-linecap:butt;stroke-linejoin:miter;stroke-dasharray:none;stroke-opacity:1;marker-end:url(#ArrowWideRounded)"
       d="m 91.023196,35.961951 c 0,0 0.793649,1.252669 0.164937,1.972059 -0.579295,0.662902 -1.616172,0.30284 -1.710303,-0.400842 -0.09143,-0.68351 0.33333,-1.354489 0.33333,-1.354489"
       id="path121-7"
       sodipodi:nodetypes="cssc" />
    <text
       xml:space="preserve"
       style="font-size:2.11667px;line-height:1.25;font-family:'Open Sans';-inkscape-font-specification:'Open Sans';letter-spacing:0px;word-spacing:0px;stroke-width:0.264583"
       x="89.607948"
       y="40.437878"
       id="text122"><tspan
         sodipodi:role="line"
         id="tspan122"
         style="font-style:normal;font-variant:normal;font-weight:600;font-stretch:normal;font-size:2.11667px;font-family:'Open Sans';-inkscape-font-specification:'Open Sans Semi-Bold';stroke-width:0.264583"
         x="89.607948"
         y="40.437878">$</tspan></text>
    <text
       xml:space="preserve"
       style="font-size:1.41111px;line-height:1.25;font-family:'Open Sans';-inkscape-font-specification:'Open Sans';letter-spacing:0px;word-spacing:0px;stroke-width:0.264583"
       x="90.183426"
       y="34.90723"
       id="text131"><tspan
         sodipodi:role="line"
         id="tspan131"
         style="font-style:normal;font-variant:normal;font-weight:600;font-stretch:normal;font-size:1.41111px;font-family:'Open Sans';-inkscape-font-specification:'Open Sans Semi-Bold';stroke-width:0.264583"
         x="90.183426"
         y="34.90723">4</tspan></text>
    <text
       xml:space="preserve"
       style="font-size:1.41111px;line-height:1.25;font-family:'Open Sans';-inkscape-font-specification:'Open Sans';letter-spacing:0px;word-spacing:0px;stroke-width:0.264583"
       x="77.822571"
       y="34.842388"
       id="text132"><tspan
         sodipodi:role="line"
         id="tspan132"
         style="font-style:normal;font-variant:normal;font-weight:600;font-stretch:normal;font-size:1.41111px;font-family:'Open Sans';-inkscape-font-specification:'Open Sans Semi-Bold';stroke-width:0.264583"
         x="77.822571"
         y="34.842388">2</tspan></text>
    <text
       xml:space="preserve"
       style="font-size:1.41111px;line-height:1.25;font-family:'Open Sans';-inkscape-font-specification:'Open Sans';letter-spacing:0px;word-spacing:0px;stroke-width:0.264583"
       x="77.945274"
       y="27.982758"
       id="text133"><tspan
         sodipodi:role="line"
         id="tspan133"
         style="font-style:normal;font-variant:normal;font-weight:600;font-stretch:normal;font-size:1.41111px;font-family:'Open Sans';-inkscape-font-specification:'Open Sans Semi-Bold';stroke-width:0.264583"
         x="77.945274"
         y="27.982758">1</tspan></text>
    <text
       xml:space="preserve"
       style="font-size:1.41111px;line-height:1.25;font-family:'Open Sans';-inkscape-font-specification:'Open Sans';letter-spacing:0px;word-spacing:0px;stroke-width:0.264583"
       x="89.82444"
       y="28.26437"
       id="text134"><tspan
         sodipodi:role="line"
         id="tspan134"
         style="font-style:normal;font-variant:normal;font-weight:600;font-stretch:normal;font-size:1.41111px;font-family:'Open Sans';-inkscape-font-specification:'Open Sans Semi-Bold';stroke-width:0.264583"
         x="89.82444"
         y="28.26437">3</tspan></text>
    <path
       style="fill:none;stroke:#000000;stroke-width:0.265;stroke-linecap:butt;stroke-linejoin:miter;stroke-dasharray:none;stroke-opacity:1;marker-end:url(#ArrowWideRounded)"
       d="m 79.920241,27.266324 c 0,0 1.14458,-1.086536 1.887862,-0.486259 0.684916,0.553092 0.365427,1.60318 -0.334065,1.724589 -0.679439,0.11793 -1.309346,-0.432229 -1.309346,-0.432229"
       id="path5-4"
       sodipodi:nodetypes="cssc" />
    <text
       xml:space="preserve"
       style="font-size:2.11667px;line-height:1.25;font-family:'Open Sans';-inkscape-font-specification:'Open Sans';letter-spacing:0px;word-spacing:0px;white-space:pre;inline-size:3.96789;display:inline;stroke-width:0.264583"
       x="78.670151"
       y="49.442116"
       id="text6"
       transform="translate(3.6296638,-21.641452)"><tspan
         x="78.670151"
         y="49.442116"
         id="tspan12"><tspan
           style="font-weight:600;-inkscape-font-specification:'Open Sans Semi-Bold'"
           id="tspan3">C</tspan><tspan
           style="font-size:65%;baseline-shift:sub"
           id="tspan6">S</tspan><tspan
           style="font-size:65%;baseline-shift:sub"
           id="tspan10"> </tspan><tspan
           style="font-weight:600;-inkscape-font-specification:'Open Sans Semi-Bold'"
           id="tspan11">a</tspan></tspan></text>
    <text
       xml:space="preserve"
       style="font-size:1.41111px;line-height:1.25;font-family:'Open Sans';-inkscape-font-specification:'Open Sans';letter-spacing:0px;word-spacing:0px;stroke-width:0.264583"
       x="75.705376"
       y="20.894112"
       id="text2"><tspan
         sodipodi:role="line"
         id="tspan2"
         style="font-style:normal;font-variant:normal;font-weight:600;font-stretch:normal;font-size:1.41111px;font-family:'Open Sans';-inkscape-font-specification:'Open Sans Semi-Bold';stroke-width:0.264583"
         x="75.705376"
         y="20.894112">$r_.S0 as</tspan></text>
  </g>
</svg>
