<?xml version="1.0" encoding="UTF-8" standalone="no"?>
<!-- Created with Inkscape (http://www.inkscape.org/) -->

<svg
   width="307.29001pt"
   height="241.685pt"
   viewBox="0 0 108.40508 85.261096"
   version="1.1"
   id="svg1"
   inkscape:version="1.4.2 (ebf0e940d0, 2025-05-08)"
   sodipodi:docname="rnglr1.svg"
   xmlns:inkscape="http://www.inkscape.org/namespaces/inkscape"
   xmlns:sodipodi="http://sodipodi.sourceforge.net/DTD/sodipodi-0.dtd"
   xmlns="http://www.w3.org/2000/svg"
   xmlns:svg="http://www.w3.org/2000/svg">
  <sodipodi:namedview
     id="namedview1"
     pagecolor="#ffffff"
     bordercolor="#666666"
     borderopacity="1.0"
     inkscape:showpageshadow="2"
     inkscape:pageopacity="0.0"
     inkscape:pagecheckerboard="0"
     inkscape:deskcolor="#d1d1d1"
     inkscape:document-units="mm"
     inkscape:zoom="2.9728526"
     inkscape:cx="281.0432"
     inkscape:cy="107.13616"
     inkscape:window-width="838"
     inkscape:window-height="1396"
     inkscape:window-x="1712"
     inkscape:window-y="34"
     inkscape:window-maximized="1"
     inkscape:current-layer="layer1" />
  <defs
     id="defs1">
    <rect
       x="62.963443"
       y="27.127867"
       width="1.3396477"
       height="16.410685"
       id="rect98" />
    <rect
       x="28.467514"
       y="26.458043"
       width="336.25158"
       height="74.350449"
       id="rect97" />
    <marker
       style="overflow:visible"
       id="ArrowWideRounded"
       refX="0"
       refY="0"
       orient="auto-start-reverse"
       inkscape:stockid="Wide, rounded arrow"
       markerWidth="1"
       markerHeight="1"
       viewBox="0 0 1 1"
       inkscape:isstock="true"
       inkscape:collect="always"
       preserveAspectRatio="xMidYMid">
      <path
         style="fill:none;stroke:context-stroke;stroke-width:1;stroke-linecap:round"
         d="M 3,-3 0,0 3,3"
         transform="rotate(180,0.125,0)"
         sodipodi:nodetypes="ccc"
         id="path81-3" />
    </marker>
    <marker
       style="overflow:visible"
       id="marker104"
       refX="0"
       refY="0"
       orient="auto-start-reverse"
       inkscape:stockid="Wide, rounded arrow"
       markerWidth="1"
       markerHeight="1"
       viewBox="0 0 1 1"
       inkscape:isstock="true"
       inkscape:collect="always"
       preserveAspectRatio="xMidYMid">
      <path
         style="fill:none;stroke:context-stroke;stroke-width:1;stroke-linecap:round"
         d="M 3,-3 0,0 3,3"
         transform="rotate(180,0.125,0)"
         sodipodi:nodetypes="ccc"
         id="path104-0" />
    </marker>
    <marker
       style="overflow:visible"
       id="marker106"
       refX="0"
       refY="0"
       orient="auto-start-reverse"
       inkscape:stockid="Wide, rounded arrow"
       markerWidth="1"
       markerHeight="1"
       viewBox="0 0 1 1"
       inkscape:isstock="true"
       inkscape:collect="always"
       preserveAspectRatio="xMidYMid">
      <path
         style="fill:none;stroke:context-stroke;stroke-width:1;stroke-linecap:round"
         d="M 3,-3 0,0 3,3"
         transform="rotate(180,0.125,0)"
         sodipodi:nodetypes="ccc"
         id="path106-6" />
    </marker>
    <marker
       style="overflow:visible"
       id="marker112"
       refX="0"
       refY="0"
       orient="auto-start-reverse"
       inkscape:stockid="Wide, rounded arrow"
       markerWidth="1"
       markerHeight="1"
       viewBox="0 0 1 1"
       inkscape:isstock="true"
       inkscape:collect="always"
       preserveAspectRatio="xMidYMid">
      <path
         style="fill:none;stroke:context-stroke;stroke-width:1;stroke-linecap:round"
         d="M 3,-3 0,0 3,3"
         transform="rotate(180,0.125,0)"
         sodipodi:nodetypes="ccc"
         id="path112-1" />
    </marker>
  </defs>
  <g
     inkscape:label="Layer 1"
     inkscape:groupmode="layer"
     id="layer1">
    <text
       xml:space="preserve"
       style="font-size:3.52777px;line-height:1.25;font-family:'Open Sans';-inkscape-font-specification:'Open Sans';letter-spacing:0px;word-spacing:0px;stroke-width:0.264583"
       x="8.7725992"
       y="11.962636"
       id="text94"><tspan
         id="tspan94"
         style="stroke-width:0.264583"
         sodipodi:role="line" /></text>
    <text
       xml:space="preserve"
       transform="scale(0.26458333)"
       id="text97"
       style="font-size:13.3333px;line-height:1.25;font-family:'Open Sans';-inkscape-font-specification:'Open Sans';letter-spacing:0px;word-spacing:0px;white-space:pre;shape-inside:url(#rect97);display:inline" />
    <text
       xml:space="preserve"
       transform="scale(0.26458333)"
       id="text98"
       style="font-size:13.3333px;line-height:1.25;font-family:'Open Sans';-inkscape-font-specification:'Open Sans';letter-spacing:0px;word-spacing:0px;white-space:pre;shape-inside:url(#rect98);display:inline" />
    <path
       style="fill:#000000;stroke-width:0.264999"
       id="path209"
       d="m 18.377264,24.566795 c -0.176667,0.13056 -0.280357,0.325059 -0.360394,0.524494 -0.0095,0.03468 -0.02363,0.0684 -0.02842,0.104025 -0.0291,0.216842 0.06636,0.431262 0.139573,0.629508 0.08724,0.237394 0.209336,0.459571 0.385035,0.643377 0.03928,0.04109 0.08263,0.07808 0.123939,0.117125 0.126627,0.08766 0.198723,0.146152 0.340738,0.209612 0.227576,0.101693 0.476253,0.160197 0.722156,0.19433 0.08405,0.01167 0.168844,0.0171 0.253265,0.02564 0.290581,0.01393 0.589267,-3.44e-4 0.866566,-0.0971 0.144309,-0.05036 0.177548,-0.07812 0.305747,-0.153721 0.239202,-0.160946 0.401061,-0.394887 0.53104,-0.647134 0.102923,-0.242941 0.09673,-0.507205 0.02519,-0.758027 -0.01408,-0.04931 -0.03301,-0.0971 -0.04951,-0.145652 -0.07618,-0.174112 -0.172225,-0.342 -0.299847,-0.484058 -0.0782,-0.08704 -0.13155,-0.128217 -0.219609,-0.204142 -0.215556,-0.162526 -0.461208,-0.293177 -0.719918,-0.373195 -0.05521,-0.01708 -0.11203,-0.02842 -0.168045,-0.04262 -0.273566,-0.05142 -0.55639,-0.0372 -0.823436,0.04263 -0.05114,0.01529 -0.100589,0.03576 -0.150884,0.05364 -0.163386,0.06249 -0.315622,0.150497 -0.451501,0.260843 -0.104807,0.08511 -0.176771,0.164014 -0.27019,0.25971 -0.09869,0.101292 0.04456,0.240862 0.143251,0.139571 v 0 c 0.197204,-0.202818 0.374454,-0.371847 0.646083,-0.47191 0.04356,-0.01585 0.08633,-0.03409 0.130697,-0.04756 0.235603,-0.07154 0.485372,-0.08685 0.727456,-0.0429 0.04916,0.0121 0.09907,0.02147 0.147473,0.03628 0.236133,0.07225 0.461092,0.19037 0.658672,0.337205 0.07227,0.06186 0.130001,0.10724 0.194014,0.177682 0.112903,0.124239 0.197895,0.271522 0.266618,0.423754 0.08943,0.257666 0.138409,0.48398 0.03546,0.747601 -0.111432,0.219235 -0.250222,0.424343 -0.45548,0.56652 -0.105884,0.06402 -0.137743,0.09021 -0.257514,0.132974 -0.253021,0.09034 -0.526801,0.102353 -0.792398,0.0906 -0.07963,-0.0079 -0.159597,-0.01291 -0.238887,-0.02367 -0.224118,-0.03042 -0.453245,-0.08195 -0.661308,-0.173204 -0.121216,-0.05316 -0.19092,-0.10676 -0.298979,-0.179485 -0.0366,-0.03413 -0.07496,-0.06647 -0.109789,-0.102403 -0.160297,-0.165412 -0.26965,-0.366677 -0.348501,-0.581619 -0.04857,-0.131463 -0.14913,-0.368414 -0.133916,-0.508742 0.003,-0.02796 0.01402,-0.05447 0.02103,-0.08171 0.06535,-0.166843 0.149805,-0.331586 0.297291,-0.440408 0.111631,-0.08682 -0.01116,-0.244695 -0.122787,-0.157871 z" />
    <path
       style="fill:#000000;stroke-width:0.264999"
       id="path210"
       d="m 19.431751,25.142364 c -0.04129,0.186766 -0.02954,0.390679 0.05147,0.566615 0.05811,0.126205 0.09559,0.151585 0.186421,0.248787 0.04165,0.02383 0.07952,0.05605 0.124946,0.0715 0.192866,0.06562 0.379704,-0.05668 0.497817,-0.199982 0.02719,-0.03299 0.04798,-0.07077 0.07197,-0.106148 0.07397,-0.153587 0.09124,-0.305808 -0.0263,-0.445962 -0.07026,-0.08378 -0.134298,-0.110707 -0.226637,-0.165251 -0.132964,-0.05852 -0.273386,-0.112102 -0.420741,-0.117331 -0.04516,-0.0016 -0.09015,0.0065 -0.135228,0.0097 -0.140848,0.0127 -0.122888,0.211892 0.01797,0.199192 v 0 c 0.03036,-0.0036 0.06051,-0.01114 0.09108,-0.01066 0.121248,0.0019 0.237048,0.04645 0.347088,0.09235 0.09348,0.05208 0.241184,0.11964 0.212426,0.253828 -0.0055,0.02559 -0.0177,0.04925 -0.02655,0.07388 -0.01664,0.02614 -0.03103,0.05383 -0.04989,0.07841 -0.04861,0.06333 -0.16804,0.180756 -0.259892,0.160923 -0.02635,-0.0057 -0.04922,-0.02204 -0.07383,-0.03305 -0.02532,-0.02537 -0.05337,-0.04828 -0.07595,-0.07612 -0.121976,-0.150373 -0.151773,-0.356121 -0.115017,-0.541913 0.04159,-0.135167 -0.149564,-0.193984 -0.191154,-0.05882 z" />
    <path
       style="fill:#000000;stroke-width:0.264999"
       id="path211"
       d="m 22.143838,25.600436 c 0.297172,0.0167 0.594329,0.02276 0.8918,0.01299 0.328451,-0.01403 0.655986,-0.04528 0.982805,-0.08012 0.327406,-0.03728 0.655923,-0.06178 0.984149,-0.09033 0.29141,-0.02346 0.581602,-0.05878 0.873131,-0.08091 0.165076,-0.0077 0.329599,-0.02304 0.494527,-0.03311 0.114147,-0.01202 0.230497,-5.03e-4 0.344083,-0.01672 0.09938,-0.04705 0.05048,-0.0053 0.04839,-0.186804 -0.104029,-0.0958 -0.239514,0.05132 -0.135485,0.14712 v 0 c 0.01963,-0.15714 -0.02763,-0.128122 0.05359,-0.15749 -0.031,0.0084 -0.07215,0.0043 -0.103603,0.0052 -0.07309,0.0022 -0.146169,0.005 -0.219184,0.0091 -0.165912,0.01015 -0.331417,0.02557 -0.497475,0.03331 -0.292256,0.02221 -0.583186,0.05747 -0.875313,0.08109 -0.329522,0.02867 -0.659336,0.0533 -0.988036,0.0907 -0.321966,0.03437 -0.644647,0.06517 -0.968219,0.07911 -0.295272,0.0099 -0.590182,0.003 -0.885169,-0.01309 -0.141419,0 -0.141419,0.200001 0,0.200001 z" />
    <path
       style="fill:#000000;stroke-width:0.264999"
       id="path212"
       d="m 21.985189,25.455577 c -0.0792,0.02365 -0.155914,0.07712 -0.239289,0.08585 0.06463,-0.04708 0.106688,0.106545 0.113109,0.102544 0.01667,-0.01038 0.0297,-0.02567 0.04454,-0.03851 0.10532,-0.09109 0.05282,-0.04551 0.169844,-0.147673 0.112725,-0.09867 0.225271,-0.197551 0.337589,-0.296689 0.03471,-0.02811 0.06457,-0.06002 0.0892,-0.09729 0.05659,-0.04863 0.105886,-0.10528 0.154921,-0.161395 0.01844,-0.02118 0.03668,-0.04253 0.05489,-0.06392 0.09168,-0.107682 -0.06061,-0.237333 -0.152286,-0.129651 v 0 c -0.01765,0.02073 -0.03534,0.04144 -0.05321,0.06198 -0.05557,0.06362 -0.115501,0.122546 -0.172453,0.184689 -0.01347,0.02236 -0.03368,0.0385 -0.0534,0.05564 -0.112046,0.0989 -0.224319,0.197535 -0.33677,0.29597 -0.05762,0.05031 -0.116337,0.09937 -0.173133,0.150606 -0.01963,0.0177 -0.110569,0.09346 -0.110021,0.133436 5.29e-4,0.04555 0.01503,0.09433 0.04419,0.129316 0.01717,0.02059 0.0523,0.01185 0.07845,0.01778 0.09888,-0.02027 0.191699,-0.06262 0.285065,-0.09992 0.129233,-0.05744 0.04801,-0.240199 -0.08123,-0.182762 z" />
    <path
       style="fill:#000000;stroke-width:0.264999"
       id="path213"
       d="m 21.900072,25.589724 c 0.113017,0.198315 0.212252,0.403493 0.307721,0.610667 0.05534,0.124675 0.1089,0.2502 0.158089,0.377443 0.0032,0.0082 0.0062,0.01656 0.0091,0.02489 0.03989,0.13568 0.231767,0.07927 0.191881,-0.05641 v 0 c -0.0042,-0.01374 -0.0093,-0.02719 -0.01447,-0.04061 -0.05073,-0.131137 -0.105868,-0.260543 -0.162989,-0.389012 -0.09736,-0.211256 -0.198644,-0.420451 -0.31378,-0.62273 -0.06772,-0.124153 -0.2433,-0.02838 -0.17558,0.09577 z" />
    <path
       style="fill:#000000;stroke-width:0.264999"
       id="path214"
       d="m 26.76408,24.916123 c -0.04116,0.158708 -0.10015,0.31678 -0.104169,0.482548 -0.0011,0.03927 0.0034,0.07848 0.0052,0.117723 0.03186,0.251648 0.169214,0.462034 0.316254,0.661479 0.133797,0.165935 0.299315,0.30049 0.489027,0.397622 0.04413,0.0226 0.08988,0.04189 0.134818,0.06284 0.244462,0.09797 0.506002,0.158474 0.769951,0.166011 0.05869,0.0017 0.117417,-0.0017 0.176125,-0.0025 0.309465,-0.01597 0.605446,-0.10235 0.877893,-0.249004 0.05662,-0.03048 0.110881,-0.06517 0.166322,-0.09775 0.251669,-0.164467 0.481116,-0.36883 0.638781,-0.62756 0.02577,-0.04228 0.04676,-0.08729 0.07014,-0.130932 0.111209,-0.228005 0.107079,-0.477789 0.03806,-0.717867 -0.01426,-0.04963 -0.03379,-0.0976 -0.05068,-0.146401 -0.101862,-0.233867 -0.268738,-0.419028 -0.489286,-0.546692 -0.04428,-0.02563 -0.09116,-0.04647 -0.136737,-0.0697 -0.279699,-0.114341 -0.583724,-0.153684 -0.884401,-0.132502 -0.06603,0.0047 -0.131596,0.01455 -0.197393,0.02182 -0.363696,0.06272 -0.717849,0.190071 -1.046411,0.357852 -0.06551,0.03345 -0.128807,0.07109 -0.193209,0.106636 -0.287018,0.189849 -0.500423,0.458892 -0.70961,0.726782 -0.08703,0.111472 0.07062,0.234549 0.157646,0.123077 v 0 c 0.192556,-0.246687 0.387335,-0.496296 0.648767,-0.674848 0.06062,-0.03361 0.120176,-0.06919 0.18185,-0.100818 0.308692,-0.158281 0.641641,-0.279085 0.983264,-0.339927 0.0605,-0.0069 0.120779,-0.01613 0.181504,-0.02068 0.267144,-0.02 0.537998,0.0126 0.787826,0.111125 0.03942,0.0197 0.07992,0.03739 0.118271,0.0591 0.182914,0.103539 0.322749,0.252583 0.409144,0.444831 0.08633,0.243614 0.138885,0.459206 0.02474,0.704444 -0.01971,0.03754 -0.03731,0.07625 -0.05912,0.112606 -0.140604,0.23439 -0.348514,0.418247 -0.574738,0.567374 -0.05097,0.03017 -0.100849,0.06225 -0.1529,0.09051 -0.246092,0.133591 -0.51286,0.213421 -0.793038,0.228546 -0.05285,0.001 -0.105696,0.0043 -0.158533,0.003 -0.239747,-0.0059 -0.477642,-0.06024 -0.700104,-0.147972 -0.215947,-0.09951 -0.397274,-0.20809 -0.547118,-0.397874 -0.12391,-0.167237 -0.244653,-0.34268 -0.277371,-0.553049 -0.0019,-0.02991 -0.0059,-0.05977 -0.0057,-0.08974 0.0013,-0.150093 0.05951,-0.292955 0.09468,-0.436849 0.04472,-0.134164 -0.145015,-0.19741 -0.189738,-0.06325 z" />
    <path
       style="fill:#000000;stroke-width:0.264999"
       id="path215"
       d="m 28.018345,25.230634 c 0.078,-0.03347 0.173897,-0.06091 0.25917,-0.03811 0.05147,0.01376 0.04442,0.01133 0.02848,0.03849 -0.0082,0.09465 -0.08287,0.19759 -0.09251,0.286078 -0.003,0.02736 0.0019,0.05502 0.0026,0.08252 0.01669,0.02926 0.02775,0.06256 0.0501,0.08777 0.03488,0.03934 0.113692,0.07716 0.15824,0.104297 0.07077,0.04311 0.132005,0.08949 0.190735,0.147567 -0.0024,0.0056 -0.0027,0.01281 -0.0072,0.01693 -0.004,0.0036 -0.01093,0.0013 -0.01569,0.0039 -0.01087,0.0058 -0.0209,0.01317 -0.03061,0.02075 -0.08278,0.06461 -0.05867,0.05566 -0.155115,0.120258 -0.03072,0.02057 -0.06318,0.03841 -0.09477,0.05762 -0.153276,0.084 -0.325845,0.120268 -0.497199,0.08157 -0.01286,-0.0054 -0.02569,-0.01081 -0.03855,-0.01621 -0.132011,-0.05073 -0.20375,0.135962 -0.07174,0.18669 v 0 c 0.0232,0.0084 0.04639,0.01689 0.06958,0.02534 0.02747,0.0054 0.05462,0.01277 0.08241,0.01615 0.194805,0.02372 0.389723,-0.03081 0.55998,-0.122994 0.137639,-0.08489 0.412242,-0.238563 0.382408,-0.433359 -0.0055,-0.03613 -0.02954,-0.06686 -0.04431,-0.100294 -0.07215,-0.06882 -0.145418,-0.125684 -0.230833,-0.177657 -0.02154,-0.01311 -0.04361,-0.02535 -0.06584,-0.03727 -0.01093,-0.0059 -0.02125,-0.01468 -0.03358,-0.01606 -0.0049,-5.3e-4 -0.0063,0.0075 -0.0094,0.01128 -0.01812,-0.01538 -0.01262,-0.0066 0.0024,-0.04874 0.04976,-0.140648 0.108633,-0.248549 0.05781,-0.403401 -0.02853,-0.03275 -0.05043,-0.07275 -0.0856,-0.09824 -0.106839,-0.07744 -0.341527,-0.02798 -0.452075,0.02237 -0.129231,0.05744 -0.048,0.240199 0.08123,0.182763 z" />
    <path
       style="fill:#000000;stroke-width:0.264999"
       id="path216"
       d="m 30.445807,25.375913 c 0.143251,-0.01373 0.287057,-0.01986 0.430866,-0.0237 0.167262,-0.01 0.332597,-0.03829 0.499507,-0.05265 0.164182,-0.01187 0.328882,-0.01279 0.493411,-0.01393 0.115395,0.0013 0.230253,1.88e-4 0.345268,-0.0094 0.120425,-0.01288 0.241612,-0.01423 0.362217,-0.02401 0.145965,-0.01634 0.292984,-0.01798 0.439227,-0.03019 0.114215,-0.01586 0.229481,-0.0202 0.344072,-0.03166 0.113223,-0.01408 0.226893,-0.02298 0.340879,-0.02728 0.135831,-0.0034 0.271721,-0.0034 0.407588,-0.0035 0.102309,-9e-6 0.204618,1.34e-4 0.306929,2.1e-4 0.114443,0.0115 0.229101,0.01982 0.343964,0.0257 0.08418,0.0042 0.16846,0.0054 0.25273,0.006 0.03308,1.19e-4 0.06616,1.47e-4 0.09924,-3.5e-5 0.0013,-10e-6 0.0028,-2e-5 0.0042,-2.9e-5 0.141417,-10e-4 0.139962,-0.201024 -0.0013,-0.199995 v 0 c -0.0013,9e-6 -0.0026,1.8e-5 -0.0038,2.8e-5 -0.03231,1.78e-4 -0.06461,1.48e-4 -0.09692,3.4e-5 -0.08127,-5.02e-4 -0.162554,-0.0017 -0.243744,-0.0057 -0.118227,-0.006 -0.236115,-0.01561 -0.354021,-0.02596 -0.102407,-7.6e-5 -0.204811,-2.18e-4 -0.307215,-2.09e-4 -0.138356,9.6e-5 -0.276736,7e-5 -0.415055,0.0036 -0.118197,0.0045 -0.236093,0.01357 -0.35351,0.02817 -0.113408,0.01176 -0.22765,0.01525 -0.340698,0.03134 -0.146077,0.01255 -0.293045,0.01343 -0.438846,0.03015 -0.120621,0.01019 -0.241959,0.01071 -0.362405,0.02402 -0.109927,0.0092 -0.219687,0.0099 -0.329994,0.0087 -0.169812,0.0012 -0.339802,0.0022 -0.509244,0.01467 -0.162962,0.01415 -0.324453,0.04089 -0.48764,0.05198 -0.148661,0.004 -0.297323,0.01037 -0.445405,0.02462 -0.140721,0.01407 -0.120819,0.21308 0.0199,0.199008 z" />
    <path
       style="fill:#000000;stroke-width:0.264999"
       id="path217"
       d="m 30.566002,25.312734 c 0.10813,-0.115702 0.209444,-0.237542 0.30557,-0.363359 0.02177,-0.02904 0.04323,-0.05832 0.06388,-0.08818 0.009,-0.013 0.01595,-0.02376 0.01593,-0.02379 -0.0526,-0.04289 -0.109863,-0.07972 -0.164796,-0.119586 -0.02983,0.02236 -0.05864,0.04582 -0.0889,0.06761 -0.114479,0.08303 0.003,0.244931 0.117428,0.161897 v 0 c 0.02986,-0.02178 0.05886,-0.04444 0.0881,-0.06703 -0.150789,-0.192483 -0.0882,-0.186827 -0.190598,-0.0523 -0.09305,0.121932 -0.191302,0.23983 -0.296093,0.351862 -0.09396,0.105699 0.05553,0.238572 0.149482,0.132873 z" />
    <path
       style="fill:#000000;stroke-width:0.264999"
       id="path218"
       d="m 30.344498,25.284955 c 0.053,0.168047 0.130823,0.276586 0.262054,0.391458 0.04995,0.04113 0.103362,0.07812 0.159806,0.109704 0.113726,0.05356 0.09301,0.03473 0.215537,-0.05677 0.02883,-0.138451 -0.166968,-0.179225 -0.195799,-0.04077 v 0 c 0.180649,-0.108099 0.135588,-0.04928 0.07524,-0.07846 -0.04484,-0.02163 -0.08363,-0.05586 -0.123658,-0.08471 -0.09936,-0.08539 -0.159917,-0.165808 -0.200231,-0.293069 -0.03721,-0.136438 -0.230161,-0.08381 -0.192953,0.05262 z" />
    <path
       style="fill:#000000;stroke-width:0.264999"
       id="path219"
       d="m 35.01256,25.077937 c -0.03374,0.172489 -0.03951,0.344438 -0.01363,0.518011 0.03166,0.1597 0.10945,0.300769 0.204034,0.431085 0.09612,0.139023 0.226996,0.242151 0.366151,0.334608 0.193988,0.128439 0.412734,0.199628 0.637384,0.251618 0.158025,0.02715 0.318884,0.05248 0.479875,0.04815 0.10582,-0.0028 0.154207,-0.01272 0.258598,-0.02751 0.247865,-0.03796 0.457264,-0.161783 0.651854,-0.312752 0.166677,-0.143289 0.294564,-0.320752 0.403604,-0.509837 0.07392,-0.14148 0.09169,-0.306958 0.06927,-0.464353 -0.0053,-0.03712 -0.015,-0.07347 -0.02252,-0.110202 -0.07146,-0.246047 -0.212079,-0.465016 -0.350025,-0.678559 -0.09455,-0.139572 -0.204245,-0.268427 -0.340858,-0.368498 -0.08023,-0.05877 -0.119411,-0.0768 -0.205639,-0.124289 -0.218099,-0.101499 -0.454882,-0.133852 -0.693084,-0.128088 -0.289063,0.0264 -0.516332,0.216263 -0.725186,0.401661 -0.200366,0.184799 -0.340267,0.418382 -0.467114,0.656607 -0.06642,0.124852 0.110146,0.218787 0.17657,0.09394 v 0 c 0.115557,-0.217412 0.24144,-0.43188 0.423606,-0.601228 0.141748,-0.126864 0.322252,-0.287789 0.510608,-0.337501 0.02839,-0.0075 0.05801,-0.009 0.08702,-0.01355 0.202636,-0.0064 0.404746,0.02058 0.591547,0.1036 0.07428,0.04038 0.107654,0.05555 0.176689,0.104993 0.120221,0.0861 0.215032,0.199465 0.297887,0.32095 0.124944,0.193059 0.253203,0.390733 0.32236,0.611608 0.03219,0.143616 0.04479,0.298025 -0.02445,0.433108 -0.09592,0.166836 -0.207383,0.324141 -0.353187,0.451861 -0.166531,0.130308 -0.344384,0.239275 -0.557366,0.272561 -0.08622,0.01255 -0.139192,0.02281 -0.226075,0.02553 -0.147283,0.0046 -0.294495,-0.019 -0.439161,-0.04311 -0.201425,-0.046 -0.397671,-0.108557 -0.571728,-0.223421 -0.119716,-0.0791 -0.233113,-0.166159 -0.315304,-0.2861 -0.07681,-0.103577 -0.140078,-0.216605 -0.167764,-0.3438 -0.02474,-0.148772 -0.01543,-0.299821 0.01214,-0.447865 0.02773,-0.138675 -0.168383,-0.177898 -0.196117,-0.03922 z" />
    <path
       style="fill:#000000;stroke-width:0.264999"
       id="path221"
       d="m 19.392415,20.281357 c -0.025,0.01084 -0.05286,0.01666 -0.07504,0.03252 -0.139475,0.09977 -0.28484,0.320214 -0.342556,0.480234 -0.01677,0.04647 -0.024,0.09584 -0.03601,0.143765 7.94e-4,0.0475 -0.0055,0.09559 0.0021,0.142509 0.0359,0.22479 0.221329,0.339661 0.411115,0.425242 0.0258,0.0094 0.05136,0.01938 0.07738,0.0281 0.08269,0.02771 0.301027,0.09255 0.06492,-0.148748 -0.01839,-0.01881 -0.04376,0.02922 -0.06565,0.04383 -0.09375,0.100012 -0.174913,0.218762 -0.213003,0.352116 -0.008,0.02789 -0.0182,0.05644 -0.01664,0.0854 0.0021,0.03961 0.01828,0.0772 0.02744,0.115808 0.02318,0.02929 0.03993,0.06506 0.06949,0.08787 0.156784,0.120983 0.382349,0.08525 0.562287,0.05629 0.05443,-0.01926 0.134189,-0.01783 0.184965,-0.04935 0.01434,-0.0089 0.02744,-0.01966 0.04116,-0.02949 0.02696,-0.03579 0.01511,-0.01651 0.03524,-0.05802 0.05569,-0.129994 -0.128146,-0.208754 -0.183838,-0.07876 v 0 c 5.29e-4,-1.23e-4 0.0013,-2.46e-4 0.0019,-3.7e-4 0.0016,-0.0014 0.0034,-0.0028 0.0051,-0.0041 0.009,-0.0051 0.01823,-0.0098 0.02697,-0.01526 0.0071,-0.0044 -0.01556,0.0061 -0.02352,0.0086 -0.03936,0.0124 -0.07968,0.02151 -0.120174,0.02935 -0.10201,0.01686 -0.284906,0.04426 -0.38205,0.0067 -0.01119,-0.0043 -0.01953,-0.01395 -0.02929,-0.02093 -0.0063,-0.0044 -0.01759,-0.0056 -0.01881,-0.01318 -0.01288,-0.07945 0.102071,-0.24779 0.149276,-0.310088 0.07834,-0.06597 0.02484,-0.0098 0.02655,-0.227691 6.4e-5,-0.0081 -0.01614,-0.0013 -0.02394,-0.0033 -0.04327,-0.01093 -0.07147,-0.02227 -0.114602,-0.03758 -0.115552,-0.0503 -0.260572,-0.113563 -0.292436,-0.250411 -0.0067,-0.02894 -0.0048,-0.05924 -0.0072,-0.08886 0.0074,-0.03469 0.01056,-0.07056 0.02214,-0.104077 0.03781,-0.109227 0.159949,-0.305292 0.246581,-0.384523 0.0094,-0.0086 0.02236,-0.01225 0.03354,-0.01837 0.138054,-0.03068 0.09467,-0.225917 -0.04339,-0.195238 z" />
    <path
       style="fill:#000000;stroke-width:0.264999"
       id="path222"
       d="m 27.685703,20.802841 c -0.109958,0.125325 -0.218038,0.290013 -0.168193,0.465202 0.01183,0.04155 0.03826,0.07747 0.05739,0.116212 0.03243,0.03366 0.06162,0.0708 0.09731,0.100994 0.147006,0.124395 0.352822,0.168061 0.537806,0.110228 0.04233,-0.01323 0.08028,-0.03773 0.120417,-0.0566 0.03255,-0.02886 0.06997,-0.05301 0.09764,-0.08657 0.101339,-0.122942 0.128046,-0.299665 0.09365,-0.451985 -0.007,-0.03118 -0.02045,-0.06056 -0.03069,-0.09084 -0.01958,-0.0283 -0.03546,-0.05958 -0.05878,-0.08491 -0.11861,-0.128883 -0.288628,-0.152059 -0.453043,-0.155337 -0.122386,0.01172 -0.0628,9e-4 -0.178895,0.03176 -0.136039,0.03865 -0.08138,0.231037 0.05466,0.192386 v 0 c 0.07426,-0.02336 0.03384,-0.01429 0.121914,-0.02416 0.118282,4.5e-5 0.244391,0.01239 0.326152,0.108528 0.0069,0.01684 0.01596,0.03295 0.02064,0.05053 0.02339,0.08749 0.01945,0.201336 -0.03299,0.278687 -0.01376,0.02028 -0.03365,0.03561 -0.05047,0.05342 -0.02273,0.01291 -0.0437,0.02958 -0.06818,0.03873 -0.0844,0.03155 -0.193876,0.03196 -0.277093,-0.0042 -0.05788,-0.02517 -0.09855,-0.06638 -0.144682,-0.10682 -0.01106,-0.01654 -0.05207,-0.06938 -0.0521,-0.09673 -1.06e-4,-0.08268 0.07754,-0.187108 0.128973,-0.247077 0.100002,-0.1 -0.04142,-0.241421 -0.141419,-0.141421 z" />
    <path
       style="fill:#000000;stroke-width:0.264999"
       id="path223"
       d="m 28.33104,21.123664 c 0.107916,0.137048 0.225174,0.266302 0.378288,0.353919 0.03305,0.01891 0.0685,0.03326 0.102746,0.04989 0.2105,0.07938 0.326739,0.0289 0.477324,-0.12134 0.03451,-0.03487 0.06356,-0.07313 0.08981,-0.114307 0.07345,-0.120853 -0.09746,-0.224724 -0.170913,-0.103871 v 0 c -0.01558,0.02935 -0.03974,0.05234 -0.06109,0.07754 -0.08235,0.0848 -0.125558,0.128352 -0.249193,0.08139 -0.02643,-0.01225 -0.05385,-0.02258 -0.07932,-0.03674 -0.137875,-0.07667 -0.239165,-0.194686 -0.335804,-0.316629 -0.09204,-0.107375 -0.243885,0.02278 -0.15185,0.130159 z" />
    <path
       style="fill:#000000;stroke-width:0.264999"
       id="path224"
       d="m 36.753505,19.481437 c -0.158033,0.01142 -0.310962,0.07587 -0.397449,0.216643 -0.06488,0.105609 -0.06164,0.168663 -0.07839,0.286715 -0.0084,0.314069 0.148418,0.558437 0.311936,0.811468 0.04976,0.07672 0.09527,0.156089 0.137945,0.236931 0.01855,0.03512 0.04577,0.07894 0.03559,0.08426 -0.04527,-0.0017 0.01458,-0.04316 2.65e-4,-0.05433 -0.0061,-0.0048 -0.01551,-0.0011 -0.02323,-8.73e-4 -0.01786,6.08e-4 -0.03563,0.0033 -0.0535,0.0035 -0.04278,4.23e-4 -0.09599,-0.0044 -0.138417,-0.0075 -0.104153,-0.01005 -0.211032,-0.01616 -0.311724,-0.04687 -0.135909,-0.0391 -0.191204,0.153105 -0.0553,0.192204 v 0 c 0.11493,0.03187 0.233908,0.04544 0.352637,0.05415 0.112459,0.008 0.325012,0.03351 0.399719,-0.07706 0.01733,-0.02564 0.01857,-0.05904 0.02788,-0.08856 -0.0038,-0.01913 -0.0058,-0.03875 -0.01151,-0.0574 -0.0061,-0.0197 -0.0383,-0.08104 -0.04652,-0.09657 -0.04519,-0.08544 -0.0934,-0.16932 -0.145963,-0.250468 -0.134845,-0.208387 -0.280413,-0.420339 -0.281382,-0.678391 0.0033,-0.03365 0.0034,-0.06775 0.0097,-0.100947 0.02786,-0.144886 0.111059,-0.201615 0.249491,-0.227706 0.140841,0.0128 0.158949,-0.186376 0.0181,-0.19918 z" />
    <path
       style="fill:#000000;stroke-width:0.264999"
       id="path225"
       d="m 36.650762,19.084657 c -0.03742,0.436874 -0.105603,0.870034 -0.171905,1.303201 -0.04595,0.312312 -0.09565,0.624299 -0.129847,0.938194 -0.0052,0.05594 -0.0089,0.114067 -0.02828,0.167449 -0.0011,-2.42e-4 0.0055,-0.01058 0.0067,-0.0126 -0.08071,0.116132 0.08353,0.230266 0.164234,0.114134 v 0 c 0.0072,-0.01174 0.01413,-0.02339 0.01828,-0.03664 0.02275,-0.06794 0.03306,-0.139403 0.03793,-0.210714 0.03379,-0.31102 0.0833,-0.62011 0.128717,-0.929566 0.0673,-0.439703 0.136469,-0.87943 0.173932,-1.322948 0.0074,-0.141226 -0.192292,-0.151738 -0.199724,-0.01051 z" />
    <path
       style="fill:#000000;stroke-width:0.264999"
       id="path226"
       d="m 24.373085,23.787892 c -0.144682,-0.03989 -0.296373,-0.02903 -0.429239,0.04509 -0.03933,0.02194 -0.07819,0.04688 -0.10922,0.07952 -0.03362,0.03536 -0.05452,0.08093 -0.08179,0.1214 -0.0096,0.04819 -0.03218,0.09555 -0.02884,0.144574 0.01693,0.247875 0.280181,0.45588 0.451398,0.609198 -0.0063,0.0216 0.09372,0.05243 0.09068,0.09645 -5.29e-4,0.0061 -0.01326,-0.0031 -0.0164,-0.0084 -0.006,-0.01001 0.0011,-0.02743 -0.0088,-0.03384 -0.0036,-0.0024 -0.106095,0.01541 -0.1066,0.01549 -0.139912,0.01374 -0.262562,-0.01366 -0.38286,-0.08329 -0.01736,-0.0055 -0.04502,-0.02861 -0.05783,-0.03942 -0.09754,-0.102401 -0.242356,0.03554 -0.144817,0.137942 v 0 c 0.03147,0.02998 0.06446,0.05583 0.103785,0.07534 0.168733,0.0947 0.323001,0.126112 0.51738,0.106225 0.05963,-0.01155 0.157853,-0.02311 0.206473,-0.06521 0.150312,-0.130148 0.04988,-0.258246 -0.06765,-0.350318 -0.09557,-0.08543 -0.194831,-0.170558 -0.278114,-0.268482 -0.01532,-0.018 -0.09874,-0.12649 -0.10867,-0.163245 -0.006,-0.02229 0.0013,-0.04617 0.0019,-0.06925 0.01064,-0.022 0.01638,-0.04713 0.03191,-0.06599 0.08797,-0.10682 0.240022,-0.124833 0.364726,-0.09082 0.136437,0.03721 0.18906,-0.155742 0.05262,-0.192952 z" />
    <path
       style="fill:#000000;stroke-width:0.264999"
       id="path227"
       d="m 33.255468,23.323668 c -0.170204,0.01136 -0.353174,0.114709 -0.371044,0.302789 -0.004,0.04254 0.0075,0.08514 0.01119,0.127714 0.04262,0.17812 0.155726,0.33777 0.175517,0.522105 0.0024,0.02173 -7.7e-5,0.04371 -1.17e-4,0.06557 -0.0041,0.01475 -0.0058,0.0304 -0.01236,0.04423 -0.03102,0.06547 -0.189886,0.0933 -0.25091,0.103351 -0.07946,-2.02e-4 -0.291115,0.03785 -0.352014,-0.01719 -0.121325,-0.07267 -0.224092,0.09891 -0.102767,0.171578 v 0 c 0.01955,0.01047 0.038,0.02342 0.0587,0.03142 0.131345,0.05072 0.295286,0.01456 0.431088,0.01111 0.163357,-0.03061 0.350563,-0.08159 0.411404,-0.258081 0.01003,-0.02912 0.01119,-0.06058 0.0168,-0.09088 -0.0013,-0.03363 2.64e-4,-0.06751 -0.0038,-0.100902 -0.02278,-0.18019 -0.117975,-0.340735 -0.17359,-0.511035 -0.0049,-0.01719 -0.01259,-0.03383 -0.01482,-0.05159 -0.01222,-0.09702 0.0983,-0.14399 0.176742,-0.15019 0.141422,0 0.141422,-0.2 0,-0.2 z" />
    <path
       style="fill:#000000;stroke-width:0.264999"
       id="path228"
       d="m 33.184036,23.140748 c -0.08902,0.340403 -0.207264,0.672258 -0.317239,1.006247 -0.0763,0.218791 -0.144274,0.441923 -0.237278,0.654531 -0.0031,0.01008 -0.0063,0.02016 -0.0094,0.03024 -0.0379,0.136249 0.154789,0.189844 0.192685,0.0536 v 0 c 4e-5,-0.0013 7.7e-5,-0.0027 1.17e-4,-0.004 0.09473,-0.218602 0.166351,-0.44682 0.243861,-0.671792 0.112197,-0.340752 0.233019,-0.679314 0.322831,-1.026892 0.02963,-0.138282 -0.16593,-0.180188 -0.195561,-0.04191 z" />
    <path
       style="fill:#000000;stroke-width:0.264999"
       id="path229"
       d="m 20.237727,27.043483 c 0.05334,0.286187 0.189362,0.545547 0.326491,0.799009 0.180842,0.325549 0.424995,0.607071 0.672044,0.883127 0.188008,0.206262 0.382931,0.408319 0.603941,0.579907 0.154371,0.119851 0.208232,0.146008 0.378131,0.249944 0.278747,0.155017 0.570426,0.291026 0.873583,0.391583 0.197779,0.0656 0.259191,0.07554 0.461963,0.123759 0.32979,0.06169 0.664964,0.09843 1.000524,0.105511 0.203367,0.0043 0.265441,-0.0013 0.46622,-0.0096 0.425685,-0.01267 0.844941,-0.08886 1.2617,-0.170566 0.30635,-0.0636 0.609716,-0.140647 0.912709,-0.218469 0.165246,-0.04867 0.331034,-0.08712 0.503328,-0.09391 0.05455,-5.29e-4 0.109339,-7.94e-4 0.1637,0.0045 0.02982,-0.05388 0.05964,-0.107762 0.08946,-0.161642 -0.06798,-0.12401 -0.243359,-0.02787 -0.175377,0.09614 v 0 c 0.03494,-0.04453 0.06988,-0.08907 0.104828,-0.133601 -0.06341,-0.0059 -0.127212,-0.0062 -0.190831,-0.0052 -0.186256,0.0079 -0.366257,0.04691 -0.544861,0.100031 -0.299257,0.07688 -0.598885,0.15299 -0.901438,0.215919 -0.406789,0.07979 -0.81596,0.154686 -1.231493,0.167002 -0.475721,0.01987 -0.943695,0.0024 -1.412327,-0.09074 -0.19072,-0.04508 -0.253286,-0.05545 -0.439079,-0.116867 -0.290883,-0.09616 -0.570809,-0.226369 -0.838428,-0.374594 -0.156217,-0.09507 -0.211997,-0.122693 -0.353766,-0.232445 -0.213738,-0.165462 -0.401839,-0.360853 -0.583464,-0.560076 -0.236715,-0.264378 -0.471435,-0.533423 -0.645197,-0.84498 -0.12641,-0.233161 -0.253463,-0.471238 -0.304681,-0.734175 -0.02151,-0.139777 -0.219179,-0.109365 -0.197676,0.03041 z" />
    <path
       style="fill:#000000;stroke-width:0.264999"
       id="path230"
       d="m 20.153381,27.005593 c -0.142047,0.265606 -0.233466,0.554205 -0.330449,0.838289 -0.02447,0.08809 -0.06564,0.171697 -0.0865,0.260935 -0.0033,0.01403 -0.01611,0.03273 -0.0058,0.04284 0.04213,0.0415 0.09884,0.06496 0.148259,0.09744 0.132379,-0.04976 0.06202,-0.236968 -0.07036,-0.187213 v 0 c 0.04044,0.03585 0.08057,0.07205 0.121311,0.107565 0.0011,8.2e-4 -0.0021,-0.0021 -0.0019,-0.0033 0.0047,-0.0186 0.0105,-0.0369 0.0164,-0.05515 0.02156,-0.0665 0.04648,-0.131876 0.06774,-0.198475 0.0927,-0.271549 0.179636,-0.547526 0.313928,-0.80213 0.07126,-0.122157 -0.101497,-0.222931 -0.172754,-0.100774 z" />
    <path
       style="fill:#000000;stroke-width:0.264999"
       id="path231"
       d="m 20.241725,27.306133 c 0.342794,0.04768 0.679125,0.132281 1.016894,0.206158 0.146648,0.02788 0.292045,0.06325 0.438018,0.09363 0.139422,0.02369 0.172929,-0.17348 0.03351,-0.197173 v 0 c 0.01828,0.0058 -0.01278,-0.0041 -0.02848,-0.008 -0.01839,-0.0046 -0.03689,-0.0085 -0.05542,-0.01242 -0.114887,-0.02415 -0.230343,-0.04565 -0.344897,-0.07141 -0.342556,-0.0749 -0.683657,-0.16056 -1.031338,-0.208766 -0.139999,-0.02 -0.168283,0.17799 -0.02828,0.19799 z" />
    <path
       style="fill:#000000;stroke-width:0.264999"
       id="path232"
       d="m 27.932972,29.343258 c -0.116173,0.178247 -0.194442,0.384599 -0.183806,0.600385 0.0026,0.05181 0.01452,0.102716 0.0218,0.154077 0.02566,0.05652 0.04503,0.11633 0.07696,0.16955 0.09506,0.158449 0.24856,0.291317 0.409914,0.378627 0.146238,0.07913 0.226499,0.09417 0.384876,0.141502 0.369215,0.08097 0.74957,0.06146 1.11501,-0.0298 0.06072,-0.01516 0.120134,-0.03511 0.180202,-0.05266 0.209497,-0.07125 0.408004,-0.16882 0.565539,-0.327538 0.08755,-0.08821 0.113755,-0.13594 0.182658,-0.236606 0.02101,-0.04579 0.0466,-0.08975 0.06303,-0.137372 0.07113,-0.206161 0.05563,-0.437441 -0.02698,-0.63799 -0.02545,-0.0618 -0.06114,-0.118861 -0.09172,-0.178292 -0.138972,-0.224872 -0.322402,-0.413201 -0.546671,-0.553615 -0.05371,-0.03363 -0.108477,-0.06624 -0.166423,-0.09189 -0.06468,-0.02863 -0.133461,-0.04692 -0.200192,-0.07038 -0.398089,-0.102132 -0.786714,-0.05444 -1.168543,0.08654 -0.06973,0.02575 -0.13716,0.05735 -0.20574,0.08603 -0.312928,0.162783 -0.50247,0.397012 -0.708117,0.672469 -0.08445,0.113435 0.07597,0.232871 0.160422,0.119436 v 0 c 0.175787,-0.236815 0.357674,-0.467672 0.625126,-0.607502 0.06347,-0.02677 0.125883,-0.05619 0.190402,-0.08031 0.339474,-0.126921 0.685723,-0.175371 1.041403,-0.08753 0.05637,0.01888 0.114548,0.03306 0.169121,0.05664 0.265261,0.114624 0.475658,0.325321 0.632122,0.563063 0.02595,0.04824 0.05607,0.09446 0.07782,0.144727 0.08517,0.196786 0.0852,0.412104 -0.01058,0.603689 -0.05574,0.08301 -0.07989,0.126733 -0.15012,0.199496 -0.134844,0.139692 -0.307676,0.222453 -0.488971,0.285057 -0.05519,0.01632 -0.109778,0.03484 -0.165576,0.04895 -0.332796,0.0842 -0.679548,0.10472 -1.016651,0.03356 -0.05849,-0.01701 -0.11803,-0.03073 -0.175466,-0.051 -0.240565,-0.0849 -0.447008,-0.242091 -0.555141,-0.476893 -0.0065,-0.03951 -0.01654,-0.07861 -0.01961,-0.118541 -0.01331,-0.173011 0.05198,-0.338595 0.141751,-0.483095 0.08683,-0.11163 -0.07105,-0.234418 -0.157869,-0.122788 z" />
    <path
       style="fill:#000000;stroke-width:0.264999"
       id="path233"
       d="m 24.183921,28.930273 c -0.03995,0.140142 -0.03469,0.297889 0.05974,0.417838 0.07126,0.09051 0.110339,0.0968 0.20851,0.145558 0.03848,0.0069 0.07638,0.01894 0.115435,0.02082 0.115594,0.0056 0.234802,-0.04559 0.286028,-0.156226 0.04813,-0.103944 0.02742,-0.162769 0.01654,-0.270515 -0.01905,-0.04573 -0.03182,-0.0946 -0.05713,-0.137186 -0.101116,-0.170168 -0.298384,-0.260664 -0.49132,-0.196036 -0.04084,0.01368 -0.07545,0.04158 -0.113176,0.06237 -0.120187,0.07453 -0.01479,0.244503 0.105402,0.169972 v 0 c 0.01511,-0.01196 0.02786,-0.02768 0.04529,-0.03589 0.149148,-0.07031 0.256042,0.03236 0.312589,0.162481 0.02498,0.140544 0.04245,0.217326 -0.136101,0.198501 -0.02178,-0.0087 -0.04467,-0.01484 -0.0653,-0.02593 -0.10155,-0.05454 -0.126243,-0.167245 -0.104431,-0.272994 0.05852,-0.128746 -0.123552,-0.211506 -0.182073,-0.08276 z" />
    <path
       style="fill:#000000;stroke-width:0.264999"
       id="path234"
       d="m 24.69979,29.044827 c 0.09645,0.108468 0.209021,0.221366 0.348128,0.273798 0.02684,0.01011 0.05551,0.01453 0.08326,0.02178 0.138859,0.01402 0.237974,-0.05771 0.334643,-0.145968 0.104338,-0.09546 -0.03067,-0.24302 -0.135007,-0.147556 v 0 c -0.046,0.0422 -0.08902,0.09127 -0.154662,0.09865 -0.125116,-0.02106 -0.220234,-0.120705 -0.30676,-0.2067 -0.07495,-0.119926 -0.244555,-0.01392 -0.169601,0.105997 z" />
    <path
       style="fill:#000000;stroke-width:0.264999"
       id="path235"
       d="m 28.913997,29.685674 c 0.148539,-0.09681 0.285181,-0.210209 0.42941,-0.313044 0.05234,-0.03891 0.107424,-0.07402 0.164151,-0.106159 0.0068,-0.0039 0.02849,-0.01164 0.02064,-0.01135 -0.01013,2.65e-4 -0.01876,0.0078 -0.02813,0.01164 -0.02967,-0.01233 -0.05693,-0.03874 -0.08901,-0.03697 -0.01392,7.94e-4 0.0016,0.02784 0.0021,0.04177 0.0013,0.02904 0.0031,0.05806 0.0034,0.08713 0.0011,0.122007 -0.0062,0.244292 -0.01119,0.366149 -0.0055,0.109997 -0.0087,0.220159 -0.01656,0.330033 -0.01,0.14107 0.189516,0.155194 0.199501,0.01413 v 0 c 0.0079,-0.11184 0.01138,-0.223944 0.01688,-0.33591 0.0052,-0.127315 0.01267,-0.255106 0.01119,-0.382582 -1.09e-4,-0.0094 -0.0045,-0.166934 -0.01535,-0.183431 -0.02723,-0.04139 -0.07325,-0.06674 -0.109866,-0.100113 -0.01984,0.0043 -0.04014,0.0069 -0.05951,0.01304 -0.0208,0.0066 -0.03816,0.02114 -0.05688,0.03233 -0.05061,0.03026 -0.100174,0.06231 -0.1475,0.09753 -0.139824,0.09991 -0.272804,0.20928 -0.416115,0.304329 -0.121267,0.07276 -0.01836,0.244261 0.102899,0.171501 z" />
    <path
       style="fill:#000000;stroke-width:0.264999"
       id="path236"
       d="m 29.221294,30.827126 c -0.05001,0.200224 -0.07726,0.405355 -0.107315,0.609299 -0.04008,0.301754 -0.07227,0.604411 -0.09164,0.9082 -0.0095,0.227502 -0.01781,0.454951 -0.02911,0.682387 -0.0071,0.208153 -0.01857,0.416018 -0.02992,0.62397 -0.01241,0.200506 -0.0033,0.401508 0.0056,0.601961 0.0032,0.06458 0.0058,0.12918 0.0075,0.193818 0.0021,0.03003 -0.006,-5.29e-4 7.93e-4,-0.0011 0.05597,-0.0052 0.112361,-0.0035 0.168542,-0.0053 -0.06143,-0.127381 -0.241577,-0.0405 -0.180144,0.08688 v 0 c 0.06071,0.0076 0.120955,0.02445 0.182121,0.02289 0.01495,-2.64e-4 0.03133,-0.100888 0.02854,-0.108513 -0.0016,-0.06591 -0.0043,-0.131784 -0.0076,-0.197631 -0.0086,-0.19386 -0.0177,-0.388263 -0.0057,-0.582176 0.01138,-0.208277 0.02286,-0.41647 0.02997,-0.624948 0.01124,-0.22651 0.0196,-0.453033 0.02895,-0.679609 0.01895,-0.298294 0.05069,-0.595453 0.08991,-0.891757 0.02863,-0.194395 0.05468,-0.389837 0.101012,-0.580977 0.04064,-0.135459 -0.150929,-0.192927 -0.191563,-0.05747 z" />
    <path
       style="fill:#000000;stroke-width:0.264999"
       id="path237"
       d="m 28.894264,31.267882 c 0.09472,-0.09158 0.184512,-0.189621 0.288047,-0.271494 0.04556,-0.02207 0.08646,-0.063 0.135937,-0.07696 0.04547,-0.0034 -0.04915,-0.02379 -0.02739,-0.0028 0.149691,0.124571 0.251854,0.29396 0.360796,0.452887 0.06742,0.100089 0.131009,0.203309 0.213826,0.291695 0.01675,0.01625 0.0085,0.0088 0.02445,0.02244 0.108914,0.09021 0.23649,-0.06382 0.127575,-0.154027 v 0 c -2.31e-4,-8.5e-5 -5.3e-4,-1.67e-4 -7.94e-4,-2.52e-4 -0.0019,-0.0019 -0.0039,-0.0036 -0.0059,-0.0054 -0.07646,-0.0801 -0.131127,-0.17731 -0.19431,-0.267499 -0.123124,-0.179575 -0.240033,-0.370313 -0.414139,-0.505756 -0.05126,-0.03211 -0.101322,-0.04023 -0.156726,-0.01765 -0.06681,0.02766 -0.128153,0.06728 -0.188259,0.107085 -0.108635,0.08746 -0.205369,0.188624 -0.304644,0.286338 -0.1,0.100001 0.04142,0.241421 0.141423,0.141422 z" />
    <path
       style="fill:#000000;stroke-width:0.264999"
       id="path238"
       d="m 29.120581,34.278076 c -0.178748,0.01929 -0.356394,0.05577 -0.517594,0.138607 -0.04111,0.02111 -0.07964,0.04695 -0.119454,0.07042 -0.244811,0.163438 -0.356098,0.36187 -0.454097,0.631325 -0.06649,0.262982 -0.03538,0.499578 0.08114,0.743701 0.02513,0.05267 0.05567,0.102598 0.08351,0.153895 0.13544,0.223705 0.307094,0.417703 0.520621,0.569579 0.05419,0.03854 0.109251,0.07654 0.168312,0.107111 0.06742,0.03489 0.139866,0.05905 0.209798,0.08858 0.07397,0.02151 0.146923,0.04685 0.221898,0.06451 0.263975,0.06221 0.5622,0.09252 0.833541,0.07648 0.0598,-0.0035 0.119092,-0.01312 0.178636,-0.01971 0.209571,-0.03473 0.412483,-0.107995 0.587505,-0.230113 0.03566,-0.0249 0.07181,-0.05006 0.101912,-0.08145 0.03375,-0.0352 0.05877,-0.07783 0.08815,-0.116748 0.01775,-0.05053 0.04092,-0.09947 0.05325,-0.151598 0.04615,-0.195175 0.0136,-0.407541 -0.0497,-0.594672 -0.01564,-0.04622 -0.03565,-0.09084 -0.05347,-0.136258 -0.120955,-0.266684 -0.308063,-0.493236 -0.512054,-0.700191 -0.182038,-0.161512 -0.386876,-0.302355 -0.609801,-0.401828 -0.04721,-0.02106 -0.09615,-0.038 -0.144221,-0.05701 -0.324422,-0.09779 -0.557724,-0.05072 -0.870503,0.04667 -0.134991,0.04216 -0.07537,0.233063 0.05962,0.190904 v 0 c 0.261157,-0.08183 0.465516,-0.131484 0.737833,-0.05139 0.04268,0.01659 0.08616,0.03128 0.128037,0.04981 0.203224,0.0899 0.390064,0.217659 0.556818,0.363458 0.185693,0.187145 0.356291,0.392507 0.468323,0.633214 0.09089,0.2271 0.150958,0.45049 0.07337,0.692306 -0.01714,0.02596 -0.0304,0.05493 -0.05144,0.07784 -0.02381,0.0259 -0.05293,0.04656 -0.08157,0.067 -0.149627,0.106717 -0.324368,0.170405 -0.504555,0.201324 -0.05277,0.0061 -0.10528,0.01516 -0.158305,0.01844 -0.252415,0.01564 -0.530148,-0.01217 -0.776063,-0.06869 -0.06775,-0.01558 -0.133731,-0.03804 -0.200594,-0.05706 -0.05982,-0.02429 -0.121906,-0.0436 -0.179466,-0.07284 -0.05326,-0.02705 -0.102815,-0.06107 -0.151713,-0.09538 -0.192383,-0.134993 -0.34644,-0.307962 -0.468648,-0.508191 -0.14424,-0.261974 -0.217247,-0.431964 -0.15194,-0.734057 0.07396,-0.208701 0.176647,-0.403828 0.368348,-0.527214 0.0327,-0.01979 0.06428,-0.04156 0.0981,-0.05936 0.141147,-0.0743 0.297497,-0.104994 0.454591,-0.122245 0.140843,-0.01281 0.122735,-0.211982 -0.0181,-0.199179 z" />
    <path
       style="fill:#000000;stroke-width:0.264999"
       id="path239"
       d="m 29.029829,35.350694 c 0.105206,-0.0058 0.178535,0.01699 0.240609,0.10809 0.01273,0.01865 0.01905,0.04095 0.02857,0.06143 0.0047,0.02376 0.01429,0.04709 0.01405,0.07132 -0.0011,0.1124 -0.120573,0.276172 -0.184938,0.366104 -0.06727,0.100322 -0.09998,0.180173 0.0019,0.280617 0.03303,0.03258 0.138078,0.07937 0.177721,0.09862 0.185301,0.08221 0.373959,0.156662 0.56502,0.224334 -0.04538,-0.01376 0.120766,0.03787 0.0755,0.02746 0.118946,0.0765 0.227129,-0.09172 0.108183,-0.168214 v 0 c -0.03732,-0.02074 -0.07569,-0.03595 -0.116935,-0.04778 -0.184275,-0.06522 -0.366184,-0.137067 -0.545029,-0.216014 -0.02598,-0.01238 -0.05213,-0.02445 -0.07798,-0.03714 -0.01558,-0.0076 -0.02894,-0.02492 -0.04626,-0.02387 -0.009,5.29e-4 -5.3e-4,0.01834 -0.0035,0.02692 -0.0024,0.007 -0.0089,0.02543 -0.01185,0.01865 -0.0034,-0.0079 0.0054,-0.01651 0.0095,-0.0241 0.008,-0.0149 0.01767,-0.02879 0.02652,-0.04319 0.110035,-0.154181 0.232635,-0.329581 0.21653,-0.529759 -0.0033,-0.0409 -0.02154,-0.0792 -0.03229,-0.118798 -0.02069,-0.03562 -0.03708,-0.07413 -0.06209,-0.10686 -0.100502,-0.131538 -0.244361,-0.177784 -0.403061,-0.166817 -0.140721,0.01407 -0.120819,0.213079 0.0199,0.199006 z" />
    <path
       style="fill:#000000;stroke-width:0.264999"
       id="path240"
       d="m 29.952089,32.534861 c -0.0057,0.264623 -0.01185,0.528984 -0.0085,0.793729 0.0021,0.09359 0.0034,0.187227 0.007,0.280775 0.0055,0.141312 0.205367,0.133509 0.199847,-0.0078 v 0 c -0.0036,-0.09178 -0.0047,-0.183655 -0.0069,-0.275471 -0.0033,-0.263914 0.003,-0.527433 0.0086,-0.791228 0,-0.141423 -0.200001,-0.141423 -0.200001,0 z" />
    <path
       style="fill:#000000;stroke-width:0.264999"
       id="path241"
       d="m 30.109969,32.483619 c 0.01712,-0.0084 0.03388,-0.01752 0.05137,-0.02508 0.03998,-0.0173 0.09723,-0.04056 0.141745,-0.04471 0.007,-5.29e-4 0.06999,-0.0032 0.0711,0.02664 2.64e-4,0.0094 -0.0123,0.01415 -0.01847,0.02125 -0.0037,0.126875 -0.07167,0.237664 -0.09382,0.360005 0.01995,0.04028 0.03181,0.08572 0.05988,0.120825 0.02204,0.02757 0.05642,0.04254 0.08607,0.06168 0.07788,0.05028 0.196775,0.0961 0.261299,0.161528 0.01773,0.01797 0.02699,0.04266 0.04048,0.06399 0.0065,0.02442 0.01783,0.04806 0.01955,0.07329 0.0081,0.118184 -0.07911,0.24569 -0.171675,0.310751 -0.02437,0.01712 -0.05306,0.02707 -0.07958,0.04061 -0.110009,0.03851 -0.209585,0.04226 -0.313891,-0.0097 -0.128688,-0.05864 -0.211625,0.123348 -0.08293,0.181993 v 0 c 0.02434,0.01053 0.04782,0.02342 0.07306,0.03159 0.139902,0.04525 0.287073,0.02408 0.421278,-0.02924 0.04037,-0.02384 0.0841,-0.04271 0.121118,-0.07147 0.1519,-0.117985 0.256636,-0.323275 0.222274,-0.518027 -0.0079,-0.04483 -0.03189,-0.08529 -0.04783,-0.127926 -0.02873,-0.03634 -0.053,-0.07669 -0.08619,-0.109003 -0.0388,-0.03776 -0.138348,-0.09154 -0.185396,-0.118555 -0.02666,-0.01532 -0.05344,-0.03042 -0.08005,-0.04583 -0.01606,-0.0093 -0.02972,-0.03194 -0.04791,-0.0283 -0.01368,0.0027 -0.0077,0.02678 -0.01159,0.04018 5.29e-4,-0.04461 0.03125,-0.09617 0.04463,-0.136872 0.03504,-0.106572 0.0578,-0.211593 0.03746,-0.324369 -0.02537,-0.04204 -0.04022,-0.09263 -0.07613,-0.126124 -0.117408,-0.109524 -0.351149,-0.0087 -0.466809,0.05452 -0.117671,0.07845 -0.0067,0.244856 0.11094,0.16641 z" />
    <path
       style="fill:#000000;stroke-width:0.264999"
       id="path3"
       d="m 35.552507,25.21066 c -0.0089,0.02989 -0.0092,0.06109 -0.009,0.09198 -5.29e-4,0.03154 0.0038,0.06279 0.01042,0.09356 0.0045,0.019 0.0075,0.03829 0.0095,0.0577 0.0036,0.04106 0.01519,0.08033 0.02943,0.118772 0.01553,0.0408 0.03433,0.08021 0.052,0.120098 0.01836,0.04253 0.03711,0.08495 0.05847,0.126066 0.01606,0.03272 0.03831,0.0615 0.05957,0.09085 0.01839,0.02501 0.03859,0.04855 0.05879,0.07209 0.02127,0.02631 0.04776,0.0471 0.07584,0.06558 0.02442,0.01658 0.05041,0.03054 0.07661,0.04408 0.02733,0.01287 0.05492,0.02524 0.08194,0.03877 0.03546,0.01661 0.07137,0.03229 0.107296,0.04786 0.03058,0.01468 0.06289,0.02483 0.09562,0.03339 0.03761,0.0086 0.07575,0.01463 0.113726,0.02133 0.02619,0.004 0.05228,0.0084 0.07808,0.01447 0.03691,0.0086 0.07498,0.0086 0.112657,0.0093 0.04041,0.0012 0.08082,-2.59e-4 0.12106,-0.0041 0.03845,-0.0042 0.07687,-0.0086 0.115128,-0.01432 0.0436,-0.005 0.0863,-0.01501 0.128556,-0.02657 0.0402,-0.01136 0.07971,-0.02493 0.119306,-0.03819 0.03544,-0.01154 0.06807,-0.02933 0.100491,-0.04736 0.03144,-0.01692 0.06378,-0.03201 0.09519,-0.049 0.03659,-0.01932 0.07,-0.04381 0.103497,-0.06791 0.04204,-0.02807 0.07541,-0.06598 0.107937,-0.10412 0.02913,-0.0335 0.05635,-0.06846 0.08017,-0.105914 0.02273,-0.03656 0.04237,-0.07531 0.05551,-0.116409 0.0034,-0.01061 0.0061,-0.02143 0.0092,-0.03214 0.01574,-0.05868 0.02439,-0.118671 0.03138,-0.178901 0.0073,-0.06964 0.0033,-0.13947 -0.0071,-0.208513 -0.0059,-0.04529 -0.01968,-0.08864 -0.03486,-0.131497 -0.01304,-0.03941 -0.02964,-0.07743 -0.04726,-0.114969 -0.01585,-0.03368 -0.03455,-0.06583 -0.0526,-0.09834 -0.02818,-0.04979 -0.06475,-0.09371 -0.101888,-0.136939 -0.05215,-0.06013 -0.112565,-0.112117 -0.172043,-0.164718 -0.04068,-0.0356 -0.0834,-0.06901 -0.13067,-0.0955 -0.02635,-0.01477 -0.04903,-0.02474 -0.07622,-0.0374 -0.06604,-0.02975 -0.133866,-0.05521 -0.202015,-0.07965 -0.06357,-0.02062 -0.12781,-0.04144 -0.193818,-0.05295 -0.01558,-0.0027 -0.0313,-0.0045 -0.04695,-0.0068 -0.0787,-0.0085 -0.158429,-0.007 -0.236884,0.0035 -0.01476,0.002 -0.02943,0.0047 -0.04414,0.0071 -0.05123,0.01042 -0.102825,0.02385 -0.149743,0.04758 -0.02694,0.01363 -0.03792,0.02189 -0.06229,0.03811 -0.05351,0.03665 -0.094,0.08672 -0.129474,0.140233 -0.02741,0.04397 -0.05397,0.08845 -0.08217,0.131919 -0.036,0.04999 -0.06974,0.101599 -0.106797,0.150805 -0.02429,0.03158 -0.05376,0.05866 -0.07897,0.08944 -0.02307,0.02817 -0.02336,0.03059 -0.04315,0.06143 -0.01839,0.03071 -0.0342,0.0628 -0.0497,0.09502 -0.0611,0.127542 0.119274,0.213949 0.180372,0.08641 v 0 c 0.01212,-0.02545 0.02458,-0.05074 0.03874,-0.07513 0.01013,-0.01684 0.01135,-0.02013 0.02416,-0.03591 0.02824,-0.03481 0.06198,-0.06497 0.08854,-0.101243 0.03963,-0.053 0.07635,-0.108102 0.114652,-0.162061 0.02797,-0.04321 0.05457,-0.08725 0.08161,-0.131048 0.02035,-0.03161 0.04297,-0.06188 0.0739,-0.08396 0.0054,-0.0037 0.02551,-0.0178 0.0324,-0.0215 0.03108,-0.01672 0.06604,-0.02528 0.100232,-0.03271 0.07299,-0.01226 0.14724,-0.01794 0.221083,-0.0099 0.01122,0.0015 0.02252,0.0026 0.03367,0.0045 0.05699,0.0096 0.11235,0.02793 0.167235,0.04545 0.06252,0.02241 0.124767,0.04567 0.18541,0.07284 0.01881,0.0087 0.03956,0.01789 0.05788,0.02771 0.03679,0.01974 0.06916,0.04637 0.100632,0.07355 0.05266,0.04658 0.106458,0.09231 0.152903,0.145312 0.02837,0.03295 0.05686,0.06598 0.07875,0.103761 0.01588,0.02851 0.03238,0.05667 0.04637,0.08619 0.01487,0.03158 0.02894,0.06352 0.03977,0.09675 0.01101,0.03101 0.02175,0.06211 0.02566,0.095 0.0081,0.05134 0.01111,0.103318 0.0061,0.155189 -0.0058,0.04989 -0.01252,0.09961 -0.02537,0.148272 -0.009,0.03397 -0.02183,0.06641 -0.04142,0.09582 -0.01812,0.02958 -0.04065,0.05606 -0.063,0.08252 -0.02207,0.02591 -0.04366,0.05272 -0.07252,0.07149 -0.02667,0.01919 -0.05304,0.03907 -0.08214,0.0545 -0.03192,0.01742 -0.06509,0.03237 -0.09692,0.04996 -0.02167,0.01205 -0.0431,0.02468 -0.0668,0.03251 -0.03616,0.01211 -0.07223,0.02455 -0.108919,0.03502 -0.03457,0.0096 -0.06951,0.0177 -0.105232,0.02163 -0.03498,0.0053 -0.07015,0.0092 -0.105305,0.01309 -0.03243,0.0035 -0.06511,0.0039 -0.09769,0.0031 -0.02339,-3.97e-4 -0.04714,2.64e-4 -0.07022,-0.004 -0.02949,-0.0069 -0.05927,-0.01222 -0.08922,-0.01676 -0.03299,-0.0058 -0.06609,-0.01115 -0.09885,-0.01812 -0.02265,-0.0055 -0.04469,-0.0129 -0.06568,-0.02314 -0.03278,-0.01421 -0.06551,-0.02854 -0.09794,-0.04352 -0.02614,-0.01288 -0.05252,-0.02528 -0.07905,-0.03731 -0.02043,-0.01053 -0.04076,-0.02115 -0.05969,-0.03426 -0.01233,-0.0077 -0.02387,-0.01626 -0.03276,-0.02795 -0.01667,-0.01942 -0.03345,-0.03873 -0.0487,-0.0593 -0.01561,-0.02148 -0.03248,-0.04219 -0.04426,-0.06617 -0.01966,-0.03709 -0.03587,-0.07594 -0.0528,-0.114326 -0.01611,-0.0363 -0.03322,-0.07217 -0.04756,-0.109219 -0.0086,-0.02262 -0.01603,-0.04552 -0.01786,-0.06986 -0.0029,-0.0269 -0.007,-0.05368 -0.01318,-0.08004 -0.0042,-0.01666 -0.0057,-0.03389 -0.0056,-0.05104 -7.7e-5,-0.01202 -0.0011,-0.02425 0.0013,-0.03596 0.03885,-0.13598 -0.153453,-0.190924 -0.192304,-0.05494 z" />
    <path
       style="fill:#000000;stroke-width:0.264999"
       id="path4"
       d="m 36.315216,24.778511 c -0.0039,0.0054 -0.0082,0.01054 -0.01183,0.01611 -0.01516,0.02315 -0.02368,0.04019 -0.03576,0.06639 -0.01569,0.034 -0.03141,0.07248 -0.04306,0.107881 -0.007,0.0212 -0.01252,0.04286 -0.01876,0.06429 -0.0044,0.0229 -0.01003,0.04561 -0.01328,0.06871 -0.0058,0.04147 -0.0083,0.0885 -0.003,0.130319 0.0026,0.02003 0.005,0.04061 0.01286,0.0592 0.01021,0.02408 0.02352,0.04738 0.04075,0.06707 0.01553,0.01773 0.03726,0.02887 0.05588,0.04331 0.02405,0.0075 0.04729,0.01839 0.07215,0.02248 0.02283,0.0037 0.04632,0.0024 0.0694,7.67e-4 0.07344,-0.0052 0.141544,-0.0348 0.207573,-0.06475 0.04269,-0.02118 0.08597,-0.04389 0.117094,-0.08115 0.02061,-0.02466 0.02508,-0.03823 0.03879,-0.06653 0.0037,-0.0096 0.0077,-0.01908 0.01103,-0.02882 0.0091,-0.02685 0.04125,-0.136397 -0.005,-0.145051 -0.06023,-0.01128 -0.119333,0.02792 -0.178999,0.04188 -0.03969,0.117166 -0.05548,0.240274 -0.07052,0.362504 -0.01035,0.09914 -0.02035,0.198357 -0.02815,0.297739 -0.0027,0.03499 -0.0055,0.06997 -0.0076,0.105007 -5.29e-4,0.0074 -7.94e-4,0.01473 -0.0011,0.02211 -5.3e-5,0.0012 -5.3e-4,0.0046 -1.51e-4,0.0035 0.0021,-0.01 -0.0031,-0.02553 0.006,-0.03013 0.04626,-0.02327 0.09865,-0.03156 0.147971,-0.04734 -0.116105,-0.08074 -0.230294,0.08345 -0.114189,0.164197 v 0 c 0.05085,-0.01472 0.104965,-0.02095 0.152537,-0.04416 0.0088,-0.0043 0.0075,-0.04387 0.0086,-0.05652 0.0019,-0.03369 0.0047,-0.06732 0.0073,-0.100965 0.0076,-0.09648 0.0173,-0.192796 0.02728,-0.289053 0.01289,-0.105344 0.02598,-0.211295 0.05785,-0.312942 -0.055,0.0022 -0.113453,0.02597 -0.164989,0.0066 -0.02416,-0.0091 -0.01161,-0.0503 -0.01805,-0.07529 -2.64e-4,-0.0012 -1.4e-4,0.0025 -2.64e-4,0.0037 -0.0026,0.01363 -0.0062,0.02715 -0.01146,0.04002 -0.0013,0.0036 -0.0029,0.0071 -0.004,0.01077 -2.65e-4,0.0012 -5.3e-4,0.0025 -2.65e-4,0.0037 6.6e-5,6.88e-4 0.0013,0.0014 7.94e-4,0.0019 -0.01405,0.01462 -0.0368,0.02216 -0.05351,0.03236 -0.03273,0.01504 -0.06519,0.03049 -0.100084,0.04001 -0.01029,0.0028 -0.02082,0.0046 -0.03125,0.0068 -0.0065,0.0014 -0.01331,0.0016 -0.01958,0.0038 -0.0026,9e-4 -0.004,0.0035 -0.006,0.0052 -0.0021,10e-4 -0.0042,0.0016 -0.006,0.003 -0.0021,0.0017 -0.0039,0.0085 -0.0056,0.0063 -0.0049,-0.0063 -0.006,-0.01492 -0.0074,-0.02278 -0.0078,-0.04408 1.9e-4,-0.08898 0.0088,-0.132183 0.0048,-0.01689 0.0089,-0.03396 0.01431,-0.05067 0.01455,-0.0452 0.03314,-0.08993 0.05655,-0.131275 0.09054,-0.108643 -0.06311,-0.23668 -0.153643,-0.128037 z" />
    <text
       xml:space="preserve"
       style="font-size:3.175px;line-height:1.25;font-family:'Open Sans';-inkscape-font-specification:'Open Sans';letter-spacing:0px;word-spacing:0px;stroke-width:0.264583"
       x="39.95829"
       y="10.086722"
       id="text139"><tspan
         sodipodi:role="line"
         style="stroke-width:0.264583"
         x="39.95829"
         y="10.086722"
         id="tspan1">_. S ::= a B         _. B ::= </tspan></text>
    <circle
       style="fill:none;stroke:#000000;stroke-width:0.264999"
       id="path43-2"
       cx="80.505257"
       cy="22.711117"
       r="1.5418432" />
    <path
       style="fill:none;stroke:#000000;stroke-width:0.265;stroke-linecap:butt;stroke-linejoin:miter;stroke-dasharray:none;stroke-opacity:1;marker-end:url(#ArrowWideRounded)"
       d="m 81.829209,21.83178 c 0,0 0.08251,-1.503499 1.037864,-1.493582 0.880306,0.0091 1.280931,1.03099 0.807508,1.560045 -0.459851,0.513889 -1.295185,0.472974 -1.295185,0.472974"
       id="path64-3"
       sodipodi:nodetypes="cssc" />
    <text
       xml:space="preserve"
       style="font-size:2.11667px;line-height:1.25;font-family:'Open Sans';-inkscape-font-specification:'Open Sans';letter-spacing:0px;word-spacing:0px;stroke-width:0.264583"
       x="84.253166"
       y="21.580105"
       id="text81"><tspan
         sodipodi:role="line"
         id="tspan81"
         style="font-style:normal;font-variant:normal;font-weight:600;font-stretch:normal;font-size:2.11667px;font-family:'Open Sans';-inkscape-font-specification:'Open Sans Semi-Bold';stroke-width:0.264583"
         x="84.253166"
         y="21.580105">C<tspan
   style="font-size:65%;baseline-shift:sub"
   id="tspan118">S</tspan></tspan></text>
    <text
       xml:space="preserve"
       style="font-size:1.41111px;line-height:1.25;font-family:'Open Sans';-inkscape-font-specification:'Open Sans';letter-spacing:0px;word-spacing:0px;stroke-width:0.264583"
       x="80.064713"
       y="23.230309"
       id="text83"><tspan
         sodipodi:role="line"
         id="tspan83"
         style="font-style:normal;font-variant:normal;font-weight:600;font-stretch:normal;font-size:1.41111px;font-family:'Open Sans';-inkscape-font-specification:'Open Sans Semi-Bold';stroke-width:0.264583"
         x="80.064713"
         y="23.230309">0</tspan></text>
    <circle
       style="fill:none;stroke:#000000;stroke-width:0.264999"
       id="circle83"
       cx="80.505257"
       cy="22.711117"
       r="1.5418432" />
    <circle
       style="fill:none;stroke:#000000;stroke-width:0.264999"
       id="circle85"
       cx="74.964638"
       cy="29.464893"
       r="1.5418432" />
    <circle
       style="fill:none;stroke:#000000;stroke-width:0.264999"
       id="circle86"
       cx="85.980919"
       cy="29.74651"
       r="1.5418432" />
    <circle
       style="fill:none;stroke:#000000;stroke-width:0.264999"
       id="circle90"
       cx="74.841934"
       cy="36.324524"
       r="1.5418432" />
    <circle
       style="fill:none;stroke:#000000;stroke-width:0.264999"
       id="circle91"
       cx="86.308449"
       cy="36.420834"
       r="1.5418432" />
    <text
       xml:space="preserve"
       style="font-size:1.41111px;line-height:1.25;font-family:'Open Sans';-inkscape-font-specification:'Open Sans';letter-spacing:0px;word-spacing:0px;stroke-width:0.264583"
       x="65.253036"
       y="29.755074"
       id="text91"><tspan
         sodipodi:role="line"
         id="tspan91"
         style="font-style:normal;font-variant:normal;font-weight:600;font-stretch:normal;font-size:1.41111px;font-family:'Open Sans';-inkscape-font-specification:'Open Sans Semi-Bold';stroke-width:0.264583"
         x="65.253036"
         y="29.755074">$r_.B0r.S1B</tspan></text>
    <text
       xml:space="preserve"
       style="font-size:1.41111px;line-height:1.25;font-family:'Open Sans';-inkscape-font-specification:'Open Sans';letter-spacing:0px;word-spacing:0px;stroke-width:0.264583"
       x="82.73381"
       y="36.785458"
       id="text93"><tspan
         sodipodi:role="line"
         id="tspan93"
         style="font-style:normal;font-variant:normal;font-weight:600;font-stretch:normal;font-size:1.41111px;font-family:'Open Sans';-inkscape-font-specification:'Open Sans Semi-Bold';stroke-width:0.264583"
         x="82.73381"
         y="36.785458">$s</tspan></text>
    <text
       xml:space="preserve"
       style="font-size:1.41111px;line-height:1.25;font-family:'Open Sans';-inkscape-font-specification:'Open Sans';letter-spacing:0px;word-spacing:0px;stroke-width:0.264583"
       x="73.050301"
       y="39.874981"
       id="text96"><tspan
         sodipodi:role="line"
         id="tspan96"
         style="font-style:normal;font-variant:normal;font-weight:600;font-stretch:normal;font-size:1.41111px;font-family:'Open Sans';-inkscape-font-specification:'Open Sans Semi-Bold';stroke-width:0.264583"
         x="73.050301"
         y="39.874981">$r_.S2</tspan></text>
    <text
       xml:space="preserve"
       style="font-size:1.41111px;line-height:1.25;font-family:'Open Sans';-inkscape-font-specification:'Open Sans';letter-spacing:0px;word-spacing:0px;stroke-width:0.264583"
       x="82.302361"
       y="30.235081"
       id="text100"><tspan
         sodipodi:role="line"
         id="tspan99"
         style="font-style:normal;font-variant:normal;font-weight:600;font-stretch:normal;font-size:1.41111px;font-family:'Open Sans';-inkscape-font-specification:'Open Sans Semi-Bold';stroke-width:0.264583"
         x="82.302361"
         y="30.235081">$s</tspan></text>
    <path
       style="fill:none;stroke:#000000;stroke-width:0.264583px;stroke-linecap:butt;stroke-linejoin:miter;stroke-opacity:1;marker-end:url(#marker104)"
       d="M 79.537425,24.043662 76.146868,27.94716"
       id="path103-5"
       sodipodi:nodetypes="cc" />
    <path
       style="fill:none;stroke:#000000;stroke-width:0.264583px;stroke-linecap:butt;stroke-linejoin:miter;stroke-opacity:1;marker-end:url(#marker106)"
       d="m 81.428906,24.040654 3.461888,4.137566"
       id="path105-9"
       sodipodi:nodetypes="cc" />
    <path
       style="fill:none;stroke:#000000;stroke-width:0.264583px;stroke-linecap:butt;stroke-linejoin:miter;stroke-opacity:1;marker-end:url(#marker112)"
       d="m 75.011832,30.975273 0.110133,3.445547"
       id="path111-8" />
    <path
       style="fill:none;stroke:#000000;stroke-width:0.264583px;stroke-linecap:butt;stroke-linejoin:miter;stroke-opacity:1;marker-end:url(#marker112)"
       d="m 86.120122,31.309022 0.143508,3.18411"
       id="path113"
       sodipodi:nodetypes="cc" />
    <circle
       style="fill:none;stroke:#000000;stroke-width:0.264999"
       id="circle114"
       cx="86.308449"
       cy="36.420834"
       r="1.1327827" />
    <text
       xml:space="preserve"
       style="font-size:2.11667px;line-height:1.25;font-family:'Open Sans';-inkscape-font-specification:'Open Sans';letter-spacing:0px;word-spacing:0px;stroke-width:0.264583"
       x="72.951515"
       y="33.048061"
       id="text114"><tspan
         sodipodi:role="line"
         id="tspan114"
         style="font-style:normal;font-variant:normal;font-weight:600;font-stretch:normal;font-size:2.11667px;font-family:'Open Sans';-inkscape-font-specification:'Open Sans Semi-Bold';stroke-width:0.264583"
         x="72.951515"
         y="33.048061">B</tspan></text>
    <text
       xml:space="preserve"
       style="font-size:2.11667px;line-height:1.25;font-family:'Open Sans';-inkscape-font-specification:'Open Sans';letter-spacing:0px;word-spacing:0px;stroke-width:0.264583"
       x="86.878876"
       y="33.104477"
       id="text115"><tspan
         sodipodi:role="line"
         id="tspan115"
         style="font-style:normal;font-variant:normal;font-weight:600;font-stretch:normal;font-size:2.11667px;font-family:'Open Sans';-inkscape-font-specification:'Open Sans Semi-Bold';stroke-width:0.264583"
         x="86.878876"
         y="33.104477">$</tspan></text>
    <text
       xml:space="preserve"
       style="font-size:2.11667px;line-height:1.25;font-family:'Open Sans';-inkscape-font-specification:'Open Sans';letter-spacing:0px;word-spacing:0px;stroke-width:0.264583"
       x="76.173866"
       y="25.625523"
       id="text117"><tspan
         sodipodi:role="line"
         id="tspan117"
         style="font-style:normal;font-variant:normal;font-weight:600;font-stretch:normal;font-size:2.11667px;font-family:'Open Sans';-inkscape-font-specification:'Open Sans Semi-Bold';stroke-width:0.264583"
         x="76.173866"
         y="25.625523">a</tspan></text>
    <text
       xml:space="preserve"
       style="font-size:2.11667px;line-height:1.25;font-family:'Open Sans';-inkscape-font-specification:'Open Sans';letter-spacing:0px;word-spacing:0px;stroke-width:0.264583"
       x="83.388885"
       y="25.638172"
       id="text120"><tspan
         sodipodi:role="line"
         id="tspan120"
         style="font-style:normal;font-variant:normal;font-weight:600;font-stretch:normal;font-size:2.11667px;font-family:'Open Sans';-inkscape-font-specification:'Open Sans Semi-Bold';stroke-width:0.264583"
         x="83.388885"
         y="25.638172">S</tspan></text>
    <path
       style="fill:none;stroke:#000000;stroke-width:0.265;stroke-linecap:butt;stroke-linejoin:miter;stroke-dasharray:none;stroke-opacity:1;marker-end:url(#ArrowWideRounded)"
       d="m 86.770565,37.963283 c 0,0 0.793649,1.252669 0.164937,1.972059 -0.579295,0.662902 -1.616172,0.30284 -1.710303,-0.400842 -0.09143,-0.68351 0.33333,-1.354489 0.33333,-1.354489"
       id="path121-7"
       sodipodi:nodetypes="cssc" />
    <text
       xml:space="preserve"
       style="font-size:2.11667px;line-height:1.25;font-family:'Open Sans';-inkscape-font-specification:'Open Sans';letter-spacing:0px;word-spacing:0px;stroke-width:0.264583"
       x="85.355354"
       y="42.439209"
       id="text122"><tspan
         sodipodi:role="line"
         id="tspan122"
         style="font-style:normal;font-variant:normal;font-weight:600;font-stretch:normal;font-size:2.11667px;font-family:'Open Sans';-inkscape-font-specification:'Open Sans Semi-Bold';stroke-width:0.264583"
         x="85.355354"
         y="42.439209">$</tspan></text>
    <text
       xml:space="preserve"
       style="font-size:1.41111px;line-height:1.25;font-family:'Open Sans';-inkscape-font-specification:'Open Sans';letter-spacing:0px;word-spacing:0px;stroke-width:0.264583"
       x="85.930832"
       y="36.908562"
       id="text131"><tspan
         sodipodi:role="line"
         id="tspan131"
         style="font-style:normal;font-variant:normal;font-weight:600;font-stretch:normal;font-size:1.41111px;font-family:'Open Sans';-inkscape-font-specification:'Open Sans Semi-Bold';stroke-width:0.264583"
         x="85.930832"
         y="36.908562">4</tspan></text>
    <text
       xml:space="preserve"
       style="font-size:1.41111px;line-height:1.25;font-family:'Open Sans';-inkscape-font-specification:'Open Sans';letter-spacing:0px;word-spacing:0px;stroke-width:0.264583"
       x="74.432854"
       y="36.843719"
       id="text132"><tspan
         sodipodi:role="line"
         id="tspan132"
         style="font-style:normal;font-variant:normal;font-weight:600;font-stretch:normal;font-size:1.41111px;font-family:'Open Sans';-inkscape-font-specification:'Open Sans Semi-Bold';stroke-width:0.264583"
         x="74.432854"
         y="36.843719">2</tspan></text>
    <text
       xml:space="preserve"
       style="font-size:1.41111px;line-height:1.25;font-family:'Open Sans';-inkscape-font-specification:'Open Sans';letter-spacing:0px;word-spacing:0px;stroke-width:0.264583"
       x="74.555557"
       y="29.984089"
       id="text133"><tspan
         sodipodi:role="line"
         id="tspan133"
         style="font-style:normal;font-variant:normal;font-weight:600;font-stretch:normal;font-size:1.41111px;font-family:'Open Sans';-inkscape-font-specification:'Open Sans Semi-Bold';stroke-width:0.264583"
         x="74.555557"
         y="29.984089">1</tspan></text>
    <text
       xml:space="preserve"
       style="font-size:1.41111px;line-height:1.25;font-family:'Open Sans';-inkscape-font-specification:'Open Sans';letter-spacing:0px;word-spacing:0px;stroke-width:0.264583"
       x="85.571846"
       y="30.265701"
       id="text134"><tspan
         sodipodi:role="line"
         id="tspan134"
         style="font-style:normal;font-variant:normal;font-weight:600;font-stretch:normal;font-size:1.41111px;font-family:'Open Sans';-inkscape-font-specification:'Open Sans Semi-Bold';stroke-width:0.264583"
         x="85.571846"
         y="30.265701">5</tspan></text>
    <path
       style="fill:none;stroke:#000000;stroke-width:0.265;stroke-linecap:butt;stroke-linejoin:miter;stroke-dasharray:none;stroke-opacity:1;marker-end:url(#ArrowWideRounded)"
       d="m 76.530527,29.267656 c 0,0 1.14458,-1.086536 1.887862,-0.486259 0.684916,0.553092 0.365427,1.60318 -0.334065,1.724589 -0.679439,0.11793 -1.309346,-0.432229 -1.309346,-0.432229"
       id="path5"
       sodipodi:nodetypes="cssc" />
    <text
       xml:space="preserve"
       style="font-size:2.11667px;line-height:1.25;font-family:'Open Sans';-inkscape-font-specification:'Open Sans';letter-spacing:0px;word-spacing:0px;stroke-width:0.264583"
       x="78.910103"
       y="29.801994"
       id="text6"><tspan
         sodipodi:role="line"
         id="tspan6"
         style="font-style:normal;font-variant:normal;font-weight:600;font-stretch:normal;font-size:2.11667px;font-family:'Open Sans';-inkscape-font-specification:'Open Sans Semi-Bold';stroke-width:0.264583"
         x="78.910103"
         y="29.801994">C<tspan
   style="font-size:65%;baseline-shift:sub"
   id="tspan7">B</tspan></tspan></text>
    <text
       xml:space="preserve"
       style="font-size:1.41111px;line-height:1.25;font-family:'Open Sans';-inkscape-font-specification:'Open Sans';letter-spacing:0px;word-spacing:0px;stroke-width:0.264583"
       x="76.580864"
       y="23.021309"
       id="text2"><tspan
         sodipodi:role="line"
         id="tspan2"
         style="font-style:normal;font-variant:normal;font-weight:600;font-stretch:normal;font-size:1.41111px;font-family:'Open Sans';-inkscape-font-specification:'Open Sans Semi-Bold';stroke-width:0.264583"
         x="76.580864"
         y="23.021309">as</tspan></text>
  </g>
</svg>
