<?xml version="1.0" encoding="UTF-8" standalone="no"?>
<!-- Created with Inkscape (http://www.inkscape.org/) -->

<svg
   width="307.29001pt"
   height="241.685pt"
   viewBox="0 0 108.40508 85.261096"
   version="1.1"
   id="svg1"
   inkscape:version="1.4.2 (ebf0e940d0, 2025-05-08)"
   sodipodi:docname="rngsglr2.svg"
   xmlns:inkscape="http://www.inkscape.org/namespaces/inkscape"
   xmlns:sodipodi="http://sodipodi.sourceforge.net/DTD/sodipodi-0.dtd"
   xmlns="http://www.w3.org/2000/svg"
   xmlns:svg="http://www.w3.org/2000/svg">
  <sodipodi:namedview
     id="namedview1"
     pagecolor="#ffffff"
     bordercolor="#666666"
     borderopacity="1.0"
     inkscape:showpageshadow="2"
     inkscape:pageopacity="0.0"
     inkscape:pagecheckerboard="0"
     inkscape:deskcolor="#d1d1d1"
     inkscape:document-units="mm"
     inkscape:zoom="4"
     inkscape:cx="245.5"
     inkscape:cy="109.125"
     inkscape:window-width="1265"
     inkscape:window-height="1396"
     inkscape:window-x="1285"
     inkscape:window-y="34"
     inkscape:window-maximized="1"
     inkscape:current-layer="layer1" />
  <defs
     id="defs1">
    <rect
       x="62.963443"
       y="27.127867"
       width="1.3396477"
       height="16.410685"
       id="rect98" />
    <rect
       x="28.467514"
       y="26.458043"
       width="336.25158"
       height="74.350449"
       id="rect97" />
    <marker
       style="overflow:visible"
       id="ArrowWideRounded"
       refX="0"
       refY="0"
       orient="auto-start-reverse"
       inkscape:stockid="Wide, rounded arrow"
       markerWidth="1"
       markerHeight="1"
       viewBox="0 0 1 1"
       inkscape:isstock="true"
       inkscape:collect="always"
       preserveAspectRatio="xMidYMid">
      <path
         style="fill:none;stroke:context-stroke;stroke-width:1;stroke-linecap:round"
         d="M 3,-3 0,0 3,3"
         transform="rotate(180,0.125,0)"
         sodipodi:nodetypes="ccc"
         id="path81-3" />
    </marker>
    <marker
       style="overflow:visible"
       id="marker104"
       refX="0"
       refY="0"
       orient="auto-start-reverse"
       inkscape:stockid="Wide, rounded arrow"
       markerWidth="1"
       markerHeight="1"
       viewBox="0 0 1 1"
       inkscape:isstock="true"
       inkscape:collect="always"
       preserveAspectRatio="xMidYMid">
      <path
         style="fill:none;stroke:context-stroke;stroke-width:1;stroke-linecap:round"
         d="M 3,-3 0,0 3,3"
         transform="rotate(180,0.125,0)"
         sodipodi:nodetypes="ccc"
         id="path104-0" />
    </marker>
    <marker
       style="overflow:visible"
       id="marker106"
       refX="0"
       refY="0"
       orient="auto-start-reverse"
       inkscape:stockid="Wide, rounded arrow"
       markerWidth="1"
       markerHeight="1"
       viewBox="0 0 1 1"
       inkscape:isstock="true"
       inkscape:collect="always"
       preserveAspectRatio="xMidYMid">
      <path
         style="fill:none;stroke:context-stroke;stroke-width:1;stroke-linecap:round"
         d="M 3,-3 0,0 3,3"
         transform="rotate(180,0.125,0)"
         sodipodi:nodetypes="ccc"
         id="path106-6" />
    </marker>
    <marker
       style="overflow:visible"
       id="marker112"
       refX="0"
       refY="0"
       orient="auto-start-reverse"
       inkscape:stockid="Wide, rounded arrow"
       markerWidth="1"
       markerHeight="1"
       viewBox="0 0 1 1"
       inkscape:isstock="true"
       inkscape:collect="always"
       preserveAspectRatio="xMidYMid">
      <path
         style="fill:none;stroke:context-stroke;stroke-width:1;stroke-linecap:round"
         d="M 3,-3 0,0 3,3"
         transform="rotate(180,0.125,0)"
         sodipodi:nodetypes="ccc"
         id="path112-1" />
    </marker>
  </defs>
  <g
     inkscape:label="Layer 1"
     inkscape:groupmode="layer"
     id="layer1">
    <text
       xml:space="preserve"
       style="font-size:3.52777px;line-height:1.25;font-family:'Open Sans';-inkscape-font-specification:'Open Sans';letter-spacing:0px;word-spacing:0px;stroke-width:0.264583"
       x="8.7725992"
       y="11.962636"
       id="text94"><tspan
         id="tspan94"
         style="stroke-width:0.264583"
         sodipodi:role="line" /></text>
    <text
       xml:space="preserve"
       transform="scale(0.26458333)"
       id="text97"
       style="font-size:13.3333px;line-height:1.25;font-family:'Open Sans';-inkscape-font-specification:'Open Sans';letter-spacing:0px;word-spacing:0px;white-space:pre;shape-inside:url(#rect97);display:inline" />
    <text
       xml:space="preserve"
       transform="scale(0.26458333)"
       id="text98"
       style="font-size:13.3333px;line-height:1.25;font-family:'Open Sans';-inkscape-font-specification:'Open Sans';letter-spacing:0px;word-spacing:0px;white-space:pre;shape-inside:url(#rect98);display:inline" />
    <text
       xml:space="preserve"
       style="font-size:3.175px;line-height:1.25;font-family:'Open Sans';-inkscape-font-specification:'Open Sans';letter-spacing:0px;word-spacing:0px;stroke-width:0.264583"
       x="26.751541"
       y="10.62607"
       id="text139"><tspan
         sodipodi:role="line"
         style="stroke-width:0.264583"
         x="26.751541"
         y="10.62607"
         id="tspan21">_. S ::= a | b        _. a ::= x        _.b ::= x</tspan></text>
    <circle
       style="fill:none;stroke:#000000;stroke-width:0.264999"
       id="path43-2"
       cx="81.181747"
       cy="22.942614"
       r="1.5418432" />
    <path
       style="fill:none;stroke:#000000;stroke-width:0.265;stroke-linecap:butt;stroke-linejoin:miter;stroke-dasharray:none;stroke-opacity:1;marker-end:url(#ArrowWideRounded)"
       d="m 82.505694,22.063276 c 0,0 0.08251,-1.503499 1.037864,-1.493582 0.880306,0.0091 1.280931,1.03099 0.807508,1.560045 -0.459851,0.513889 -1.295185,0.472974 -1.295185,0.472974"
       id="path64-3"
       sodipodi:nodetypes="cssc" />
    <text
       xml:space="preserve"
       style="font-size:2.11667px;line-height:1.25;font-family:'Open Sans';-inkscape-font-specification:'Open Sans';letter-spacing:0px;word-spacing:0px;stroke-width:0.264583"
       x="84.929657"
       y="21.811602"
       id="text81"><tspan
         sodipodi:role="line"
         id="tspan81"
         style="font-style:normal;font-variant:normal;font-weight:600;font-stretch:normal;font-size:2.11667px;font-family:'Open Sans';-inkscape-font-specification:'Open Sans Semi-Bold';stroke-width:0.264583"
         x="84.929657"
         y="21.811602">C<tspan
   style="font-size:65%;baseline-shift:sub"
   id="tspan118">S</tspan></tspan></text>
    <text
       xml:space="preserve"
       style="font-size:1.41111px;line-height:1.25;font-family:'Open Sans';-inkscape-font-specification:'Open Sans';letter-spacing:0px;word-spacing:0px;stroke-width:0.264583"
       x="80.741203"
       y="23.461805"
       id="text83"><tspan
         sodipodi:role="line"
         id="tspan83"
         style="font-style:normal;font-variant:normal;font-weight:600;font-stretch:normal;font-size:1.41111px;font-family:'Open Sans';-inkscape-font-specification:'Open Sans Semi-Bold';stroke-width:0.264583"
         x="80.741203"
         y="23.461805">0</tspan></text>
    <circle
       style="fill:none;stroke:#000000;stroke-width:0.264999"
       id="circle83"
       cx="81.181747"
       cy="22.942614"
       r="1.5418432" />
    <circle
       style="fill:none;stroke:#000000;stroke-width:0.264999"
       id="circle85"
       cx="75.027794"
       cy="29.96339"
       r="1.5418432" />
    <circle
       style="fill:none;stroke:#000000;stroke-width:0.264999"
       id="circle86"
       cx="89.636955"
       cy="29.978006"
       r="1.5418432" />
    <circle
       style="fill:none;stroke:#000000;stroke-width:0.264999"
       id="circle91"
       cx="89.964485"
       cy="36.652328"
       r="1.5418432" />
    <text
       xml:space="preserve"
       style="font-size:1.41111px;line-height:1.25;font-family:'Open Sans';-inkscape-font-specification:'Open Sans';letter-spacing:0px;word-spacing:0px;stroke-width:0.264583"
       x="92.130333"
       y="37.261703"
       id="text93"><tspan
         sodipodi:role="line"
         id="tspan93"
         style="font-style:normal;font-variant:normal;font-weight:600;font-stretch:normal;font-size:1.41111px;font-family:'Open Sans';-inkscape-font-specification:'Open Sans Semi-Bold';stroke-width:0.264583"
         x="92.130333"
         y="37.261703">$l</tspan></text>
    <text
       xml:space="preserve"
       style="font-size:1.41111px;line-height:1.25;font-family:'Open Sans';-inkscape-font-specification:'Open Sans';letter-spacing:0px;word-spacing:0px;stroke-width:0.264583"
       x="91.721138"
       y="30.310827"
       id="text100"><tspan
         sodipodi:role="line"
         id="tspan99"
         style="font-style:normal;font-variant:normal;font-weight:600;font-stretch:normal;font-size:1.41111px;font-family:'Open Sans';-inkscape-font-specification:'Open Sans Semi-Bold';stroke-width:0.264583"
         x="91.721138"
         y="30.310827">$l</tspan></text>
    <path
       style="fill:none;stroke:#000000;stroke-width:0.264583px;stroke-linecap:butt;stroke-linejoin:miter;stroke-opacity:1;marker-end:url(#marker104)"
       d="m 80.21391,24.275158 -3.820259,4.330419"
       id="path103-5"
       sodipodi:nodetypes="cc" />
    <path
       style="fill:none;stroke:#000000;stroke-width:0.264583px;stroke-linecap:butt;stroke-linejoin:miter;stroke-opacity:1;marker-end:url(#marker106)"
       d="m 82.105391,24.27215 5.865434,4.74874"
       id="path105-9"
       sodipodi:nodetypes="cc" />
    <path
       style="fill:none;stroke:#000000;stroke-width:0.264583px;stroke-linecap:butt;stroke-linejoin:miter;stroke-opacity:1;marker-end:url(#marker112)"
       d="m 89.776192,31.540518 0.143508,3.18411"
       id="path113"
       sodipodi:nodetypes="cc" />
    <circle
       style="fill:none;stroke:#000000;stroke-width:0.264999"
       id="circle114"
       cx="89.964485"
       cy="36.652328"
       r="1.1327827" />
    <text
       xml:space="preserve"
       style="font-size:2.11667px;line-height:1.25;font-family:'Open Sans';-inkscape-font-specification:'Open Sans';letter-spacing:0px;word-spacing:0px;stroke-width:0.264583"
       x="90.534912"
       y="33.335972"
       id="text115"><tspan
         sodipodi:role="line"
         id="tspan115"
         style="font-style:normal;font-variant:normal;font-weight:600;font-stretch:normal;font-size:2.11667px;font-family:'Open Sans';-inkscape-font-specification:'Open Sans Semi-Bold';stroke-width:0.264583"
         x="90.534912"
         y="33.335972">$</tspan></text>
    <text
       xml:space="preserve"
       style="font-size:2.11667px;line-height:1.25;font-family:'Open Sans';-inkscape-font-specification:'Open Sans';letter-spacing:0px;word-spacing:0px;stroke-width:0.264583"
       x="75.262856"
       y="25.857019"
       id="text117"><tspan
         sodipodi:role="line"
         id="tspan117"
         style="font-style:normal;font-variant:normal;font-weight:600;font-stretch:normal;font-size:2.11667px;font-family:'Open Sans';-inkscape-font-specification:'Open Sans Semi-Bold';stroke-width:0.264583"
         x="75.262856"
         y="25.857019">a b</tspan></text>
    <text
       xml:space="preserve"
       style="font-size:2.11667px;line-height:1.25;font-family:'Open Sans';-inkscape-font-specification:'Open Sans';letter-spacing:0px;word-spacing:0px;stroke-width:0.264583"
       x="84.439552"
       y="25.881363"
       id="text120"><tspan
         sodipodi:role="line"
         id="tspan120"
         style="font-style:normal;font-variant:normal;font-weight:600;font-stretch:normal;font-size:2.11667px;font-family:'Open Sans';-inkscape-font-specification:'Open Sans Semi-Bold';stroke-width:0.264583"
         x="84.439552"
         y="25.881363">S</tspan></text>
    <path
       style="fill:none;stroke:#000000;stroke-width:0.265;stroke-linecap:butt;stroke-linejoin:miter;stroke-dasharray:none;stroke-opacity:1;marker-end:url(#ArrowWideRounded)"
       d="m 90.426635,38.194779 c 0,0 0.793649,1.252669 0.164937,1.972059 -0.579295,0.662902 -1.616172,0.30284 -1.710303,-0.400842 -0.09143,-0.68351 0.33333,-1.354489 0.33333,-1.354489"
       id="path121-7"
       sodipodi:nodetypes="cssc" />
    <text
       xml:space="preserve"
       style="font-size:2.11667px;line-height:1.25;font-family:'Open Sans';-inkscape-font-specification:'Open Sans';letter-spacing:0px;word-spacing:0px;stroke-width:0.264583"
       x="89.011391"
       y="42.670708"
       id="text122"><tspan
         sodipodi:role="line"
         id="tspan122"
         style="font-style:normal;font-variant:normal;font-weight:600;font-stretch:normal;font-size:2.11667px;font-family:'Open Sans';-inkscape-font-specification:'Open Sans Semi-Bold';stroke-width:0.264583"
         x="89.011391"
         y="42.670708">$</tspan></text>
    <text
       xml:space="preserve"
       style="font-size:1.41111px;line-height:1.25;font-family:'Open Sans';-inkscape-font-specification:'Open Sans';letter-spacing:0px;word-spacing:0px;stroke-width:0.264583"
       x="89.586868"
       y="37.14006"
       id="text131"><tspan
         sodipodi:role="line"
         id="tspan131"
         style="font-style:normal;font-variant:normal;font-weight:600;font-stretch:normal;font-size:1.41111px;font-family:'Open Sans';-inkscape-font-specification:'Open Sans Semi-Bold';stroke-width:0.264583"
         x="89.586868"
         y="37.14006">2</tspan></text>
    <text
       xml:space="preserve"
       style="font-size:1.41111px;line-height:1.25;font-family:'Open Sans';-inkscape-font-specification:'Open Sans';letter-spacing:0px;word-spacing:0px;white-space:pre;inline-size:0.990183;display:inline;stroke-width:0.264583"
       x="86.616699"
       y="58.901653"
       id="text134"
       transform="translate(2.6111809,-28.404457)"><tspan
         x="86.616699"
         y="58.901653"
         id="tspan6"><tspan
           style="font-weight:600;-inkscape-font-specification:'Open Sans Semi-Bold'"
           id="tspan5">1</tspan></tspan></text>
    <text
       xml:space="preserve"
       style="font-size:1.41111px;line-height:1.25;font-family:'Open Sans';-inkscape-font-specification:'Open Sans';letter-spacing:0px;word-spacing:0px;stroke-width:0.264583"
       x="75.637978"
       y="23.12694"
       id="text2"><tspan
         sodipodi:role="line"
         id="tspan2-6"
         style="font-style:normal;font-variant:normal;font-weight:600;font-stretch:normal;font-size:1.41111px;font-family:'Open Sans';-inkscape-font-specification:'Open Sans Semi-Bold';stroke-width:0.264583"
         x="75.637978"
         y="23.12694">as bs</tspan></text>
    <circle
       style="fill:none;stroke:#000000;stroke-width:0.264999"
       id="circle1"
       cx="81.34877"
       cy="30.128502"
       r="1.5418432" />
    <circle
       style="fill:none;stroke:#000000;stroke-width:0.264999"
       id="circle2"
       cx="81.348778"
       cy="36.55867"
       r="1.5418432" />
    <path
       style="fill:none;stroke:#000000;stroke-width:0.264583px;stroke-linecap:butt;stroke-linejoin:miter;stroke-opacity:1;marker-end:url(#marker112)"
       d="m 81.314719,31.580438 -0.0011,3.053392"
       id="path3"
       sodipodi:nodetypes="cc" />
    <path
       style="fill:none;stroke:#000000;stroke-width:0.264583px;stroke-linecap:butt;stroke-linejoin:miter;stroke-opacity:1;marker-end:url(#marker112)"
       d="m 81.253388,24.480193 0.05221,3.719895"
       id="path6"
       sodipodi:nodetypes="cc" />
    <text
       xml:space="preserve"
       style="font-size:2.11667px;line-height:1.25;font-family:'Open Sans';-inkscape-font-specification:'Open Sans';letter-spacing:0px;word-spacing:0px;white-space:pre;inline-size:4.7996;display:inline;stroke-width:0.264583"
       x="81.421745"
       y="25.944979"
       id="text7"
       transform="translate(-0.01252404,1.2180235)"><tspan
         x="81.421745"
         y="25.944979"
         id="tspan12"><tspan
           style="font-weight:600;-inkscape-font-specification:'Open Sans Semi-Bold'"
           id="tspan7">C</tspan><tspan
           style="font-weight:600;font-size:65%;-inkscape-font-specification:'Open Sans Semi-Bold';baseline-shift:sub"
           id="tspan11">a b</tspan></tspan></text>
    <text
       xml:space="preserve"
       style="font-size:2.11667px;line-height:1.25;font-family:'Open Sans';-inkscape-font-specification:'Open Sans';letter-spacing:0px;word-spacing:0px;stroke-width:0.264583"
       x="82.510948"
       y="33.47644"
       id="text9"><tspan
         sodipodi:role="line"
         id="tspan9"
         style="font-style:normal;font-variant:normal;font-weight:600;font-stretch:normal;font-size:2.11667px;font-family:'Open Sans';-inkscape-font-specification:'Open Sans Semi-Bold';stroke-width:0.264583"
         x="82.510948"
         y="33.47644">x</tspan></text>
    <text
       xml:space="preserve"
       style="font-size:1.41111px;line-height:1.25;font-family:'Open Sans';-inkscape-font-specification:'Open Sans';letter-spacing:0px;word-spacing:0px;white-space:pre;inline-size:0.990183;display:inline;stroke-width:0.264583"
       x="86.616699"
       y="58.901653"
       id="text13"
       transform="translate(-5.7231946,-28.305238)"><tspan
         x="86.616699"
         y="58.901653"
         id="tspan15"><tspan
           style="font-weight:600;-inkscape-font-specification:'Open Sans Semi-Bold'"
           id="tspan14">8</tspan></tspan></text>
    <text
       xml:space="preserve"
       style="font-size:1.41111px;line-height:1.25;font-family:'Open Sans';-inkscape-font-specification:'Open Sans';letter-spacing:0px;word-spacing:0px;white-space:pre;inline-size:0.990183;display:inline;stroke-width:0.264583"
       x="86.616699"
       y="58.901653"
       id="text15"
       transform="translate(-5.6901217,-21.822946)"><tspan
         x="86.616699"
         y="58.901653"
         id="tspan17"><tspan
           style="font-weight:600;-inkscape-font-specification:'Open Sans Semi-Bold'"
           id="tspan16">9</tspan></tspan></text>
    <text
       xml:space="preserve"
       style="font-size:3.175px;line-height:1.25;font-family:'Open Sans';-inkscape-font-specification:'Open Sans';letter-spacing:0px;word-spacing:0px;stroke-width:0.264583"
       x="74.711716"
       y="29.038021"
       id="text20"><tspan
         sodipodi:role="line"
         id="tspan20"
         style="stroke-width:0.264583" /></text>
    <text
       xml:space="preserve"
       style="font-size:1.41111px;line-height:1.25;font-family:'Open Sans';-inkscape-font-specification:'Open Sans';letter-spacing:0px;word-spacing:0px;white-space:pre;inline-size:0.990183;display:inline;stroke-width:0.264583"
       x="86.616699"
       y="58.901653"
       id="text22"
       transform="translate(-11.940903,-28.404457)"><tspan
         x="86.616699"
         y="58.901653"
         id="tspan19"><tspan
           style="font-weight:600;-inkscape-font-specification:'Open Sans Semi-Bold'"
           id="tspan18">3</tspan></tspan></text>
    <text
       xml:space="preserve"
       style="font-size:1.41111px;line-height:1.25;font-family:'Open Sans';-inkscape-font-specification:'Open Sans';letter-spacing:0px;word-spacing:0px;stroke-width:0.264583"
       x="68.570274"
       y="30.367285"
       id="text23"><tspan
         sodipodi:role="line"
         id="tspan23"
         style="font-style:normal;font-variant:normal;font-weight:600;font-stretch:normal;font-size:1.41111px;font-family:'Open Sans';-inkscape-font-specification:'Open Sans Semi-Bold';stroke-width:0.264583"
         x="68.570274"
         y="30.367285">$lr_.S1</tspan></text>
    <text
       xml:space="preserve"
       style="font-size:1.41111px;line-height:1.25;font-family:'Open Sans';-inkscape-font-specification:'Open Sans';letter-spacing:0px;word-spacing:0px;stroke-width:0.264583"
       x="83.337326"
       y="30.48304"
       id="text24"><tspan
         sodipodi:role="line"
         id="tspan24"
         style="font-style:normal;font-variant:normal;font-weight:600;font-stretch:normal;font-size:1.41111px;font-family:'Open Sans';-inkscape-font-specification:'Open Sans Semi-Bold';stroke-width:0.264583"
         x="83.337326"
         y="30.48304">xpapb</tspan></text>
    <text
       xml:space="preserve"
       style="font-size:1.41111px;line-height:1.25;font-family:'Open Sans';-inkscape-font-specification:'Open Sans';letter-spacing:0px;word-spacing:0px;stroke-width:0.264583"
       x="68.471039"
       y="36.816505"
       id="text25"><tspan
         sodipodi:role="line"
         id="tspan25"
         style="font-style:normal;font-variant:normal;font-weight:600;font-stretch:normal;font-size:1.41111px;font-family:'Open Sans';-inkscape-font-specification:'Open Sans Semi-Bold';stroke-width:0.264583"
         x="68.471039"
         y="36.816505">$m_.am_.bpapb</tspan></text>
    <path
       style="fill:#000000;stroke:none;stroke-width:0.264999"
       id="path90"
       d="m 21.609941,30.365205 c -0.165721,0.04384 -0.31248,0.131014 -0.461028,0.213061 -0.07145,0.03245 -0.119352,0.09356 -0.16776,0.152564 -0.03105,0.0465 -0.06726,0.08779 -0.09402,0.137252 -0.02241,0.04994 -0.02591,0.104995 -0.02735,0.158949 -0.0035,0.08267 0.0022,0.164081 0.0148,0.245777 0.01378,0.0863 0.02338,0.172619 0.04641,0.257045 0.01998,0.09298 0.07106,0.173683 0.12096,0.252997 0.04828,0.07784 0.112279,0.143852 0.173809,0.211193 0.08933,0.105675 0.203891,0.17933 0.3235,0.245684 0.152724,0.07928 0.320509,0.114139 0.486332,0.153025 0.177799,0.03853 0.359151,0.05101 0.540424,0.05851 0.151936,-0.0074 0.305368,-0.01468 0.455473,-0.04068 0.164675,-0.02371 0.314,-0.09344 0.459219,-0.170884 0.180998,-0.103637 0.321003,-0.249986 0.436359,-0.42119 0.107538,-0.165902 0.155672,-0.353205 0.160842,-0.548698 -0.0053,-0.123375 -0.0073,-0.247846 -0.02597,-0.37007 -0.01414,-0.116385 -0.05272,-0.218678 -0.117363,-0.315796 -0.06902,-0.116671 -0.159221,-0.214718 -0.262627,-0.301355 -0.106325,-0.09214 -0.219974,-0.167381 -0.347807,-0.225711 -0.149957,-0.06272 -0.311874,-0.07813 -0.472343,-0.08887 -0.161202,-0.01302 -0.321169,-0.0024 -0.480533,0.02246 -0.171163,0.02519 -0.339824,0.06186 -0.507449,0.104185 -0.147617,0.03832 -0.284781,0.09907 -0.412825,0.18115 -0.0836,0.06041 -0.153725,0.135549 -0.223605,0.210648 -0.09612,0.103738 0.05059,0.239668 0.146707,0.13593 v 0 c 0.05831,-0.06324 0.116847,-0.126437 0.185628,-0.178716 0.108891,-0.07146 0.22706,-0.12151 0.353061,-0.155098 0.161776,-0.04086 0.324502,-0.07638 0.489726,-0.100553 0.144627,-0.0232 0.289684,-0.03224 0.436052,-0.02045 0.136447,0.009 0.274642,0.01995 0.402865,0.0714 0.111944,0.05059 0.209913,0.11669 0.302818,0.197538 0.08994,0.07368 0.165462,0.159129 0.224753,0.259612 0.04993,0.07185 0.07501,0.147897 0.08547,0.235344 0.019,0.109787 0.01603,0.222999 0.02348,0.333928 -0.0026,0.157203 -0.04104,0.308065 -0.12704,0.441786 -0.09619,0.144483 -0.21272,0.267946 -0.364467,0.356124 -0.126637,0.06782 -0.256148,0.13031 -0.400183,0.150405 -0.135392,0.02529 -0.274929,0.02798 -0.412019,0.03772 -0.168702,-0.0069 -0.3375,-0.01799 -0.503067,-0.05341 -0.147931,-0.03458 -0.297948,-0.06423 -0.434985,-0.133228 -0.100749,-0.05576 -0.198154,-0.115811 -0.272806,-0.205674 -0.05358,-0.05861 -0.109907,-0.115266 -0.152173,-0.182796 -0.03955,-0.06282 -0.08244,-0.125513 -0.09741,-0.199575 -0.02144,-0.07691 -0.02797,-0.156173 -0.04161,-0.234759 -0.01103,-0.06992 -0.01571,-0.13928 -0.01247,-0.210127 4.76e-4,-0.02318 0.0034,-0.04651 0.0038,-0.06945 0.02004,-0.03821 0.04996,-0.06799 0.07229,-0.104736 0.03266,-0.03982 0.06105,-0.08324 0.109827,-0.104335 0.137906,-0.07617 0.273379,-0.158393 0.427573,-0.198395 0.134165,-0.04472 0.07092,-0.234458 -0.06325,-0.189736 z" />
    <path
       style="fill:#000000;stroke:none;stroke-width:0.264999"
       id="path91"
       d="m 22.347427,31.165231 c 0.133041,0.101772 0.302871,0.165198 0.46668,0.09667 0.02482,-0.01037 0.04657,-0.02694 0.06985,-0.04042 0.133747,-0.117186 0.12826,-0.241927 0.04639,-0.387257 -0.07658,-0.112996 -0.190046,-0.146275 -0.318752,-0.162409 -0.114856,-0.0075 -0.230594,-0.01431 -0.345218,-0.0019 -0.05259,0.0081 -0.104246,0.02127 -0.154353,0.03907 -0.133084,0.04784 -0.06543,0.236048 0.06765,0.188212 v 0 c 0.03581,-0.0131 0.073,-0.02212 0.110539,-0.02871 0.09819,-0.01371 0.198839,-0.0011 0.297451,0.0019 0.06602,0.0075 0.126423,0.01074 0.17056,0.0657 0.02527,0.03868 0.05433,0.07514 0.01876,0.116411 -0.0948,0.07499 -0.209188,0.02869 -0.296689,-0.03675 -0.1057,-0.09396 -0.238572,0.05553 -0.132873,0.149481 z" />
    <path
       style="fill:#000000;stroke:none;stroke-width:0.264999"
       id="path92"
       d="m 21.774703,25.3849 c -0.09927,0.171103 -0.177371,0.392332 -0.144779,0.593849 0.0071,0.04394 0.02496,0.08545 0.03744,0.128178 0.102889,0.233135 0.313694,0.364397 0.538865,0.46151 0.276367,0.100287 0.568523,0.05227 0.849234,-2.04e-4 0.346124,-0.06752 0.626751,-0.167079 0.923609,-0.357828 0.217169,-0.157829 0.360832,-0.393597 0.434862,-0.650092 0.01526,-0.05289 0.02362,-0.107529 0.03544,-0.161295 0.03058,-0.271814 0.01688,-0.563737 -0.113015,-0.811136 -0.02565,-0.04885 -0.05967,-0.09283 -0.0895,-0.139247 -0.257062,-0.310473 -0.540625,-0.444476 -0.921457,-0.551228 -0.279993,-0.06941 -0.564134,-0.04955 -0.823895,0.08082 -0.05506,0.02763 -0.105944,0.0629 -0.158916,0.09435 -0.304333,0.22293 -0.511623,0.546875 -0.649006,0.894752 -0.0333,0.08433 -0.05798,0.171818 -0.08697,0.257725 -0.0453,0.221168 -0.08129,0.320649 -0.06471,0.550162 0.007,0.09637 0.0337,0.190275 0.05054,0.285414 0.02574,0.139059 0.222396,0.102663 0.196661,-0.0364 v 0 c -0.01576,-0.08107 -0.04032,-0.160917 -0.04729,-0.243211 -0.01734,-0.204766 0.01491,-0.29355 0.05443,-0.4924 0.02644,-0.07944 0.04885,-0.160332 0.07932,-0.238315 0.121248,-0.310314 0.301898,-0.60361 0.570127,-0.80635 0.0443,-0.02706 0.08677,-0.05735 0.132888,-0.08118 0.218602,-0.112948 0.456146,-0.131683 0.693445,-0.07264 0.315959,0.08632 0.593454,0.211272 0.807606,0.468177 0.02431,0.03613 0.05194,0.07024 0.07293,0.108397 0.114636,0.208299 0.123365,0.459764 0.101246,0.690441 -0.05571,0.268859 -0.156113,0.516816 -0.383327,0.685292 -0.267292,0.174091 -0.538801,0.268851 -0.851924,0.329211 -0.241022,0.04549 -0.494907,0.09373 -0.733966,0.01275 -0.171268,-0.07179 -0.341092,-0.166889 -0.427029,-0.339373 -0.0092,-0.02402 -0.02293,-0.0468 -0.02772,-0.07211 -0.0306,-0.161714 0.03213,-0.334878 0.10871,-0.473351 0.0811,-0.115858 -0.08275,-0.23055 -0.163846,-0.114694 z" />
    <path
       style="fill:#000000;stroke:none;stroke-width:0.264999"
       id="path93"
       d="m 23.228202,24.637502 c -0.181485,0.121904 -0.378443,0.288523 -0.384187,0.526976 -0.0011,0.04453 0.01269,0.08819 0.01903,0.132279 0.06567,0.198678 0.211772,0.343101 0.356719,0.485965 0.05982,0.117589 0.02899,-0.05576 0.01331,-0.05409 -0.04205,0.0045 -0.08057,0.02572 -0.120714,0.03903 -0.135954,0.03948 -0.266428,0.07831 -0.381647,-0.02646 -0.0356,-0.06195 -0.134767,-0.156681 -0.09328,-0.232595 0.116644,-0.08677 0.25176,-0.143989 0.384286,-0.201784 0.110941,-0.05683 0.226207,-0.103815 0.331238,-0.171411 0.05167,-0.03005 0.08544,-0.07283 0.09462,-0.132815 0.0087,-0.07534 -0.03391,-0.139248 -0.07533,-0.19785 -0.02863,-0.03581 -0.06023,-0.06932 -0.09531,-0.09887 -0.01459,-0.0072 -0.02919,-0.01442 -0.04378,-0.02164 -0.135077,-0.04188 -0.19431,0.149143 -0.05923,0.191026 v 0 c -0.0084,-0.0053 -0.01677,-0.01058 -0.02515,-0.01585 0.02262,0.01937 0.04338,0.04081 0.06233,0.06379 0.0184,0.02297 0.0391,0.05245 0.03785,0.05599 0.0185,-0.03937 0.04576,-0.0451 -0.0046,-0.01175 -0.0956,0.06219 -0.202019,0.102864 -0.302628,0.156051 -0.133436,0.05826 -0.340409,0.136623 -0.437941,0.244644 -0.02366,0.02619 -0.03953,0.05851 -0.05929,0.08776 -0.0055,0.02585 -0.01506,0.05118 -0.01643,0.07757 -0.0073,0.140091 0.09869,0.266655 0.181301,0.366691 0.03005,0.02109 0.05751,0.04645 0.09016,0.06325 0.149348,0.07687 0.324311,0.03993 0.475776,-0.006 0.0632,-0.02096 0.199308,-0.04474 0.233763,-0.11099 0.05224,-0.100446 0.01455,-0.147217 -0.04892,-0.206243 -0.115578,-0.113874 -0.235886,-0.22689 -0.300358,-0.379468 -0.01318,-0.05117 -0.03001,-0.08779 -0.01359,-0.142041 0.04196,-0.138573 0.171108,-0.230143 0.282771,-0.308504 0.122156,-0.07126 0.02138,-0.244012 -0.100774,-0.172755 z" />
    <path
       style="fill:#000000;stroke:none;stroke-width:0.264999"
       id="path94"
       d="m 22.456448,26.687827 c 0.03712,0.308817 0.05948,0.618874 0.07407,0.929479 0.0112,0.25777 0.01321,0.515805 0.01413,0.773779 -0.0069,0.16501 0.0041,0.328232 0.02148,0.492067 0.01442,0.147047 0.01989,0.29477 0.02328,0.44242 0.0019,0.107321 0.0019,0.214659 0.0018,0.321993 -0.0052,0.108934 0.0042,0.21636 0.02233,0.323681 0.0015,0.0074 0.02112,0.115101 0.02775,0.113384 0.206807,-0.05354 0.199259,-0.01598 0.181557,-0.118777 -0.02603,-0.139004 -0.222612,-0.102195 -0.196583,0.03681 v 0 c 0.01844,0.08417 -0.005,0.0086 0.197291,-2.65e-4 0.0039,-1.74e-4 0.0037,0.01532 0.0031,0.01143 -0.0023,-0.01415 -0.0065,-0.02794 -0.0093,-0.042 -0.0023,-0.0113 -0.0044,-0.02262 -0.0066,-0.03392 -0.01643,-0.0963 -0.02459,-0.192304 -0.01952,-0.29011 6.7e-5,-0.108908 9.7e-5,-0.217824 -0.0019,-0.326718 -0.0035,-0.153152 -0.0093,-0.306372 -0.02434,-0.458885 -0.01665,-0.157105 -0.02736,-0.313442 -0.02037,-0.471723 -9.53e-4,-0.260866 -0.003,-0.521788 -0.01435,-0.782447 -0.01469,-0.312217 -0.03688,-0.62393 -0.07436,-0.934339 -0.01007,-0.141063 -0.209567,-0.126813 -0.199491,0.01426 z" />
    <path
       style="fill:#000000;stroke:none;stroke-width:0.264999"
       id="path95"
       d="m 22.224764,29.243303 c 0.124837,0.199903 0.262702,0.391744 0.403009,0.581075 0.04127,0.05422 0.08154,0.109291 0.124874,0.161912 0.121071,0.122367 0.244531,-0.106014 0.294577,-0.171088 0.107247,-0.14138 0.222546,-0.275902 0.343942,-0.405246 0.01938,-0.02072 0.04901,-0.05085 0.06708,-0.06769 0.10868,-0.09049 -0.01929,-0.244187 -0.127974,-0.153694 v 0 c -0.0304,0.02596 -0.05685,0.05623 -0.08496,0.08453 -0.125834,0.134154 -0.245401,0.273664 -0.356662,0.420214 -0.0764,0.09945 -0.03319,0.04209 -0.09485,0.125841 -0.0055,0.0074 -0.02516,0.01916 -0.01647,0.02217 0.04117,0.01434 0.171798,0.02863 0.129595,0.01767 -0.04123,-0.04986 -0.07915,-0.102393 -0.118476,-0.153731 -0.137508,-0.185507 -0.272698,-0.373435 -0.394957,-0.569362 -0.07592,-0.119311 -0.244658,-0.01193 -0.168732,0.107376 z" />
    <path
       style="fill:#000000;stroke:none;stroke-width:0.264999"
       id="path96"
       d="m 28.697006,24.524041 c -0.141728,0.129508 -0.254701,0.28366 -0.357883,0.444394 -0.08152,0.104384 -0.113883,0.222152 -0.127812,0.351356 -0.0014,0.146648 0.01424,0.292693 0.04466,0.435962 0.04344,0.144693 0.13279,0.26334 0.239527,0.367102 0.09844,0.08545 0.206242,0.162343 0.317491,0.23065 0.08927,0.05596 0.180388,0.106929 0.275394,0.152416 0.14065,0.06584 0.296318,0.08261 0.449209,0.09541 0.146544,0.01646 0.287903,0.0067 0.430403,-0.02904 0.173809,-0.04065 0.333567,-0.122828 0.485693,-0.214024 0.09876,-0.05736 0.199519,-0.111721 0.283166,-0.190244 0.112671,-0.119832 0.188977,-0.268732 0.264263,-0.413641 0.08012,-0.157036 0.108215,-0.283266 0.09222,-0.458664 -0.036,-0.21845 -0.139052,-0.416126 -0.248676,-0.605633 -0.100234,-0.174453 -0.251755,-0.306338 -0.407221,-0.429954 -0.132283,-0.108148 -0.27357,-0.20348 -0.431506,-0.269335 -0.160735,-0.05747 -0.323468,-0.05992 -0.488562,-0.0249 -0.150184,0.0478 -0.267716,0.152506 -0.380896,0.25763 -0.07274,0.06689 -0.12195,0.148841 -0.173129,0.232182 -0.07328,0.120955 0.09777,0.224589 0.171055,0.103632 v 0 c 0.04057,-0.0681 0.07965,-0.134752 0.138281,-0.189365 0.08667,-0.08072 0.1754,-0.164041 0.287056,-0.208618 0.125164,-0.02788 0.247505,-0.02755 0.370501,0.01458 0.141447,0.0563 0.264554,0.146471 0.382929,0.240917 0.136089,0.1076 0.270345,0.221459 0.358462,0.373552 0.09575,0.16479 0.187436,0.336282 0.222731,0.52556 0.01602,0.137279 -0.0097,0.222036 -0.07079,0.34635 -0.06523,0.126011 -0.130725,0.256321 -0.226181,0.362371 -0.06831,0.07146 -0.165856,0.108 -0.246819,0.162226 -0.13502,0.08158 -0.276956,0.155372 -0.431545,0.191482 -0.121035,0.03081 -0.240073,0.03822 -0.364891,0.02363 -0.128614,-0.01058 -0.260614,-0.02225 -0.379419,-0.0765 -0.08888,-0.04252 -0.17398,-0.0901 -0.257396,-0.14264 -0.09911,-0.0603 -0.194727,-0.128889 -0.282869,-0.203864 -0.07865,-0.07539 -0.14645,-0.160573 -0.182875,-0.26494 -0.02633,-0.123066 -0.03955,-0.248174 -0.04129,-0.37414 0.0092,-0.09944 0.03305,-0.183896 0.09718,-0.263527 0.09532,-0.148781 0.199321,-0.291566 0.330953,-0.410941 0.1,-0.1 -0.04142,-0.241421 -0.141422,-0.141422 z" />
    <path
       style="fill:#000000;stroke:none;stroke-width:0.264999"
       id="path97"
       d="m 29.430033,25.075179 c 0.13845,0.01926 0.346298,0.0719 0.460343,-0.04618 0.02479,-0.02566 0.0367,-0.06122 0.05505,-0.09182 0.0018,-0.03231 0.0095,-0.06484 0.0054,-0.09692 -0.01624,-0.125497 -0.113391,-0.24262 -0.226689,-0.29301 -0.02878,-0.01281 -0.06046,-0.01767 -0.09069,-0.02653 -0.177559,-0.01942 -0.288141,0.04789 -0.400119,0.176448 -0.04724,0.05238 -0.07209,0.116285 -0.09447,0.181869 -0.04408,0.134377 0.145959,0.196713 0.190037,0.06234 v 0 c 0.0126,-0.04114 0.02671,-0.08113 0.056,-0.11371 0.05465,-0.06451 0.107839,-0.116718 0.199116,-0.113151 0.09957,0.01757 0.128158,0.06317 0.176482,0.14656 0.0111,0.0026 0.03672,0.0037 9.53e-4,0.02175 -0.09144,0.04607 -0.204936,0.0058 -0.29851,-0.0049 -0.139497,-0.02326 -0.172377,0.174029 -0.03288,0.197278 z" />
    <path
       style="fill:#000000;stroke:none;stroke-width:0.264999"
       id="path98"
       d="m 29.747057,25.137221 c 0.01298,0.263191 0.02048,0.526735 0.05235,0.788463 -0.0064,0.04129 0.04858,0.211601 0.02789,0.243713 -0.01342,-0.02601 0.03787,-0.04053 0.03735,-0.05097 -2.91e-4,-0.0059 -0.01175,-0.0019 -0.01748,-0.0034 -0.02551,-0.0067 -0.05055,-0.01508 -0.07588,-0.02241 -0.08091,-0.02405 -0.163642,-0.04481 -0.240955,-0.07926 -0.04039,-0.02786 -0.06879,-0.06455 -0.0911,-0.10746 -0.004,-0.0081 -0.0072,-0.01654 -0.01029,-0.025 -0.03244,-0.137649 -0.227109,-0.09177 -0.194666,0.04588 v 0 c 0.0065,0.02553 0.01648,0.04992 0.02854,0.07335 0.04464,0.08229 0.104727,0.151731 0.188252,0.196861 0.08577,0.03626 0.175196,0.06273 0.264775,0.08781 0.115276,0.03323 0.244037,0.06782 0.305774,-0.06806 0.02144,-0.105767 -0.01368,-0.209674 -0.02368,-0.315341 -0.03111,-0.253661 -0.03766,-0.50914 -0.05088,-0.764206 0,-0.141423 -0.2,-0.141423 -0.2,0 z" />
    <path
       style="fill:#000000;stroke:none;stroke-width:0.264999"
       id="path99"
       d="m 29.510274,29.48596 c -0.202991,0.08634 -0.359399,0.23323 -0.503808,0.395377 -0.09823,0.120743 -0.132879,0.268722 -0.147348,0.419966 -0.01152,0.123743 -0.0023,0.245721 0.02721,0.366143 0.02888,0.113369 0.06673,0.22393 0.114677,0.330602 0.07736,0.148665 0.192315,0.271471 0.305182,0.39347 0.112908,0.125061 0.233279,0.240324 0.373144,0.334553 0.153283,0.100004 0.331066,0.142232 0.511625,0.151873 0.177607,0.0091 0.345256,-0.04119 0.513355,-0.09036 0.179025,-0.052 0.34363,-0.134565 0.494993,-0.24225 0.13886,-0.104222 0.247046,-0.238813 0.333207,-0.388221 0.07467,-0.119901 0.111569,-0.254905 0.134227,-0.392845 0.01856,-0.108855 0.01227,-0.215424 -0.01905,-0.320842 -0.04859,-0.146785 -0.133298,-0.274246 -0.224324,-0.39738 -0.09021,-0.119007 -0.188372,-0.232288 -0.297286,-0.334478 -0.09882,-0.09251 -0.204133,-0.174988 -0.318682,-0.246833 -0.09534,-0.05041 -0.191255,-0.100761 -0.295516,-0.12959 -0.116794,-0.02942 -0.232869,-0.04259 -0.353071,-0.03968 -0.148583,-0.0046 -0.279924,0.06487 -0.415629,0.113982 -0.132889,0.04838 -0.06447,0.236313 0.06842,0.187936 v 0 c 0.115098,-0.04212 0.226477,-0.104251 0.352306,-0.101983 0.101426,-0.0027 0.19832,0.008 0.297008,0.03314 0.08545,0.02069 0.161465,0.06817 0.240264,0.105656 0.103827,0.06504 0.199015,0.13973 0.288537,0.223674 0.100643,0.09305 0.189424,0.19848 0.272836,0.307078 0.07788,0.105317 0.152191,0.213032 0.194385,0.338582 0.02599,0.07436 0.02369,0.151328 0.01241,0.228632 -0.01841,0.114506 -0.04762,0.226581 -0.110479,0.325741 -0.07059,0.125021 -0.161129,0.237038 -0.275818,0.3247 -0.132667,0.09526 -0.277515,0.167145 -0.434873,0.213024 -0.147002,0.043 -0.292779,0.09004 -0.44831,0.08252 -0.143982,-0.0047 -0.286927,-0.04043 -0.409398,-0.118358 -0.127579,-0.0844 -0.234472,-0.191493 -0.337479,-0.304107 -0.09838,-0.10627 -0.19955,-0.212402 -0.269818,-0.340215 -0.0438,-0.09558 -0.07657,-0.195458 -0.102965,-0.297174 -0.02606,-0.09797 -0.03018,-0.197779 -0.02191,-0.298702 0.0094,-0.108384 0.0296,-0.21704 0.09765,-0.305361 0.125748,-0.141713 0.259251,-0.271401 0.437099,-0.346191 0.128745,-0.05852 0.04598,-0.240594 -0.08276,-0.182073 z" />
    <path
       style="fill:#000000;stroke:none;stroke-width:0.264999"
       id="path100"
       d="m 24.117326,30.514448 c 0.179004,-0.161091 0.351839,-0.328644 0.534591,-0.485521 0.120317,-0.09838 0.241008,-0.197122 0.365203,-0.29066 0.114696,-0.09209 0.2291,-0.184656 0.344213,-0.276432 0.116113,-0.09324 0.227829,-0.192135 0.336811,-0.293563 0.135803,-0.129021 0.277751,-0.252224 0.409256,-0.385707 0.09857,-0.115004 0.210662,-0.216786 0.324763,-0.316018 0.155039,-0.151035 0.319582,-0.291227 0.483914,-0.431914 0.164958,-0.141944 0.334069,-0.278672 0.496851,-0.423159 0.144807,-0.124153 0.284666,-0.25133 0.410077,-0.395144 0.106039,-0.123619 0.212745,-0.246721 0.312611,-0.375455 0.03675,-0.04619 0.06737,-0.0961 0.109065,-0.13808 0.03612,-0.04391 0.07526,-0.08426 0.108453,-0.130958 0.02314,-0.03838 0.05493,-0.06964 0.08136,-0.105656 0.03411,-0.05068 0.08264,-0.08953 0.121729,-0.137245 0.01513,-0.02495 0.0361,-0.04156 0.06104,-0.0553 0.0022,-1.33e-4 -0.0039,0.0019 -0.006,0.0026 0.135332,-0.04105 0.07728,-0.232439 -0.05806,-0.191386 v 0 c -0.01069,0.0036 -0.02126,0.0074 -0.03116,0.01291 -0.04713,0.02611 -0.08981,0.06039 -0.120913,0.104886 -0.04161,0.05144 -0.09494,0.09199 -0.130134,0.148328 -0.02364,0.03731 -0.0603,0.06562 -0.08112,0.105312 -0.02674,0.03795 -0.05773,0.07184 -0.08786,0.106336 -0.04679,0.04793 -0.08405,0.102542 -0.124477,0.155718 -0.09748,0.125756 -0.201821,0.245869 -0.305348,0.366623 -0.119696,0.137464 -0.253858,0.258228 -0.392077,0.376975 -0.161852,0.143732 -0.33016,0.279564 -0.494149,0.420804 -0.164715,0.141065 -0.329808,0.281511 -0.485164,0.432993 -0.117882,0.102749 -0.234078,0.207876 -0.336126,0.326718 -0.128989,0.131819 -0.269603,0.252304 -0.402981,0.37959 -0.104964,0.09815 -0.213174,0.193247 -0.325077,0.28344 -0.113731,0.09069 -0.226713,0.182253 -0.340051,0.273201 -0.127316,0.09636 -0.251589,0.197258 -0.374965,0.298524 -0.18359,0.157663 -0.357467,0.325766 -0.537178,0.487783 -0.1057,0.09395 0.02717,0.243438 0.132872,0.149482 z" />
    <path
       style="fill:#000000;stroke:none;stroke-width:0.264999"
       id="path101"
       d="m 24.053764,30.323784 c 0,-0.231037 0,-0.462073 0,-0.69311 0,-0.101785 0,-0.203568 0,-0.30535 0,-0.03294 0,-0.06589 0,-0.09884 -0.06667,0.01262 -0.133333,0.02527 -0.199999,0.03789 0,0.141422 0.199999,0.141422 0.199999,0 v 0 c -0.06667,-0.01262 -0.133333,-0.02527 -0.199999,-0.03789 0,0.03295 0,0.06589 0,0.09884 0,0.101782 0,0.203565 0,0.30535 0,0.231037 0,0.462073 0,0.69311 0,0.14142 0.199999,0.14142 0.199999,0 z" />
    <path
       style="fill:#000000;stroke:none;stroke-width:0.264999"
       id="path102"
       d="m 24.192841,30.6505 c 0.162674,-0.06048 0.334768,-0.08695 0.506538,-0.105201 0.0467,-0.004 0.09348,-0.0088 0.140396,-0.0089 -0.02606,-0.0011 0.02482,0.0011 0.03131,0.0011 0.0056,1.09e-4 0.01125,1.7e-4 0.01688,2.33e-4 0.03151,-0.01987 0.06303,-0.03975 0.09454,-0.05963 0.08082,-0.116049 -0.0833,-0.230352 -0.164119,-0.114303 v 0 c 0.02372,-0.0087 0.04744,-0.01738 0.07116,-0.02606 -0.0049,-5.8e-5 -0.0099,-1.11e-4 -0.01481,-2.07e-4 -0.02291,-5.29e-4 -0.01009,5.3e-4 -0.03274,-0.0011 -0.05475,-2.65e-4 -0.109361,0.0056 -0.163845,0.01005 -0.186035,0.01992 -0.372236,0.04932 -0.548561,0.114332 -0.134164,0.04472 -0.07092,0.234458 0.06325,0.189738 z" />
    <path
       style="fill:#000000;stroke:none;stroke-width:0.264999"
       id="path103"
       d="m 24.466105,31.313051 c 0.182848,-0.0461 0.368212,-0.08043 0.554999,-0.105664 0.106358,-0.01196 0.212736,-0.01164 0.318161,-0.03078 0.111589,-0.01926 0.224068,-0.03507 0.3364,-0.05024 0.128282,-0.01331 0.254293,-0.04355 0.378684,-0.07681 0.11116,-0.04113 0.229273,-0.0564 0.342511,-0.08953 0.09729,-0.03099 0.198294,-0.0464 0.296524,-0.07435 0.09567,-0.03152 0.194373,-0.05017 0.290921,-0.07844 0.07849,-0.02344 0.160178,-0.02953 0.241529,-0.03351 0.0954,-0.0042 0.1908,0.0011 0.285789,-0.0089 0.102141,-0.0186 0.205392,-0.02877 0.308937,-0.03499 0.135747,0.0021 0.268478,-0.02167 0.4008,-0.04886 0.102393,-0.02127 0.205854,-0.0366 0.309919,-0.04661 0.05788,-0.0016 0.112944,-0.004 0.168196,-0.02299 0.02831,-0.0113 0.05567,-0.02508 0.08071,-0.04251 0.002,-0.0016 0.004,-0.003 0.0059,-0.0046 0.110766,-0.08793 -0.01358,-0.244573 -0.124347,-0.156647 v 0 c 7.68e-4,-5.29e-4 0.0015,-0.0011 0.0023,-0.0016 -0.0086,0.0057 -0.02202,0.01296 -0.03283,0.01736 -0.03533,0.01482 -0.07924,0.0056 -0.119203,0.01191 -0.11112,0.01077 -0.221614,0.02707 -0.330957,0.04978 -0.123103,0.02529 -0.246241,0.04788 -0.372613,0.04513 -0.107352,0.0065 -0.214514,0.01661 -0.320408,0.03602 -0.08991,0.01244 -0.181725,2.64e-4 -0.272184,0.0078 -0.09702,0.0049 -0.194259,0.01328 -0.287796,0.04133 -0.09622,0.02818 -0.194734,0.04656 -0.290062,0.07818 -0.09874,0.02887 -0.201028,0.04262 -0.298755,0.075 -0.110497,0.03457 -0.228089,0.04532 -0.336603,0.08785 -0.116246,0.03109 -0.233905,0.05979 -0.353852,0.07182 -0.115426,0.01566 -0.230959,0.03211 -0.345673,0.05172 -0.102129,0.019 -0.205883,0.01545 -0.308865,0.02929 -0.194076,0.0263 -0.386699,0.06192 -0.576691,0.109828 -0.137199,0.0343 -0.08869,0.228328 0.04851,0.19403 z" />
    <path
       style="fill:#000000;stroke:none;stroke-width:0.264999"
       id="path105"
       d="m 24.31047,31.239341 c 0.134332,-0.173443 0.242403,-0.364983 0.360995,-0.548984 0.03546,-0.05879 0.0831,-0.108866 0.117511,-0.168008 0.0043,0.01233 0.0231,-0.08667 0.01476,-0.06099 -0.02147,0.06611 0.0169,-0.01151 0.02058,-0.01773 0.02428,-0.04641 0.04404,-0.09505 0.06134,-0.144444 9.53e-4,-0.0028 0.0019,-0.0057 0.0028,-0.0085 0.04452,-0.134231 -0.145306,-0.197197 -0.18983,-0.06296 v 0 c -6.08e-4,0.0019 -0.0012,0.0037 -0.0018,0.0055 -0.01289,0.03704 -0.0277,0.07343 -0.04477,0.108747 -0.0012,0.0019 -0.07054,0.124825 -0.04377,0.0946 0.0027,-0.0032 0.01064,-0.01275 0.0081,-0.0095 -0.03978,0.05014 -0.07864,0.100991 -0.113087,0.155064 -0.114611,0.178419 -0.219706,0.363659 -0.348974,0.53226 -0.08835,0.110432 0.06783,0.235371 0.156174,0.124939 z" />
    <path
       style="fill:#000000;stroke:none;stroke-width:0.264999"
       id="path106"
       d="m 24.326543,31.447451 c 0.146698,0.108765 0.303268,0.20201 0.460069,0.294995 0.07908,0.04272 0.151569,0.09498 0.235332,0.128603 0.06108,0.02088 0.02242,0.0028 0.06373,0.0452 0.02339,0.02119 0.04875,0.04019 0.07598,0.05615 0.0077,0.0042 0.0038,0.0021 0.01163,0.006 0.128027,0.06007 0.212987,-0.120984 0.08496,-0.18106 v 0 c 0.0011,5.29e-4 0.0023,0.0011 0.0034,0.0019 -0.01297,-0.0076 -0.02496,-0.01669 -0.03649,-0.02627 -0.04228,-0.03265 -0.06959,-0.07995 -0.129747,-0.08788 -0.07418,-0.02854 -0.135813,-0.07952 -0.206795,-0.114623 -0.152492,-0.09037 -0.304802,-0.180911 -0.447366,-0.286798 -0.115857,-0.0811 -0.230549,0.08275 -0.114692,0.163846 z" />
    <path
       style="fill:#000000;stroke:none;stroke-width:0.264999"
       id="path107"
       d="m 29.909713,30.164508 c 0.153704,-0.09311 0.317551,-0.143013 0.495617,-0.154141 0.01183,0.0016 0.02378,0.0024 0.0355,0.0047 0.008,0.0016 0.02913,0.01434 0.02181,0.01082 -0.0095,-0.0046 -0.0187,-0.01021 -0.02614,-0.01762 -0.0073,-0.0073 -0.007,-0.02646 -0.01725,-0.02564 -0.01017,7.93e-4 -0.0083,0.01868 -0.01239,0.028 -0.03306,0.05083 -0.07816,0.09102 -0.11129,0.14174 -0.0029,-0.0013 -0.0127,0.005 -0.01403,0.0057 0.0011,-5.29e-4 0.0074,-0.0036 0.0076,-0.0029 0.01825,0.06641 0.02079,0.138012 0.04964,0.200541 0.0028,0.006 0.123228,0.01987 0.161691,0.02726 0.105153,0.01577 0.205549,0.04932 0.307068,0.07944 0.01869,0.01328 0.04158,0.01969 0.06049,0.03251 0.0029,0.0021 -0.01394,-0.0052 -0.01718,-0.008 -0.0049,0.08486 -0.0649,0.151804 -0.115397,0.215114 -0.07146,0.08621 -0.154715,0.164661 -0.254471,0.216858 -0.07732,0.0021 -0.150023,-0.02798 -0.220125,-0.05709 -0.03759,-0.0199 -0.07415,-0.04237 -0.106877,-0.06966 -8.73e-4,-7.94e-4 -0.0018,-0.0016 -0.0027,-0.0024 -0.105944,-0.09368 -0.238427,0.05615 -0.132483,0.149825 v 0 c 0.0027,0.0024 0.0054,0.0047 0.0081,0.0071 0.04833,0.03944 0.101328,0.07299 0.157561,0.100031 0.126327,0.05193 0.256257,0.09552 0.391711,0.0481 0.122254,-0.06767 0.22832,-0.159491 0.315969,-0.268499 0.08449,-0.10718 0.164935,-0.219943 0.157215,-0.363271 -0.0064,-0.02477 -0.0088,-0.05089 -0.01905,-0.07429 -0.02863,-0.06508 -0.107831,-0.08971 -0.165936,-0.117998 -0.107906,-0.032 -0.214875,-0.06701 -0.326532,-0.08417 -0.0032,-5.3e-4 -0.167153,-0.03392 -0.169293,-0.02855 -0.0236,0.05911 -0.01908,0.125971 -0.02413,0.18942 -5.3e-4,0.0065 0.01941,-0.01243 0.0185,-0.0066 0.03997,-0.01857 0.07475,-0.04534 0.101309,-0.08091 0.03735,-0.06226 0.10425,-0.105228 0.129041,-0.176803 0.07271,-0.200308 -0.01812,-0.263064 -0.201137,-0.272161 -0.206625,0.01421 -0.39945,0.07086 -0.578229,0.178131 -0.124153,0.06772 -0.02838,0.243298 0.09577,0.175577 z" />
    <path
       style="fill:#000000;stroke:none;stroke-width:0.264999"
       id="path108"
       d="m 21.065148,30.320445 c -0.213665,-0.06866 -0.432493,-0.117551 -0.654684,-0.147883 -0.155883,-0.024 -0.312823,-0.01746 -0.467124,0.01251 -0.153933,0.03767 -0.241354,0.115549 -0.332678,0.241147 -0.09198,0.14592 -0.145956,0.306178 -0.17765,0.474525 -0.03067,0.154699 -1.94e-4,0.302969 0.05725,0.446783 0.07026,0.159203 0.173087,0.241777 0.337036,0.289439 0.170585,0.02853 0.324454,-0.01556 0.471083,-0.100354 0.07878,-0.06122 0.169047,-0.108265 0.241958,-0.176623 0.02968,-0.03344 0.04908,-0.07217 0.05437,-0.116438 -6.3e-5,-0.0056 -1.26e-4,-0.01119 -1.89e-4,-0.0168 -0.01068,-0.141017 -0.210104,-0.12592 -0.199429,0.01511 v 0 c 4.3e-5,-0.0042 8.6e-5,-0.0084 1.3e-4,-0.01259 7.67e-4,-0.0049 0.0074,-0.02614 0.0023,-0.0093 -0.01542,0.03305 -0.17328,0.110024 -0.201557,0.144851 -0.09729,0.06068 -0.200601,0.09091 -0.31623,0.07915 -0.09796,-0.02342 -0.164275,-0.0768 -0.204238,-0.171831 -0.04487,-0.107551 -0.06916,-0.218326 -0.04586,-0.334844 0.02558,-0.139729 0.06931,-0.272288 0.143545,-0.394517 0.05642,-0.08015 0.110421,-0.137904 0.209559,-0.161621 0.132119,-0.02775 0.267236,-0.03016 0.400816,-0.01042 0.209898,0.02831 0.416465,0.07491 0.618338,0.139438 0.134164,0.04472 0.19741,-0.145016 0.06325,-0.189738 z" />
    <path
       style="fill:#000000;stroke:none;stroke-width:0.264999"
       id="path109"
       d="m 20.195908,31.118458 c 0.121704,0.110543 0.224493,0.246472 0.258543,0.409749 0.0062,0.06012 0.0095,0.122418 -0.0042,0.181854 -9e-4,0.0024 0.0016,-0.0046 0.0026,-0.0069 -0.06415,0.126031 0.114086,0.216757 0.178238,0.09072 v 0 c 0.0062,-0.01365 0.01192,-0.02735 0.01479,-0.04218 0.01819,-0.08862 0.01715,-0.179906 0.0033,-0.269155 -0.05073,-0.20238 -0.16341,-0.37561 -0.320395,-0.513599 -0.105699,-0.09396 -0.238572,0.05553 -0.132872,0.149482 z" />
    <path
       style="fill:#000000;stroke:none;stroke-width:0.264999"
       id="path117"
       d="m 15.039239,30.965843 c -0.101882,0.182904 -0.181751,0.373857 -0.200616,0.583401 4.23e-4,0.187238 0.122105,0.297924 0.278013,0.375926 0.142011,0.03989 0.293791,0.04058 0.439005,0.01844 0.135491,-0.03412 0.216516,-0.09978 0.292273,-0.215305 0.07249,-0.122491 0.09945,-0.251266 0.08093,-0.391186 -0.06095,-0.17308 -0.192319,-0.285176 -0.347159,-0.372856 -0.09693,-0.05341 -0.201057,-0.0902 -0.310207,-0.107365 -0.08852,-0.0028 -0.127082,0.02043 -0.179914,0.09029 -0.07123,0.122172 0.101543,0.222912 0.172776,0.10074 v 0 c -0.0053,0.0034 -0.04552,0.02331 -0.02272,0.0067 0.08551,0.01209 0.166422,0.04328 0.242325,0.0841 0.102759,0.05676 0.188746,0.123804 0.247186,0.228547 0.01736,0.09044 -0.0079,0.173525 -0.05189,0.253529 -0.04068,0.06692 -0.07895,0.102061 -0.15599,0.125415 -0.104543,0.01913 -0.214304,0.01257 -0.319148,-0.0011 -0.08044,-0.03742 -0.160435,-0.08272 -0.166102,-0.180319 0.01142,-0.181668 0.09259,-0.344839 0.176816,-0.503375 0.06772,-0.124153 -0.10786,-0.219924 -0.17558,-0.09577 z" />
    <path
       style="fill:#000000;stroke:none;stroke-width:0.264999"
       id="path118"
       d="m 15.78195,31.5113 c 0.04391,0.159171 0.07203,0.342763 0.178514,0.476121 0.01951,0.02445 0.04465,0.0438 0.06698,0.0657 0.196132,0.112826 0.314575,0.02085 0.429844,-0.142674 0.06884,-0.108233 0.09402,-0.232934 0.109719,-0.358169 0.0016,-0.01619 0.0031,-0.03238 0.0046,-0.04857 0.01306,-0.140816 -0.186085,-0.159287 -0.199145,-0.01847 v 0 c -0.0013,0.01416 -0.0027,0.02829 -0.004,0.04244 -0.0114,0.09327 -0.02678,0.187376 -0.07591,0.269267 -0.03255,0.04883 -0.06265,0.12456 -0.131124,0.107749 -0.123104,-0.09068 -0.144871,-0.305263 -0.185511,-0.441897 -0.0343,-0.137199 -0.228329,-0.08869 -0.194029,0.04851 z" />
    <path
       style="fill:#000000;stroke:none;stroke-width:0.264999"
       id="path119"
       d="m 17.498566,30.247635 c 0.0071,0.350096 0.08539,0.691721 0.148786,1.03438 0.03148,0.163026 0.05167,0.327896 0.07798,0.491739 0.07058,-0.01085 0.145925,-0.0048 0.211747,-0.03255 0.02102,-0.0088 0.01343,-0.0436 0.02064,-0.06523 0.02772,-0.08324 0.05737,-0.16064 0.09957,-0.237673 0.07192,-0.09836 0.182433,-0.145185 0.295602,-0.179014 0.06629,-0.0098 0.145078,-0.03866 0.209387,-0.0088 0.06082,0.02442 0.07872,0.08776 0.100271,0.145608 0.01998,0.07838 0.04716,0.169921 0.0059,0.245655 -0.07312,0.0876 -0.162538,0.131897 -0.269956,0.162454 -0.123743,0.02687 -0.249785,0.03125 -0.370205,-0.01027 -0.06047,-0.02278 -0.114809,-0.05909 -0.163866,-0.100742 -0.03332,-0.03073 0.0071,0.0068 -0.01,-0.0095 -0.100572,-0.09943 -0.24118,0.04281 -0.140608,0.142232 v 0 c 0.01325,0.01291 0.006,0.0061 0.02181,0.02032 0.06918,0.05784 0.145644,0.107479 0.231002,0.137967 0.160377,0.04978 0.324405,0.0519 0.488104,0.01193 0.162998,-0.04889 0.303276,-0.127061 0.397043,-0.274523 0.0522,-0.131472 0.04209,-0.26443 -0.0028,-0.397913 -0.04509,-0.112985 -0.100022,-0.220143 -0.222606,-0.262646 -0.110565,-0.03308 -0.220862,-0.02222 -0.332042,0.007 -0.163613,0.051 -0.316356,0.126768 -0.412911,0.275011 -0.04761,0.08873 -0.08285,0.177594 -0.114513,0.272989 -0.006,0.0182 -0.03203,0.0429 -0.0171,0.05495 0.04848,0.03914 0.115314,0.04726 0.172971,0.07088 -0.02686,-0.165296 -0.04667,-0.33179 -0.07876,-0.496261 -0.06201,-0.335026 -0.139231,-0.668956 -0.14589,-1.011293 -0.0094,-0.141107 -0.208964,-0.127804 -0.199557,0.01331 z" />
    <path
       style="fill:#000000;stroke:none;stroke-width:0.264999"
       id="path120"
       d="m 25.845469,29.532939 c -0.106689,0.131546 -0.224302,0.267619 -0.268009,0.435677 -0.0084,0.03217 -0.0111,0.06555 -0.01666,0.09832 -0.0098,0.120201 0.01147,0.269378 0.117126,0.347139 0.02008,0.01479 0.04417,0.02315 0.06626,0.03473 0.146742,0.04384 0.252729,-0.04895 0.342411,-0.152987 0.117209,-0.160806 0.144165,-0.354058 0.150753,-0.547775 0.0024,-0.122195 -0.01893,-0.243779 -0.06759,-0.355925 -0.07337,-0.100188 -0.08378,-0.0807 -0.209477,-0.04741 -0.10975,0.08919 0.01639,0.244401 0.126135,0.15521 v 0 c -0.06052,7.94e-4 -0.08081,0.01995 -0.09958,-0.02695 0.03836,0.08405 0.05152,0.177458 0.0506,0.269221 -0.0035,0.147958 -0.01957,0.29854 -0.103723,0.424685 -0.02712,0.03323 -0.06734,0.09114 -0.112047,0.09754 -0.04099,0.02606 -0.0765,-0.141356 -0.06314,-0.167396 0.02135,-0.170564 0.127229,-0.303641 0.236425,-0.431215 0.09396,-0.105699 -0.05553,-0.238573 -0.149481,-0.132872 z" />
    <path
       style="fill:#000000;stroke:none;stroke-width:0.264999"
       id="path121"
       d="m 26.236499,29.754425 c 0.09171,0.173905 0.178401,0.350554 0.298592,0.506873 0.115419,0.118178 0.234803,0.112053 0.348593,-5.3e-4 0.04009,-0.04312 0.05805,-0.09927 0.08257,-0.151545 0.0055,-0.01161 0.01113,-0.02315 0.01682,-0.03467 0.06265,-0.126786 -0.116651,-0.215389 -0.179303,-0.0886 v 0 c -0.0063,0.01275 -0.01255,0.02553 -0.01862,0.0384 -0.01581,0.03377 -0.02653,0.06857 -0.04649,0.09869 -0.0029,0.0038 -0.0059,0.0076 -0.0088,0.01148 -4.5e-4,0.0021 -1.02e-4,0.0048 -0.0013,0.0067 -0.0017,0.0027 -0.0077,0.0034 -0.0071,0.0065 10e-4,0.0052 0.01374,0.0076 0.01066,0.01193 -0.0084,0.01193 -0.0395,-0.03224 -0.0387,-0.02058 -0.112994,-0.145441 -0.19105,-0.312438 -0.277979,-0.474046 -0.06325,-0.126492 -0.242131,-0.03705 -0.178886,0.08944 z" />
    <path
       style="fill:#000000;stroke:none;stroke-width:0.264999"
       id="path122"
       d="m 27.314905,28.370096 c 0,0.311703 0,0.623408 0,0.935114 0,0.136533 0,0.273063 0,0.409596 0,0.05046 0,0.100923 0,0.151384 2.91e-4,0.105505 -0.01974,0.114559 0.19738,0.09745 0.0086,-7.93e-4 0.05671,-0.112654 0.05757,-0.114583 0.0485,-0.104915 0.103383,-0.20674 0.155517,-0.309864 0.01758,-0.02016 0.03112,-0.06482 0.06178,-0.07217 0.0075,-0.0019 0.01455,0.0056 0.02218,0.007 0.06615,0.0074 0.143805,0.02887 0.194165,0.07426 0.04333,0.05098 0.07394,0.101838 0.06384,0.169958 -0.0251,0.05456 -0.0846,0.07236 -0.138334,0.08701 -0.05704,0.0167 -0.114757,-0.0021 -0.171448,-0.01259 -0.05456,-0.01302 -0.105811,-0.01574 -0.16118,-0.0075 -0.137679,0.03232 -0.09198,0.227026 0.0457,0.194707 v 0 c -0.02227,-0.0068 0.07471,0.0065 0.07932,0.0095 0.0877,0.01609 0.176013,0.03624 0.264012,0.0078 0.136909,-0.04205 0.252893,-0.116179 0.281571,-0.26701 0.0036,-0.136572 -0.04227,-0.248848 -0.144136,-0.342326 -0.09515,-0.06575 -0.203666,-0.111553 -0.321093,-0.11363 -0.139306,0.01251 -0.187222,0.05821 -0.254947,0.174921 -0.05344,0.106172 -0.110222,0.210765 -0.159776,0.318855 -0.0067,0.01537 -0.01303,0.03089 -0.0201,0.04608 -0.0049,0.01058 -0.02511,0.0241 -0.01585,0.0312 0.189795,0.145264 0.162362,0.119427 0.163812,0.02093 0,-0.05046 0,-0.100923 0,-0.151384 0,-0.136533 0,-0.273063 0,-0.409596 0,-0.311706 0,-0.623411 0,-0.935114 0,-0.141423 -0.200001,-0.141423 -0.200001,0 z" />
    <path
       style="fill:#000000;stroke:none;stroke-width:0.264999"
       id="path123"
       d="m 30.099021,33.711229 c -0.185599,0.0131 -0.372239,0.02323 -0.544751,0.09708 -0.119186,0.05367 -0.205547,0.138242 -0.264521,0.252995 -0.05565,0.147426 -0.103216,0.298095 -0.146251,0.449691 -0.02838,0.145156 -0.05533,0.292539 -0.06589,0.440267 -0.01353,0.200792 0.05374,0.356012 0.164553,0.518512 0.127434,0.166682 0.301558,0.273902 0.485903,0.366302 0.167097,0.08268 0.352145,0.114131 0.534662,0.142616 0.163744,0.02561 0.329473,0.02893 0.494812,0.03132 0.166484,0.01172 0.328618,-0.01418 0.488583,-0.05811 0.163862,-0.05746 0.297669,-0.163444 0.404804,-0.297749 0.103744,-0.131427 0.166654,-0.280445 0.208911,-0.441037 0.05149,-0.155154 0.07241,-0.311772 0.06876,-0.474429 0.005,-0.151107 -0.05683,-0.283142 -0.121328,-0.415145 -0.06918,-0.124399 -0.156862,-0.237942 -0.258622,-0.33723 -0.09583,-0.09157 -0.205938,-0.166986 -0.32183,-0.2306 -0.139079,-0.0721 -0.27884,-0.143523 -0.42748,-0.193781 -0.119641,-0.03822 -0.244876,-0.0421 -0.369255,-0.04462 -0.156878,0.0092 -0.312858,0.0366 -0.456614,0.100621 -0.128106,0.05991 -0.04338,0.241078 0.08472,0.181171 v 0 c 0.11275,-0.05703 0.243729,-0.06815 0.367897,-0.08183 0.104098,0.0021 0.20923,0.0035 0.309721,0.0343 0.137984,0.0457 0.266596,0.114184 0.395802,0.180025 0.100515,0.0534 0.194562,0.12038 0.277714,0.198202 0.08573,0.08275 0.158818,0.178237 0.218246,0.281538 0.05196,0.106347 0.106462,0.20964 0.101082,0.332108 0.0037,0.144367 -0.01599,0.281807 -0.06243,0.419512 -0.03423,0.134692 -0.08644,0.258498 -0.173281,0.368544 -0.07659,0.10291 -0.180945,0.180644 -0.300382,0.227706 -0.141575,0.03993 -0.284611,0.06167 -0.432157,0.05083 -0.156006,-0.0021 -0.312412,-0.0049 -0.466939,-0.02896 -0.162063,-0.02513 -0.327137,-0.05128 -0.475877,-0.123835 -0.154138,-0.07706 -0.302031,-0.163031 -0.410756,-0.300959 -0.08652,-0.123886 -0.140399,-0.236688 -0.129655,-0.391961 0.0077,-0.133763 0.03585,-0.26705 0.05875,-0.398804 0.03971,-0.140491 0.08456,-0.279683 0.133845,-0.417073 0.03156,-0.07498 0.09438,-0.123058 0.166684,-0.157793 0.147085,-0.07209 0.320082,-0.06072 0.479176,-0.08011 0.140933,-0.01175 0.124324,-0.211055 -0.01661,-0.19931 z" />
    <path
       style="fill:#000000;stroke:none;stroke-width:0.264999"
       id="path124"
       d="m 30.385254,34.939078 c 0.07072,-0.200435 0.153849,-0.396007 0.240469,-0.589989 0.0195,-0.04214 0.03794,-0.08484 0.05899,-0.126249 -0.02364,0.04776 -0.107693,0.01122 -0.151725,0.03934 -0.01399,0.0089 0.01854,0.02753 0.02775,0.04133 0.0342,0.05127 0.06495,0.102679 0.09412,0.157022 0.06569,0.13425 0.132955,0.268658 0.184168,0.409292 0.01816,0.06445 0.04569,0.125325 0.0634,0.18987 0.0114,0.03409 0.01276,0.06937 0.01401,0.104902 4.23e-4,0.01299 5.29e-4,0.02601 2.61e-4,0.039 -0.0053,0.141322 0.194537,0.148846 0.199859,0.0075 v 0 c 4.76e-4,-0.01791 3.17e-4,-0.03585 -2.51e-4,-0.05376 -0.0019,-0.05104 -0.0057,-0.101968 -0.02113,-0.151027 -0.01945,-0.06977 -0.04814,-0.135848 -0.06839,-0.20538 -0.05514,-0.149421 -0.125281,-0.292976 -0.195985,-0.435507 -0.03187,-0.05864 -0.19571,-0.397627 -0.323242,-0.235453 -0.02338,0.04493 -0.04298,0.09174 -0.06448,0.137557 -0.08927,0.199964 -0.174855,0.401614 -0.247581,0.608285 -0.04472,0.134162 0.145015,0.197408 0.189736,0.06324 z" />
    <path
       style="fill:#000000;stroke:none;stroke-width:0.264999"
       id="path125"
       d="m 23.10541,32.235402 c -0.0038,0.233955 0.02358,0.467981 0.08451,0.69375 0.0484,0.155422 0.140389,0.28271 0.246247,0.40332 0.08815,0.09748 0.174389,0.196208 0.268928,0.287626 0.105339,0.0915 0.217377,0.174702 0.333358,0.252114 0.110532,0.06521 0.214145,0.14116 0.321087,0.211868 0.102517,0.06316 0.213448,0.108812 0.32516,0.152569 0.143166,0.04871 0.287368,0.09402 0.43149,0.139816 0.136218,0.04233 0.272351,0.08463 0.408597,0.12686 0.120079,0.03514 0.24272,0.05892 0.364726,0.08603 0.133791,0.03371 0.270646,0.04956 0.407996,0.05886 0.131031,0.0049 0.260694,0.02843 0.389507,0.05169 0.112834,0.02371 0.227072,0.03755 0.342071,0.04413 0.107841,0.01077 0.21385,-0.003 0.320325,-0.01855 0.122127,-0.01561 0.244646,-0.01947 0.366478,-0.0379 0.103818,-0.02045 0.209935,-0.02204 0.314195,-0.03811 0.08399,-0.0205 0.169737,-0.03126 0.255789,-0.03804 0.05086,-0.0041 0.101864,-0.0048 0.152855,-0.0049 0.07868,2.2e-5 0.157364,1.96e-4 0.236046,2.65e-4 0.0605,6.1e-5 0.120998,8.7e-5 0.181498,9.8e-5 0.05347,1.82e-4 0.02256,-0.0041 0.07088,0.01871 0.0089,0.0043 0.01859,0.0092 0.027,0.01381 -5.29e-4,-2.64e-4 -0.0011,-5.29e-4 -0.0016,-0.0011 0.120018,0.0748 0.225807,-0.09493 0.105789,-0.169733 v 0 c -0.0011,-7.94e-4 -0.0022,-0.0013 -0.0033,-0.0021 -0.014,-0.0079 -0.02832,-0.01527 -0.04286,-0.02214 -0.04937,-0.0231 -0.100038,-0.04341 -0.155833,-0.03766 -0.06044,-1e-5 -0.120885,-3.9e-5 -0.181327,-1e-4 -0.07895,-8.2e-5 -0.157906,-2.57e-4 -0.23686,-2.65e-4 -0.05609,1.75e-4 -0.112206,0.0011 -0.168152,0.0056 -0.09137,0.0074 -0.182643,0.01815 -0.271848,0.03998 -0.103134,0.01791 -0.209475,0.0154 -0.312248,0.0378 -0.121375,0.01849 -0.243662,0.02103 -0.365279,0.03772 -0.09333,0.0136 -0.185573,0.02712 -0.280208,0.01677 -0.106892,-0.006 -0.212998,-0.01913 -0.317847,-0.04128 -0.136121,-0.02455 -0.273172,-0.04895 -0.411615,-0.05442 -0.127341,-0.0085 -0.254194,-0.02307 -0.37818,-0.05459 -0.116678,-0.02574 -0.233896,-0.04847 -0.348762,-0.0818 -0.135801,-0.04207 -0.271481,-0.08421 -0.40724,-0.126434 -0.139956,-0.04445 -0.279949,-0.08855 -0.419104,-0.135427 -0.09871,-0.03866 -0.196984,-0.07821 -0.288,-0.13331 -0.106877,-0.07026 -0.209951,-0.146537 -0.320362,-0.211389 -0.106173,-0.07046 -0.208188,-0.146835 -0.305235,-0.229478 -0.09075,-0.08755 -0.173072,-0.182536 -0.25772,-0.275884 -0.08601,-0.0975 -0.16273,-0.198241 -0.203472,-0.323908 -0.05767,-0.208198 -0.08032,-0.42517 -0.07745,-0.641054 0,-0.141422 -0.199999,-0.141422 -0.199999,0 z" />
    <path
       style="fill:#000000;stroke:none;stroke-width:0.264999"
       id="path126"
       d="m 23.048611,32.366106 c -0.03476,0.1632 -0.07275,0.325702 -0.108912,0.488603 -0.01426,0.06517 -0.01757,0.131027 -0.03286,0.195765 -0.01151,0.05279 -0.02173,0.105847 -0.0311,0.159052 0.0028,-0.0091 -0.004,0.01868 -0.0024,0.01418 0.0039,-0.01077 0.01561,-0.02222 0.01081,-0.03264 -0.0039,-0.0084 -0.01047,0.01516 -0.01525,0.02305 -0.0324,0.05337 -0.03254,0.05648 -0.06277,0.115464 -0.04237,0.09403 -0.09839,0.189405 -0.100008,0.294815 0.06222,0.01876 0.121723,0.05403 0.186672,0.05623 0.05935,0.0021 0.133099,-0.261011 0.143333,-0.306943 0.03537,-0.197109 0.08251,-0.391697 0.121028,-0.588174 0.03013,-0.131532 0.0637,-0.262207 0.08967,-0.39465 0.0016,-0.0088 0.0025,-0.0177 0.0049,-0.02633 8.2e-4,-0.003 0.0016,0.0069 -3.17e-4,0.0094 -0.01208,0.01582 -0.02464,0.03182 -0.04042,0.04395 -0.0082,0.0063 -0.02827,-5.29e-4 -0.02958,0.0098 -0.0012,0.0098 0.01811,0.0078 0.02672,0.01254 0.01483,0.0082 0.02902,0.01749 0.04353,0.02622 0.196137,0.120137 0.386478,0.249328 0.575133,0.380815 0.08258,0.05688 0.160759,0.122171 0.223699,0.200689 0.0745,0.06483 0.05171,0.06154 0.162271,-0.13271 0.0074,-0.01304 -0.01482,-0.02606 -0.02223,-0.0391 -0.07196,-0.121746 -0.244132,-0.01998 -0.172177,0.101761 v 0 c 0.05051,0.07865 0.138591,-0.130151 0.187506,-0.05589 -0.07552,-0.09247 -0.166221,-0.171574 -0.264715,-0.238834 -0.193201,-0.134639 -0.388148,-0.266909 -0.589133,-0.389731 -0.111057,-0.0628 -0.269915,-0.130969 -0.301434,0.05897 -0.02592,0.132453 -0.05997,0.263022 -0.08967,0.394652 -0.03824,0.195419 -0.08522,0.388932 -0.120374,0.584975 -0.01184,0.05955 -0.03169,0.112308 -0.05185,0.169143 -0.0015,0.0043 -0.0091,0.0092 -0.0058,0.01238 0.03812,0.03601 0.08192,0.06548 0.122877,0.09822 -0.0092,0.04174 0.04865,-0.128977 0.05113,-0.134464 0.0087,-0.01918 0.01829,-0.0379 0.02744,-0.05685 0.02945,-0.05806 0.06924,-0.114101 0.08841,-0.176241 0.0087,-0.04948 0.01821,-0.09883 0.02882,-0.147939 0.0154,-0.06571 0.02075,-0.132009 0.03341,-0.198208 0.03712,-0.167179 0.07638,-0.333896 0.11134,-0.501539 0.02151,-0.139776 -0.17617,-0.170188 -0.197674,-0.03041 z" />
    <path
       style="fill:#000000;stroke:none;stroke-width:0.264999"
       id="path127"
       d="m 26.73414,32.339269 c -0.111326,0.132892 -0.259858,0.262567 -0.292591,0.441685 -0.006,0.03288 -0.0032,0.06677 -0.0049,0.100145 0.02386,0.208198 0.19898,0.291454 0.371202,0.364746 0.138823,0.04993 0.279968,0.09242 0.418539,0.143074 0.02732,0.01074 0.05812,0.02021 0.08199,0.0384 0.0015,0.0011 0.0035,0.0062 0.002,0.0052 -0.02097,-0.01355 -0.01192,-0.02193 -0.02114,-0.0096 -0.01761,0.07084 -0.06262,0.118901 -0.120981,0.158753 -0.07594,0.04626 -0.160292,0.06471 -0.247473,0.07303 -0.09237,-0.0021 -0.180415,-0.02307 -0.268099,-0.05006 -0.02132,-3.2e-5 -0.124475,-0.05505 -0.04448,-0.007 -0.09192,-0.107473 -0.243912,0.02252 -0.15199,0.129995 v 0 c 0.04468,0.03458 0.08236,0.0551 0.137765,0.06814 0.112877,0.03457 0.227684,0.05989 0.346607,0.05789 0.122315,-0.01257 0.239879,-0.04208 0.344576,-0.10977 0.111964,-0.08322 0.194736,-0.189029 0.203682,-0.333592 -0.01859,-0.140563 -0.07315,-0.163179 -0.193786,-0.209323 -0.13537,-0.04945 -0.27302,-0.09161 -0.408989,-0.139303 -0.0639,-0.02709 -0.199763,-0.07257 -0.237099,-0.137887 -0.0069,-0.01199 -0.0082,-0.02635 -0.01232,-0.03954 -0.002,-0.04068 -0.0074,-0.06486 0.0093,-0.104717 0.05023,-0.119679 0.159047,-0.208074 0.23767,-0.307478 0.09396,-0.105698 -0.05553,-0.238572 -0.149482,-0.132871 z" />
    <path
       style="fill:#000000;stroke:none;stroke-width:0.264999"
       id="path128"
       d="m 26.858854,32.568157 c 0.141497,-0.05916 0.283863,-0.07888 0.434415,-0.05631 0.04068,0.0044 0.04682,0.02572 0.07852,0.04892 0.0174,0.01198 0.03591,0.0222 0.0557,0.02958 0.133529,0.04659 0.199409,-0.142253 0.06588,-0.188838 v 0 c 0.01211,0.0051 -0.0032,-0.0013 -0.0056,-0.0037 -0.05324,-0.03459 -0.09479,-0.08377 -0.165906,-0.08393 -0.18111,-0.0254 -0.355889,-0.0055 -0.52626,0.06452 -0.134164,0.04472 -0.07092,0.234458 0.06324,0.189736 z" />
    <path
       style="fill:#000000;stroke:none;stroke-width:0.264999"
       id="path129"
       d="m 32.206031,34.700416 c 0.210905,0.0011 0.421161,-0.0208 0.63151,-0.03409 0.127516,-0.0019 0.252704,-0.01347 0.378135,-0.03525 0.101824,-0.01878 0.201514,-0.04437 0.304461,-0.05757 0.09054,-0.01011 0.181687,-0.01254 0.272709,-0.01363 0.09606,-5.29e-4 0.192124,-1.3e-4 0.288189,3e-6 0.128754,0.0058 0.259149,-0.0095 0.387345,0.0053 0.0898,0.0159 0.179874,0.02922 0.270822,0.03618 0.127556,0.0077 0.254307,0.0286 0.380013,0.05145 0.143447,0.02577 0.288663,0.0386 0.434142,0.04454 0.173812,0.02072 0.348281,0.03335 0.52307,0.0418 0.12251,0.01963 0.253794,-0.01244 0.37514,0.0127 0.02761,0.0095 0.05531,0.01868 0.08236,0.02969 0.0019,5.29e-4 0.0036,0.0016 0.0055,0.0024 0.129259,0.05737 0.210399,-0.125428 0.08114,-0.182803 v 0 c -0.0071,-0.0031 -0.0033,-0.0016 -0.01146,-0.0049 -0.04113,-0.01662 -0.08311,-0.0314 -0.126259,-0.04188 -0.131091,-0.01794 -0.264917,-0.0036 -0.396732,-0.01492 -0.175326,-0.0084 -0.350219,-0.02177 -0.524627,-0.04187 -0.136207,-0.0054 -0.272169,-0.01744 -0.406476,-0.04149 -0.13258,-0.02408 -0.266293,-0.04563 -0.400807,-0.05411 -0.08913,-0.0065 -0.17712,-0.02109 -0.265226,-0.03568 -0.135385,-0.01288 -0.271775,-0.0032 -0.40762,-0.0063 -0.09697,-1.35e-4 -0.193948,-5.29e-4 -0.29092,1.3e-5 -0.09879,0.0013 -0.19771,0.004 -0.29595,0.01527 -0.105764,0.01381 -0.208489,0.03904 -0.312981,0.05886 -0.118311,0.02056 -0.23618,0.0312 -0.356552,0.0327 -0.206145,0.01304 -0.412202,0.03446 -0.618879,0.0337 -0.141423,0 -0.141423,0.200001 0,0.200001 z" />
    <path
       style="fill:#000000;stroke:none;stroke-width:0.264999"
       id="path130"
       d="m 32.165708,34.589759 c 0.173713,-0.12768 0.345657,-0.257672 0.519317,-0.385418 0.09571,-0.06322 0.165179,-0.153001 0.221641,-0.251206 0.03329,-0.07344 0.02262,-0.01937 -0.0117,-0.0049 -0.131971,-0.131828 -0.08811,-0.171294 -0.142642,-0.104796 -0.08831,0.110464 0.06791,0.235347 0.156218,0.124886 v 0 c 0.06806,-0.08649 0.03299,-0.02098 -0.06214,-0.214106 -0.05267,0.01537 -0.09259,0.04779 -0.113446,0.09975 -0.04216,0.07459 -0.09306,0.14243 -0.16647,0.189253 -0.173347,0.127551 -0.344993,0.257329 -0.518427,0.384768 -0.114372,0.08318 0.0033,0.244928 0.117633,0.161748 z" />
    <path
       style="fill:#000000;stroke:none;stroke-width:0.264999"
       id="path131"
       d="m 31.884676,34.627936 c 0.187462,0.174993 0.386204,0.33768 0.585436,0.499012 0.08217,0.06596 0.164515,0.131702 0.247694,0.196379 0.007,0.0055 0.0141,0.01087 0.02125,0.01614 0.115138,0.08212 0.231269,-0.08071 0.116133,-0.162828 v 0 c -0.0049,-0.0037 -0.0098,-0.0074 -0.01463,-0.01122 -0.08215,-0.06387 -0.163471,-0.12881 -0.244624,-0.193945 -0.193865,-0.156853 -0.387061,-0.31524 -0.569849,-0.484976 -0.1,-0.1 -0.241421,0.04142 -0.141419,0.141423 z" />
    <path
       style="fill:#000000;stroke:none;stroke-width:0.264999"
       id="path132"
       d="m 36.565959,34.70334 c 0.08217,0.197741 0.177388,0.390342 0.286925,0.574331 0.08654,0.146486 0.201488,0.264781 0.336817,0.365778 0.149956,0.110353 0.326877,0.167415 0.502201,0.222724 0.204877,0.06672 0.418877,0.06111 0.6292,0.0301 0.20587,-0.03723 0.392684,-0.119351 0.563597,-0.238111 0.215543,-0.167434 0.355621,-0.403072 0.466172,-0.648105 0.110122,-0.289267 0.11285,-0.504878 0.03748,-0.800373 -0.06518,-0.222787 -0.200133,-0.404955 -0.366188,-0.56248 -0.178599,-0.161052 -0.407919,-0.19944 -0.63963,-0.209108 -0.345599,-0.0011 -0.673526,0.09818 -0.995027,0.214288 -0.244509,0.09144 -0.451839,0.189548 -0.634876,0.377823 -0.141549,0.151042 -0.188764,0.296722 -0.198744,0.499475 -0.0039,0.09972 0.01408,0.198662 0.0086,0.298159 -0.0061,0.141287 0.193672,0.149968 0.19981,0.0087 v 0 c 0.0035,-0.0997 -0.0084,-0.198337 -0.0086,-0.298087 0.0056,-0.152591 0.03554,-0.255379 0.143266,-0.369779 0.152985,-0.162288 0.352002,-0.250219 0.558562,-0.328192 0.29731,-0.107678 0.599975,-0.201732 0.919732,-0.202499 0.182475,0.0055 0.367583,0.02976 0.509844,0.154887 0.139657,0.13017 0.253637,0.281731 0.309644,0.46699 0.06434,0.243893 0.06495,0.428334 -0.02643,0.668525 -0.09422,0.212553 -0.214452,0.418693 -0.39851,0.566089 -0.14447,0.102653 -0.303699,0.170844 -0.478464,0.204044 -0.179999,0.02775 -0.363718,0.03391 -0.539285,-0.02307 -0.153979,-0.04855 -0.310623,-0.09628 -0.442962,-0.192442 -0.114565,-0.08495 -0.211582,-0.183716 -0.28451,-0.307888 -0.10628,-0.177247 -0.196932,-0.363874 -0.27655,-0.554527 -0.05852,-0.128746 -0.240594,-0.04599 -0.182073,0.08276 z" />
    <path
       style="fill:#000000;stroke:none;stroke-width:0.264999"
       id="path133"
       d="m 36.864626,34.737468 c 0.02077,0.0431 0.04286,0.08555 0.06527,0.12782 0.02413,0.04138 0.04953,0.08194 0.07862,0.120018 0.02318,0.02923 0.04886,0.05632 0.07601,0.08185 0.02853,0.02535 0.05619,0.05162 0.08616,0.07528 0.03177,0.02537 0.06899,0.04215 0.104526,0.06133 0.02733,0.01558 0.05548,0.02966 0.08229,0.04614 0.02278,0.01225 0.04339,0.02783 0.06422,0.04303 0.03654,0.02696 0.07655,0.04815 0.117107,0.06827 0.04211,0.02003 0.08625,0.03523 0.129527,0.05251 0.03418,0.01347 0.06801,0.02778 0.101965,0.0418 0.03754,0.01553 0.07676,0.02426 0.116964,0.02905 0.0435,0.0051 0.08705,0.0028 0.130456,-0.0016 0.05093,-0.0057 0.101634,-0.01304 0.151945,-0.02278 0.04079,-0.0076 0.08176,-0.01418 0.122677,-0.02111 0.04138,-0.0081 0.08308,-0.01445 0.12469,-0.02125 0.05412,-0.0079 0.105008,-0.02661 0.154792,-0.04844 0.05102,-0.02304 0.09375,-0.05892 0.136271,-0.0945 0.03759,-0.03313 0.07392,-0.06761 0.108857,-0.103523 0.0384,-0.04146 0.06954,-0.08894 0.100727,-0.13588 0.03267,-0.04548 0.06323,-0.09206 0.08766,-0.142502 0.0232,-0.04981 0.03871,-0.102663 0.04994,-0.15631 0.0088,-0.0649 0.0087,-0.130686 0.0021,-0.195752 -0.0066,-0.05674 -0.0226,-0.111207 -0.04262,-0.164484 -0.02056,-0.0491 -0.04594,-0.09606 -0.07164,-0.142621 -0.0173,-0.03202 -0.03583,-0.06341 -0.0557,-0.0939 -0.02191,-0.03532 -0.04629,-0.06876 -0.07303,-0.100547 -0.03488,-0.04347 -0.07991,-0.07561 -0.126664,-0.104945 -0.04334,-0.02498 -0.09034,-0.04235 -0.137798,-0.05761 -0.03279,-0.0117 -0.06705,-0.0181 -0.100586,-0.02705 -0.03856,-0.01071 -0.07851,-0.01392 -0.118306,-0.01585 -0.04046,-0.0024 -0.0808,-0.0011 -0.121092,0.003 -0.03596,0.004 -0.0706,0.01476 -0.106111,0.02109 -0.03504,0.0073 -0.0703,0.01344 -0.105548,0.01969 -0.03497,0.0073 -0.06989,0.01479 -0.104947,0.02167 -0.03374,0.0059 -0.06727,0.01312 -0.100647,0.02082 -0.03897,0.009 -0.07725,0.02109 -0.114612,0.03534 -0.04816,0.02283 -0.09465,0.04917 -0.14011,0.07698 -0.04107,0.02244 -0.07834,0.0506 -0.115859,0.07834 -0.03336,0.02421 -0.06477,0.05092 -0.09734,0.07614 -0.03161,0.02291 -0.06038,0.04922 -0.08897,0.0757 -0.02429,0.02532 -0.05028,0.04883 -0.07335,0.07529 -0.01699,0.02077 -0.03538,0.04038 -0.05323,0.06044 -0.02715,0.02773 -0.04688,0.06119 -0.06551,0.09491 -0.02013,0.03551 -0.03349,0.07429 -0.04576,0.113067 -0.0078,0.02821 -0.004,0.0113 -0.0087,0.0512 -0.007,0.141248 0.192717,0.151196 0.199753,0.0099 v 0 c -0.0037,0.01127 -0.0034,0.01095 -2.28e-4,-0.0013 0.0081,-0.02606 0.01659,-0.05241 0.03002,-0.07628 0.01148,-0.02082 0.02249,-0.04198 0.03985,-0.05864 0.01879,-0.02114 0.03804,-0.04187 0.05604,-0.06366 0.01699,-0.0213 0.03942,-0.03769 0.05715,-0.05839 0.02424,-0.02252 0.04852,-0.04499 0.07551,-0.06428 0.03134,-0.02434 0.06165,-0.04997 0.09371,-0.07339 0.0329,-0.02434 0.06535,-0.04931 0.101571,-0.06869 0.03524,-0.02175 0.07155,-0.04152 0.10805,-0.06105 0.02822,-0.01143 0.0578,-0.01963 0.08731,-0.02689 0.03113,-0.0073 0.06248,-0.01386 0.09398,-0.01939 0.03381,-0.0067 0.0675,-0.01381 0.10119,-0.02098 0.0358,-0.0063 0.07161,-0.01259 0.107207,-0.01998 0.02985,-0.0057 0.05918,-0.01349 0.08913,-0.01868 0.03071,-0.003 0.06137,-0.0042 0.09223,-0.0024 0.02585,0.0011 0.05193,0.0026 0.07698,0.0096 0.03028,0.0078 0.06105,0.01389 0.09064,0.02418 0.03161,0.0099 0.06284,0.02135 0.09231,0.03656 0.02937,0.01831 0.05857,0.03694 0.08014,0.06468 0.0218,0.02545 0.04084,0.05282 0.05858,0.08124 0.01741,0.02601 0.03272,0.05346 0.04782,0.08086 0.02122,0.03811 0.04185,0.07675 0.05958,0.116617 0.01423,0.03704 0.02566,0.07478 0.0307,0.114295 0.005,0.04483 0.0042,0.09002 7.93e-4,0.134975 -0.0074,0.03797 -0.01873,0.07525 -0.03466,0.110569 -0.01934,0.04233 -0.04764,0.07931 -0.07363,0.117671 -0.02432,0.03669 -0.04842,0.07396 -0.07752,0.107092 -0.03012,0.03103 -0.06151,0.06076 -0.09379,0.08953 -0.02804,0.02347 -0.05531,0.0484 -0.08836,0.06477 -0.03441,0.01516 -0.06908,0.02914 -0.106707,0.03418 -0.04196,0.0069 -0.08404,0.0132 -0.125769,0.02143 -0.04252,0.0072 -0.0851,0.01408 -0.127492,0.02201 -0.04459,0.0088 -0.08959,0.01503 -0.134732,0.02019 -0.0291,0.0033 -0.0582,0.0051 -0.08742,0.0019 -0.02172,-0.0021 -0.04247,-0.0069 -0.06274,-0.01516 -0.03467,-0.01426 -0.06916,-0.02891 -0.104042,-0.04264 -0.03831,-0.01529 -0.07731,-0.02887 -0.114863,-0.04596 -0.03042,-0.01505 -0.06069,-0.03034 -0.08805,-0.05065 -0.02529,-0.01844 -0.05054,-0.03708 -0.078,-0.05223 -0.03002,-0.01818 -0.06111,-0.03435 -0.0917,-0.05153 -0.02569,-0.01376 -0.05285,-0.02551 -0.07628,-0.04292 -0.02577,-0.01958 -0.04826,-0.04308 -0.07292,-0.06401 -0.01942,-0.01765 -0.03704,-0.03722 -0.05375,-0.05742 -0.0226,-0.02891 -0.04122,-0.06046 -0.06038,-0.09168 -0.02053,-0.03865 -0.04067,-0.07751 -0.05987,-0.116846 -0.05852,-0.128746 -0.240596,-0.04598 -0.182075,0.08276 z" />
    <path
       style="fill:#000000;stroke:none;stroke-width:0.264999"
       id="path134"
       d="m 37.812015,34.557488 c 0.0031,-0.01741 0.0049,-0.03533 0.01013,-0.0523 0.0044,-0.01442 0.0131,-0.02878 0.01958,-0.04224 0.0096,-0.01884 0.02299,-0.03532 0.03943,-0.04857 0.01881,-0.01254 0.0364,-0.02675 0.05637,-0.03745 0.01336,-0.0048 0.02872,-0.01098 0.04312,-0.0096 0.0089,2.3e-5 0.01773,0.0024 0.02619,0.0053 5.3e-4,1.43e-4 2.39e-4,0.0011 5.3e-4,0.0011 0.0019,0.0013 0.0042,0.0021 0.0062,0.0034 0.01482,0.0087 0.02918,0.01849 0.04229,0.0296 0.0079,0.0067 0.0085,0.0039 0.0066,0.0083 0.0054,0.02016 0.0088,0.04085 0.0091,0.06182 -0.0047,0.0336 -0.01931,0.06537 -0.03187,0.09671 -0.01815,0.04525 -0.04539,0.08597 -0.07059,0.127458 -0.02021,0.03272 -0.04243,0.06411 -0.06674,0.09389 -0.01926,0.02223 -0.03902,0.04408 -0.05945,0.06523 -0.0182,0.01849 -0.03633,0.03712 -0.05284,0.05717 -0.0013,0.0016 -0.01312,0.01707 -0.01286,0.01728 0.152842,0.129435 0.203417,0.08001 0.151625,0.128561 0.0172,0.01042 -0.02685,0.0062 -0.02117,0.01193 2.2e-4,2.22e-4 0.02577,-0.0052 0.03437,-0.0062 0.03644,-0.0027 0.07257,-0.0083 0.108394,-0.01537 0.02816,-0.0071 0.05683,-0.0097 0.08574,-0.01106 0.04058,-0.0027 0.08109,-0.0062 0.121711,-0.0081 0.02453,-0.0011 0.04909,-0.0013 0.07364,-0.0013 0.0267,-2.1e-5 0.05339,1.9e-5 0.08008,3.7e-5 0.02614,7.94e-4 0.05216,-0.0028 0.07757,-0.0087 0.0857,-0.02297 0.0077,-0.03355 -0.0834,-0.174398 -0.112617,0.08554 0.0084,0.244806 0.120975,0.159266 v 0 c -0.03781,-0.06925 -0.160808,-0.160263 -0.08417,-0.179366 -0.01,0.0028 -0.02048,0.0037 -0.03084,0.0032 -0.02694,-1.8e-5 -0.05389,-5.8e-5 -0.08083,-3.4e-5 -0.02749,8.4e-5 -0.055,2.64e-4 -0.08248,0.0016 -0.04063,0.0019 -0.08116,0.0052 -0.121735,0.0081 -0.03896,0.0019 -0.07774,0.0056 -0.115768,0.01476 -0.03076,0.0064 -0.06197,0.01037 -0.09327,0.01294 -0.03748,0.0048 -0.07516,0.01111 -0.107592,0.03184 -0.0042,0.0033 -0.01614,0.006 -0.01254,0.0099 0.107855,0.116096 0.116885,0.172537 0.147307,0.131847 0.0131,-0.01619 0.0282,-0.0306 0.0426,-0.0456 0.02397,-0.02521 0.0477,-0.05074 0.07014,-0.07735 0.02994,-0.03697 0.05763,-0.07568 0.08251,-0.116261 0.03089,-0.05095 0.06358,-0.10128 0.08535,-0.157059 0.02297,-0.0577 0.04692,-0.116592 0.04592,-0.179803 -0.0036,-0.06285 -0.01521,-0.124733 -0.05228,-0.177271 -0.0074,-0.0085 -0.01429,-0.01757 -0.02215,-0.02566 -0.02715,-0.02801 -0.06224,-0.04821 -0.0956,-0.0676 -0.04207,-0.01987 -0.0865,-0.03251 -0.133543,-0.02978 -0.04412,0.0038 -0.08771,0.0131 -0.127127,0.03419 -0.03215,0.01802 -0.06213,0.0395 -0.09131,0.06197 -0.03579,0.03213 -0.06702,0.06865 -0.08797,0.112392 -0.02302,0.04804 -0.04134,0.09487 -0.04677,0.148373 -0.02326,0.139496 0.174027,0.172376 0.197279,0.03288 z" />
    <path
       style="fill:#000000;stroke:none;stroke-width:0.264999"
       id="path135"
       d="m 34.963325,31.793571 c -0.136059,0.01233 -0.274309,0.01315 -0.407138,0.04908 -0.02899,0.0078 -0.05975,0.0132 -0.08533,0.02896 -0.03418,0.02106 -0.06038,0.05292 -0.09057,0.07938 -0.01627,0.0351 -0.03803,0.06814 -0.0488,0.105288 -0.04493,0.154908 0.01482,0.321271 0.111056,0.442675 0.02532,0.03192 0.05601,0.05918 0.08401,0.08877 0.197803,0.14368 0.401564,0.274728 0.568886,0.454983 -0.02363,-0.07617 0.104672,0.143335 0.06858,0.115655 -0.03482,-0.02671 0.02257,-0.03321 -0.08313,-0.01905 -0.199917,0.02093 -0.401746,-0.0039 -0.601118,-0.02228 -0.0245,-0.02914 -0.08533,0.01574 -0.108606,-0.01439 -0.133575,-0.04646 -0.199271,0.142446 -0.0657,0.188901 v 0 c 0.05161,0.0149 0.102007,0.02233 0.155993,0.02466 0.220903,0.02032 0.444912,0.04796 0.665988,0.01762 0.07834,-0.0226 0.147912,-0.02702 0.199212,-0.101095 0.08438,-0.121832 -0.0062,-0.236926 -0.08512,-0.326583 -0.168963,-0.179671 -0.366811,-0.320802 -0.571214,-0.457433 -0.103971,-0.104423 -0.181351,-0.204734 -0.144884,-0.360116 0.0038,-0.0094 0.003,-0.02238 0.01135,-0.02815 0.08849,-0.06143 0.336346,-0.05109 0.443129,-0.06755 0.140933,-0.01175 0.124323,-0.211053 -0.01661,-0.199308 z" />
    <path
       style="fill:#000000;stroke:none;stroke-width:0.264999"
       id="path136"
       d="m 34.643571,31.524053 c -0.07697,0.457761 -0.106871,0.922396 -0.137917,1.385142 -0.0145,0.234693 -0.02804,0.469498 -0.03488,0.704556 -5.29e-4,0.02106 -0.0013,0.04214 -5.29e-4,0.0632 0.0054,0.14132 0.205245,0.133694 0.199855,-0.0076 v 0 c -2.56e-4,-0.01656 2.65e-4,-0.03319 5.3e-4,-0.04977 0.0067,-0.232531 0.02021,-0.464809 0.03451,-0.696981 0.03038,-0.453181 0.0597,-0.908153 0.133922,-1.356617 0.02963,-0.138281 -0.165928,-0.180189 -0.195559,-0.04191 z" />
    <path
       style="fill:#000000;stroke:none;stroke-width:0.264999"
       id="path137"
       d="m 22.573392,20.521551 c -0.218041,0.145836 -0.421067,0.331161 -0.566842,0.551458 -0.02392,0.03615 -0.04202,0.07583 -0.06303,0.113745 -0.0087,0.03951 -0.0262,0.07807 -0.02613,0.118536 3.97e-4,0.239532 0.231058,0.265758 0.412225,0.259455 0.09348,-0.01527 0.341537,-0.0089 0.06087,-0.154969 -0.01717,-0.0089 -0.02383,0.0305 -0.03575,0.04575 -0.146052,0.18388 -0.28322,0.380225 -0.361237,0.603962 -0.01542,0.04421 -0.02492,0.09028 -0.03737,0.135414 0.0021,0.0482 -0.0035,0.09736 0.0063,0.144592 0.034,0.163695 0.167257,0.261683 0.337339,0.234823 0.124468,-0.01966 0.254285,-0.113557 0.357426,-0.177149 0.157825,-0.108011 0.303249,-0.232212 0.444627,-0.360548 0.104681,-0.09509 -0.0298,-0.243128 -0.134476,-0.14804 v 0 c -0.132438,0.120388 -0.268618,0.236945 -0.416031,0.338913 -0.04089,0.02588 -0.293153,0.210698 -0.357325,0.152773 -0.03699,-0.03339 -0.03762,-0.09002 -0.04479,-0.133334 0.06576,-0.251595 0.19846,-0.471699 0.364819,-0.67051 0.08111,-0.109093 0.07966,-0.06522 -0.03863,-0.239543 -0.0026,-0.0039 -0.146675,0.03913 -0.154535,0.02806 -0.02292,0.0013 -0.199534,0.01291 -0.206552,-0.02492 -0.0035,-0.01905 0.0033,-0.03863 0.005,-0.05795 0.126465,-0.240146 0.331551,-0.436859 0.554824,-0.587772 0.122157,-0.07126 0.02138,-0.244012 -0.100774,-0.172754 z" />
    <path
       style="fill:#000000;stroke:none;stroke-width:0.264999"
       id="path138"
       d="m 29.233961,22.627177 c 0.282014,-0.314378 0.587965,-0.604785 0.903597,-0.884822 0.135978,-0.142145 0.317624,-0.241615 0.442516,-0.394483 0.08563,-0.112546 -0.07353,-0.233651 -0.159164,-0.121106 v 0 c -0.01666,0.02982 -0.0052,0.01191 -0.0571,0.05707 -0.11906,0.103648 -0.241811,0.203092 -0.358995,0.308923 -0.32074,0.284633 -0.631627,0.579834 -0.918286,0.899273 -0.09556,0.104252 0.05187,0.239395 0.147431,0.135147 z" />
    <path
       style="fill:#000000;stroke:none;stroke-width:0.264999"
       id="path139"
       d="m 29.173926,21.362728 c 0.321776,0.239985 0.625087,0.503367 0.929992,0.764127 0.10619,0.09108 0.212175,0.182478 0.315049,0.277307 0.103994,0.09584 0.239532,-0.05123 0.135538,-0.147068 v 0 C 30.449792,22.160614 30.342,22.067517 30.233908,21.97486 c -0.310951,-0.26593 -0.620225,-0.534657 -0.949042,-0.778542 -0.117669,-0.07845 -0.228609,0.08796 -0.11094,0.16641 z" />
    <path
       style="fill:#000000;stroke:none;stroke-width:0.264999"
       id="path140"
       d="m 37.718439,21.208812 c -0.136607,0.15181 -0.23832,0.341053 -0.226295,0.551997 0.008,0.140415 0.04623,0.205166 0.09769,0.332119 0.0928,0.169777 0.208166,0.325159 0.304977,0.492524 0.04665,0.08065 0.107564,0.186002 0.130384,0.279554 0.0074,0.03026 0.0035,0.06219 0.0053,0.09328 -0.148132,0.07589 -0.351226,0.05127 -0.508359,0.01635 -0.05163,-0.01177 -0.121928,-0.03817 -0.159459,-0.06231 -0.106178,-0.09342 -0.238289,0.05674 -0.132112,0.150154 v 0 c 0.07368,0.05671 0.160017,0.08471 0.249759,0.107741 0.194815,0.04036 0.535019,0.0827 0.684289,-0.08642 0.03497,-0.03962 0.04331,-0.09641 0.06497,-0.144616 -0.0059,-0.04869 -0.0054,-0.0986 -0.0177,-0.146068 -0.07206,-0.277355 -0.304721,-0.526775 -0.437394,-0.777145 -0.01783,-0.04131 -0.03894,-0.08136 -0.05348,-0.123934 -0.06886,-0.201583 -7.93e-4,-0.389421 0.138904,-0.541811 0.1,-0.1 -0.04142,-0.241421 -0.141422,-0.141422 z" />
    <path
       style="fill:#000000;stroke:none;stroke-width:0.264999"
       id="path141"
       d="m 37.828329,20.966877 c -0.06533,0.624189 -0.08329,1.252159 -0.124108,1.878264 -0.02103,0.157649 -0.01871,0.320339 -0.06152,0.474768 -0.004,0.01453 -0.03013,0.0346 -0.01696,0.04196 0.01307,0.0073 0.01595,-0.02537 0.02395,-0.03806 -0.115856,0.0811 -0.0011,0.244946 0.114694,0.163843 v 0 c 0.01617,-0.01842 0.0361,-0.03415 0.04853,-0.05528 0.08384,-0.142486 0.05703,-0.420786 0.09089,-0.574225 0.04051,-0.62162 0.05854,-1.245069 0.122778,-1.864839 0.01868,-0.140182 -0.179554,-0.166614 -0.198247,-0.02643 z" />
  </g>
</svg>
